<?xml version="1.0" encoding="utf-8"?>
<!-- Generated by Mocodo 4.3.3 -->
<svg width="551" height="635" viewBox="0 0 551 635" xmlns="http://www.w3.org/2000/svg">
<rect x="0" y="0" width="551" height="635" fill="#f5f5f5" stroke="none" stroke-width="0"/>

<!-- Association RECEIVES -->
<g>
	<line x1="230" y1="124" x2="230" y2="292" stroke="#bf812d" stroke-width="1"/>
	<line x1="230" y1="503" x2="230" y2="292" stroke="#bf812d" stroke-width="1"/>
	<g>
		<path d="M263 263 a14 14 90 0 1 14 14 V291 h-94 V277 a14 14 90 0 1 14 -14" fill="#dfc27d" stroke="#dfc27d" stroke-width="0"/>
		<path d="M277 291 v16 a14 14 90 0 1 -14 14 H197 a14 14 90 0 1 -14 -14 V291 H94" fill="#f6e8c3" stroke="#f6e8c3" stroke-width="0"/>
		<rect x="183" y="263" width="94" height="58" fill="none" rx="14" stroke="#bf812d" stroke-width="1.5"/>
		<line x1="183" y1="291" x2="277" y2="291" stroke="#bf812d" stroke-width="1.5"/>
		<text x="190" y="284.3" fill="#000000" font-family="Copperplate" font-size="18">Receives</text>
	</g>
	<text x="235" y="195" fill="#01665e" font-family="Futura" font-size="11">1,1</text>
	<text x="206" y="372" fill="#01665e" font-family="Futura" font-size="11">0,N</text>
</g>

<!-- Association PERFORMS -->
<g>
	<line x1="382" y1="124" x2="382" y2="292" stroke="#bf812d" stroke-width="1"/>
	<line x1="230" y1="503" x2="382" y2="292" stroke="#bf812d" stroke-width="1"/>
	<g>
		<path d="M420 263 a14 14 90 0 1 14 14 V291 h-104 V277 a14 14 90 0 1 14 -14" fill="#dfc27d" stroke="#dfc27d" stroke-width="0"/>
		<path d="M434 291 v16 a14 14 90 0 1 -14 14 H344 a14 14 90 0 1 -14 -14 V291 H104" fill="#f6e8c3" stroke="#f6e8c3" stroke-width="0"/>
		<rect x="330" y="263" width="104" height="58" fill="none" rx="14" stroke="#bf812d" stroke-width="1.5"/>
		<line x1="330" y1="291" x2="434" y2="291" stroke="#bf812d" stroke-width="1.5"/>
		<text x="338" y="284.3" fill="#000000" font-family="Copperplate" font-size="18">Performs</text>
	</g>
	<text x="387" y="255" fill="#01665e" font-family="Futura" font-size="11">0,1</text>
	<text x="313" y="405.26" fill="#01665e" font-family="Futura" font-size="11">0,N</text>
</g>

<!-- Association REQUESTS -->
<g>
	<line x1="73" y1="292" x2="73" y2="503" stroke="#bf812d" stroke-width="1"/>
	<line x1="230" y1="503" x2="73" y2="503" stroke="#bf812d" stroke-width="1"/>
	<g>
		<path d="M109 474 a14 14 90 0 1 14 14 V502 h-100 V488 a14 14 90 0 1 14 -14" fill="#dfc27d" stroke="#dfc27d" stroke-width="0"/>
		<path d="M123 502 v16 a14 14 90 0 1 -14 14 H37 a14 14 90 0 1 -14 -14 V502 H100" fill="#f6e8c3" stroke="#f6e8c3" stroke-width="0"/>
		<rect x="23" y="474" width="100" height="58" fill="none" rx="14" stroke="#bf812d" stroke-width="1.5"/>
		<line x1="23" y1="502" x2="123" y2="502" stroke="#bf812d" stroke-width="1.5"/>
		<text x="30" y="495.3" fill="#000000" font-family="Copperplate" font-size="18">Requests</text>
	</g>
	<text x="78" y="372" fill="#01665e" font-family="Futura" font-size="11">1,1</text>
	<text x="128" y="519" fill="#01665e" font-family="Futura" font-size="11">0,N</text>
</g>

<!-- Association HOLDS -->
<g>
	<line x1="230" y1="503" x2="382" y2="503" stroke="#bf812d" stroke-width="1"/>
	<line x1="499" y1="503" x2="382" y2="503" stroke="#bf812d" stroke-width="1"/>
	<g>
		<path d="M413 466 a14 14 90 0 1 14 14 V494 h-90 V480 a14 14 90 0 1 14 -14" fill="#dfc27d" stroke="#dfc27d" stroke-width="0"/>
		<path d="M427 494 v32 a14 14 90 0 1 -14 14 H351 a14 14 90 0 1 -14 -14 V494 H90" fill="#f6e8c3" stroke="#f6e8c3" stroke-width="0"/>
		<rect x="337" y="466" width="90" height="74" fill="none" rx="14" stroke="#bf812d" stroke-width="1.5"/>
		<line x1="337" y1="494" x2="427" y2="494" stroke="#bf812d" stroke-width="1.5"/>
		<text x="354" y="487.3" fill="#000000" font-family="Copperplate" font-size="18">Holds</text>
		<text x="344" y="512.1" fill="#000000" font-family="Gill Sans" font-size="15">assigned_at</text>
		<text x="344" y="529.1" fill="#000000" font-family="Gill Sans" font-size="15">assigned_by</text>
	</g>
	<text x="313" y="519" fill="#01665e" font-family="Futura" font-size="11">0,N</text>
	<text x="432" y="519" fill="#01665e" font-family="Futura" font-size="11">0,N</text>
</g>

<!-- Entity EMAIL_TOKEN -->
<g>
	<g>
		<rect x="166" y="69" width="128" height="30" fill="#80cdc1" stroke="none" stroke-width="0" opacity="1"/>
		<rect x="166" y="99" width="128" height="80" fill="#c7eae5" stroke="none" stroke-width="0" opacity="1"/>
		<rect x="166" y="69" width="128" height="110" fill="none" stroke="#35978f" stroke-width="1.5" opacity="1"/>
		<line x1="166" y1="99" x2="294" y2="99" stroke="#35978f" stroke-width="1.5"/>
	</g>
	<text x="175" y="90.3" fill="#000000" font-family="Copperplate" font-size="18">Email Token</text>
	<text x="174" y="116.1" fill="#000000" font-family="Gill Sans" font-size="15">token_id</text>
	<line x1="174" y1="119" x2="230" y2="119" stroke="#000000" stroke-width="1"/>
	<text x="174" y="133.1" fill="#000000" font-family="Gill Sans" font-size="15">token</text>
	<text x="174" y="150.1" fill="#000000" font-family="Gill Sans" font-size="15">expires_at</text>
	<text x="174" y="167" fill="#000000" font-family="Gill Sans" font-size="15">used_at</text>
</g>

<!-- Entity AUDIT_LOG -->
<g>
	<g>
		<rect x="326" y="9" width="112" height="30" fill="#80cdc1" stroke="none" stroke-width="0" opacity="1"/>
		<rect x="326" y="39" width="112" height="200" fill="#c7eae5" stroke="none" stroke-width="0" opacity="1"/>
		<rect x="326" y="9" width="112" height="230" fill="none" stroke="#35978f" stroke-width="1.5" opacity="1"/>
		<line x1="326" y1="39" x2="438" y2="39" stroke="#35978f" stroke-width="1.5"/>
	</g>
	<text x="338" y="30.3" fill="#000000" font-family="Copperplate" font-size="18">Audit Log</text>
	<text x="334" y="56" fill="#000000" font-family="Gill Sans" font-size="15">log_id</text>
	<line x1="334" y1="59" x2="373" y2="59" stroke="#000000" stroke-width="1"/>
	<text x="334" y="73" fill="#000000" font-family="Gill Sans" font-size="15">action_type</text>
	<text x="334" y="90" fill="#000000" font-family="Gill Sans" font-size="15">entity_type</text>
	<text x="334" y="107.1" fill="#000000" font-family="Gill Sans" font-size="15">entity_id</text>
	<text x="334" y="124.1" fill="#000000" font-family="Gill Sans" font-size="15">description</text>
	<text x="334" y="141.1" fill="#000000" font-family="Gill Sans" font-size="15">ip_address</text>
	<text x="334" y="158" fill="#000000" font-family="Gill Sans" font-size="15">user_agent</text>
	<text x="334" y="175" fill="#000000" font-family="Gill Sans" font-size="15">was_successful</text>
	<text x="334" y="192" fill="#000000" font-family="Gill Sans" font-size="15">error_message</text>
	<text x="334" y="209" fill="#000000" font-family="Gill Sans" font-size="15">metadata</text>
	<text x="334" y="226" fill="#000000" font-family="Gill Sans" font-size="15">created_at</text>
</g>

<!-- Entity RESET_TOKEN -->
<g>
	<g>
		<rect x="9" y="228" width="128" height="30" fill="#80cdc1" stroke="none" stroke-width="0" opacity="1"/>
		<rect x="9" y="258" width="128" height="98" fill="#c7eae5" stroke="none" stroke-width="0" opacity="1"/>
		<rect x="9" y="228" width="128" height="128" fill="none" stroke="#35978f" stroke-width="1.5" opacity="1"/>
		<line x1="9" y1="258" x2="137" y2="258" stroke="#35978f" stroke-width="1.5"/>
	</g>
	<text x="17" y="249.3" fill="#000000" font-family="Copperplate" font-size="18">Reset Token</text>
	<text x="17" y="275.1" fill="#000000" font-family="Gill Sans" font-size="15">token_id</text>
	<line x1="17" y1="278" x2="73" y2="278" stroke="#000000" stroke-width="1"/>
	<text x="17" y="292.1" fill="#000000" font-family="Gill Sans" font-size="15">token</text>
	<text x="17" y="309.1" fill="#000000" font-family="Gill Sans" font-size="15">expires_at</text>
	<text x="17" y="326" fill="#000000" font-family="Gill Sans" font-size="15">used_at</text>
	<text x="17" y="343" fill="#000000" font-family="Gill Sans" font-size="15">ip_address</text>
</g>

<!-- Entity USER -->
<g>
	<g>
		<rect x="152" y="380" width="156" height="30" fill="#80cdc1" stroke="none" stroke-width="0" opacity="1"/>
		<rect x="152" y="410" width="156" height="216" fill="#c7eae5" stroke="none" stroke-width="0" opacity="1"/>
		<rect x="152" y="380" width="156" height="246" fill="none" stroke="#35978f" stroke-width="1.5" opacity="1"/>
		<line x1="152" y1="410" x2="308" y2="410" stroke="#35978f" stroke-width="1.5"/>
	</g>
	<text x="208" y="401.3" fill="#000000" font-family="Copperplate" font-size="18">User</text>
	<text x="160" y="427" fill="#000000" font-family="Gill Sans" font-size="15">user_id</text>
	<line x1="160" y1="430" x2="208" y2="430" stroke="#000000" stroke-width="1"/>
	<text x="160" y="444" fill="#000000" font-family="Gill Sans" font-size="15">username</text>
	<text x="160" y="461" fill="#000000" font-family="Gill Sans" font-size="15">email</text>
	<text x="160" y="478.1" fill="#000000" font-family="Gill Sans" font-size="15">password</text>
	<text x="160" y="495.1" fill="#000000" font-family="Gill Sans" font-size="15">first_name</text>
	<text x="160" y="512.1" fill="#000000" font-family="Gill Sans" font-size="15">last_name</text>
	<text x="160" y="529.1" fill="#000000" font-family="Gill Sans" font-size="15">is_active</text>
	<text x="160" y="546" fill="#000000" font-family="Gill Sans" font-size="15">is_verified</text>
	<text x="160" y="563" fill="#000000" font-family="Gill Sans" font-size="15">is_locked</text>
	<text x="160" y="580" fill="#000000" font-family="Gill Sans" font-size="15">failed_login_attempts</text>
	<text x="160" y="597" fill="#000000" font-family="Gill Sans" font-size="15">last_login_at</text>
	<text x="160" y="614" fill="#000000" font-family="Gill Sans" font-size="15">password_changed_at</text>
</g>

<!-- Entity ROLE -->
<g>
	<g>
		<rect x="456" y="448" width="86" height="30" fill="#80cdc1" stroke="none" stroke-width="0" opacity="1"/>
		<rect x="456" y="478" width="86" height="80" fill="#c7eae5" stroke="none" stroke-width="0" opacity="1"/>
		<rect x="456" y="448" width="86" height="110" fill="none" stroke="#35978f" stroke-width="1.5" opacity="1"/>
		<line x1="456" y1="478" x2="542" y2="478" stroke="#35978f" stroke-width="1.5"/>
	</g>
	<text x="477" y="469.3" fill="#000000" font-family="Copperplate" font-size="18">Role</text>
	<text x="464" y="495.1" fill="#000000" font-family="Gill Sans" font-size="15">role_id</text>
	<line x1="464" y1="498" x2="510" y2="498" stroke="#000000" stroke-width="1"/>
	<text x="464" y="512.1" fill="#000000" font-family="Gill Sans" font-size="15">role_name</text>
	<text x="464" y="529.1" fill="#000000" font-family="Gill Sans" font-size="15">description</text>
	<text x="464" y="546" fill="#000000" font-family="Gill Sans" font-size="15">is_active</text>
</g>
</svg>