<svg width="1440" height="592" viewBox="0 0 1440 592" fill="none" xmlns="http://www.w3.org/2000/svg">
<rect width="1440" height="592" fill="#F5F5F5"/>
<g id="Wireframes (desktop 1440)">
<path d="M-19760 -78C-19760 -79.1046 -19759.1 -80 -19758 -80H11358C11359.1 -80 11360 -79.1046 11360 -78V898C11360 899.105 11359.1 900 11358 900H-19758C-19759.1 900 -19760 899.105 -19760 898V-78Z" fill="white"/>
<path d="M-19758 -80V-79H11358V-80V-81H-19758V-80ZM11360 -78H11359V898H11360H11361V-78H11360ZM11358 900V899H-19758V900V901H11358V900ZM-19760 898H-19759V-78H-19760H-19761V898H-19760ZM-19758 900V899C-19758.6 899 -19759 898.553 -19759 898H-19760H-19761C-19761 899.657 -19759.7 901 -19758 901V900ZM11360 898H11359C11359 898.552 11358.6 899 11358 899V900V901C11359.7 901 11361 899.657 11361 898H11360ZM11358 -80V-79C11358.6 -79 11359 -78.5526 11359 -78H11360H11361C11361 -79.6566 11359.7 -81 11358 -81V-80ZM-19758 -80V-81C-19759.7 -81 -19761 -79.6569 -19761 -78H-19760H-19759C-19759 -78.5523 -19758.6 -79 -19758 -79V-80Z" fill="black" fill-opacity="0.1"/>
<g id="Wireframe / Admin users (desktop)">
<g clip-path="url(#clip0_10_9)">
<rect width="1440" height="592" fill="white"/>
<g id="header (authenticated)">
<rect width="1440" height="72" fill="#E6E6E6"/>
<g id="brand" clip-path="url(#clip1_10_9)">
<g id="logo mark (chevron book)">
<rect x="65" y="27" width="18" height="18" rx="3" stroke="#9E9E9E" stroke-width="2"/>
</g>
<path id="LOGO" d="M93.1477 41.5V29.8636H95.2557V39.733H100.381V41.5H93.1477ZM112.155 35.6818C112.155 36.9356 111.92 38.0095 111.45 38.9034C110.984 39.7936 110.348 40.4754 109.541 40.9489C108.738 41.4223 107.827 41.6591 106.808 41.6591C105.789 41.6591 104.876 41.4223 104.07 40.9489C103.267 40.4716 102.63 39.7879 102.161 38.8977C101.695 38.0038 101.462 36.9318 101.462 35.6818C101.462 34.428 101.695 33.3561 102.161 32.4659C102.63 31.572 103.267 30.8883 104.07 30.4148C104.876 29.9413 105.789 29.7045 106.808 29.7045C107.827 29.7045 108.738 29.9413 109.541 30.4148C110.348 30.8883 110.984 31.572 111.45 32.4659C111.92 33.3561 112.155 34.428 112.155 35.6818ZM110.036 35.6818C110.036 34.7992 109.897 34.0549 109.621 33.4489C109.348 32.839 108.969 32.3788 108.484 32.0682C108 31.7538 107.441 31.5966 106.808 31.5966C106.176 31.5966 105.617 31.7538 105.132 32.0682C104.647 32.3788 104.267 32.839 103.99 33.4489C103.717 34.0549 103.581 34.7992 103.581 35.6818C103.581 36.5644 103.717 37.3106 103.99 37.9205C104.267 38.5265 104.647 38.9867 105.132 39.3011C105.617 39.6117 106.176 39.767 106.808 39.767C107.441 39.767 108 39.6117 108.484 39.3011C108.969 38.9867 109.348 38.5265 109.621 37.9205C109.897 37.3106 110.036 36.5644 110.036 35.6818ZM121.943 33.5795C121.848 33.2727 121.718 32.9981 121.551 32.7557C121.388 32.5095 121.191 32.2992 120.96 32.125C120.733 31.9508 120.472 31.8201 120.176 31.733C119.881 31.642 119.559 31.5966 119.21 31.5966C118.585 31.5966 118.028 31.7538 117.54 32.0682C117.051 32.3826 116.667 32.8447 116.386 33.4545C116.11 34.0606 115.972 34.7992 115.972 35.6705C115.972 36.5492 116.11 37.2936 116.386 37.9034C116.663 38.5133 117.047 38.9773 117.54 39.2955C118.032 39.6098 118.604 39.767 119.256 39.767C119.847 39.767 120.358 39.6534 120.79 39.4261C121.225 39.1989 121.561 38.8769 121.795 38.4602C122.03 38.0398 122.148 37.5473 122.148 36.983L122.625 37.0568H119.466V35.4091H124.188V36.8068C124.188 37.803 123.975 38.6648 123.551 39.392C123.127 40.1193 122.544 40.6799 121.801 41.0739C121.059 41.464 120.206 41.6591 119.244 41.6591C118.172 41.6591 117.231 41.4186 116.42 40.9375C115.614 40.4527 114.983 39.7652 114.528 38.875C114.078 37.9811 113.852 36.9205 113.852 35.6932C113.852 34.7538 113.985 33.9148 114.25 33.1761C114.519 32.4375 114.894 31.8106 115.375 31.2955C115.856 30.7765 116.42 30.3826 117.068 30.1136C117.716 29.8409 118.42 29.7045 119.182 29.7045C119.826 29.7045 120.426 29.7992 120.983 29.9886C121.54 30.1742 122.034 30.4394 122.466 30.7841C122.902 31.1288 123.259 31.5379 123.54 32.0114C123.82 32.4848 124.004 33.0076 124.091 33.5795H121.943ZM136.624 35.6818C136.624 36.9356 136.389 38.0095 135.919 38.9034C135.453 39.7936 134.817 40.4754 134.01 40.9489C133.207 41.4223 132.296 41.6591 131.277 41.6591C130.258 41.6591 129.345 41.4223 128.538 40.9489C127.735 40.4716 127.099 39.7879 126.629 38.8977C126.163 38.0038 125.93 36.9318 125.93 35.6818C125.93 34.428 126.163 33.3561 126.629 32.4659C127.099 31.572 127.735 30.8883 128.538 30.4148C129.345 29.9413 130.258 29.7045 131.277 29.7045C132.296 29.7045 133.207 29.9413 134.01 30.4148C134.817 30.8883 135.453 31.572 135.919 32.4659C136.389 33.3561 136.624 34.428 136.624 35.6818ZM134.504 35.6818C134.504 34.7992 134.366 34.0549 134.089 33.4489C133.817 32.839 133.438 32.3788 132.953 32.0682C132.468 31.7538 131.91 31.5966 131.277 31.5966C130.644 31.5966 130.086 31.7538 129.601 32.0682C129.116 32.3788 128.735 32.839 128.459 33.4489C128.186 34.0549 128.05 34.7992 128.05 35.6818C128.05 36.5644 128.186 37.3106 128.459 37.9205C128.735 38.5265 129.116 38.9867 129.601 39.3011C130.086 39.6117 130.644 39.767 131.277 39.767C131.91 39.767 132.468 39.6117 132.953 39.3011C133.438 38.9867 133.817 38.5265 134.089 37.9205C134.366 37.3106 134.504 36.5644 134.504 35.6818Z" fill="#424242"/>
</g>
<g id="Frame" clip-path="url(#clip2_10_9)">
<path id="nav link (current)" d="M1183.53 36.8452V41H1181.86V33.9091H1183.46V35.114H1183.54C1183.7 34.717 1183.96 34.4015 1184.32 34.1676C1184.68 33.9337 1185.12 33.8168 1185.65 33.8168C1186.14 33.8168 1186.57 33.9214 1186.93 34.1307C1187.3 34.34 1187.58 34.6431 1187.78 35.0401C1187.98 35.4371 1188.08 35.9188 1188.08 36.4851V41H1186.41V36.7436C1186.41 36.2696 1186.29 35.8988 1186.04 35.631C1185.8 35.3633 1185.46 35.2294 1185.03 35.2294C1184.74 35.2294 1184.48 35.294 1184.25 35.4233C1184.03 35.5495 1183.85 35.7326 1183.72 35.9727C1183.59 36.2127 1183.53 36.5036 1183.53 36.8452ZM1191.82 41.1431C1191.37 41.1431 1190.97 41.0631 1190.61 40.9031C1190.25 40.7399 1189.97 40.4999 1189.76 40.1829C1189.55 39.8659 1189.45 39.475 1189.45 39.0103C1189.45 38.6102 1189.52 38.2794 1189.67 38.0178C1189.82 37.7562 1190.02 37.5469 1190.27 37.3899C1190.53 37.233 1190.82 37.1145 1191.14 37.0344C1191.46 36.9513 1191.79 36.8913 1192.14 36.8544C1192.56 36.8113 1192.89 36.7728 1193.15 36.739C1193.41 36.7021 1193.6 36.6467 1193.71 36.5728C1193.83 36.4959 1193.89 36.3774 1193.89 36.2173V36.1896C1193.89 35.8419 1193.79 35.5726 1193.58 35.3817C1193.38 35.1909 1193.08 35.0955 1192.69 35.0955C1192.28 35.0955 1191.96 35.1848 1191.72 35.3633C1191.48 35.5418 1191.32 35.7526 1191.24 35.9957L1189.68 35.7741C1189.8 35.3433 1190.01 34.9832 1190.29 34.6939C1190.57 34.4015 1190.92 34.183 1191.33 34.0384C1191.74 33.8906 1192.19 33.8168 1192.68 33.8168C1193.03 33.8168 1193.37 33.8568 1193.7 33.9368C1194.04 34.0168 1194.35 34.1491 1194.63 34.3338C1194.91 34.5154 1195.14 34.7631 1195.31 35.0771C1195.48 35.391 1195.56 35.7834 1195.56 36.2543V41H1193.96V40.0259H1193.9C1193.8 40.2229 1193.66 40.4076 1193.47 40.5799C1193.29 40.7492 1193.06 40.8861 1192.79 40.9908C1192.51 41.0923 1192.19 41.1431 1191.82 41.1431ZM1192.25 39.9151C1192.59 39.9151 1192.88 39.849 1193.13 39.7166C1193.37 39.5812 1193.56 39.4027 1193.7 39.1811C1193.83 38.9595 1193.9 38.7179 1193.9 38.4563V37.6207C1193.85 37.6638 1193.76 37.7038 1193.63 37.7408C1193.51 37.7777 1193.37 37.81 1193.22 37.8377C1193.06 37.8654 1192.91 37.89 1192.76 37.9116C1192.61 37.9331 1192.48 37.9516 1192.37 37.967C1192.12 38.0008 1191.89 38.0562 1191.7 38.1332C1191.5 38.2101 1191.34 38.3178 1191.23 38.4563C1191.12 38.5917 1191.06 38.7672 1191.06 38.9826C1191.06 39.2904 1191.17 39.5227 1191.4 39.6797C1191.62 39.8366 1191.91 39.9151 1192.25 39.9151ZM1203.33 33.9091L1200.8 41H1198.95L1196.43 33.9091H1198.21L1199.84 39.1765H1199.91L1201.55 33.9091H1203.33ZM1209.38 31.5455V41H1207.71V31.5455H1209.38ZM1211.1 41V33.9091H1212.77V41H1211.1ZM1211.94 32.9027C1211.67 32.9027 1211.44 32.815 1211.25 32.6396C1211.06 32.4611 1210.97 32.2472 1210.97 31.9979C1210.97 31.7455 1211.06 31.5316 1211.25 31.3562C1211.44 31.1777 1211.67 31.0884 1211.94 31.0884C1212.2 31.0884 1212.43 31.1777 1212.62 31.3562C1212.81 31.5316 1212.91 31.7455 1212.91 31.9979C1212.91 32.2472 1212.81 32.4611 1212.62 32.6396C1212.43 32.815 1212.2 32.9027 1211.94 32.9027ZM1216.16 36.8452V41H1214.49V33.9091H1216.08V35.114H1216.17C1216.33 34.717 1216.59 34.4015 1216.95 34.1676C1217.31 33.9337 1217.75 33.8168 1218.28 33.8168C1218.77 33.8168 1219.2 33.9214 1219.56 34.1307C1219.93 34.34 1220.21 34.6431 1220.41 35.0401C1220.61 35.4371 1220.71 35.9188 1220.71 36.4851V41H1219.04V36.7436C1219.04 36.2696 1218.91 35.8988 1218.67 35.631C1218.43 35.3633 1218.09 35.2294 1217.66 35.2294C1217.36 35.2294 1217.1 35.294 1216.88 35.4233C1216.65 35.5495 1216.48 35.7326 1216.35 35.9727C1216.22 36.2127 1216.16 36.5036 1216.16 36.8452ZM1223.93 38.7749L1223.93 36.7575H1224.19L1226.74 33.9091H1228.7L1225.56 37.3991H1225.21L1223.93 38.7749ZM1222.41 41V31.5455H1224.08V41H1222.41ZM1226.86 41L1224.55 37.7731L1225.68 36.5959L1228.86 41H1226.86ZM1233.45 37.1452C1233.45 35.9911 1233.6 34.9309 1233.91 33.9645C1234.21 32.995 1234.67 32.0994 1235.28 31.2777H1236.85C1236.62 31.5824 1236.4 31.9563 1236.2 32.3995C1235.99 32.8396 1235.82 33.3228 1235.66 33.8491C1235.52 34.3723 1235.4 34.9155 1235.31 35.4787C1235.23 36.0419 1235.19 36.5974 1235.19 37.1452C1235.19 37.8746 1235.26 38.6133 1235.41 39.3612C1235.55 40.109 1235.75 40.8015 1236 41.4386C1236.25 42.0787 1236.54 42.6019 1236.85 43.0082H1235.28C1234.67 42.1864 1234.21 41.2924 1233.91 40.326C1233.6 39.3565 1233.45 38.2963 1233.45 37.1452ZM1241.15 41.1385C1240.45 41.1385 1239.84 40.9831 1239.33 40.6722C1238.83 40.3614 1238.44 39.9321 1238.16 39.3842C1237.89 38.8333 1237.76 38.1993 1237.76 37.4822C1237.76 36.7621 1237.89 36.1265 1238.17 35.5756C1238.45 35.0217 1238.84 34.5908 1239.34 34.283C1239.85 33.9722 1240.45 33.8168 1241.14 33.8168C1241.72 33.8168 1242.23 33.9229 1242.67 34.1353C1243.12 34.3446 1243.47 34.6416 1243.74 35.0263C1244 35.4079 1244.15 35.8542 1244.19 36.3651H1242.59C1242.53 36.0234 1242.38 35.7388 1242.13 35.511C1241.89 35.2802 1241.57 35.1648 1241.17 35.1648C1240.83 35.1648 1240.53 35.2571 1240.27 35.4418C1240.01 35.6233 1239.81 35.8849 1239.66 36.2266C1239.52 36.5682 1239.45 36.9775 1239.45 37.4545C1239.45 37.9377 1239.52 38.3532 1239.66 38.701C1239.8 39.0457 1240 39.3119 1240.26 39.4996C1240.52 39.6843 1240.82 39.7766 1241.17 39.7766C1241.41 39.7766 1241.63 39.7305 1241.83 39.6381C1242.02 39.5427 1242.19 39.4058 1242.32 39.2273C1242.45 39.0488 1242.54 38.8318 1242.59 38.5763H1244.19C1244.15 39.078 1244 39.5227 1243.75 39.9105C1243.49 40.2952 1243.15 40.5968 1242.7 40.8153C1242.26 41.0308 1241.75 41.1385 1241.15 41.1385ZM1250.08 38.0178V33.9091H1251.75V41H1250.13V39.7397H1250.06C1249.9 40.1367 1249.64 40.4614 1249.27 40.7138C1248.91 40.9661 1248.46 41.0923 1247.93 41.0923C1247.46 41.0923 1247.05 40.9892 1246.69 40.783C1246.34 40.5737 1246.06 40.2706 1245.86 39.8736C1245.66 39.4735 1245.56 38.9903 1245.56 38.424V33.9091H1247.23V38.1655C1247.23 38.6148 1247.36 38.9718 1247.6 39.2365C1247.85 39.5012 1248.17 39.6335 1248.57 39.6335C1248.82 39.6335 1249.06 39.5735 1249.29 39.4535C1249.52 39.3335 1249.71 39.1549 1249.86 38.918C1250.01 38.6779 1250.08 38.3778 1250.08 38.0178ZM1253.47 41V33.9091H1255.09V35.0909H1255.17C1255.3 34.6816 1255.52 34.3661 1255.83 34.1445C1256.15 33.9199 1256.51 33.8075 1256.92 33.8075C1257.01 33.8075 1257.11 33.8121 1257.23 33.8214C1257.34 33.8275 1257.44 33.8383 1257.52 33.8537V35.391C1257.45 35.3664 1257.33 35.3448 1257.18 35.3263C1257.03 35.3048 1256.88 35.294 1256.74 35.294C1256.44 35.294 1256.16 35.3602 1255.92 35.4925C1255.68 35.6218 1255.49 35.8018 1255.35 36.0327C1255.21 36.2635 1255.14 36.5297 1255.14 36.8313V41H1253.47ZM1258.63 41V33.9091H1260.25V35.0909H1260.32C1260.45 34.6816 1260.67 34.3661 1260.99 34.1445C1261.3 33.9199 1261.66 33.8075 1262.07 33.8075C1262.16 33.8075 1262.27 33.8121 1262.38 33.8214C1262.5 33.8275 1262.59 33.8383 1262.67 33.8537V35.391C1262.6 35.3664 1262.49 35.3448 1262.33 35.3263C1262.18 35.3048 1262.04 35.294 1261.9 35.294C1261.59 35.294 1261.32 35.3602 1261.07 35.4925C1260.83 35.6218 1260.64 35.8018 1260.51 36.0327C1260.37 36.2635 1260.3 36.5297 1260.3 36.8313V41H1258.63ZM1266.63 41.1385C1265.92 41.1385 1265.3 40.9908 1264.79 40.6953C1264.27 40.3968 1263.88 39.9751 1263.6 39.4304C1263.32 38.8826 1263.18 38.2378 1263.18 37.4961C1263.18 36.7667 1263.32 36.1265 1263.6 35.5756C1263.88 35.0217 1264.27 34.5908 1264.77 34.283C1265.27 33.9722 1265.86 33.8168 1266.54 33.8168C1266.98 33.8168 1267.39 33.8875 1267.78 34.0291C1268.17 34.1676 1268.51 34.383 1268.81 34.6754C1269.11 34.9678 1269.35 35.3402 1269.52 35.7926C1269.7 36.242 1269.78 36.7775 1269.78 37.3991V37.9116H1263.97V36.7852H1268.18C1268.18 36.4651 1268.11 36.1804 1267.97 35.9311C1267.84 35.6787 1267.65 35.4802 1267.4 35.3356C1267.16 35.1909 1266.88 35.1186 1266.56 35.1186C1266.22 35.1186 1265.92 35.2017 1265.66 35.3679C1265.41 35.531 1265.2 35.7464 1265.06 36.0142C1264.92 36.2789 1264.85 36.5697 1264.84 36.8867V37.87C1264.84 38.2824 1264.92 38.6364 1265.07 38.9318C1265.22 39.2242 1265.43 39.4489 1265.7 39.6058C1265.97 39.7597 1266.29 39.8366 1266.65 39.8366C1266.89 39.8366 1267.11 39.8028 1267.31 39.7351C1267.51 39.6643 1267.68 39.5612 1267.82 39.4258C1267.97 39.2904 1268.08 39.1226 1268.15 38.9226L1269.71 39.098C1269.61 39.5104 1269.43 39.8705 1269.15 40.1783C1268.88 40.483 1268.52 40.7199 1268.1 40.8892C1267.67 41.0554 1267.18 41.1385 1266.63 41.1385ZM1272.87 36.8452V41H1271.2V33.9091H1272.79V35.114H1272.88C1273.04 34.717 1273.3 34.4015 1273.66 34.1676C1274.02 33.9337 1274.46 33.8168 1274.99 33.8168C1275.48 33.8168 1275.91 33.9214 1276.27 34.1307C1276.64 34.34 1276.92 34.6431 1277.12 35.0401C1277.32 35.4371 1277.42 35.9188 1277.42 36.4851V41H1275.75V36.7436C1275.75 36.2696 1275.62 35.8988 1275.38 35.631C1275.13 35.3633 1274.8 35.2294 1274.37 35.2294C1274.07 35.2294 1273.81 35.294 1273.59 35.4233C1273.36 35.5495 1273.19 35.7326 1273.06 35.9727C1272.93 36.2127 1272.87 36.5036 1272.87 36.8452ZM1282.66 33.9091V35.2017H1278.58V33.9091H1282.66ZM1279.59 32.2102H1281.26V38.8672C1281.26 39.0919 1281.29 39.2642 1281.36 39.3842C1281.43 39.5012 1281.52 39.5812 1281.64 39.6243C1281.75 39.6674 1281.88 39.6889 1282.02 39.6889C1282.12 39.6889 1282.22 39.6812 1282.3 39.6658C1282.39 39.6504 1282.46 39.6366 1282.51 39.6243L1282.79 40.9308C1282.7 40.9615 1282.57 40.9954 1282.4 41.0323C1282.24 41.0692 1282.04 41.0908 1281.8 41.0969C1281.39 41.1093 1281.01 41.0462 1280.67 40.9077C1280.34 40.7661 1280.07 40.5476 1279.87 40.2521C1279.68 39.9567 1279.59 39.5874 1279.59 39.1442V32.2102ZM1287.04 37.1452C1287.04 38.2963 1286.88 39.3565 1286.58 40.326C1286.27 41.2924 1285.82 42.1864 1285.21 43.0082H1283.64C1283.87 42.7035 1284.09 42.3311 1284.29 41.891C1284.49 41.4509 1284.67 40.9677 1284.82 40.4414C1284.97 39.9151 1285.09 39.3704 1285.17 38.8072C1285.25 38.244 1285.3 37.69 1285.3 37.1452C1285.3 36.4158 1285.22 35.6772 1285.08 34.9293C1284.93 34.1815 1284.73 33.4875 1284.48 32.8473C1284.23 32.2071 1283.95 31.6839 1283.64 31.2777H1285.21C1285.82 32.0994 1286.27 32.995 1286.58 33.9645C1286.88 34.9309 1287.04 35.9911 1287.04 37.1452Z" fill="#424242"/>
<path id="nav link" d="M1307.53 36.8452V41H1305.86V33.9091H1307.46V35.114H1307.54C1307.7 34.717 1307.96 34.4015 1308.32 34.1676C1308.68 33.9337 1309.12 33.8168 1309.65 33.8168C1310.14 33.8168 1310.57 33.9214 1310.93 34.1307C1311.3 34.34 1311.58 34.6431 1311.78 35.0401C1311.98 35.4371 1312.08 35.9188 1312.08 36.4851V41H1310.41V36.7436C1310.41 36.2696 1310.29 35.8988 1310.04 35.631C1309.8 35.3633 1309.46 35.2294 1309.03 35.2294C1308.74 35.2294 1308.48 35.294 1308.25 35.4233C1308.03 35.5495 1307.85 35.7326 1307.72 35.9727C1307.59 36.2127 1307.53 36.5036 1307.53 36.8452ZM1315.82 41.1431C1315.37 41.1431 1314.97 41.0631 1314.61 40.9031C1314.25 40.7399 1313.97 40.4999 1313.76 40.1829C1313.55 39.8659 1313.45 39.475 1313.45 39.0103C1313.45 38.6102 1313.52 38.2794 1313.67 38.0178C1313.82 37.7562 1314.02 37.5469 1314.27 37.3899C1314.53 37.233 1314.82 37.1145 1315.14 37.0344C1315.46 36.9513 1315.79 36.8913 1316.14 36.8544C1316.56 36.8113 1316.89 36.7728 1317.15 36.739C1317.41 36.7021 1317.6 36.6467 1317.71 36.5728C1317.83 36.4959 1317.89 36.3774 1317.89 36.2173V36.1896C1317.89 35.8419 1317.79 35.5726 1317.58 35.3817C1317.38 35.1909 1317.08 35.0955 1316.69 35.0955C1316.28 35.0955 1315.96 35.1848 1315.72 35.3633C1315.48 35.5418 1315.32 35.7526 1315.24 35.9957L1313.68 35.7741C1313.8 35.3433 1314.01 34.9832 1314.29 34.6939C1314.57 34.4015 1314.92 34.183 1315.33 34.0384C1315.74 33.8906 1316.19 33.8168 1316.68 33.8168C1317.03 33.8168 1317.37 33.8568 1317.7 33.9368C1318.04 34.0168 1318.35 34.1491 1318.63 34.3338C1318.91 34.5154 1319.14 34.7631 1319.31 35.0771C1319.48 35.391 1319.56 35.7834 1319.56 36.2543V41H1317.96V40.0259H1317.9C1317.8 40.2229 1317.66 40.4076 1317.47 40.5799C1317.29 40.7492 1317.06 40.8861 1316.79 40.9908C1316.51 41.0923 1316.19 41.1431 1315.82 41.1431ZM1316.25 39.9151C1316.59 39.9151 1316.88 39.849 1317.13 39.7166C1317.37 39.5812 1317.56 39.4027 1317.7 39.1811C1317.83 38.9595 1317.9 38.7179 1317.9 38.4563V37.6207C1317.85 37.6638 1317.76 37.7038 1317.63 37.7408C1317.51 37.7777 1317.37 37.81 1317.22 37.8377C1317.06 37.8654 1316.91 37.89 1316.76 37.9116C1316.61 37.9331 1316.48 37.9516 1316.37 37.967C1316.12 38.0008 1315.89 38.0562 1315.7 38.1332C1315.5 38.2101 1315.34 38.3178 1315.23 38.4563C1315.12 38.5917 1315.06 38.7672 1315.06 38.9826C1315.06 39.2904 1315.17 39.5227 1315.4 39.6797C1315.62 39.8366 1315.91 39.9151 1316.25 39.9151ZM1327.33 33.9091L1324.8 41H1322.95L1320.43 33.9091H1322.21L1323.84 39.1765H1323.91L1325.55 33.9091H1327.33ZM1333.38 31.5455V41H1331.71V31.5455H1333.38ZM1335.1 41V33.9091H1336.77V41H1335.1ZM1335.94 32.9027C1335.67 32.9027 1335.44 32.815 1335.25 32.6396C1335.06 32.4611 1334.97 32.2472 1334.97 31.9979C1334.97 31.7455 1335.06 31.5316 1335.25 31.3562C1335.44 31.1777 1335.67 31.0884 1335.94 31.0884C1336.2 31.0884 1336.43 31.1777 1336.62 31.3562C1336.81 31.5316 1336.91 31.7455 1336.91 31.9979C1336.91 32.2472 1336.81 32.4611 1336.62 32.6396C1336.43 32.815 1336.2 32.9027 1335.94 32.9027ZM1340.16 36.8452V41H1338.49V33.9091H1340.08V35.114H1340.17C1340.33 34.717 1340.59 34.4015 1340.95 34.1676C1341.31 33.9337 1341.75 33.8168 1342.28 33.8168C1342.77 33.8168 1343.2 33.9214 1343.56 34.1307C1343.93 34.34 1344.21 34.6431 1344.41 35.0401C1344.61 35.4371 1344.71 35.9188 1344.71 36.4851V41H1343.04V36.7436C1343.04 36.2696 1342.91 35.8988 1342.67 35.631C1342.43 35.3633 1342.09 35.2294 1341.66 35.2294C1341.36 35.2294 1341.1 35.294 1340.88 35.4233C1340.65 35.5495 1340.48 35.7326 1340.35 35.9727C1340.22 36.2127 1340.16 36.5036 1340.16 36.8452ZM1347.93 38.7749L1347.93 36.7575H1348.19L1350.74 33.9091H1352.7L1349.56 37.3991H1349.21L1347.93 38.7749ZM1346.41 41V31.5455H1348.08V41H1346.41ZM1350.86 41L1348.55 37.7731L1349.68 36.5959L1352.86 41H1350.86Z" fill="#424242"/>
<g id="divider">
<rect width="1" height="20" transform="translate(1369 26)" fill="#9E9E9E"/>
</g>
</g>
</g>
<g id="main">
<path id="H1: accounts" d="M65.076 126V115.091H67.0522V119.709H72.1072V115.091H74.0888V126H72.1072V121.366H67.0522V126H65.076ZM80.5687 115.091V126H78.5925V117.014H78.5286L75.9771 118.644V116.833L78.6884 115.091H80.5687ZM84.5478 124.69C84.2246 124.69 83.9476 124.576 83.7168 124.349C83.486 124.118 83.3723 123.841 83.3759 123.518C83.3723 123.198 83.486 122.925 83.7168 122.697C83.9476 122.47 84.2246 122.357 84.5478 122.357C84.8603 122.357 85.1319 122.47 85.3627 122.697C85.5971 122.925 85.7161 123.198 85.7196 123.518C85.7161 123.734 85.6593 123.931 85.5492 124.109C85.4426 124.287 85.3006 124.429 85.123 124.535C84.949 124.638 84.7573 124.69 84.5478 124.69ZM84.5478 119.283C84.2246 119.283 83.9476 119.169 83.7168 118.942C83.486 118.711 83.3723 118.434 83.3759 118.111C83.3723 117.792 83.486 117.518 83.7168 117.291C83.9476 117.06 84.2246 116.945 84.5478 116.945C84.8603 116.945 85.1319 117.06 85.3627 117.291C85.5971 117.518 85.7161 117.792 85.7196 118.111C85.7161 118.324 85.6593 118.52 85.5492 118.697C85.4426 118.875 85.3006 119.017 85.123 119.123C84.949 119.23 84.7573 119.283 84.5478 119.283ZM93.7856 126.165C93.2671 126.165 92.8002 126.073 92.3847 125.888C91.9727 125.7 91.646 125.423 91.4046 125.057C91.1666 124.691 91.0477 124.24 91.0477 123.704C91.0477 123.243 91.1329 122.861 91.3034 122.559C91.4738 122.257 91.7064 122.016 92.0012 121.835C92.2959 121.653 92.6279 121.517 92.9972 121.424C93.3701 121.328 93.7554 121.259 94.1531 121.217C94.6325 121.167 95.0214 121.123 95.3197 121.083C95.618 121.041 95.8346 120.977 95.9695 120.892C96.108 120.803 96.1773 120.666 96.1773 120.482V120.45C96.1773 120.048 96.0583 119.738 95.8204 119.517C95.5825 119.297 95.2398 119.187 94.7923 119.187C94.32 119.187 93.9454 119.29 93.6684 119.496C93.395 119.702 93.2103 119.945 93.1144 120.226L91.314 119.97C91.4561 119.473 91.6904 119.058 92.0171 118.724C92.3438 118.386 92.7433 118.134 93.2156 117.967C93.6879 117.797 94.21 117.712 94.7817 117.712C95.1759 117.712 95.5683 117.758 95.9589 117.85C96.3495 117.942 96.7064 118.095 97.0296 118.308C97.3527 118.518 97.6119 118.804 97.8073 119.166C98.0061 119.528 98.1056 119.981 98.1056 120.524V126H96.2519V124.876H96.1879C96.0708 125.103 95.9056 125.316 95.6926 125.515C95.483 125.711 95.2185 125.869 94.8989 125.989C94.5828 126.107 94.2117 126.165 93.7856 126.165ZM94.2863 124.748C94.6734 124.748 95.009 124.672 95.2931 124.519C95.5771 124.363 95.7955 124.157 95.9482 123.901C96.1045 123.646 96.1826 123.367 96.1826 123.065V122.101C96.1222 122.151 96.0193 122.197 95.8737 122.239C95.7316 122.282 95.5718 122.319 95.3943 122.351C95.2167 122.383 95.0409 122.412 94.8669 122.436C94.6929 122.461 94.542 122.483 94.4142 122.5C94.1265 122.539 93.8691 122.603 93.6418 122.692C93.4145 122.781 93.2352 122.905 93.1038 123.065C92.9724 123.221 92.9067 123.424 92.9067 123.672C92.9067 124.027 93.0363 124.295 93.2955 124.477C93.5548 124.658 93.885 124.748 94.2863 124.748ZM103.613 126.16C102.797 126.16 102.095 125.98 101.509 125.622C100.927 125.263 100.478 124.768 100.162 124.136C99.8492 123.5 99.6929 122.768 99.6929 121.941C99.6929 121.11 99.8527 120.377 100.172 119.741C100.492 119.102 100.943 118.605 101.525 118.25C102.111 117.891 102.804 117.712 103.603 117.712C104.267 117.712 104.854 117.834 105.366 118.079C105.881 118.321 106.291 118.663 106.596 119.107C106.902 119.548 107.076 120.062 107.118 120.652H105.275C105.201 120.258 105.023 119.929 104.743 119.667C104.466 119.4 104.095 119.267 103.629 119.267C103.235 119.267 102.889 119.374 102.591 119.587C102.292 119.796 102.06 120.098 101.893 120.492C101.729 120.886 101.648 121.359 101.648 121.909C101.648 122.467 101.729 122.946 101.893 123.347C102.056 123.745 102.285 124.052 102.58 124.269C102.878 124.482 103.228 124.588 103.629 124.588C103.913 124.588 104.167 124.535 104.391 124.429C104.618 124.319 104.808 124.161 104.961 123.955C105.114 123.749 105.218 123.498 105.275 123.203H107.118C107.072 123.782 106.902 124.295 106.607 124.743C106.312 125.187 105.911 125.535 105.403 125.787C104.895 126.036 104.299 126.16 103.613 126.16ZM112.271 126.16C111.454 126.16 110.752 125.98 110.167 125.622C109.584 125.263 109.135 124.768 108.819 124.136C108.506 123.5 108.35 122.768 108.35 121.941C108.35 121.11 108.51 120.377 108.83 119.741C109.149 119.102 109.6 118.605 110.183 118.25C110.768 117.891 111.461 117.712 112.26 117.712C112.924 117.712 113.512 117.834 114.023 118.079C114.538 118.321 114.948 118.663 115.254 119.107C115.559 119.548 115.733 120.062 115.776 120.652H113.933C113.858 120.258 113.68 119.929 113.4 119.667C113.123 119.4 112.752 119.267 112.287 119.267C111.892 119.267 111.546 119.374 111.248 119.587C110.95 119.796 110.717 120.098 110.55 120.492C110.387 120.886 110.305 121.359 110.305 121.909C110.305 122.467 110.387 122.946 110.55 123.347C110.713 123.745 110.942 124.052 111.237 124.269C111.536 124.482 111.885 124.588 112.287 124.588C112.571 124.588 112.825 124.535 113.048 124.429C113.276 124.319 113.466 124.161 113.618 123.955C113.771 123.749 113.876 123.498 113.933 123.203H115.776C115.729 123.782 115.559 124.295 115.264 124.743C114.969 125.187 114.568 125.535 114.06 125.787C113.553 126.036 112.956 126.16 112.271 126.16ZM120.928 126.16C120.129 126.16 119.436 125.984 118.85 125.632C118.264 125.281 117.81 124.789 117.487 124.157C117.167 123.525 117.007 122.786 117.007 121.941C117.007 121.096 117.167 120.355 117.487 119.72C117.81 119.084 118.264 118.591 118.85 118.239C119.436 117.887 120.129 117.712 120.928 117.712C121.727 117.712 122.419 117.887 123.005 118.239C123.591 118.591 124.044 119.084 124.364 119.72C124.687 120.355 124.848 121.096 124.848 121.941C124.848 122.786 124.687 123.525 124.364 124.157C124.044 124.789 123.591 125.281 123.005 125.632C122.419 125.984 121.727 126.16 120.928 126.16ZM120.938 124.615C121.372 124.615 121.734 124.496 122.025 124.258C122.316 124.017 122.533 123.694 122.675 123.289C122.821 122.884 122.893 122.433 122.893 121.936C122.893 121.435 122.821 120.982 122.675 120.577C122.533 120.169 122.316 119.844 122.025 119.603C121.734 119.361 121.372 119.24 120.938 119.24C120.495 119.24 120.125 119.361 119.831 119.603C119.539 119.844 119.321 120.169 119.175 120.577C119.033 120.982 118.962 121.435 118.962 121.936C118.962 122.433 119.033 122.884 119.175 123.289C119.321 123.694 119.539 124.017 119.831 124.258C120.125 124.496 120.495 124.615 120.938 124.615ZM131.7 122.559V117.818H133.628V126H131.758V124.546H131.673C131.488 125.004 131.185 125.379 130.762 125.67C130.343 125.961 129.827 126.107 129.212 126.107C128.676 126.107 128.202 125.988 127.79 125.75C127.382 125.508 127.062 125.158 126.831 124.7C126.6 124.239 126.485 123.681 126.485 123.028V117.818H128.413V122.729C128.413 123.248 128.555 123.66 128.839 123.965C129.123 124.271 129.496 124.423 129.958 124.423C130.242 124.423 130.517 124.354 130.784 124.216C131.05 124.077 131.268 123.871 131.439 123.598C131.613 123.321 131.7 122.974 131.7 122.559ZM137.539 121.206V126H135.611V117.818H137.454V119.208H137.55C137.738 118.75 138.038 118.386 138.45 118.116C138.866 117.847 139.379 117.712 139.989 117.712C140.554 117.712 141.046 117.832 141.465 118.074C141.888 118.315 142.214 118.665 142.445 119.123C142.679 119.581 142.795 120.137 142.791 120.79V126H140.863V121.089C140.863 120.542 140.721 120.114 140.437 119.805C140.156 119.496 139.767 119.342 139.27 119.342C138.933 119.342 138.633 119.416 138.37 119.565C138.111 119.711 137.907 119.922 137.758 120.199C137.612 120.476 137.539 120.812 137.539 121.206ZM148.837 117.818V119.31H144.134V117.818H148.837ZM145.295 115.858H147.223V123.539C147.223 123.798 147.262 123.997 147.34 124.136C147.422 124.271 147.528 124.363 147.66 124.413C147.791 124.462 147.937 124.487 148.097 124.487C148.217 124.487 148.328 124.478 148.427 124.461C148.53 124.443 148.608 124.427 148.661 124.413L148.986 125.92C148.883 125.956 148.736 125.995 148.544 126.037C148.356 126.08 148.125 126.105 147.852 126.112C147.369 126.126 146.934 126.053 146.547 125.893C146.16 125.73 145.852 125.478 145.625 125.137C145.401 124.796 145.291 124.37 145.295 123.859V115.858ZM156.799 119.981L155.041 120.173C154.992 119.995 154.905 119.828 154.78 119.672C154.66 119.516 154.496 119.39 154.29 119.294C154.084 119.198 153.832 119.15 153.534 119.15C153.133 119.15 152.795 119.237 152.522 119.411C152.252 119.585 152.119 119.81 152.122 120.087C152.119 120.325 152.206 120.519 152.383 120.668C152.564 120.817 152.863 120.94 153.278 121.036L154.674 121.334C155.448 121.501 156.023 121.765 156.4 122.127C156.78 122.49 156.971 122.964 156.975 123.55C156.971 124.065 156.82 124.519 156.522 124.913C156.227 125.304 155.817 125.609 155.292 125.83C154.766 126.05 154.162 126.16 153.481 126.16C152.479 126.16 151.673 125.95 151.062 125.531C150.452 125.109 150.088 124.521 149.97 123.768L151.851 123.587C151.936 123.956 152.117 124.235 152.394 124.423C152.671 124.612 153.031 124.706 153.475 124.706C153.933 124.706 154.301 124.612 154.578 124.423C154.858 124.235 154.999 124.002 154.999 123.725C154.999 123.491 154.908 123.298 154.727 123.145C154.55 122.992 154.273 122.875 153.896 122.793L152.501 122.5C151.716 122.337 151.135 122.062 150.759 121.675C150.382 121.284 150.196 120.79 150.199 120.194C150.196 119.69 150.333 119.253 150.61 118.884C150.89 118.511 151.279 118.223 151.776 118.021C152.277 117.815 152.854 117.712 153.507 117.712C154.466 117.712 155.221 117.916 155.771 118.324C156.325 118.733 156.668 119.285 156.799 119.981Z" fill="#424242"/>
<rect id="Rectangle" x="64.5" y="164.5" width="1311" height="59" rx="3.5" stroke="#9E9E9E"/>
<path id="username + role" d="M88.9645 187.247V183.455H90.5071V190H89.0114V188.837H88.9432C88.7955 189.203 88.5526 189.503 88.2145 189.736C87.8793 189.969 87.4659 190.085 86.9744 190.085C86.5455 190.085 86.1662 189.99 85.8366 189.8C85.5099 189.607 85.2543 189.327 85.0696 188.96C84.8849 188.591 84.7926 188.145 84.7926 187.622V183.455H86.3352V187.384C86.3352 187.798 86.4489 188.128 86.6761 188.372C86.9034 188.616 87.2017 188.739 87.571 188.739C87.7983 188.739 88.0185 188.683 88.2315 188.572C88.4446 188.462 88.6193 188.297 88.7557 188.078C88.8949 187.857 88.9645 187.58 88.9645 187.247ZM97.2667 185.185L95.8604 185.338C95.8207 185.196 95.7511 185.062 95.6516 184.938C95.555 184.812 95.4244 184.712 95.2596 184.635C95.0948 184.558 94.8931 184.52 94.6545 184.52C94.3335 184.52 94.0636 184.589 93.8448 184.729C93.6289 184.868 93.5224 185.048 93.5252 185.27C93.5224 185.46 93.592 185.615 93.734 185.734C93.8789 185.854 94.1175 185.952 94.4499 186.028L95.5664 186.267C96.1857 186.401 96.646 186.612 96.9471 186.902C97.2511 187.192 97.4045 187.571 97.4073 188.04C97.4045 188.452 97.2837 188.815 97.0451 189.131C96.8093 189.443 96.4812 189.687 96.0607 189.864C95.6403 190.04 95.1573 190.128 94.6119 190.128C93.8107 190.128 93.1658 189.96 92.6772 189.625C92.1886 189.287 91.8974 188.817 91.8036 188.214L93.3079 188.07C93.3761 188.365 93.521 188.588 93.7425 188.739C93.9641 188.889 94.2525 188.964 94.6076 188.964C94.9741 188.964 95.2681 188.889 95.4897 188.739C95.7141 188.588 95.8263 188.402 95.8263 188.18C95.8263 187.993 95.7539 187.838 95.609 187.716C95.467 187.594 95.2454 187.5 94.9442 187.435L93.8278 187.2C93.1999 187.07 92.7354 186.849 92.4343 186.54C92.1332 186.227 91.984 185.832 91.9869 185.355C91.984 184.952 92.0934 184.602 92.315 184.307C92.5394 184.009 92.8505 183.778 93.2482 183.616C93.6488 183.452 94.1104 183.369 94.6332 183.369C95.4002 183.369 96.0039 183.533 96.4442 183.859C96.8874 184.186 97.1616 184.628 97.2667 185.185ZM101.577 190.128C100.921 190.128 100.354 189.991 99.8768 189.719C99.4023 189.443 99.0373 189.054 98.7816 188.551C98.5259 188.045 98.3981 187.45 98.3981 186.766C98.3981 186.092 98.5259 185.501 98.7816 184.993C99.0401 184.482 99.4009 184.084 99.864 183.8C100.327 183.513 100.871 183.369 101.496 183.369C101.9 183.369 102.28 183.435 102.638 183.565C102.999 183.693 103.317 183.892 103.593 184.162C103.871 184.432 104.09 184.776 104.249 185.193C104.408 185.608 104.488 186.102 104.488 186.676V187.149H99.1225V186.109H103.009C103.006 185.814 102.942 185.551 102.817 185.321C102.692 185.088 102.517 184.905 102.293 184.771C102.071 184.638 101.813 184.571 101.517 184.571C101.202 184.571 100.925 184.648 100.686 184.801C100.448 184.952 100.262 185.151 100.128 185.398C99.9975 185.642 99.9308 185.911 99.9279 186.203V187.111C99.9279 187.491 99.9975 187.818 100.137 188.091C100.276 188.361 100.471 188.568 100.721 188.713C100.971 188.855 101.263 188.926 101.598 188.926C101.823 188.926 102.026 188.895 102.208 188.832C102.39 188.767 102.547 188.672 102.681 188.547C102.814 188.422 102.915 188.267 102.983 188.082L104.424 188.244C104.333 188.625 104.159 188.957 103.904 189.241C103.651 189.523 103.327 189.741 102.932 189.898C102.537 190.051 102.086 190.128 101.577 190.128ZM105.793 190V183.455H107.288V184.545H107.357C107.476 184.168 107.68 183.876 107.97 183.672C108.263 183.464 108.597 183.361 108.972 183.361C109.057 183.361 109.152 183.365 109.257 183.374C109.365 183.379 109.455 183.389 109.526 183.403V184.822C109.46 184.8 109.357 184.78 109.214 184.763C109.075 184.743 108.94 184.733 108.81 184.733C108.528 184.733 108.276 184.794 108.051 184.916C107.83 185.036 107.655 185.202 107.527 185.415C107.399 185.628 107.335 185.874 107.335 186.152V190H105.793ZM112.093 186.165V190H110.55V183.455H112.025V184.567H112.102C112.252 184.2 112.492 183.909 112.822 183.693C113.154 183.477 113.565 183.369 114.053 183.369C114.505 183.369 114.898 183.466 115.234 183.659C115.572 183.852 115.833 184.132 116.018 184.499C116.205 184.865 116.298 185.31 116.295 185.832V190H114.752V186.071C114.752 185.634 114.638 185.291 114.411 185.044C114.187 184.797 113.876 184.673 113.478 184.673C113.208 184.673 112.968 184.733 112.758 184.852C112.55 184.969 112.387 185.138 112.268 185.359C112.151 185.581 112.093 185.849 112.093 186.165ZM119.746 190.132C119.332 190.132 118.958 190.058 118.626 189.911C118.296 189.76 118.035 189.538 117.842 189.246C117.651 188.953 117.556 188.592 117.556 188.163C117.556 187.794 117.624 187.489 117.761 187.247C117.897 187.006 118.083 186.812 118.319 186.668C118.555 186.523 118.82 186.413 119.116 186.339C119.414 186.263 119.722 186.207 120.04 186.173C120.424 186.134 120.735 186.098 120.974 186.067C121.212 186.033 121.386 185.982 121.494 185.913C121.604 185.842 121.66 185.733 121.66 185.585V185.56C121.66 185.239 121.565 184.99 121.374 184.814C121.184 184.638 120.91 184.55 120.552 184.55C120.174 184.55 119.874 184.632 119.653 184.797C119.434 184.962 119.286 185.156 119.21 185.381L117.769 185.176C117.883 184.778 118.07 184.446 118.332 184.179C118.593 183.909 118.913 183.707 119.29 183.574C119.668 183.438 120.086 183.369 120.543 183.369C120.859 183.369 121.173 183.406 121.485 183.48C121.798 183.554 122.083 183.676 122.342 183.847C122.6 184.014 122.808 184.243 122.964 184.533C123.123 184.822 123.202 185.185 123.202 185.619V190H121.719V189.101H121.668C121.575 189.283 121.442 189.453 121.272 189.612C121.104 189.768 120.893 189.895 120.637 189.991C120.384 190.085 120.087 190.132 119.746 190.132ZM120.147 188.999C120.457 188.999 120.725 188.937 120.952 188.815C121.18 188.69 121.354 188.526 121.477 188.321C121.602 188.116 121.664 187.893 121.664 187.652V186.881C121.616 186.92 121.533 186.957 121.417 186.991C121.303 187.026 121.175 187.055 121.033 187.081C120.891 187.107 120.751 187.129 120.612 187.149C120.472 187.169 120.352 187.186 120.249 187.2C120.019 187.232 119.813 187.283 119.631 187.354C119.45 187.425 119.306 187.524 119.201 187.652C119.096 187.777 119.043 187.939 119.043 188.138C119.043 188.422 119.147 188.636 119.354 188.781C119.562 188.926 119.826 188.999 120.147 188.999ZM124.754 190V183.455H126.228V184.567H126.305C126.441 184.192 126.667 183.899 126.982 183.689C127.298 183.476 127.674 183.369 128.112 183.369C128.555 183.369 128.928 183.477 129.232 183.693C129.539 183.906 129.755 184.197 129.88 184.567H129.948C130.093 184.203 130.337 183.913 130.681 183.697C131.028 183.479 131.438 183.369 131.913 183.369C132.515 183.369 133.006 183.56 133.387 183.94C133.768 184.321 133.958 184.876 133.958 185.607V190H132.411V185.845C132.411 185.439 132.303 185.142 132.087 184.955C131.871 184.764 131.607 184.669 131.295 184.669C130.923 184.669 130.631 184.786 130.421 185.018C130.214 185.249 130.11 185.548 130.11 185.918V190H128.597V185.781C128.597 185.443 128.495 185.173 128.29 184.972C128.089 184.77 127.825 184.669 127.498 184.669C127.276 184.669 127.075 184.726 126.893 184.839C126.711 184.95 126.566 185.108 126.458 185.312C126.35 185.514 126.296 185.75 126.296 186.02V190H124.754ZM138.421 190.128C137.765 190.128 137.198 189.991 136.721 189.719C136.246 189.443 135.881 189.054 135.625 188.551C135.37 188.045 135.242 187.45 135.242 186.766C135.242 186.092 135.37 185.501 135.625 184.993C135.884 184.482 136.245 184.084 136.708 183.8C137.171 183.513 137.715 183.369 138.34 183.369C138.743 183.369 139.124 183.435 139.482 183.565C139.843 183.693 140.161 183.892 140.436 184.162C140.715 184.432 140.934 184.776 141.093 185.193C141.252 185.608 141.331 186.102 141.331 186.676V187.149H135.966V186.109H139.853C139.85 185.814 139.786 185.551 139.661 185.321C139.536 185.088 139.361 184.905 139.137 184.771C138.915 184.638 138.657 184.571 138.361 184.571C138.046 184.571 137.769 184.648 137.53 184.801C137.292 184.952 137.105 185.151 136.972 185.398C136.841 185.642 136.775 185.911 136.772 186.203V187.111C136.772 187.491 136.841 187.818 136.98 188.091C137.12 188.361 137.314 188.568 137.564 188.713C137.814 188.855 138.107 188.926 138.442 188.926C138.667 188.926 138.87 188.895 139.051 188.832C139.233 188.767 139.391 188.672 139.525 188.547C139.658 188.422 139.759 188.267 139.827 188.082L141.267 188.244C141.176 188.625 141.003 188.957 140.748 189.241C140.495 189.523 140.171 189.741 139.776 189.898C139.381 190.051 138.929 190.128 138.421 190.128ZM148.187 189.484V183.587H149.525V189.484H148.187ZM145.907 187.205V185.866H151.805V187.205H145.907ZM156.664 190V183.455H158.159V184.545H158.228C158.347 184.168 158.551 183.876 158.841 183.672C159.134 183.464 159.468 183.361 159.843 183.361C159.928 183.361 160.023 183.365 160.128 183.374C160.236 183.379 160.326 183.389 160.397 183.403V184.822C160.331 184.8 160.228 184.78 160.086 184.763C159.946 184.743 159.811 184.733 159.681 184.733C159.4 184.733 159.147 184.794 158.922 184.916C158.701 185.036 158.526 185.202 158.398 185.415C158.27 185.628 158.206 185.874 158.206 186.152V190H156.664ZM164.007 190.128C163.368 190.128 162.814 189.987 162.345 189.706C161.876 189.425 161.513 189.031 161.254 188.526C160.999 188.02 160.871 187.429 160.871 186.753C160.871 186.077 160.999 185.484 161.254 184.976C161.513 184.467 161.876 184.072 162.345 183.791C162.814 183.51 163.368 183.369 164.007 183.369C164.646 183.369 165.2 183.51 165.669 183.791C166.138 184.072 166.5 184.467 166.756 184.976C167.014 185.484 167.143 186.077 167.143 186.753C167.143 187.429 167.014 188.02 166.756 188.526C166.5 189.031 166.138 189.425 165.669 189.706C165.2 189.987 164.646 190.128 164.007 190.128ZM164.016 188.892C164.362 188.892 164.652 188.797 164.885 188.607C165.118 188.413 165.291 188.155 165.405 187.831C165.521 187.507 165.58 187.146 165.58 186.749C165.58 186.348 165.521 185.986 165.405 185.662C165.291 185.335 165.118 185.075 164.885 184.882C164.652 184.689 164.362 184.592 164.016 184.592C163.661 184.592 163.365 184.689 163.129 184.882C162.896 185.075 162.722 185.335 162.605 185.662C162.491 185.986 162.435 186.348 162.435 186.749C162.435 187.146 162.491 187.507 162.605 187.831C162.722 188.155 162.896 188.413 163.129 188.607C163.365 188.797 163.661 188.892 164.016 188.892ZM169.995 181.273V190H168.453V181.273H169.995ZM174.479 190.128C173.823 190.128 173.256 189.991 172.779 189.719C172.305 189.443 171.94 189.054 171.684 188.551C171.428 188.045 171.3 187.45 171.3 186.766C171.3 186.092 171.428 185.501 171.684 184.993C171.942 184.482 172.303 184.084 172.766 183.8C173.229 183.513 173.773 183.369 174.398 183.369C174.802 183.369 175.183 183.435 175.54 183.565C175.901 183.693 176.219 183.892 176.495 184.162C176.773 184.432 176.992 184.776 177.151 185.193C177.31 185.608 177.39 186.102 177.39 186.676V187.149H172.025V186.109H175.911C175.908 185.814 175.844 185.551 175.719 185.321C175.594 185.088 175.42 184.905 175.195 184.771C174.974 184.638 174.715 184.571 174.42 184.571C174.104 184.571 173.827 184.648 173.589 184.801C173.35 184.952 173.164 185.151 173.031 185.398C172.9 185.642 172.833 185.911 172.83 186.203V187.111C172.83 187.491 172.9 187.818 173.039 188.091C173.178 188.361 173.373 188.568 173.623 188.713C173.873 188.855 174.165 188.926 174.501 188.926C174.725 188.926 174.928 188.895 175.11 188.832C175.292 188.767 175.45 188.672 175.583 188.547C175.717 188.422 175.817 188.267 175.886 188.082L177.326 188.244C177.235 188.625 177.062 188.957 176.806 189.241C176.553 189.523 176.229 189.741 175.835 189.898C175.44 190.051 174.988 190.128 174.479 190.128Z" fill="#424242"/>
<rect id="Rectangle_2" x="84" y="200" width="240" height="8" rx="4" fill="#D9D9D9"/>
<rect id="Rectangle_3" x="1216.5" y="176.5" width="129" height="31" rx="3.5" stroke="#9E9E9E"/>
<path id="archive" d="M1258.23 196.11C1257.88 196.11 1257.57 196.049 1257.3 195.925C1257.02 195.8 1256.8 195.615 1256.64 195.371C1256.48 195.128 1256.4 194.827 1256.4 194.469C1256.4 194.162 1256.46 193.907 1256.58 193.706C1256.69 193.505 1256.84 193.344 1257.04 193.223C1257.24 193.102 1257.46 193.011 1257.7 192.95C1257.95 192.886 1258.21 192.839 1258.48 192.811C1258.79 192.778 1259.05 192.748 1259.25 192.722C1259.45 192.694 1259.6 192.651 1259.69 192.594C1259.78 192.535 1259.82 192.444 1259.82 192.321V192.3C1259.82 192.032 1259.75 191.825 1259.59 191.678C1259.43 191.531 1259.2 191.458 1258.9 191.458C1258.59 191.458 1258.34 191.527 1258.15 191.664C1257.97 191.801 1257.85 191.964 1257.78 192.151L1256.58 191.98C1256.68 191.649 1256.83 191.372 1257.05 191.149C1257.27 190.924 1257.54 190.756 1257.85 190.645C1258.17 190.531 1258.51 190.474 1258.89 190.474C1259.16 190.474 1259.42 190.505 1259.68 190.567C1259.94 190.628 1260.18 190.73 1260.39 190.872C1260.61 191.012 1260.78 191.202 1260.91 191.444C1261.04 191.685 1261.11 191.987 1261.11 192.349V196H1259.87V195.251H1259.83C1259.75 195.402 1259.64 195.544 1259.5 195.677C1259.36 195.807 1259.19 195.912 1258.97 195.993C1258.76 196.071 1258.51 196.11 1258.23 196.11ZM1258.56 195.165C1258.82 195.165 1259.05 195.115 1259.24 195.013C1259.42 194.909 1259.57 194.771 1259.67 194.601C1259.78 194.43 1259.83 194.245 1259.83 194.043V193.401C1259.79 193.434 1259.72 193.464 1259.62 193.493C1259.53 193.521 1259.42 193.546 1259.3 193.567C1259.18 193.589 1259.07 193.608 1258.95 193.624C1258.83 193.641 1258.73 193.655 1258.65 193.667C1258.46 193.693 1258.29 193.736 1258.13 193.795C1257.98 193.854 1257.86 193.937 1257.78 194.043C1257.69 194.147 1257.64 194.282 1257.64 194.448C1257.64 194.685 1257.73 194.864 1257.9 194.984C1258.08 195.105 1258.3 195.165 1258.56 195.165ZM1262.4 196V190.545H1263.65V191.455H1263.71C1263.81 191.14 1263.98 190.897 1264.22 190.727C1264.46 190.554 1264.74 190.467 1265.05 190.467C1265.12 190.467 1265.2 190.471 1265.29 190.478C1265.38 190.483 1265.45 190.491 1265.51 190.503V191.685C1265.46 191.666 1265.37 191.65 1265.25 191.636C1265.14 191.619 1265.03 191.611 1264.92 191.611C1264.68 191.611 1264.47 191.662 1264.28 191.763C1264.1 191.863 1263.95 192.001 1263.85 192.179C1263.74 192.357 1263.69 192.561 1263.69 192.793V196H1262.4ZM1268.52 196.107C1267.98 196.107 1267.51 195.987 1267.12 195.748C1266.73 195.509 1266.43 195.179 1266.22 194.757C1266.01 194.333 1265.91 193.846 1265.91 193.294C1265.91 192.74 1266.02 192.251 1266.23 191.827C1266.44 191.401 1266.74 191.07 1267.13 190.833C1267.52 190.594 1267.98 190.474 1268.52 190.474C1268.96 190.474 1269.35 190.556 1269.69 190.719C1270.03 190.88 1270.31 191.109 1270.51 191.405C1270.71 191.698 1270.83 192.042 1270.86 192.435H1269.63C1269.58 192.172 1269.46 191.953 1269.28 191.778C1269.09 191.6 1268.84 191.511 1268.53 191.511C1268.27 191.511 1268.04 191.582 1267.84 191.724C1267.64 191.864 1267.49 192.065 1267.38 192.328C1267.27 192.591 1267.21 192.906 1267.21 193.273C1267.21 193.644 1267.27 193.964 1267.38 194.232C1267.48 194.497 1267.64 194.701 1267.83 194.846C1268.03 194.988 1268.27 195.059 1268.53 195.059C1268.72 195.059 1268.89 195.023 1269.04 194.952C1269.19 194.879 1269.32 194.774 1269.42 194.636C1269.52 194.499 1269.59 194.332 1269.63 194.136H1270.86C1270.83 194.522 1270.71 194.864 1270.52 195.162C1270.32 195.458 1270.05 195.69 1269.72 195.858C1269.38 196.024 1268.98 196.107 1268.52 196.107ZM1273.2 192.804V196H1271.91V188.727H1273.17V191.472H1273.24C1273.36 191.165 1273.56 190.922 1273.83 190.744C1274.1 190.564 1274.44 190.474 1274.86 190.474C1275.24 190.474 1275.57 190.554 1275.85 190.712C1276.13 190.871 1276.35 191.103 1276.5 191.408C1276.66 191.714 1276.74 192.087 1276.74 192.527V196H1275.45V192.726C1275.45 192.359 1275.36 192.074 1275.17 191.87C1274.98 191.664 1274.72 191.561 1274.38 191.561C1274.15 191.561 1273.95 191.611 1273.77 191.71C1273.59 191.807 1273.45 191.948 1273.35 192.133C1273.25 192.317 1273.2 192.541 1273.2 192.804ZM1278.05 196V190.545H1279.33V196H1278.05ZM1278.69 189.771C1278.49 189.771 1278.31 189.704 1278.17 189.569C1278.02 189.432 1277.95 189.267 1277.95 189.075C1277.95 188.881 1278.02 188.717 1278.17 188.582C1278.31 188.444 1278.49 188.376 1278.69 188.376C1278.9 188.376 1279.07 188.444 1279.22 188.582C1279.37 188.717 1279.44 188.881 1279.44 189.075C1279.44 189.267 1279.37 189.432 1279.22 189.569C1279.07 189.704 1278.9 189.771 1278.69 189.771ZM1285.53 190.545L1283.58 196H1282.16L1280.22 190.545H1281.59L1282.85 194.597H1282.9L1284.16 190.545H1285.53ZM1288.65 196.107C1288.1 196.107 1287.63 195.993 1287.23 195.766C1286.83 195.536 1286.53 195.212 1286.32 194.793C1286.1 194.371 1286 193.875 1286 193.305C1286 192.744 1286.1 192.251 1286.32 191.827C1286.53 191.401 1286.83 191.07 1287.22 190.833C1287.6 190.594 1288.06 190.474 1288.58 190.474C1288.91 190.474 1289.23 190.529 1289.53 190.638C1289.83 190.744 1290.1 190.91 1290.33 191.135C1290.56 191.36 1290.74 191.646 1290.87 191.994C1291 192.34 1291.07 192.752 1291.07 193.23V193.624H1286.6V192.758H1289.84C1289.84 192.512 1289.78 192.293 1289.68 192.101C1289.57 191.907 1289.43 191.754 1289.24 191.643C1289.06 191.531 1288.84 191.476 1288.6 191.476C1288.33 191.476 1288.1 191.54 1287.9 191.668C1287.7 191.793 1287.55 191.959 1287.44 192.165C1287.33 192.368 1287.27 192.592 1287.27 192.836V193.592C1287.27 193.91 1287.33 194.182 1287.45 194.409C1287.56 194.634 1287.72 194.807 1287.93 194.928C1288.14 195.046 1288.38 195.105 1288.66 195.105C1288.85 195.105 1289.02 195.079 1289.17 195.027C1289.32 194.973 1289.45 194.893 1289.57 194.789C1289.68 194.685 1289.76 194.556 1289.82 194.402L1291.02 194.537C1290.94 194.854 1290.8 195.131 1290.58 195.368C1290.37 195.602 1290.1 195.785 1289.77 195.915C1289.45 196.043 1289.07 196.107 1288.65 196.107Z" fill="#424242"/>
<rect id="Rectangle_4" x="64.5" y="248.5" width="1311" height="59" rx="3.5" stroke="#9E9E9E"/>
<path id="username + role_2" d="M88.9645 271.247V267.455H90.5071V274H89.0114V272.837H88.9432C88.7955 273.203 88.5526 273.503 88.2145 273.736C87.8793 273.969 87.4659 274.085 86.9744 274.085C86.5455 274.085 86.1662 273.99 85.8366 273.8C85.5099 273.607 85.2543 273.327 85.0696 272.96C84.8849 272.591 84.7926 272.145 84.7926 271.622V267.455H86.3352V271.384C86.3352 271.798 86.4489 272.128 86.6761 272.372C86.9034 272.616 87.2017 272.739 87.571 272.739C87.7983 272.739 88.0185 272.683 88.2315 272.572C88.4446 272.462 88.6193 272.297 88.7557 272.078C88.8949 271.857 88.9645 271.58 88.9645 271.247ZM97.2667 269.185L95.8604 269.338C95.8207 269.196 95.7511 269.062 95.6516 268.938C95.555 268.812 95.4244 268.712 95.2596 268.635C95.0948 268.558 94.8931 268.52 94.6545 268.52C94.3335 268.52 94.0636 268.589 93.8448 268.729C93.6289 268.868 93.5224 269.048 93.5252 269.27C93.5224 269.46 93.592 269.615 93.734 269.734C93.8789 269.854 94.1175 269.952 94.4499 270.028L95.5664 270.267C96.1857 270.401 96.646 270.612 96.9471 270.902C97.2511 271.192 97.4045 271.571 97.4073 272.04C97.4045 272.452 97.2837 272.815 97.0451 273.131C96.8093 273.443 96.4812 273.687 96.0607 273.864C95.6403 274.04 95.1573 274.128 94.6119 274.128C93.8107 274.128 93.1658 273.96 92.6772 273.625C92.1886 273.287 91.8974 272.817 91.8036 272.214L93.3079 272.07C93.3761 272.365 93.521 272.588 93.7425 272.739C93.9641 272.889 94.2525 272.964 94.6076 272.964C94.9741 272.964 95.2681 272.889 95.4897 272.739C95.7141 272.588 95.8263 272.402 95.8263 272.18C95.8263 271.993 95.7539 271.838 95.609 271.716C95.467 271.594 95.2454 271.5 94.9442 271.435L93.8278 271.2C93.1999 271.07 92.7354 270.849 92.4343 270.54C92.1332 270.227 91.984 269.832 91.9869 269.355C91.984 268.952 92.0934 268.602 92.315 268.307C92.5394 268.009 92.8505 267.778 93.2482 267.616C93.6488 267.452 94.1104 267.369 94.6332 267.369C95.4002 267.369 96.0039 267.533 96.4442 267.859C96.8874 268.186 97.1616 268.628 97.2667 269.185ZM101.577 274.128C100.921 274.128 100.354 273.991 99.8768 273.719C99.4023 273.443 99.0373 273.054 98.7816 272.551C98.5259 272.045 98.3981 271.45 98.3981 270.766C98.3981 270.092 98.5259 269.501 98.7816 268.993C99.0401 268.482 99.4009 268.084 99.864 267.8C100.327 267.513 100.871 267.369 101.496 267.369C101.9 267.369 102.28 267.435 102.638 267.565C102.999 267.693 103.317 267.892 103.593 268.162C103.871 268.432 104.09 268.776 104.249 269.193C104.408 269.608 104.488 270.102 104.488 270.676V271.149H99.1225V270.109H103.009C103.006 269.814 102.942 269.551 102.817 269.321C102.692 269.088 102.517 268.905 102.293 268.771C102.071 268.638 101.813 268.571 101.517 268.571C101.202 268.571 100.925 268.648 100.686 268.801C100.448 268.952 100.262 269.151 100.128 269.398C99.9975 269.642 99.9308 269.911 99.9279 270.203V271.111C99.9279 271.491 99.9975 271.818 100.137 272.091C100.276 272.361 100.471 272.568 100.721 272.713C100.971 272.855 101.263 272.926 101.598 272.926C101.823 272.926 102.026 272.895 102.208 272.832C102.39 272.767 102.547 272.672 102.681 272.547C102.814 272.422 102.915 272.267 102.983 272.082L104.424 272.244C104.333 272.625 104.159 272.957 103.904 273.241C103.651 273.523 103.327 273.741 102.932 273.898C102.537 274.051 102.086 274.128 101.577 274.128ZM105.793 274V267.455H107.288V268.545H107.357C107.476 268.168 107.68 267.876 107.97 267.672C108.263 267.464 108.597 267.361 108.972 267.361C109.057 267.361 109.152 267.365 109.257 267.374C109.365 267.379 109.455 267.389 109.526 267.403V268.822C109.46 268.8 109.357 268.78 109.214 268.763C109.075 268.743 108.94 268.733 108.81 268.733C108.528 268.733 108.276 268.794 108.051 268.916C107.83 269.036 107.655 269.202 107.527 269.415C107.399 269.628 107.335 269.874 107.335 270.152V274H105.793ZM112.093 270.165V274H110.55V267.455H112.025V268.567H112.102C112.252 268.2 112.492 267.909 112.822 267.693C113.154 267.477 113.565 267.369 114.053 267.369C114.505 267.369 114.898 267.466 115.234 267.659C115.572 267.852 115.833 268.132 116.018 268.499C116.205 268.865 116.298 269.31 116.295 269.832V274H114.752V270.071C114.752 269.634 114.638 269.291 114.411 269.044C114.187 268.797 113.876 268.673 113.478 268.673C113.208 268.673 112.968 268.733 112.758 268.852C112.55 268.969 112.387 269.138 112.268 269.359C112.151 269.581 112.093 269.849 112.093 270.165ZM119.746 274.132C119.332 274.132 118.958 274.058 118.626 273.911C118.296 273.76 118.035 273.538 117.842 273.246C117.651 272.953 117.556 272.592 117.556 272.163C117.556 271.794 117.624 271.489 117.761 271.247C117.897 271.006 118.083 270.812 118.319 270.668C118.555 270.523 118.82 270.413 119.116 270.339C119.414 270.263 119.722 270.207 120.04 270.173C120.424 270.134 120.735 270.098 120.974 270.067C121.212 270.033 121.386 269.982 121.494 269.913C121.604 269.842 121.66 269.733 121.66 269.585V269.56C121.66 269.239 121.565 268.99 121.374 268.814C121.184 268.638 120.91 268.55 120.552 268.55C120.174 268.55 119.874 268.632 119.653 268.797C119.434 268.962 119.286 269.156 119.21 269.381L117.769 269.176C117.883 268.778 118.07 268.446 118.332 268.179C118.593 267.909 118.913 267.707 119.29 267.574C119.668 267.438 120.086 267.369 120.543 267.369C120.859 267.369 121.173 267.406 121.485 267.48C121.798 267.554 122.083 267.676 122.342 267.847C122.6 268.014 122.808 268.243 122.964 268.533C123.123 268.822 123.202 269.185 123.202 269.619V274H121.719V273.101H121.668C121.575 273.283 121.442 273.453 121.272 273.612C121.104 273.768 120.893 273.895 120.637 273.991C120.384 274.085 120.087 274.132 119.746 274.132ZM120.147 272.999C120.457 272.999 120.725 272.937 120.952 272.815C121.18 272.69 121.354 272.526 121.477 272.321C121.602 272.116 121.664 271.893 121.664 271.652V270.881C121.616 270.92 121.533 270.957 121.417 270.991C121.303 271.026 121.175 271.055 121.033 271.081C120.891 271.107 120.751 271.129 120.612 271.149C120.472 271.169 120.352 271.186 120.249 271.2C120.019 271.232 119.813 271.283 119.631 271.354C119.45 271.425 119.306 271.524 119.201 271.652C119.096 271.777 119.043 271.939 119.043 272.138C119.043 272.422 119.147 272.636 119.354 272.781C119.562 272.926 119.826 272.999 120.147 272.999ZM124.754 274V267.455H126.228V268.567H126.305C126.441 268.192 126.667 267.899 126.982 267.689C127.298 267.476 127.674 267.369 128.112 267.369C128.555 267.369 128.928 267.477 129.232 267.693C129.539 267.906 129.755 268.197 129.88 268.567H129.948C130.093 268.203 130.337 267.913 130.681 267.697C131.028 267.479 131.438 267.369 131.913 267.369C132.515 267.369 133.006 267.56 133.387 267.94C133.768 268.321 133.958 268.876 133.958 269.607V274H132.411V269.845C132.411 269.439 132.303 269.142 132.087 268.955C131.871 268.764 131.607 268.669 131.295 268.669C130.923 268.669 130.631 268.786 130.421 269.018C130.214 269.249 130.11 269.548 130.11 269.918V274H128.597V269.781C128.597 269.443 128.495 269.173 128.29 268.972C128.089 268.77 127.825 268.669 127.498 268.669C127.276 268.669 127.075 268.726 126.893 268.839C126.711 268.95 126.566 269.108 126.458 269.312C126.35 269.514 126.296 269.75 126.296 270.02V274H124.754ZM138.421 274.128C137.765 274.128 137.198 273.991 136.721 273.719C136.246 273.443 135.881 273.054 135.625 272.551C135.37 272.045 135.242 271.45 135.242 270.766C135.242 270.092 135.37 269.501 135.625 268.993C135.884 268.482 136.245 268.084 136.708 267.8C137.171 267.513 137.715 267.369 138.34 267.369C138.743 267.369 139.124 267.435 139.482 267.565C139.843 267.693 140.161 267.892 140.436 268.162C140.715 268.432 140.934 268.776 141.093 269.193C141.252 269.608 141.331 270.102 141.331 270.676V271.149H135.966V270.109H139.853C139.85 269.814 139.786 269.551 139.661 269.321C139.536 269.088 139.361 268.905 139.137 268.771C138.915 268.638 138.657 268.571 138.361 268.571C138.046 268.571 137.769 268.648 137.53 268.801C137.292 268.952 137.105 269.151 136.972 269.398C136.841 269.642 136.775 269.911 136.772 270.203V271.111C136.772 271.491 136.841 271.818 136.98 272.091C137.12 272.361 137.314 272.568 137.564 272.713C137.814 272.855 138.107 272.926 138.442 272.926C138.667 272.926 138.87 272.895 139.051 272.832C139.233 272.767 139.391 272.672 139.525 272.547C139.658 272.422 139.759 272.267 139.827 272.082L141.267 272.244C141.176 272.625 141.003 272.957 140.748 273.241C140.495 273.523 140.171 273.741 139.776 273.898C139.381 274.051 138.929 274.128 138.421 274.128ZM148.187 273.484V267.587H149.525V273.484H148.187ZM145.907 271.205V269.866H151.805V271.205H145.907ZM156.664 274V267.455H158.159V268.545H158.228C158.347 268.168 158.551 267.876 158.841 267.672C159.134 267.464 159.468 267.361 159.843 267.361C159.928 267.361 160.023 267.365 160.128 267.374C160.236 267.379 160.326 267.389 160.397 267.403V268.822C160.331 268.8 160.228 268.78 160.086 268.763C159.946 268.743 159.811 268.733 159.681 268.733C159.4 268.733 159.147 268.794 158.922 268.916C158.701 269.036 158.526 269.202 158.398 269.415C158.27 269.628 158.206 269.874 158.206 270.152V274H156.664ZM164.007 274.128C163.368 274.128 162.814 273.987 162.345 273.706C161.876 273.425 161.513 273.031 161.254 272.526C160.999 272.02 160.871 271.429 160.871 270.753C160.871 270.077 160.999 269.484 161.254 268.976C161.513 268.467 161.876 268.072 162.345 267.791C162.814 267.51 163.368 267.369 164.007 267.369C164.646 267.369 165.2 267.51 165.669 267.791C166.138 268.072 166.5 268.467 166.756 268.976C167.014 269.484 167.143 270.077 167.143 270.753C167.143 271.429 167.014 272.02 166.756 272.526C166.5 273.031 166.138 273.425 165.669 273.706C165.2 273.987 164.646 274.128 164.007 274.128ZM164.016 272.892C164.362 272.892 164.652 272.797 164.885 272.607C165.118 272.413 165.291 272.155 165.405 271.831C165.521 271.507 165.58 271.146 165.58 270.749C165.58 270.348 165.521 269.986 165.405 269.662C165.291 269.335 165.118 269.075 164.885 268.882C164.652 268.689 164.362 268.592 164.016 268.592C163.661 268.592 163.365 268.689 163.129 268.882C162.896 269.075 162.722 269.335 162.605 269.662C162.491 269.986 162.435 270.348 162.435 270.749C162.435 271.146 162.491 271.507 162.605 271.831C162.722 272.155 162.896 272.413 163.129 272.607C163.365 272.797 163.661 272.892 164.016 272.892ZM169.995 265.273V274H168.453V265.273H169.995ZM174.479 274.128C173.823 274.128 173.256 273.991 172.779 273.719C172.305 273.443 171.94 273.054 171.684 272.551C171.428 272.045 171.3 271.45 171.3 270.766C171.3 270.092 171.428 269.501 171.684 268.993C171.942 268.482 172.303 268.084 172.766 267.8C173.229 267.513 173.773 267.369 174.398 267.369C174.802 267.369 175.183 267.435 175.54 267.565C175.901 267.693 176.219 267.892 176.495 268.162C176.773 268.432 176.992 268.776 177.151 269.193C177.31 269.608 177.39 270.102 177.39 270.676V271.149H172.025V270.109H175.911C175.908 269.814 175.844 269.551 175.719 269.321C175.594 269.088 175.42 268.905 175.195 268.771C174.974 268.638 174.715 268.571 174.42 268.571C174.104 268.571 173.827 268.648 173.589 268.801C173.35 268.952 173.164 269.151 173.031 269.398C172.9 269.642 172.833 269.911 172.83 270.203V271.111C172.83 271.491 172.9 271.818 173.039 272.091C173.178 272.361 173.373 272.568 173.623 272.713C173.873 272.855 174.165 272.926 174.501 272.926C174.725 272.926 174.928 272.895 175.11 272.832C175.292 272.767 175.45 272.672 175.583 272.547C175.717 272.422 175.817 272.267 175.886 272.082L177.326 272.244C177.235 272.625 177.062 272.957 176.806 273.241C176.553 273.523 176.229 273.741 175.835 273.898C175.44 274.051 174.988 274.128 174.479 274.128Z" fill="#424242"/>
<rect id="Rectangle_5" x="84" y="284" width="240" height="8" rx="4" fill="#D9D9D9"/>
<rect id="Rectangle_6" x="1216.5" y="260.5" width="129" height="31" rx="3.5" stroke="#9E9E9E"/>
<path id="archive_2" d="M1258.23 280.11C1257.88 280.11 1257.57 280.049 1257.3 279.925C1257.02 279.8 1256.8 279.615 1256.64 279.371C1256.48 279.128 1256.4 278.827 1256.4 278.469C1256.4 278.162 1256.46 277.907 1256.58 277.706C1256.69 277.505 1256.84 277.344 1257.04 277.223C1257.24 277.102 1257.46 277.011 1257.7 276.95C1257.95 276.886 1258.21 276.839 1258.48 276.811C1258.79 276.778 1259.05 276.748 1259.25 276.722C1259.45 276.694 1259.6 276.651 1259.69 276.594C1259.78 276.535 1259.82 276.444 1259.82 276.321V276.3C1259.82 276.032 1259.75 275.825 1259.59 275.678C1259.43 275.531 1259.2 275.458 1258.9 275.458C1258.59 275.458 1258.34 275.527 1258.15 275.664C1257.97 275.801 1257.85 275.964 1257.78 276.151L1256.58 275.98C1256.68 275.649 1256.83 275.372 1257.05 275.149C1257.27 274.924 1257.54 274.756 1257.85 274.645C1258.17 274.531 1258.51 274.474 1258.89 274.474C1259.16 274.474 1259.42 274.505 1259.68 274.567C1259.94 274.628 1260.18 274.73 1260.39 274.872C1260.61 275.012 1260.78 275.202 1260.91 275.444C1261.04 275.685 1261.11 275.987 1261.11 276.349V280H1259.87V279.251H1259.83C1259.75 279.402 1259.64 279.544 1259.5 279.677C1259.36 279.807 1259.19 279.912 1258.97 279.993C1258.76 280.071 1258.51 280.11 1258.23 280.11ZM1258.56 279.165C1258.82 279.165 1259.05 279.115 1259.24 279.013C1259.42 278.909 1259.57 278.771 1259.67 278.601C1259.78 278.43 1259.83 278.245 1259.83 278.043V277.401C1259.79 277.434 1259.72 277.464 1259.62 277.493C1259.53 277.521 1259.42 277.546 1259.3 277.567C1259.18 277.589 1259.07 277.608 1258.95 277.624C1258.83 277.641 1258.73 277.655 1258.65 277.667C1258.46 277.693 1258.29 277.736 1258.13 277.795C1257.98 277.854 1257.86 277.937 1257.78 278.043C1257.69 278.147 1257.64 278.282 1257.64 278.448C1257.64 278.685 1257.73 278.864 1257.9 278.984C1258.08 279.105 1258.3 279.165 1258.56 279.165ZM1262.4 280V274.545H1263.65V275.455H1263.71C1263.81 275.14 1263.98 274.897 1264.22 274.727C1264.46 274.554 1264.74 274.467 1265.05 274.467C1265.12 274.467 1265.2 274.471 1265.29 274.478C1265.38 274.483 1265.45 274.491 1265.51 274.503V275.685C1265.46 275.666 1265.37 275.65 1265.25 275.636C1265.14 275.619 1265.03 275.611 1264.92 275.611C1264.68 275.611 1264.47 275.662 1264.28 275.763C1264.1 275.863 1263.95 276.001 1263.85 276.179C1263.74 276.357 1263.69 276.561 1263.69 276.793V280H1262.4ZM1268.52 280.107C1267.98 280.107 1267.51 279.987 1267.12 279.748C1266.73 279.509 1266.43 279.179 1266.22 278.757C1266.01 278.333 1265.91 277.846 1265.91 277.294C1265.91 276.74 1266.02 276.251 1266.23 275.827C1266.44 275.401 1266.74 275.07 1267.13 274.833C1267.52 274.594 1267.98 274.474 1268.52 274.474C1268.96 274.474 1269.35 274.556 1269.69 274.719C1270.03 274.88 1270.31 275.109 1270.51 275.405C1270.71 275.698 1270.83 276.042 1270.86 276.435H1269.63C1269.58 276.172 1269.46 275.953 1269.28 275.778C1269.09 275.6 1268.84 275.511 1268.53 275.511C1268.27 275.511 1268.04 275.582 1267.84 275.724C1267.64 275.864 1267.49 276.065 1267.38 276.328C1267.27 276.591 1267.21 276.906 1267.21 277.273C1267.21 277.644 1267.27 277.964 1267.38 278.232C1267.48 278.497 1267.64 278.701 1267.83 278.846C1268.03 278.988 1268.27 279.059 1268.53 279.059C1268.72 279.059 1268.89 279.023 1269.04 278.952C1269.19 278.879 1269.32 278.774 1269.42 278.636C1269.52 278.499 1269.59 278.332 1269.63 278.136H1270.86C1270.83 278.522 1270.71 278.864 1270.52 279.162C1270.32 279.458 1270.05 279.69 1269.72 279.858C1269.38 280.024 1268.98 280.107 1268.52 280.107ZM1273.2 276.804V280H1271.91V272.727H1273.17V275.472H1273.24C1273.36 275.165 1273.56 274.922 1273.83 274.744C1274.1 274.564 1274.44 274.474 1274.86 274.474C1275.24 274.474 1275.57 274.554 1275.85 274.712C1276.13 274.871 1276.35 275.103 1276.5 275.408C1276.66 275.714 1276.74 276.087 1276.74 276.527V280H1275.45V276.726C1275.45 276.359 1275.36 276.074 1275.17 275.87C1274.98 275.664 1274.72 275.561 1274.38 275.561C1274.15 275.561 1273.95 275.611 1273.77 275.71C1273.59 275.807 1273.45 275.948 1273.35 276.133C1273.25 276.317 1273.2 276.541 1273.2 276.804ZM1278.05 280V274.545H1279.33V280H1278.05ZM1278.69 273.771C1278.49 273.771 1278.31 273.704 1278.17 273.569C1278.02 273.432 1277.95 273.267 1277.95 273.075C1277.95 272.881 1278.02 272.717 1278.17 272.582C1278.31 272.444 1278.49 272.376 1278.69 272.376C1278.9 272.376 1279.07 272.444 1279.22 272.582C1279.37 272.717 1279.44 272.881 1279.44 273.075C1279.44 273.267 1279.37 273.432 1279.22 273.569C1279.07 273.704 1278.9 273.771 1278.69 273.771ZM1285.53 274.545L1283.58 280H1282.16L1280.22 274.545H1281.59L1282.85 278.597H1282.9L1284.16 274.545H1285.53ZM1288.65 280.107C1288.1 280.107 1287.63 279.993 1287.23 279.766C1286.83 279.536 1286.53 279.212 1286.32 278.793C1286.1 278.371 1286 277.875 1286 277.305C1286 276.744 1286.1 276.251 1286.32 275.827C1286.53 275.401 1286.83 275.07 1287.22 274.833C1287.6 274.594 1288.06 274.474 1288.58 274.474C1288.91 274.474 1289.23 274.529 1289.53 274.638C1289.83 274.744 1290.1 274.91 1290.33 275.135C1290.56 275.36 1290.74 275.646 1290.87 275.994C1291 276.34 1291.07 276.752 1291.07 277.23V277.624H1286.6V276.758H1289.84C1289.84 276.512 1289.78 276.293 1289.68 276.101C1289.57 275.907 1289.43 275.754 1289.24 275.643C1289.06 275.531 1288.84 275.476 1288.6 275.476C1288.33 275.476 1288.1 275.54 1287.9 275.668C1287.7 275.793 1287.55 275.959 1287.44 276.165C1287.33 276.368 1287.27 276.592 1287.27 276.836V277.592C1287.27 277.91 1287.33 278.182 1287.45 278.409C1287.56 278.634 1287.72 278.807 1287.93 278.928C1288.14 279.046 1288.38 279.105 1288.66 279.105C1288.85 279.105 1289.02 279.079 1289.17 279.027C1289.32 278.973 1289.45 278.893 1289.57 278.789C1289.68 278.685 1289.76 278.556 1289.82 278.402L1291.02 278.537C1290.94 278.854 1290.8 279.131 1290.58 279.368C1290.37 279.602 1290.1 279.785 1289.77 279.915C1289.45 280.043 1289.07 280.107 1288.65 280.107Z" fill="#424242"/>
<rect id="Rectangle_7" x="64.5" y="332.5" width="1311" height="59" rx="3.5" stroke="#9E9E9E"/>
<path id="username + role_3" d="M88.9645 355.247V351.455H90.5071V358H89.0114V356.837H88.9432C88.7955 357.203 88.5526 357.503 88.2145 357.736C87.8793 357.969 87.4659 358.085 86.9744 358.085C86.5455 358.085 86.1662 357.99 85.8366 357.8C85.5099 357.607 85.2543 357.327 85.0696 356.96C84.8849 356.591 84.7926 356.145 84.7926 355.622V351.455H86.3352V355.384C86.3352 355.798 86.4489 356.128 86.6761 356.372C86.9034 356.616 87.2017 356.739 87.571 356.739C87.7983 356.739 88.0185 356.683 88.2315 356.572C88.4446 356.462 88.6193 356.297 88.7557 356.078C88.8949 355.857 88.9645 355.58 88.9645 355.247ZM97.2667 353.185L95.8604 353.338C95.8207 353.196 95.7511 353.062 95.6516 352.938C95.555 352.812 95.4244 352.712 95.2596 352.635C95.0948 352.558 94.8931 352.52 94.6545 352.52C94.3335 352.52 94.0636 352.589 93.8448 352.729C93.6289 352.868 93.5224 353.048 93.5252 353.27C93.5224 353.46 93.592 353.615 93.734 353.734C93.8789 353.854 94.1175 353.952 94.4499 354.028L95.5664 354.267C96.1857 354.401 96.646 354.612 96.9471 354.902C97.2511 355.192 97.4045 355.571 97.4073 356.04C97.4045 356.452 97.2837 356.815 97.0451 357.131C96.8093 357.443 96.4812 357.687 96.0607 357.864C95.6403 358.04 95.1573 358.128 94.6119 358.128C93.8107 358.128 93.1658 357.96 92.6772 357.625C92.1886 357.287 91.8974 356.817 91.8036 356.214L93.3079 356.07C93.3761 356.365 93.521 356.588 93.7425 356.739C93.9641 356.889 94.2525 356.964 94.6076 356.964C94.9741 356.964 95.2681 356.889 95.4897 356.739C95.7141 356.588 95.8263 356.402 95.8263 356.18C95.8263 355.993 95.7539 355.838 95.609 355.716C95.467 355.594 95.2454 355.5 94.9442 355.435L93.8278 355.2C93.1999 355.07 92.7354 354.849 92.4343 354.54C92.1332 354.227 91.984 353.832 91.9869 353.355C91.984 352.952 92.0934 352.602 92.315 352.307C92.5394 352.009 92.8505 351.778 93.2482 351.616C93.6488 351.452 94.1104 351.369 94.6332 351.369C95.4002 351.369 96.0039 351.533 96.4442 351.859C96.8874 352.186 97.1616 352.628 97.2667 353.185ZM101.577 358.128C100.921 358.128 100.354 357.991 99.8768 357.719C99.4023 357.443 99.0373 357.054 98.7816 356.551C98.5259 356.045 98.3981 355.45 98.3981 354.766C98.3981 354.092 98.5259 353.501 98.7816 352.993C99.0401 352.482 99.4009 352.084 99.864 351.8C100.327 351.513 100.871 351.369 101.496 351.369C101.9 351.369 102.28 351.435 102.638 351.565C102.999 351.693 103.317 351.892 103.593 352.162C103.871 352.432 104.09 352.776 104.249 353.193C104.408 353.608 104.488 354.102 104.488 354.676V355.149H99.1225V354.109H103.009C103.006 353.814 102.942 353.551 102.817 353.321C102.692 353.088 102.517 352.905 102.293 352.771C102.071 352.638 101.813 352.571 101.517 352.571C101.202 352.571 100.925 352.648 100.686 352.801C100.448 352.952 100.262 353.151 100.128 353.398C99.9975 353.642 99.9308 353.911 99.9279 354.203V355.111C99.9279 355.491 99.9975 355.818 100.137 356.091C100.276 356.361 100.471 356.568 100.721 356.713C100.971 356.855 101.263 356.926 101.598 356.926C101.823 356.926 102.026 356.895 102.208 356.832C102.39 356.767 102.547 356.672 102.681 356.547C102.814 356.422 102.915 356.267 102.983 356.082L104.424 356.244C104.333 356.625 104.159 356.957 103.904 357.241C103.651 357.523 103.327 357.741 102.932 357.898C102.537 358.051 102.086 358.128 101.577 358.128ZM105.793 358V351.455H107.288V352.545H107.357C107.476 352.168 107.68 351.876 107.97 351.672C108.263 351.464 108.597 351.361 108.972 351.361C109.057 351.361 109.152 351.365 109.257 351.374C109.365 351.379 109.455 351.389 109.526 351.403V352.822C109.46 352.8 109.357 352.78 109.214 352.763C109.075 352.743 108.94 352.733 108.81 352.733C108.528 352.733 108.276 352.794 108.051 352.916C107.83 353.036 107.655 353.202 107.527 353.415C107.399 353.628 107.335 353.874 107.335 354.152V358H105.793ZM112.093 354.165V358H110.55V351.455H112.025V352.567H112.102C112.252 352.2 112.492 351.909 112.822 351.693C113.154 351.477 113.565 351.369 114.053 351.369C114.505 351.369 114.898 351.466 115.234 351.659C115.572 351.852 115.833 352.132 116.018 352.499C116.205 352.865 116.298 353.31 116.295 353.832V358H114.752V354.071C114.752 353.634 114.638 353.291 114.411 353.044C114.187 352.797 113.876 352.673 113.478 352.673C113.208 352.673 112.968 352.733 112.758 352.852C112.55 352.969 112.387 353.138 112.268 353.359C112.151 353.581 112.093 353.849 112.093 354.165ZM119.746 358.132C119.332 358.132 118.958 358.058 118.626 357.911C118.296 357.76 118.035 357.538 117.842 357.246C117.651 356.953 117.556 356.592 117.556 356.163C117.556 355.794 117.624 355.489 117.761 355.247C117.897 355.006 118.083 354.812 118.319 354.668C118.555 354.523 118.82 354.413 119.116 354.339C119.414 354.263 119.722 354.207 120.04 354.173C120.424 354.134 120.735 354.098 120.974 354.067C121.212 354.033 121.386 353.982 121.494 353.913C121.604 353.842 121.66 353.733 121.66 353.585V353.56C121.66 353.239 121.565 352.99 121.374 352.814C121.184 352.638 120.91 352.55 120.552 352.55C120.174 352.55 119.874 352.632 119.653 352.797C119.434 352.962 119.286 353.156 119.21 353.381L117.769 353.176C117.883 352.778 118.07 352.446 118.332 352.179C118.593 351.909 118.913 351.707 119.29 351.574C119.668 351.438 120.086 351.369 120.543 351.369C120.859 351.369 121.173 351.406 121.485 351.48C121.798 351.554 122.083 351.676 122.342 351.847C122.6 352.014 122.808 352.243 122.964 352.533C123.123 352.822 123.202 353.185 123.202 353.619V358H121.719V357.101H121.668C121.575 357.283 121.442 357.453 121.272 357.612C121.104 357.768 120.893 357.895 120.637 357.991C120.384 358.085 120.087 358.132 119.746 358.132ZM120.147 356.999C120.457 356.999 120.725 356.937 120.952 356.815C121.18 356.69 121.354 356.526 121.477 356.321C121.602 356.116 121.664 355.893 121.664 355.652V354.881C121.616 354.92 121.533 354.957 121.417 354.991C121.303 355.026 121.175 355.055 121.033 355.081C120.891 355.107 120.751 355.129 120.612 355.149C120.472 355.169 120.352 355.186 120.249 355.2C120.019 355.232 119.813 355.283 119.631 355.354C119.45 355.425 119.306 355.524 119.201 355.652C119.096 355.777 119.043 355.939 119.043 356.138C119.043 356.422 119.147 356.636 119.354 356.781C119.562 356.926 119.826 356.999 120.147 356.999ZM124.754 358V351.455H126.228V352.567H126.305C126.441 352.192 126.667 351.899 126.982 351.689C127.298 351.476 127.674 351.369 128.112 351.369C128.555 351.369 128.928 351.477 129.232 351.693C129.539 351.906 129.755 352.197 129.88 352.567H129.948C130.093 352.203 130.337 351.913 130.681 351.697C131.028 351.479 131.438 351.369 131.913 351.369C132.515 351.369 133.006 351.56 133.387 351.94C133.768 352.321 133.958 352.876 133.958 353.607V358H132.411V353.845C132.411 353.439 132.303 353.142 132.087 352.955C131.871 352.764 131.607 352.669 131.295 352.669C130.923 352.669 130.631 352.786 130.421 353.018C130.214 353.249 130.11 353.548 130.11 353.918V358H128.597V353.781C128.597 353.443 128.495 353.173 128.29 352.972C128.089 352.77 127.825 352.669 127.498 352.669C127.276 352.669 127.075 352.726 126.893 352.839C126.711 352.95 126.566 353.108 126.458 353.312C126.35 353.514 126.296 353.75 126.296 354.02V358H124.754ZM138.421 358.128C137.765 358.128 137.198 357.991 136.721 357.719C136.246 357.443 135.881 357.054 135.625 356.551C135.37 356.045 135.242 355.45 135.242 354.766C135.242 354.092 135.37 353.501 135.625 352.993C135.884 352.482 136.245 352.084 136.708 351.8C137.171 351.513 137.715 351.369 138.34 351.369C138.743 351.369 139.124 351.435 139.482 351.565C139.843 351.693 140.161 351.892 140.436 352.162C140.715 352.432 140.934 352.776 141.093 353.193C141.252 353.608 141.331 354.102 141.331 354.676V355.149H135.966V354.109H139.853C139.85 353.814 139.786 353.551 139.661 353.321C139.536 353.088 139.361 352.905 139.137 352.771C138.915 352.638 138.657 352.571 138.361 352.571C138.046 352.571 137.769 352.648 137.53 352.801C137.292 352.952 137.105 353.151 136.972 353.398C136.841 353.642 136.775 353.911 136.772 354.203V355.111C136.772 355.491 136.841 355.818 136.98 356.091C137.12 356.361 137.314 356.568 137.564 356.713C137.814 356.855 138.107 356.926 138.442 356.926C138.667 356.926 138.87 356.895 139.051 356.832C139.233 356.767 139.391 356.672 139.525 356.547C139.658 356.422 139.759 356.267 139.827 356.082L141.267 356.244C141.176 356.625 141.003 356.957 140.748 357.241C140.495 357.523 140.171 357.741 139.776 357.898C139.381 358.051 138.929 358.128 138.421 358.128ZM148.187 357.484V351.587H149.525V357.484H148.187ZM145.907 355.205V353.866H151.805V355.205H145.907ZM156.664 358V351.455H158.159V352.545H158.228C158.347 352.168 158.551 351.876 158.841 351.672C159.134 351.464 159.468 351.361 159.843 351.361C159.928 351.361 160.023 351.365 160.128 351.374C160.236 351.379 160.326 351.389 160.397 351.403V352.822C160.331 352.8 160.228 352.78 160.086 352.763C159.946 352.743 159.811 352.733 159.681 352.733C159.4 352.733 159.147 352.794 158.922 352.916C158.701 353.036 158.526 353.202 158.398 353.415C158.27 353.628 158.206 353.874 158.206 354.152V358H156.664ZM164.007 358.128C163.368 358.128 162.814 357.987 162.345 357.706C161.876 357.425 161.513 357.031 161.254 356.526C160.999 356.02 160.871 355.429 160.871 354.753C160.871 354.077 160.999 353.484 161.254 352.976C161.513 352.467 161.876 352.072 162.345 351.791C162.814 351.51 163.368 351.369 164.007 351.369C164.646 351.369 165.2 351.51 165.669 351.791C166.138 352.072 166.5 352.467 166.756 352.976C167.014 353.484 167.143 354.077 167.143 354.753C167.143 355.429 167.014 356.02 166.756 356.526C166.5 357.031 166.138 357.425 165.669 357.706C165.2 357.987 164.646 358.128 164.007 358.128ZM164.016 356.892C164.362 356.892 164.652 356.797 164.885 356.607C165.118 356.413 165.291 356.155 165.405 355.831C165.521 355.507 165.58 355.146 165.58 354.749C165.58 354.348 165.521 353.986 165.405 353.662C165.291 353.335 165.118 353.075 164.885 352.882C164.652 352.689 164.362 352.592 164.016 352.592C163.661 352.592 163.365 352.689 163.129 352.882C162.896 353.075 162.722 353.335 162.605 353.662C162.491 353.986 162.435 354.348 162.435 354.749C162.435 355.146 162.491 355.507 162.605 355.831C162.722 356.155 162.896 356.413 163.129 356.607C163.365 356.797 163.661 356.892 164.016 356.892ZM169.995 349.273V358H168.453V349.273H169.995ZM174.479 358.128C173.823 358.128 173.256 357.991 172.779 357.719C172.305 357.443 171.94 357.054 171.684 356.551C171.428 356.045 171.3 355.45 171.3 354.766C171.3 354.092 171.428 353.501 171.684 352.993C171.942 352.482 172.303 352.084 172.766 351.8C173.229 351.513 173.773 351.369 174.398 351.369C174.802 351.369 175.183 351.435 175.54 351.565C175.901 351.693 176.219 351.892 176.495 352.162C176.773 352.432 176.992 352.776 177.151 353.193C177.31 353.608 177.39 354.102 177.39 354.676V355.149H172.025V354.109H175.911C175.908 353.814 175.844 353.551 175.719 353.321C175.594 353.088 175.42 352.905 175.195 352.771C174.974 352.638 174.715 352.571 174.42 352.571C174.104 352.571 173.827 352.648 173.589 352.801C173.35 352.952 173.164 353.151 173.031 353.398C172.9 353.642 172.833 353.911 172.83 354.203V355.111C172.83 355.491 172.9 355.818 173.039 356.091C173.178 356.361 173.373 356.568 173.623 356.713C173.873 356.855 174.165 356.926 174.501 356.926C174.725 356.926 174.928 356.895 175.11 356.832C175.292 356.767 175.45 356.672 175.583 356.547C175.717 356.422 175.817 356.267 175.886 356.082L177.326 356.244C177.235 356.625 177.062 356.957 176.806 357.241C176.553 357.523 176.229 357.741 175.835 357.898C175.44 358.051 174.988 358.128 174.479 358.128Z" fill="#424242"/>
<rect id="Rectangle_8" x="84" y="368" width="240" height="8" rx="4" fill="#D9D9D9"/>
<rect id="Rectangle_9" x="1216.5" y="344.5" width="129" height="31" rx="3.5" stroke="#9E9E9E"/>
<path id="archive_3" d="M1258.23 364.11C1257.88 364.11 1257.57 364.049 1257.3 363.925C1257.02 363.8 1256.8 363.615 1256.64 363.371C1256.48 363.128 1256.4 362.827 1256.4 362.469C1256.4 362.162 1256.46 361.907 1256.58 361.706C1256.69 361.505 1256.84 361.344 1257.04 361.223C1257.24 361.102 1257.46 361.011 1257.7 360.95C1257.95 360.886 1258.21 360.839 1258.48 360.811C1258.79 360.778 1259.05 360.748 1259.25 360.722C1259.45 360.694 1259.6 360.651 1259.69 360.594C1259.78 360.535 1259.82 360.444 1259.82 360.321V360.3C1259.82 360.032 1259.75 359.825 1259.59 359.678C1259.43 359.531 1259.2 359.458 1258.9 359.458C1258.59 359.458 1258.34 359.527 1258.15 359.664C1257.97 359.801 1257.85 359.964 1257.78 360.151L1256.58 359.98C1256.68 359.649 1256.83 359.372 1257.05 359.149C1257.27 358.924 1257.54 358.756 1257.85 358.645C1258.17 358.531 1258.51 358.474 1258.89 358.474C1259.16 358.474 1259.42 358.505 1259.68 358.567C1259.94 358.628 1260.18 358.73 1260.39 358.872C1260.61 359.012 1260.78 359.202 1260.91 359.444C1261.04 359.685 1261.11 359.987 1261.11 360.349V364H1259.87V363.251H1259.83C1259.75 363.402 1259.64 363.544 1259.5 363.677C1259.36 363.807 1259.19 363.912 1258.97 363.993C1258.76 364.071 1258.51 364.11 1258.23 364.11ZM1258.56 363.165C1258.82 363.165 1259.05 363.115 1259.24 363.013C1259.42 362.909 1259.57 362.771 1259.67 362.601C1259.78 362.43 1259.83 362.245 1259.83 362.043V361.401C1259.79 361.434 1259.72 361.464 1259.62 361.493C1259.53 361.521 1259.42 361.546 1259.3 361.567C1259.18 361.589 1259.07 361.608 1258.95 361.624C1258.83 361.641 1258.73 361.655 1258.65 361.667C1258.46 361.693 1258.29 361.736 1258.13 361.795C1257.98 361.854 1257.86 361.937 1257.78 362.043C1257.69 362.147 1257.64 362.282 1257.64 362.448C1257.64 362.685 1257.73 362.864 1257.9 362.984C1258.08 363.105 1258.3 363.165 1258.56 363.165ZM1262.4 364V358.545H1263.65V359.455H1263.71C1263.81 359.14 1263.98 358.897 1264.22 358.727C1264.46 358.554 1264.74 358.467 1265.05 358.467C1265.12 358.467 1265.2 358.471 1265.29 358.478C1265.38 358.483 1265.45 358.491 1265.51 358.503V359.685C1265.46 359.666 1265.37 359.65 1265.25 359.636C1265.14 359.619 1265.03 359.611 1264.92 359.611C1264.68 359.611 1264.47 359.662 1264.28 359.763C1264.1 359.863 1263.95 360.001 1263.85 360.179C1263.74 360.357 1263.69 360.561 1263.69 360.793V364H1262.4ZM1268.52 364.107C1267.98 364.107 1267.51 363.987 1267.12 363.748C1266.73 363.509 1266.43 363.179 1266.22 362.757C1266.01 362.333 1265.91 361.846 1265.91 361.294C1265.91 360.74 1266.02 360.251 1266.23 359.827C1266.44 359.401 1266.74 359.07 1267.13 358.833C1267.52 358.594 1267.98 358.474 1268.52 358.474C1268.96 358.474 1269.35 358.556 1269.69 358.719C1270.03 358.88 1270.31 359.109 1270.51 359.405C1270.71 359.698 1270.83 360.042 1270.86 360.435H1269.63C1269.58 360.172 1269.46 359.953 1269.28 359.778C1269.09 359.6 1268.84 359.511 1268.53 359.511C1268.27 359.511 1268.04 359.582 1267.84 359.724C1267.64 359.864 1267.49 360.065 1267.38 360.328C1267.27 360.591 1267.21 360.906 1267.21 361.273C1267.21 361.644 1267.27 361.964 1267.38 362.232C1267.48 362.497 1267.64 362.701 1267.83 362.846C1268.03 362.988 1268.27 363.059 1268.53 363.059C1268.72 363.059 1268.89 363.023 1269.04 362.952C1269.19 362.879 1269.32 362.774 1269.42 362.636C1269.52 362.499 1269.59 362.332 1269.63 362.136H1270.86C1270.83 362.522 1270.71 362.864 1270.52 363.162C1270.32 363.458 1270.05 363.69 1269.72 363.858C1269.38 364.024 1268.98 364.107 1268.52 364.107ZM1273.2 360.804V364H1271.91V356.727H1273.17V359.472H1273.24C1273.36 359.165 1273.56 358.922 1273.83 358.744C1274.1 358.564 1274.44 358.474 1274.86 358.474C1275.24 358.474 1275.57 358.554 1275.85 358.712C1276.13 358.871 1276.35 359.103 1276.5 359.408C1276.66 359.714 1276.74 360.087 1276.74 360.527V364H1275.45V360.726C1275.45 360.359 1275.36 360.074 1275.17 359.87C1274.98 359.664 1274.72 359.561 1274.38 359.561C1274.15 359.561 1273.95 359.611 1273.77 359.71C1273.59 359.807 1273.45 359.948 1273.35 360.133C1273.25 360.317 1273.2 360.541 1273.2 360.804ZM1278.05 364V358.545H1279.33V364H1278.05ZM1278.69 357.771C1278.49 357.771 1278.31 357.704 1278.17 357.569C1278.02 357.432 1277.95 357.267 1277.95 357.075C1277.95 356.881 1278.02 356.717 1278.17 356.582C1278.31 356.444 1278.49 356.376 1278.69 356.376C1278.9 356.376 1279.07 356.444 1279.22 356.582C1279.37 356.717 1279.44 356.881 1279.44 357.075C1279.44 357.267 1279.37 357.432 1279.22 357.569C1279.07 357.704 1278.9 357.771 1278.69 357.771ZM1285.53 358.545L1283.58 364H1282.16L1280.22 358.545H1281.59L1282.85 362.597H1282.9L1284.16 358.545H1285.53ZM1288.65 364.107C1288.1 364.107 1287.63 363.993 1287.23 363.766C1286.83 363.536 1286.53 363.212 1286.32 362.793C1286.1 362.371 1286 361.875 1286 361.305C1286 360.744 1286.1 360.251 1286.32 359.827C1286.53 359.401 1286.83 359.07 1287.22 358.833C1287.6 358.594 1288.06 358.474 1288.58 358.474C1288.91 358.474 1289.23 358.529 1289.53 358.638C1289.83 358.744 1290.1 358.91 1290.33 359.135C1290.56 359.36 1290.74 359.646 1290.87 359.994C1291 360.34 1291.07 360.752 1291.07 361.23V361.624H1286.6V360.758H1289.84C1289.84 360.512 1289.78 360.293 1289.68 360.101C1289.57 359.907 1289.43 359.754 1289.24 359.643C1289.06 359.531 1288.84 359.476 1288.6 359.476C1288.33 359.476 1288.1 359.54 1287.9 359.668C1287.7 359.793 1287.55 359.959 1287.44 360.165C1287.33 360.368 1287.27 360.592 1287.27 360.836V361.592C1287.27 361.91 1287.33 362.182 1287.45 362.409C1287.56 362.634 1287.72 362.807 1287.93 362.928C1288.14 363.046 1288.38 363.105 1288.66 363.105C1288.85 363.105 1289.02 363.079 1289.17 363.027C1289.32 362.973 1289.45 362.893 1289.57 362.789C1289.68 362.685 1289.76 362.556 1289.82 362.402L1291.02 362.537C1290.94 362.854 1290.8 363.131 1290.58 363.368C1290.37 363.602 1290.1 363.785 1289.77 363.915C1289.45 364.043 1289.07 364.107 1288.65 364.107Z" fill="#424242"/>
<path id="course moderation" d="M303.344 127.117C302.745 127.117 302.23 126.986 301.801 126.723C301.374 126.46 301.044 126.096 300.813 125.633C300.583 125.167 300.469 124.63 300.469 124.023C300.469 123.414 300.586 122.876 300.82 122.41C301.055 121.941 301.385 121.577 301.813 121.316C302.242 121.053 302.75 120.922 303.336 120.922C303.823 120.922 304.254 121.012 304.629 121.191C305.007 121.368 305.307 121.62 305.531 121.945C305.755 122.268 305.883 122.646 305.914 123.078H304.563C304.508 122.789 304.378 122.548 304.172 122.355C303.969 122.16 303.697 122.062 303.355 122.062C303.066 122.062 302.813 122.141 302.594 122.297C302.375 122.451 302.204 122.672 302.082 122.961C301.962 123.25 301.902 123.596 301.902 124C301.902 124.409 301.962 124.76 302.082 125.055C302.202 125.346 302.37 125.572 302.586 125.73C302.805 125.887 303.061 125.965 303.355 125.965C303.564 125.965 303.75 125.926 303.914 125.848C304.081 125.767 304.22 125.651 304.332 125.5C304.444 125.349 304.521 125.165 304.563 124.949H305.914C305.88 125.374 305.755 125.75 305.539 126.078C305.323 126.404 305.029 126.659 304.656 126.844C304.284 127.026 303.846 127.117 303.344 127.117ZM309.692 127.117C309.106 127.117 308.599 126.988 308.169 126.73C307.739 126.473 307.406 126.112 307.169 125.648C306.935 125.185 306.817 124.643 306.817 124.023C306.817 123.404 306.935 122.861 307.169 122.395C307.406 121.928 307.739 121.566 308.169 121.309C308.599 121.051 309.106 120.922 309.692 120.922C310.278 120.922 310.786 121.051 311.216 121.309C311.646 121.566 311.978 121.928 312.212 122.395C312.449 122.861 312.567 123.404 312.567 124.023C312.567 124.643 312.449 125.185 312.212 125.648C311.978 126.112 311.646 126.473 311.216 126.73C310.786 126.988 310.278 127.117 309.692 127.117ZM309.7 125.984C310.018 125.984 310.284 125.897 310.497 125.723C310.711 125.546 310.869 125.309 310.974 125.012C311.08 124.715 311.134 124.384 311.134 124.02C311.134 123.652 311.08 123.32 310.974 123.023C310.869 122.724 310.711 122.486 310.497 122.309C310.284 122.132 310.018 122.043 309.7 122.043C309.375 122.043 309.104 122.132 308.888 122.309C308.674 122.486 308.514 122.724 308.407 123.023C308.303 123.32 308.251 123.652 308.251 124.02C308.251 124.384 308.303 124.715 308.407 125.012C308.514 125.309 308.674 125.546 308.888 125.723C309.104 125.897 309.375 125.984 309.7 125.984ZM317.592 124.477V121H319.006V127H317.635V125.934H317.572C317.437 126.27 317.214 126.544 316.904 126.758C316.597 126.971 316.218 127.078 315.768 127.078C315.374 127.078 315.027 126.991 314.725 126.816C314.425 126.639 314.191 126.383 314.021 126.047C313.852 125.708 313.768 125.299 313.768 124.82V121H315.182V124.602C315.182 124.982 315.286 125.284 315.494 125.508C315.702 125.732 315.976 125.844 316.314 125.844C316.523 125.844 316.725 125.793 316.92 125.691C317.115 125.59 317.275 125.439 317.4 125.238C317.528 125.035 317.592 124.781 317.592 124.477ZM320.46 127V121H321.831V122H321.894C322.003 121.654 322.19 121.387 322.456 121.199C322.724 121.009 323.03 120.914 323.374 120.914C323.452 120.914 323.539 120.918 323.636 120.926C323.735 120.931 323.817 120.94 323.882 120.953V122.254C323.822 122.233 323.727 122.215 323.597 122.199C323.469 122.181 323.345 122.172 323.226 122.172C322.968 122.172 322.736 122.228 322.53 122.34C322.327 122.449 322.167 122.602 322.05 122.797C321.933 122.992 321.874 123.217 321.874 123.473V127H320.46ZM329.563 122.586L328.274 122.727C328.238 122.596 328.174 122.474 328.083 122.359C327.994 122.245 327.875 122.152 327.724 122.082C327.573 122.012 327.388 121.977 327.169 121.977C326.875 121.977 326.627 122.04 326.427 122.168C326.229 122.296 326.131 122.461 326.134 122.664C326.131 122.839 326.195 122.98 326.325 123.09C326.458 123.199 326.677 123.289 326.981 123.359L328.005 123.578C328.573 123.701 328.994 123.895 329.271 124.16C329.549 124.426 329.69 124.773 329.692 125.203C329.69 125.581 329.579 125.914 329.36 126.203C329.144 126.49 328.843 126.714 328.458 126.875C328.073 127.036 327.63 127.117 327.13 127.117C326.396 127.117 325.804 126.964 325.356 126.656C324.909 126.346 324.642 125.915 324.556 125.363L325.935 125.23C325.997 125.501 326.13 125.706 326.333 125.844C326.536 125.982 326.8 126.051 327.126 126.051C327.462 126.051 327.731 125.982 327.935 125.844C328.14 125.706 328.243 125.535 328.243 125.332C328.243 125.16 328.177 125.018 328.044 124.906C327.914 124.794 327.711 124.708 327.435 124.648L326.411 124.434C325.836 124.314 325.41 124.112 325.134 123.828C324.858 123.542 324.721 123.18 324.724 122.742C324.721 122.372 324.821 122.052 325.024 121.781C325.23 121.508 325.515 121.297 325.88 121.148C326.247 120.997 326.67 120.922 327.149 120.922C327.853 120.922 328.406 121.072 328.81 121.371C329.216 121.671 329.467 122.076 329.563 122.586ZM333.515 127.117C332.913 127.117 332.394 126.992 331.956 126.742C331.521 126.49 331.187 126.133 330.952 125.672C330.718 125.208 330.601 124.663 330.601 124.035C330.601 123.418 330.718 122.876 330.952 122.41C331.189 121.941 331.52 121.577 331.944 121.316C332.369 121.053 332.868 120.922 333.44 120.922C333.81 120.922 334.159 120.982 334.487 121.102C334.818 121.219 335.11 121.401 335.362 121.648C335.618 121.896 335.818 122.211 335.964 122.594C336.11 122.974 336.183 123.427 336.183 123.953V124.387H331.265V123.434H334.827C334.825 123.163 334.766 122.922 334.651 122.711C334.537 122.497 334.377 122.329 334.171 122.207C333.968 122.085 333.731 122.023 333.46 122.023C333.171 122.023 332.917 122.094 332.698 122.234C332.479 122.372 332.309 122.555 332.187 122.781C332.067 123.005 332.006 123.251 332.003 123.52V124.352C332.003 124.701 332.067 125 332.194 125.25C332.322 125.497 332.5 125.687 332.729 125.82C332.959 125.951 333.227 126.016 333.534 126.016C333.74 126.016 333.926 125.987 334.093 125.93C334.259 125.87 334.404 125.783 334.526 125.668C334.649 125.553 334.741 125.411 334.804 125.242L336.124 125.391C336.041 125.74 335.882 126.044 335.647 126.305C335.416 126.562 335.119 126.763 334.757 126.906C334.395 127.047 333.981 127.117 333.515 127.117ZM340.107 127V121H341.459V122.02H341.529C341.654 121.676 341.861 121.408 342.15 121.215C342.439 121.02 342.785 120.922 343.186 120.922C343.592 120.922 343.934 121.021 344.213 121.219C344.494 121.414 344.692 121.681 344.807 122.02H344.869C345.002 121.686 345.226 121.421 345.541 121.223C345.859 121.022 346.235 120.922 346.67 120.922C347.222 120.922 347.673 121.096 348.021 121.445C348.37 121.794 348.545 122.303 348.545 122.973V127H347.127V123.191C347.127 122.819 347.028 122.547 346.83 122.375C346.632 122.201 346.39 122.113 346.104 122.113C345.762 122.113 345.495 122.22 345.303 122.434C345.113 122.645 345.018 122.919 345.018 123.258V127H343.631V123.133C343.631 122.823 343.537 122.576 343.35 122.391C343.165 122.206 342.923 122.113 342.623 122.113C342.42 122.113 342.235 122.165 342.068 122.27C341.902 122.371 341.769 122.516 341.67 122.703C341.571 122.888 341.521 123.104 341.521 123.352V127H340.107ZM352.597 127.117C352.011 127.117 351.503 126.988 351.073 126.73C350.644 126.473 350.31 126.112 350.073 125.648C349.839 125.185 349.722 124.643 349.722 124.023C349.722 123.404 349.839 122.861 350.073 122.395C350.31 121.928 350.644 121.566 351.073 121.309C351.503 121.051 352.011 120.922 352.597 120.922C353.183 120.922 353.69 121.051 354.12 121.309C354.55 121.566 354.882 121.928 355.116 122.395C355.353 122.861 355.472 123.404 355.472 124.023C355.472 124.643 355.353 125.185 355.116 125.648C354.882 126.112 354.55 126.473 354.12 126.73C353.69 126.988 353.183 127.117 352.597 127.117ZM352.604 125.984C352.922 125.984 353.188 125.897 353.401 125.723C353.615 125.546 353.774 125.309 353.878 125.012C353.985 124.715 354.038 124.384 354.038 124.02C354.038 123.652 353.985 123.32 353.878 123.023C353.774 122.724 353.615 122.486 353.401 122.309C353.188 122.132 352.922 122.043 352.604 122.043C352.279 122.043 352.008 122.132 351.792 122.309C351.578 122.486 351.418 122.724 351.312 123.023C351.207 123.32 351.155 123.652 351.155 124.02C351.155 124.384 351.207 124.715 351.312 125.012C351.418 125.309 351.578 125.546 351.792 125.723C352.008 125.897 352.279 125.984 352.604 125.984ZM358.898 127.105C358.427 127.105 358.005 126.984 357.633 126.742C357.26 126.5 356.966 126.148 356.75 125.687C356.534 125.227 356.426 124.667 356.426 124.008C356.426 123.341 356.535 122.779 356.754 122.32C356.975 121.859 357.273 121.512 357.648 121.277C358.023 121.04 358.441 120.922 358.902 120.922C359.254 120.922 359.543 120.982 359.77 121.102C359.996 121.219 360.176 121.361 360.309 121.527C360.441 121.691 360.544 121.846 360.617 121.992H360.676V119H362.094V127H360.703V126.055H360.617C360.544 126.201 360.439 126.355 360.301 126.52C360.163 126.681 359.98 126.819 359.754 126.934C359.527 127.048 359.242 127.105 358.898 127.105ZM359.293 125.945C359.592 125.945 359.848 125.865 360.059 125.703C360.27 125.539 360.43 125.311 360.539 125.02C360.648 124.728 360.703 124.388 360.703 124C360.703 123.612 360.648 123.275 360.539 122.988C360.432 122.702 360.273 122.479 360.063 122.32C359.854 122.161 359.598 122.082 359.293 122.082C358.978 122.082 358.715 122.164 358.504 122.328C358.293 122.492 358.134 122.719 358.027 123.008C357.921 123.297 357.867 123.628 357.867 124C357.867 124.375 357.921 124.71 358.027 125.004C358.137 125.296 358.297 125.526 358.508 125.695C358.721 125.862 358.983 125.945 359.293 125.945ZM366.257 127.117C365.655 127.117 365.136 126.992 364.698 126.742C364.263 126.49 363.929 126.133 363.694 125.672C363.46 125.208 363.343 124.663 363.343 124.035C363.343 123.418 363.46 122.876 363.694 122.41C363.931 121.941 364.262 121.577 364.687 121.316C365.111 121.053 365.61 120.922 366.183 120.922C366.552 120.922 366.901 120.982 367.229 121.102C367.56 121.219 367.852 121.401 368.104 121.648C368.36 121.896 368.56 122.211 368.706 122.594C368.852 122.974 368.925 123.427 368.925 123.953V124.387H364.007V123.434H367.569C367.567 123.163 367.508 122.922 367.394 122.711C367.279 122.497 367.119 122.329 366.913 122.207C366.71 122.085 366.473 122.023 366.202 122.023C365.913 122.023 365.659 122.094 365.44 122.234C365.222 122.372 365.051 122.555 364.929 122.781C364.809 123.005 364.748 123.251 364.745 123.52V124.352C364.745 124.701 364.809 125 364.937 125.25C365.064 125.497 365.243 125.687 365.472 125.82C365.701 125.951 365.969 126.016 366.276 126.016C366.482 126.016 366.668 125.987 366.835 125.93C367.002 125.87 367.146 125.783 367.269 125.668C367.391 125.553 367.483 125.411 367.546 125.242L368.866 125.391C368.783 125.74 368.624 126.044 368.39 126.305C368.158 126.562 367.861 126.763 367.499 126.906C367.137 127.047 366.723 127.117 366.257 127.117ZM370.121 127V121H371.492V122H371.555C371.664 121.654 371.852 121.387 372.117 121.199C372.385 121.009 372.691 120.914 373.035 120.914C373.113 120.914 373.201 120.918 373.297 120.926C373.396 120.931 373.478 120.94 373.543 120.953V122.254C373.483 122.233 373.388 122.215 373.258 122.199C373.13 122.181 373.007 122.172 372.887 122.172C372.629 122.172 372.397 122.228 372.191 122.34C371.988 122.449 371.828 122.602 371.711 122.797C371.594 122.992 371.535 123.217 371.535 123.473V127H370.121ZM376.102 127.121C375.721 127.121 375.379 127.053 375.074 126.918C374.772 126.78 374.533 126.577 374.355 126.309C374.181 126.04 374.094 125.71 374.094 125.316C374.094 124.978 374.156 124.698 374.281 124.477C374.406 124.255 374.577 124.078 374.793 123.945C375.009 123.812 375.253 123.712 375.523 123.645C375.797 123.574 376.079 123.523 376.371 123.492C376.723 123.456 377.008 123.423 377.227 123.395C377.445 123.363 377.604 123.316 377.703 123.254C377.805 123.189 377.855 123.089 377.855 122.953V122.93C377.855 122.635 377.768 122.408 377.594 122.246C377.419 122.085 377.168 122.004 376.84 122.004C376.493 122.004 376.219 122.079 376.016 122.23C375.815 122.382 375.68 122.56 375.609 122.766L374.289 122.578C374.393 122.214 374.565 121.909 374.805 121.664C375.044 121.417 375.337 121.232 375.684 121.109C376.03 120.984 376.413 120.922 376.832 120.922C377.121 120.922 377.409 120.956 377.695 121.023C377.982 121.091 378.243 121.203 378.48 121.359C378.717 121.513 378.908 121.723 379.051 121.988C379.197 122.254 379.27 122.586 379.27 122.984V127H377.91V126.176H377.863C377.777 126.342 377.656 126.499 377.5 126.645C377.346 126.788 377.152 126.904 376.918 126.992C376.686 127.078 376.414 127.121 376.102 127.121ZM376.469 126.082C376.753 126.082 376.999 126.026 377.207 125.914C377.415 125.799 377.576 125.648 377.688 125.461C377.802 125.273 377.859 125.069 377.859 124.848V124.141C377.815 124.177 377.74 124.211 377.633 124.242C377.529 124.273 377.411 124.301 377.281 124.324C377.151 124.348 377.022 124.368 376.895 124.387C376.767 124.405 376.656 124.421 376.563 124.434C376.352 124.462 376.163 124.509 375.996 124.574C375.829 124.639 375.698 124.73 375.602 124.848C375.505 124.962 375.457 125.111 375.457 125.293C375.457 125.553 375.552 125.75 375.742 125.883C375.932 126.016 376.174 126.082 376.469 126.082ZM383.688 121V122.094H380.238V121H383.688ZM381.09 119.562H382.504V125.195C382.504 125.385 382.533 125.531 382.59 125.633C382.65 125.732 382.728 125.799 382.824 125.836C382.921 125.872 383.027 125.891 383.145 125.891C383.233 125.891 383.314 125.884 383.387 125.871C383.462 125.858 383.52 125.846 383.559 125.836L383.797 126.941C383.721 126.967 383.613 126.996 383.473 127.027C383.335 127.059 383.165 127.077 382.965 127.082C382.611 127.092 382.292 127.039 382.008 126.922C381.724 126.802 381.499 126.617 381.332 126.367C381.168 126.117 381.087 125.805 381.09 125.43V119.562ZM384.87 127V121H386.284V127H384.87ZM385.581 120.148C385.357 120.148 385.164 120.074 385.003 119.926C384.841 119.775 384.761 119.594 384.761 119.383C384.761 119.169 384.841 118.988 385.003 118.84C385.164 118.689 385.357 118.613 385.581 118.613C385.808 118.613 386 118.689 386.159 118.84C386.321 118.988 386.401 119.169 386.401 119.383C386.401 119.594 386.321 119.775 386.159 119.926C386 120.074 385.808 120.148 385.581 120.148ZM390.355 127.117C389.77 127.117 389.262 126.988 388.832 126.73C388.402 126.473 388.069 126.112 387.832 125.648C387.598 125.185 387.48 124.643 387.48 124.023C387.48 123.404 387.598 122.861 387.832 122.395C388.069 121.928 388.402 121.566 388.832 121.309C389.262 121.051 389.77 120.922 390.355 120.922C390.941 120.922 391.449 121.051 391.879 121.309C392.309 121.566 392.641 121.928 392.875 122.395C393.112 122.861 393.23 123.404 393.23 124.023C393.23 124.643 393.112 125.185 392.875 125.648C392.641 126.112 392.309 126.473 391.879 126.73C391.449 126.988 390.941 127.117 390.355 127.117ZM390.363 125.984C390.681 125.984 390.947 125.897 391.16 125.723C391.374 125.546 391.533 125.309 391.637 125.012C391.743 124.715 391.797 124.384 391.797 124.02C391.797 123.652 391.743 123.32 391.637 123.023C391.533 122.724 391.374 122.486 391.16 122.309C390.947 122.132 390.681 122.043 390.363 122.043C390.038 122.043 389.767 122.132 389.551 122.309C389.337 122.486 389.177 122.724 389.07 123.023C388.966 123.32 388.914 123.652 388.914 124.02C388.914 124.384 388.966 124.715 389.07 125.012C389.177 125.309 389.337 125.546 389.551 125.723C389.767 125.897 390.038 125.984 390.363 125.984ZM395.845 123.484V127H394.431V121H395.782V122.02H395.853C395.991 121.684 396.211 121.417 396.513 121.219C396.817 121.021 397.194 120.922 397.642 120.922C398.056 120.922 398.416 121.01 398.724 121.187C399.034 121.365 399.273 121.621 399.442 121.957C399.614 122.293 399.699 122.701 399.696 123.18V127H398.282V123.398C398.282 122.997 398.178 122.684 397.97 122.457C397.764 122.23 397.479 122.117 397.114 122.117C396.867 122.117 396.647 122.172 396.454 122.281C396.264 122.388 396.114 122.543 396.005 122.746C395.898 122.949 395.845 123.195 395.845 123.484Z" fill="#424242"/>
</g>
<g id="footer">
<rect width="1440" height="50" transform="translate(0 542)" fill="#E6E6E6"/>
<rect id="Rectangle_10" x="64" y="562" width="320" height="10" rx="4" fill="#9E9E9E"/>
<rect id="Rectangle_11" x="1256" y="562" width="120" height="10" rx="4" fill="#9E9E9E"/>
</g>
</g>
<rect x="0.5" y="0.5" width="1439" height="591" stroke="#9E9E9E"/>
</g>
</g>
<defs>
<clipPath id="clip0_10_9">
<rect width="1440" height="592" fill="white"/>
</clipPath>
<clipPath id="clip1_10_9">
<rect width="74" height="20" fill="white" transform="translate(64 26)"/>
</clipPath>
<clipPath id="clip2_10_9">
<rect width="195" height="32" fill="white" transform="translate(1181 20)"/>
</clipPath>
</defs>
</svg>
