<svg width="1440" height="592" viewBox="0 0 1440 592" fill="none" xmlns="http://www.w3.org/2000/svg">
<rect width="1440" height="592" fill="#F5F5F5"/>
<g id="Wireframes (desktop 1440)">
<path d="M-9800 -78C-9800 -79.1046 -9799.1 -80 -9798 -80H6638C6639.11 -80 6640 -79.1046 6640 -78V958C6640 959.105 6639.11 960 6638 960H-9798C-9799.1 960 -9800 959.105 -9800 958V-78Z" fill="white"/>
<path d="M-9798 -80V-79H6638V-80V-81H-9798V-80ZM6640 -78H6639V958H6640H6641V-78H6640ZM6638 960V959H-9798V960V961H6638V960ZM-9800 958H-9799V-78H-9800H-9801V958H-9800ZM-9798 960V959C-9798.55 959 -9799 958.552 -9799 958H-9800H-9801C-9801 959.657 -9799.66 961 -9798 961V960ZM6640 958H6639C6639 958.552 6638.55 959 6638 959V960V961C6639.66 961 6641 959.657 6641 958H6640ZM6638 -80V-79C6638.55 -79 6639 -78.5523 6639 -78H6640H6641C6641 -79.6568 6639.66 -81 6638 -81V-80ZM-9798 -80V-81C-9799.66 -81 -9801 -79.6568 -9801 -78H-9800H-9799C-9799 -78.5523 -9798.55 -79 -9798 -79V-80Z" fill="black" fill-opacity="0.1"/>
<g id="Wireframe / Course editor">
<g clip-path="url(#clip0_10_9)">
<rect width="1440" height="592" fill="white"/>
<g id="header (authenticated)">
<rect width="1440" height="72" fill="#E6E6E6"/>
<g id="brand" clip-path="url(#clip1_10_9)">
<g id="logo mark (chevron book)">
<rect x="65" y="27" width="18" height="18" rx="3" stroke="#9E9E9E" stroke-width="2"/>
</g>
<path id="LOGO" d="M93.1477 41.5V29.8636H95.2557V39.733H100.381V41.5H93.1477ZM112.155 35.6818C112.155 36.9356 111.92 38.0095 111.45 38.9034C110.984 39.7936 110.348 40.4754 109.541 40.9489C108.738 41.4223 107.827 41.6591 106.808 41.6591C105.789 41.6591 104.876 41.4223 104.07 40.9489C103.267 40.4716 102.63 39.7879 102.161 38.8977C101.695 38.0038 101.462 36.9318 101.462 35.6818C101.462 34.428 101.695 33.3561 102.161 32.4659C102.63 31.572 103.267 30.8883 104.07 30.4148C104.876 29.9413 105.789 29.7045 106.808 29.7045C107.827 29.7045 108.738 29.9413 109.541 30.4148C110.348 30.8883 110.984 31.572 111.45 32.4659C111.92 33.3561 112.155 34.428 112.155 35.6818ZM110.036 35.6818C110.036 34.7992 109.897 34.0549 109.621 33.4489C109.348 32.839 108.969 32.3788 108.484 32.0682C108 31.7538 107.441 31.5966 106.808 31.5966C106.176 31.5966 105.617 31.7538 105.132 32.0682C104.647 32.3788 104.267 32.839 103.99 33.4489C103.717 34.0549 103.581 34.7992 103.581 35.6818C103.581 36.5644 103.717 37.3106 103.99 37.9205C104.267 38.5265 104.647 38.9867 105.132 39.3011C105.617 39.6117 106.176 39.767 106.808 39.767C107.441 39.767 108 39.6117 108.484 39.3011C108.969 38.9867 109.348 38.5265 109.621 37.9205C109.897 37.3106 110.036 36.5644 110.036 35.6818ZM121.943 33.5795C121.848 33.2727 121.718 32.9981 121.551 32.7557C121.388 32.5095 121.191 32.2992 120.96 32.125C120.733 31.9508 120.472 31.8201 120.176 31.733C119.881 31.642 119.559 31.5966 119.21 31.5966C118.585 31.5966 118.028 31.7538 117.54 32.0682C117.051 32.3826 116.667 32.8447 116.386 33.4545C116.11 34.0606 115.972 34.7992 115.972 35.6705C115.972 36.5492 116.11 37.2936 116.386 37.9034C116.663 38.5133 117.047 38.9773 117.54 39.2955C118.032 39.6098 118.604 39.767 119.256 39.767C119.847 39.767 120.358 39.6534 120.79 39.4261C121.225 39.1989 121.561 38.8769 121.795 38.4602C122.03 38.0398 122.148 37.5473 122.148 36.983L122.625 37.0568H119.466V35.4091H124.188V36.8068C124.188 37.803 123.975 38.6648 123.551 39.392C123.127 40.1193 122.544 40.6799 121.801 41.0739C121.059 41.464 120.206 41.6591 119.244 41.6591C118.172 41.6591 117.231 41.4186 116.42 40.9375C115.614 40.4527 114.983 39.7652 114.528 38.875C114.078 37.9811 113.852 36.9205 113.852 35.6932C113.852 34.7538 113.985 33.9148 114.25 33.1761C114.519 32.4375 114.894 31.8106 115.375 31.2955C115.856 30.7765 116.42 30.3826 117.068 30.1136C117.716 29.8409 118.42 29.7045 119.182 29.7045C119.826 29.7045 120.426 29.7992 120.983 29.9886C121.54 30.1742 122.034 30.4394 122.466 30.7841C122.902 31.1288 123.259 31.5379 123.54 32.0114C123.82 32.4848 124.004 33.0076 124.091 33.5795H121.943ZM136.624 35.6818C136.624 36.9356 136.389 38.0095 135.919 38.9034C135.453 39.7936 134.817 40.4754 134.01 40.9489C133.207 41.4223 132.296 41.6591 131.277 41.6591C130.258 41.6591 129.345 41.4223 128.538 40.9489C127.735 40.4716 127.099 39.7879 126.629 38.8977C126.163 38.0038 125.93 36.9318 125.93 35.6818C125.93 34.428 126.163 33.3561 126.629 32.4659C127.099 31.572 127.735 30.8883 128.538 30.4148C129.345 29.9413 130.258 29.7045 131.277 29.7045C132.296 29.7045 133.207 29.9413 134.01 30.4148C134.817 30.8883 135.453 31.572 135.919 32.4659C136.389 33.3561 136.624 34.428 136.624 35.6818ZM134.504 35.6818C134.504 34.7992 134.366 34.0549 134.089 33.4489C133.817 32.839 133.438 32.3788 132.953 32.0682C132.468 31.7538 131.91 31.5966 131.277 31.5966C130.644 31.5966 130.086 31.7538 129.601 32.0682C129.116 32.3788 128.735 32.839 128.459 33.4489C128.186 34.0549 128.05 34.7992 128.05 35.6818C128.05 36.5644 128.186 37.3106 128.459 37.9205C128.735 38.5265 129.116 38.9867 129.601 39.3011C130.086 39.6117 130.644 39.767 131.277 39.767C131.91 39.767 132.468 39.6117 132.953 39.3011C133.438 38.9867 133.817 38.5265 134.089 37.9205C134.366 37.3106 134.504 36.5644 134.504 35.6818Z" fill="#424242"/>
</g>
<g id="Frame" clip-path="url(#clip2_10_9)">
<path id="nav link (current)" d="M1183.53 36.8452V41H1181.86V33.9091H1183.46V35.114H1183.54C1183.7 34.717 1183.96 34.4015 1184.32 34.1676C1184.68 33.9337 1185.12 33.8168 1185.65 33.8168C1186.14 33.8168 1186.57 33.9214 1186.93 34.1307C1187.3 34.34 1187.58 34.6431 1187.78 35.0401C1187.98 35.4371 1188.08 35.9188 1188.08 36.4851V41H1186.41V36.7436C1186.41 36.2696 1186.29 35.8988 1186.04 35.631C1185.8 35.3633 1185.46 35.2294 1185.03 35.2294C1184.74 35.2294 1184.48 35.294 1184.25 35.4233C1184.03 35.5495 1183.85 35.7326 1183.72 35.9727C1183.59 36.2127 1183.53 36.5036 1183.53 36.8452ZM1191.82 41.1431C1191.37 41.1431 1190.97 41.0631 1190.61 40.9031C1190.25 40.7399 1189.97 40.4999 1189.76 40.1829C1189.55 39.8659 1189.45 39.475 1189.45 39.0103C1189.45 38.6102 1189.52 38.2794 1189.67 38.0178C1189.82 37.7562 1190.02 37.5469 1190.27 37.3899C1190.53 37.233 1190.82 37.1145 1191.14 37.0344C1191.46 36.9513 1191.79 36.8913 1192.14 36.8544C1192.56 36.8113 1192.89 36.7728 1193.15 36.739C1193.41 36.7021 1193.6 36.6467 1193.71 36.5728C1193.83 36.4959 1193.89 36.3774 1193.89 36.2173V36.1896C1193.89 35.8419 1193.79 35.5726 1193.58 35.3817C1193.38 35.1909 1193.08 35.0955 1192.69 35.0955C1192.28 35.0955 1191.96 35.1848 1191.72 35.3633C1191.48 35.5418 1191.32 35.7526 1191.24 35.9957L1189.68 35.7741C1189.8 35.3433 1190.01 34.9832 1190.29 34.6939C1190.57 34.4015 1190.92 34.183 1191.33 34.0384C1191.74 33.8906 1192.19 33.8168 1192.68 33.8168C1193.03 33.8168 1193.37 33.8568 1193.7 33.9368C1194.04 34.0168 1194.35 34.1491 1194.63 34.3338C1194.91 34.5154 1195.14 34.7631 1195.31 35.0771C1195.48 35.391 1195.56 35.7834 1195.56 36.2543V41H1193.96V40.0259H1193.9C1193.8 40.2229 1193.66 40.4076 1193.47 40.5799C1193.29 40.7492 1193.06 40.8861 1192.79 40.9908C1192.51 41.0923 1192.19 41.1431 1191.82 41.1431ZM1192.25 39.9151C1192.59 39.9151 1192.88 39.849 1193.13 39.7166C1193.37 39.5812 1193.56 39.4027 1193.7 39.1811C1193.83 38.9595 1193.9 38.7179 1193.9 38.4563V37.6207C1193.85 37.6638 1193.76 37.7038 1193.63 37.7408C1193.51 37.7777 1193.37 37.81 1193.22 37.8377C1193.06 37.8654 1192.91 37.89 1192.76 37.9116C1192.61 37.9331 1192.48 37.9516 1192.37 37.967C1192.12 38.0008 1191.89 38.0562 1191.7 38.1332C1191.5 38.2101 1191.34 38.3178 1191.23 38.4563C1191.12 38.5917 1191.06 38.7672 1191.06 38.9826C1191.06 39.2904 1191.17 39.5227 1191.4 39.6797C1191.62 39.8366 1191.91 39.9151 1192.25 39.9151ZM1203.33 33.9091L1200.8 41H1198.95L1196.43 33.9091H1198.21L1199.84 39.1765H1199.91L1201.55 33.9091H1203.33ZM1209.38 31.5455V41H1207.71V31.5455H1209.38ZM1211.1 41V33.9091H1212.77V41H1211.1ZM1211.94 32.9027C1211.67 32.9027 1211.44 32.815 1211.25 32.6396C1211.06 32.4611 1210.97 32.2472 1210.97 31.9979C1210.97 31.7455 1211.06 31.5316 1211.25 31.3562C1211.44 31.1777 1211.67 31.0884 1211.94 31.0884C1212.2 31.0884 1212.43 31.1777 1212.62 31.3562C1212.81 31.5316 1212.91 31.7455 1212.91 31.9979C1212.91 32.2472 1212.81 32.4611 1212.62 32.6396C1212.43 32.815 1212.2 32.9027 1211.94 32.9027ZM1216.16 36.8452V41H1214.49V33.9091H1216.08V35.114H1216.17C1216.33 34.717 1216.59 34.4015 1216.95 34.1676C1217.31 33.9337 1217.75 33.8168 1218.28 33.8168C1218.77 33.8168 1219.2 33.9214 1219.56 34.1307C1219.93 34.34 1220.21 34.6431 1220.41 35.0401C1220.61 35.4371 1220.71 35.9188 1220.71 36.4851V41H1219.04V36.7436C1219.04 36.2696 1218.91 35.8988 1218.67 35.631C1218.43 35.3633 1218.09 35.2294 1217.66 35.2294C1217.36 35.2294 1217.1 35.294 1216.88 35.4233C1216.65 35.5495 1216.48 35.7326 1216.35 35.9727C1216.22 36.2127 1216.16 36.5036 1216.16 36.8452ZM1223.93 38.7749L1223.93 36.7575H1224.19L1226.74 33.9091H1228.7L1225.56 37.3991H1225.21L1223.93 38.7749ZM1222.41 41V31.5455H1224.08V41H1222.41ZM1226.86 41L1224.55 37.7731L1225.68 36.5959L1228.86 41H1226.86ZM1233.45 37.1452C1233.45 35.9911 1233.6 34.9309 1233.91 33.9645C1234.21 32.995 1234.67 32.0994 1235.28 31.2777H1236.85C1236.62 31.5824 1236.4 31.9563 1236.2 32.3995C1235.99 32.8396 1235.82 33.3228 1235.66 33.8491C1235.52 34.3723 1235.4 34.9155 1235.31 35.4787C1235.23 36.0419 1235.19 36.5974 1235.19 37.1452C1235.19 37.8746 1235.26 38.6133 1235.41 39.3612C1235.55 40.109 1235.75 40.8015 1236 41.4386C1236.25 42.0787 1236.54 42.6019 1236.85 43.0082H1235.28C1234.67 42.1864 1234.21 41.2924 1233.91 40.326C1233.6 39.3565 1233.45 38.2963 1233.45 37.1452ZM1241.15 41.1385C1240.45 41.1385 1239.84 40.9831 1239.33 40.6722C1238.83 40.3614 1238.44 39.9321 1238.16 39.3842C1237.89 38.8333 1237.76 38.1993 1237.76 37.4822C1237.76 36.7621 1237.89 36.1265 1238.17 35.5756C1238.45 35.0217 1238.84 34.5908 1239.34 34.283C1239.85 33.9722 1240.45 33.8168 1241.14 33.8168C1241.72 33.8168 1242.23 33.9229 1242.67 34.1353C1243.12 34.3446 1243.47 34.6416 1243.74 35.0263C1244 35.4079 1244.15 35.8542 1244.19 36.3651H1242.59C1242.53 36.0234 1242.38 35.7388 1242.13 35.511C1241.89 35.2802 1241.57 35.1648 1241.17 35.1648C1240.83 35.1648 1240.53 35.2571 1240.27 35.4418C1240.01 35.6233 1239.81 35.8849 1239.66 36.2266C1239.52 36.5682 1239.45 36.9775 1239.45 37.4545C1239.45 37.9377 1239.52 38.3532 1239.66 38.701C1239.8 39.0457 1240 39.3119 1240.26 39.4996C1240.52 39.6843 1240.82 39.7766 1241.17 39.7766C1241.41 39.7766 1241.63 39.7305 1241.83 39.6381C1242.02 39.5427 1242.19 39.4058 1242.32 39.2273C1242.45 39.0488 1242.54 38.8318 1242.59 38.5763H1244.19C1244.15 39.078 1244 39.5227 1243.75 39.9105C1243.49 40.2952 1243.15 40.5968 1242.7 40.8153C1242.26 41.0308 1241.75 41.1385 1241.15 41.1385ZM1250.08 38.0178V33.9091H1251.75V41H1250.13V39.7397H1250.06C1249.9 40.1367 1249.64 40.4614 1249.27 40.7138C1248.91 40.9661 1248.46 41.0923 1247.93 41.0923C1247.46 41.0923 1247.05 40.9892 1246.69 40.783C1246.34 40.5737 1246.06 40.2706 1245.86 39.8736C1245.66 39.4735 1245.56 38.9903 1245.56 38.424V33.9091H1247.23V38.1655C1247.23 38.6148 1247.36 38.9718 1247.6 39.2365C1247.85 39.5012 1248.17 39.6335 1248.57 39.6335C1248.82 39.6335 1249.06 39.5735 1249.29 39.4535C1249.52 39.3335 1249.71 39.1549 1249.86 38.918C1250.01 38.6779 1250.08 38.3778 1250.08 38.0178ZM1253.47 41V33.9091H1255.09V35.0909H1255.17C1255.3 34.6816 1255.52 34.3661 1255.83 34.1445C1256.15 33.9199 1256.51 33.8075 1256.92 33.8075C1257.01 33.8075 1257.11 33.8121 1257.23 33.8214C1257.34 33.8275 1257.44 33.8383 1257.52 33.8537V35.391C1257.45 35.3664 1257.33 35.3448 1257.18 35.3263C1257.03 35.3048 1256.88 35.294 1256.74 35.294C1256.44 35.294 1256.16 35.3602 1255.92 35.4925C1255.68 35.6218 1255.49 35.8018 1255.35 36.0327C1255.21 36.2635 1255.14 36.5297 1255.14 36.8313V41H1253.47ZM1258.63 41V33.9091H1260.25V35.0909H1260.32C1260.45 34.6816 1260.67 34.3661 1260.99 34.1445C1261.3 33.9199 1261.66 33.8075 1262.07 33.8075C1262.16 33.8075 1262.27 33.8121 1262.38 33.8214C1262.5 33.8275 1262.59 33.8383 1262.67 33.8537V35.391C1262.6 35.3664 1262.49 35.3448 1262.33 35.3263C1262.18 35.3048 1262.04 35.294 1261.9 35.294C1261.59 35.294 1261.32 35.3602 1261.07 35.4925C1260.83 35.6218 1260.64 35.8018 1260.51 36.0327C1260.37 36.2635 1260.3 36.5297 1260.3 36.8313V41H1258.63ZM1266.63 41.1385C1265.92 41.1385 1265.3 40.9908 1264.79 40.6953C1264.27 40.3968 1263.88 39.9751 1263.6 39.4304C1263.32 38.8826 1263.18 38.2378 1263.18 37.4961C1263.18 36.7667 1263.32 36.1265 1263.6 35.5756C1263.88 35.0217 1264.27 34.5908 1264.77 34.283C1265.27 33.9722 1265.86 33.8168 1266.54 33.8168C1266.98 33.8168 1267.39 33.8875 1267.78 34.0291C1268.17 34.1676 1268.51 34.383 1268.81 34.6754C1269.11 34.9678 1269.35 35.3402 1269.52 35.7926C1269.7 36.242 1269.78 36.7775 1269.78 37.3991V37.9116H1263.97V36.7852H1268.18C1268.18 36.4651 1268.11 36.1804 1267.97 35.9311C1267.84 35.6787 1267.65 35.4802 1267.4 35.3356C1267.16 35.1909 1266.88 35.1186 1266.56 35.1186C1266.22 35.1186 1265.92 35.2017 1265.66 35.3679C1265.41 35.531 1265.2 35.7464 1265.06 36.0142C1264.92 36.2789 1264.85 36.5697 1264.84 36.8867V37.87C1264.84 38.2824 1264.92 38.6364 1265.07 38.9318C1265.22 39.2242 1265.43 39.4489 1265.7 39.6058C1265.97 39.7597 1266.29 39.8366 1266.65 39.8366C1266.89 39.8366 1267.11 39.8028 1267.31 39.7351C1267.51 39.6643 1267.68 39.5612 1267.82 39.4258C1267.97 39.2904 1268.08 39.1226 1268.15 38.9226L1269.71 39.098C1269.61 39.5104 1269.43 39.8705 1269.15 40.1783C1268.88 40.483 1268.52 40.7199 1268.1 40.8892C1267.67 41.0554 1267.18 41.1385 1266.63 41.1385ZM1272.87 36.8452V41H1271.2V33.9091H1272.79V35.114H1272.88C1273.04 34.717 1273.3 34.4015 1273.66 34.1676C1274.02 33.9337 1274.46 33.8168 1274.99 33.8168C1275.48 33.8168 1275.91 33.9214 1276.27 34.1307C1276.64 34.34 1276.92 34.6431 1277.12 35.0401C1277.32 35.4371 1277.42 35.9188 1277.42 36.4851V41H1275.75V36.7436C1275.75 36.2696 1275.62 35.8988 1275.38 35.631C1275.13 35.3633 1274.8 35.2294 1274.37 35.2294C1274.07 35.2294 1273.81 35.294 1273.59 35.4233C1273.36 35.5495 1273.19 35.7326 1273.06 35.9727C1272.93 36.2127 1272.87 36.5036 1272.87 36.8452ZM1282.66 33.9091V35.2017H1278.58V33.9091H1282.66ZM1279.59 32.2102H1281.26V38.8672C1281.26 39.0919 1281.29 39.2642 1281.36 39.3842C1281.43 39.5012 1281.52 39.5812 1281.64 39.6243C1281.75 39.6674 1281.88 39.6889 1282.02 39.6889C1282.12 39.6889 1282.22 39.6812 1282.3 39.6658C1282.39 39.6504 1282.46 39.6366 1282.51 39.6243L1282.79 40.9308C1282.7 40.9615 1282.57 40.9954 1282.4 41.0323C1282.24 41.0692 1282.04 41.0908 1281.8 41.0969C1281.39 41.1093 1281.01 41.0462 1280.67 40.9077C1280.34 40.7661 1280.07 40.5476 1279.87 40.2521C1279.68 39.9567 1279.59 39.5874 1279.59 39.1442V32.2102ZM1287.04 37.1452C1287.04 38.2963 1286.88 39.3565 1286.58 40.326C1286.27 41.2924 1285.82 42.1864 1285.21 43.0082H1283.64C1283.87 42.7035 1284.09 42.3311 1284.29 41.891C1284.49 41.4509 1284.67 40.9677 1284.82 40.4414C1284.97 39.9151 1285.09 39.3704 1285.17 38.8072C1285.25 38.244 1285.3 37.69 1285.3 37.1452C1285.3 36.4158 1285.22 35.6772 1285.08 34.9293C1284.93 34.1815 1284.73 33.4875 1284.48 32.8473C1284.23 32.2071 1283.95 31.6839 1283.64 31.2777H1285.21C1285.82 32.0994 1286.27 32.995 1286.58 33.9645C1286.88 34.9309 1287.04 35.9911 1287.04 37.1452Z" fill="#424242"/>
<path id="nav link" d="M1307.53 36.8452V41H1305.86V33.9091H1307.46V35.114H1307.54C1307.7 34.717 1307.96 34.4015 1308.32 34.1676C1308.68 33.9337 1309.12 33.8168 1309.65 33.8168C1310.14 33.8168 1310.57 33.9214 1310.93 34.1307C1311.3 34.34 1311.58 34.6431 1311.78 35.0401C1311.98 35.4371 1312.08 35.9188 1312.08 36.4851V41H1310.41V36.7436C1310.41 36.2696 1310.29 35.8988 1310.04 35.631C1309.8 35.3633 1309.46 35.2294 1309.03 35.2294C1308.74 35.2294 1308.48 35.294 1308.25 35.4233C1308.03 35.5495 1307.85 35.7326 1307.72 35.9727C1307.59 36.2127 1307.53 36.5036 1307.53 36.8452ZM1315.82 41.1431C1315.37 41.1431 1314.97 41.0631 1314.61 40.9031C1314.25 40.7399 1313.97 40.4999 1313.76 40.1829C1313.55 39.8659 1313.45 39.475 1313.45 39.0103C1313.45 38.6102 1313.52 38.2794 1313.67 38.0178C1313.82 37.7562 1314.02 37.5469 1314.27 37.3899C1314.53 37.233 1314.82 37.1145 1315.14 37.0344C1315.46 36.9513 1315.79 36.8913 1316.14 36.8544C1316.56 36.8113 1316.89 36.7728 1317.15 36.739C1317.41 36.7021 1317.6 36.6467 1317.71 36.5728C1317.83 36.4959 1317.89 36.3774 1317.89 36.2173V36.1896C1317.89 35.8419 1317.79 35.5726 1317.58 35.3817C1317.38 35.1909 1317.08 35.0955 1316.69 35.0955C1316.28 35.0955 1315.96 35.1848 1315.72 35.3633C1315.48 35.5418 1315.32 35.7526 1315.24 35.9957L1313.68 35.7741C1313.8 35.3433 1314.01 34.9832 1314.29 34.6939C1314.57 34.4015 1314.92 34.183 1315.33 34.0384C1315.74 33.8906 1316.19 33.8168 1316.68 33.8168C1317.03 33.8168 1317.37 33.8568 1317.7 33.9368C1318.04 34.0168 1318.35 34.1491 1318.63 34.3338C1318.91 34.5154 1319.14 34.7631 1319.31 35.0771C1319.48 35.391 1319.56 35.7834 1319.56 36.2543V41H1317.96V40.0259H1317.9C1317.8 40.2229 1317.66 40.4076 1317.47 40.5799C1317.29 40.7492 1317.06 40.8861 1316.79 40.9908C1316.51 41.0923 1316.19 41.1431 1315.82 41.1431ZM1316.25 39.9151C1316.59 39.9151 1316.88 39.849 1317.13 39.7166C1317.37 39.5812 1317.56 39.4027 1317.7 39.1811C1317.83 38.9595 1317.9 38.7179 1317.9 38.4563V37.6207C1317.85 37.6638 1317.76 37.7038 1317.63 37.7408C1317.51 37.7777 1317.37 37.81 1317.22 37.8377C1317.06 37.8654 1316.91 37.89 1316.76 37.9116C1316.61 37.9331 1316.48 37.9516 1316.37 37.967C1316.12 38.0008 1315.89 38.0562 1315.7 38.1332C1315.5 38.2101 1315.34 38.3178 1315.23 38.4563C1315.12 38.5917 1315.06 38.7672 1315.06 38.9826C1315.06 39.2904 1315.17 39.5227 1315.4 39.6797C1315.62 39.8366 1315.91 39.9151 1316.25 39.9151ZM1327.33 33.9091L1324.8 41H1322.95L1320.43 33.9091H1322.21L1323.84 39.1765H1323.91L1325.55 33.9091H1327.33ZM1333.38 31.5455V41H1331.71V31.5455H1333.38ZM1335.1 41V33.9091H1336.77V41H1335.1ZM1335.94 32.9027C1335.67 32.9027 1335.44 32.815 1335.25 32.6396C1335.06 32.4611 1334.97 32.2472 1334.97 31.9979C1334.97 31.7455 1335.06 31.5316 1335.25 31.3562C1335.44 31.1777 1335.67 31.0884 1335.94 31.0884C1336.2 31.0884 1336.43 31.1777 1336.62 31.3562C1336.81 31.5316 1336.91 31.7455 1336.91 31.9979C1336.91 32.2472 1336.81 32.4611 1336.62 32.6396C1336.43 32.815 1336.2 32.9027 1335.94 32.9027ZM1340.16 36.8452V41H1338.49V33.9091H1340.08V35.114H1340.17C1340.33 34.717 1340.59 34.4015 1340.95 34.1676C1341.31 33.9337 1341.75 33.8168 1342.28 33.8168C1342.77 33.8168 1343.2 33.9214 1343.56 34.1307C1343.93 34.34 1344.21 34.6431 1344.41 35.0401C1344.61 35.4371 1344.71 35.9188 1344.71 36.4851V41H1343.04V36.7436C1343.04 36.2696 1342.91 35.8988 1342.67 35.631C1342.43 35.3633 1342.09 35.2294 1341.66 35.2294C1341.36 35.2294 1341.1 35.294 1340.88 35.4233C1340.65 35.5495 1340.48 35.7326 1340.35 35.9727C1340.22 36.2127 1340.16 36.5036 1340.16 36.8452ZM1347.93 38.7749L1347.93 36.7575H1348.19L1350.74 33.9091H1352.7L1349.56 37.3991H1349.21L1347.93 38.7749ZM1346.41 41V31.5455H1348.08V41H1346.41ZM1350.86 41L1348.55 37.7731L1349.68 36.5959L1352.86 41H1350.86Z" fill="#424242"/>
<g id="divider">
<rect width="1" height="20" transform="translate(1369 26)" fill="#9E9E9E"/>
</g>
</g>
</g>
<g id="main" clip-path="url(#clip3_10_9)">
<path id="H1: edit the course" d="M65.076 126V115.091H67.0522V119.709H72.1072V115.091H74.0888V126H72.1072V121.366H67.0522V126H65.076ZM80.5687 115.091V126H78.5925V117.014H78.5286L75.9771 118.644V116.833L78.6884 115.091H80.5687ZM84.5478 124.69C84.2246 124.69 83.9476 124.576 83.7168 124.349C83.486 124.118 83.3723 123.841 83.3759 123.518C83.3723 123.198 83.486 122.925 83.7168 122.697C83.9476 122.47 84.2246 122.357 84.5478 122.357C84.8603 122.357 85.1319 122.47 85.3627 122.697C85.5971 122.925 85.7161 123.198 85.7196 123.518C85.7161 123.734 85.6593 123.931 85.5492 124.109C85.4426 124.287 85.3006 124.429 85.123 124.535C84.949 124.638 84.7573 124.69 84.5478 124.69ZM84.5478 119.283C84.2246 119.283 83.9476 119.169 83.7168 118.942C83.486 118.711 83.3723 118.434 83.3759 118.111C83.3723 117.792 83.486 117.518 83.7168 117.291C83.9476 117.06 84.2246 116.945 84.5478 116.945C84.8603 116.945 85.1319 117.06 85.3627 117.291C85.5971 117.518 85.7161 117.792 85.7196 118.111C85.7161 118.324 85.6593 118.52 85.5492 118.697C85.4426 118.875 85.3006 119.017 85.123 119.123C84.949 119.23 84.7573 119.283 84.5478 119.283ZM95.0534 126.16C94.233 126.16 93.5246 125.989 92.928 125.648C92.335 125.304 91.8786 124.817 91.559 124.189C91.2394 123.557 91.0796 122.813 91.0796 121.957C91.0796 121.115 91.2394 120.377 91.559 119.741C91.8822 119.102 92.3332 118.605 92.912 118.25C93.4909 117.891 94.1709 117.712 94.9521 117.712C95.4564 117.712 95.9323 117.793 96.3797 117.957C96.8307 118.116 97.2284 118.365 97.5729 118.702C97.9209 119.04 98.1943 119.469 98.3932 119.991C98.5921 120.51 98.6915 121.128 98.6915 121.845V122.436H91.9852V121.137H96.8431C96.8396 120.767 96.7597 120.439 96.6034 120.151C96.4472 119.86 96.2288 119.631 95.9482 119.464C95.6713 119.297 95.3481 119.214 94.9788 119.214C94.5846 119.214 94.2384 119.31 93.9401 119.501C93.6418 119.69 93.4092 119.938 93.2423 120.247C93.0789 120.553 92.9955 120.888 92.9919 121.254V122.388C92.9919 122.864 93.0789 123.273 93.2529 123.614C93.4269 123.951 93.6702 124.21 93.9827 124.391C94.2952 124.569 94.661 124.658 95.08 124.658C95.3605 124.658 95.6144 124.619 95.8417 124.54C96.069 124.459 96.2661 124.34 96.433 124.184C96.5999 124.027 96.7259 123.834 96.8112 123.603L98.6116 123.805C98.498 124.281 98.2813 124.697 97.9617 125.052C97.6457 125.403 97.2409 125.677 96.7472 125.872C96.2536 126.064 95.689 126.16 95.0534 126.16ZM103.359 126.144C102.716 126.144 102.141 125.979 101.633 125.648C101.125 125.318 100.724 124.839 100.429 124.21C100.135 123.582 99.9872 122.818 99.9872 121.92C99.9872 121.011 100.136 120.244 100.435 119.619C100.737 118.99 101.143 118.516 101.654 118.196C102.166 117.873 102.736 117.712 103.364 117.712C103.844 117.712 104.238 117.793 104.547 117.957C104.856 118.116 105.101 118.31 105.282 118.537C105.463 118.761 105.603 118.972 105.703 119.171H105.783V115.091H107.716V126H105.82V124.711H105.703C105.603 124.91 105.46 125.121 105.271 125.345C105.083 125.565 104.835 125.753 104.526 125.909C104.217 126.066 103.828 126.144 103.359 126.144ZM103.897 124.562C104.305 124.562 104.653 124.452 104.941 124.232C105.229 124.008 105.447 123.697 105.596 123.299C105.745 122.902 105.82 122.438 105.82 121.909C105.82 121.38 105.745 120.92 105.596 120.529C105.451 120.139 105.234 119.835 104.946 119.619C104.662 119.402 104.313 119.294 103.897 119.294C103.467 119.294 103.109 119.406 102.821 119.629C102.533 119.853 102.317 120.162 102.171 120.556C102.026 120.95 101.953 121.401 101.953 121.909C101.953 122.42 102.026 122.877 102.171 123.278C102.32 123.676 102.539 123.99 102.826 124.221C103.118 124.448 103.474 124.562 103.897 124.562ZM109.771 126V117.818H111.699V126H109.771ZM110.741 116.657C110.435 116.657 110.172 116.556 109.952 116.353C109.732 116.147 109.622 115.901 109.622 115.613C109.622 115.322 109.732 115.075 109.952 114.873C110.172 114.667 110.435 114.564 110.741 114.564C111.049 114.564 111.312 114.667 111.529 114.873C111.749 115.075 111.859 115.322 111.859 115.613C111.859 115.901 111.749 116.147 111.529 116.353C111.312 116.556 111.049 116.657 110.741 116.657ZM117.768 117.818V119.31H113.064V117.818H117.768ZM114.225 115.858H116.154V123.539C116.154 123.798 116.193 123.997 116.271 124.136C116.353 124.271 116.459 124.363 116.591 124.413C116.722 124.462 116.868 124.487 117.027 124.487C117.148 124.487 117.258 124.478 117.358 124.461C117.461 124.443 117.539 124.427 117.592 124.413L117.917 125.92C117.814 125.956 117.667 125.995 117.475 126.037C117.287 126.08 117.056 126.105 116.782 126.112C116.299 126.126 115.864 126.053 115.477 125.893C115.09 125.73 114.783 125.478 114.556 125.137C114.332 124.796 114.222 124.37 114.225 123.859V115.858ZM127.187 117.818V119.31H122.483V117.818H127.187ZM123.644 115.858H125.573V123.539C125.573 123.798 125.612 123.997 125.69 124.136C125.772 124.271 125.878 124.363 126.009 124.413C126.141 124.462 126.286 124.487 126.446 124.487C126.567 124.487 126.677 124.478 126.777 124.461C126.88 124.443 126.958 124.427 127.011 124.413L127.336 125.92C127.233 125.956 127.085 125.995 126.894 126.037C126.706 126.08 126.475 126.105 126.201 126.112C125.718 126.126 125.283 126.053 124.896 125.893C124.509 125.73 124.202 125.478 123.975 125.137C123.751 124.796 123.641 124.37 123.644 123.859V115.858ZM130.903 121.206V126H128.975V115.091H130.861V119.208H130.957C131.148 118.747 131.445 118.383 131.846 118.116C132.251 117.847 132.766 117.712 133.391 117.712C133.959 117.712 134.455 117.831 134.877 118.069C135.3 118.306 135.626 118.654 135.857 119.113C136.092 119.571 136.209 120.13 136.209 120.79V126H134.281V121.089C134.281 120.538 134.138 120.11 133.854 119.805C133.574 119.496 133.18 119.342 132.672 119.342C132.331 119.342 132.026 119.416 131.756 119.565C131.489 119.711 131.28 119.922 131.127 120.199C130.978 120.476 130.903 120.812 130.903 121.206ZM141.797 126.16C140.976 126.16 140.268 125.989 139.671 125.648C139.078 125.304 138.622 124.817 138.302 124.189C137.983 123.557 137.823 122.813 137.823 121.957C137.823 121.115 137.983 120.377 138.302 119.741C138.625 119.102 139.076 118.605 139.655 118.25C140.234 117.891 140.914 117.712 141.695 117.712C142.2 117.712 142.675 117.793 143.123 117.957C143.574 118.116 143.972 118.365 144.316 118.702C144.664 119.04 144.938 119.469 145.136 119.991C145.335 120.51 145.435 121.128 145.435 121.845V122.436H138.728V121.137H143.586C143.583 120.767 143.503 120.439 143.347 120.151C143.19 119.86 142.972 119.631 142.691 119.464C142.414 119.297 142.091 119.214 141.722 119.214C141.328 119.214 140.982 119.31 140.683 119.501C140.385 119.69 140.152 119.938 139.985 120.247C139.822 120.553 139.739 120.888 139.735 121.254V122.388C139.735 122.864 139.822 123.273 139.996 123.614C140.17 123.951 140.413 124.21 140.726 124.391C141.038 124.569 141.404 124.658 141.823 124.658C142.104 124.658 142.358 124.619 142.585 124.54C142.812 124.459 143.009 124.34 143.176 124.184C143.343 124.027 143.469 123.834 143.554 123.603L145.355 123.805C145.241 124.281 145.025 124.697 144.705 125.052C144.389 125.403 143.984 125.677 143.49 125.872C142.997 126.064 142.432 126.16 141.797 126.16ZM154.356 126.16C153.539 126.16 152.837 125.98 152.252 125.622C151.669 125.263 151.22 124.768 150.904 124.136C150.591 123.5 150.435 122.768 150.435 121.941C150.435 121.11 150.595 120.377 150.915 119.741C151.234 119.102 151.685 118.605 152.267 118.25C152.853 117.891 153.546 117.712 154.345 117.712C155.009 117.712 155.597 117.834 156.108 118.079C156.623 118.321 157.033 118.663 157.339 119.107C157.644 119.548 157.818 120.062 157.861 120.652H156.017C155.943 120.258 155.765 119.929 155.485 119.667C155.208 119.4 154.837 119.267 154.372 119.267C153.977 119.267 153.631 119.374 153.333 119.587C153.035 119.796 152.802 120.098 152.635 120.492C152.472 120.886 152.39 121.359 152.39 121.909C152.39 122.467 152.472 122.946 152.635 123.347C152.798 123.745 153.027 124.052 153.322 124.269C153.62 124.482 153.97 124.588 154.372 124.588C154.656 124.588 154.91 124.535 155.133 124.429C155.361 124.319 155.551 124.161 155.703 123.955C155.856 123.749 155.961 123.498 156.017 123.203H157.861C157.814 123.782 157.644 124.295 157.349 124.743C157.054 125.187 156.653 125.535 156.145 125.787C155.638 126.036 155.041 126.16 154.356 126.16ZM163.013 126.16C162.214 126.16 161.521 125.984 160.935 125.632C160.349 125.281 159.895 124.789 159.572 124.157C159.252 123.525 159.092 122.786 159.092 121.941C159.092 121.096 159.252 120.355 159.572 119.72C159.895 119.084 160.349 118.591 160.935 118.239C161.521 117.887 162.214 117.712 163.013 117.712C163.812 117.712 164.504 117.887 165.09 118.239C165.676 118.591 166.129 119.084 166.449 119.72C166.772 120.355 166.933 121.096 166.933 121.941C166.933 122.786 166.772 123.525 166.449 124.157C166.129 124.789 165.676 125.281 165.09 125.632C164.504 125.984 163.812 126.16 163.013 126.16ZM163.023 124.615C163.457 124.615 163.819 124.496 164.11 124.258C164.401 124.017 164.618 123.694 164.76 123.289C164.906 122.884 164.978 122.433 164.978 121.936C164.978 121.435 164.906 120.982 164.76 120.577C164.618 120.169 164.401 119.844 164.11 119.603C163.819 119.361 163.457 119.24 163.023 119.24C162.58 119.24 162.21 119.361 161.915 119.603C161.624 119.844 161.406 120.169 161.26 120.577C161.118 120.982 161.047 121.435 161.047 121.936C161.047 122.433 161.118 122.884 161.26 123.289C161.406 123.694 161.624 124.017 161.915 124.258C162.21 124.496 162.58 124.615 163.023 124.615ZM173.785 122.559V117.818H175.713V126H173.843V124.546H173.758C173.573 125.004 173.27 125.379 172.847 125.67C172.428 125.961 171.911 126.107 171.297 126.107C170.761 126.107 170.287 125.988 169.875 125.75C169.467 125.508 169.147 125.158 168.916 124.7C168.685 124.239 168.57 123.681 168.57 123.028V117.818H170.498V122.729C170.498 123.248 170.64 123.66 170.924 123.965C171.208 124.271 171.581 124.423 172.043 124.423C172.327 124.423 172.602 124.354 172.869 124.216C173.135 124.077 173.353 123.871 173.524 123.598C173.698 123.321 173.785 122.974 173.785 122.559ZM177.696 126V117.818H179.566V119.182H179.651C179.8 118.71 180.056 118.346 180.418 118.09C180.784 117.831 181.201 117.701 181.67 117.701C181.776 117.701 181.895 117.706 182.026 117.717C182.161 117.724 182.273 117.737 182.362 117.754V119.528C182.28 119.5 182.151 119.475 181.973 119.453C181.799 119.429 181.631 119.416 181.467 119.416C181.116 119.416 180.8 119.493 180.519 119.645C180.242 119.794 180.024 120.002 179.864 120.268C179.704 120.535 179.624 120.842 179.624 121.19V126H177.696ZM190.11 119.981L188.352 120.173C188.302 119.995 188.215 119.828 188.091 119.672C187.97 119.516 187.807 119.39 187.601 119.294C187.395 119.198 187.143 119.15 186.844 119.15C186.443 119.15 186.106 119.237 185.832 119.411C185.562 119.585 185.429 119.81 185.433 120.087C185.429 120.325 185.516 120.519 185.694 120.668C185.875 120.817 186.173 120.94 186.589 121.036L187.984 121.334C188.759 121.501 189.334 121.765 189.71 122.127C190.09 122.49 190.282 122.964 190.286 123.55C190.282 124.065 190.131 124.519 189.833 124.913C189.538 125.304 189.128 125.609 188.602 125.83C188.077 126.05 187.473 126.16 186.791 126.16C185.79 126.16 184.984 125.95 184.373 125.531C183.762 125.109 183.398 124.521 183.281 123.768L185.161 123.587C185.246 123.956 185.428 124.235 185.705 124.423C185.982 124.612 186.342 124.706 186.786 124.706C187.244 124.706 187.612 124.612 187.888 124.423C188.169 124.235 188.309 124.002 188.309 123.725C188.309 123.491 188.219 123.298 188.038 123.145C187.86 122.992 187.583 122.875 187.207 122.793L185.811 122.5C185.026 122.337 184.446 122.062 184.069 121.675C183.693 121.284 183.506 120.79 183.51 120.194C183.506 119.69 183.643 119.253 183.92 118.884C184.201 118.511 184.589 118.223 185.087 118.021C185.587 117.815 186.164 117.712 186.818 117.712C187.777 117.712 188.531 117.916 189.082 118.324C189.636 118.733 189.978 119.285 190.11 119.981ZM195.498 126.16C194.677 126.16 193.969 125.989 193.372 125.648C192.779 125.304 192.323 124.817 192.003 124.189C191.684 123.557 191.524 122.813 191.524 121.957C191.524 121.115 191.684 120.377 192.003 119.741C192.327 119.102 192.778 118.605 193.356 118.25C193.935 117.891 194.615 117.712 195.396 117.712C195.901 117.712 196.377 117.793 196.824 117.957C197.275 118.116 197.673 118.365 198.017 118.702C198.365 119.04 198.639 119.469 198.838 119.991C199.036 120.51 199.136 121.128 199.136 121.845V122.436H192.43V121.137H197.287C197.284 120.767 197.204 120.439 197.048 120.151C196.892 119.86 196.673 119.631 196.393 119.464C196.116 119.297 195.792 119.214 195.423 119.214C195.029 119.214 194.683 119.31 194.384 119.501C194.086 119.69 193.854 119.938 193.687 120.247C193.523 120.553 193.44 120.888 193.436 121.254V122.388C193.436 122.864 193.523 123.273 193.697 123.614C193.871 123.951 194.115 124.21 194.427 124.391C194.74 124.569 195.105 124.658 195.524 124.658C195.805 124.658 196.059 124.619 196.286 124.54C196.513 124.459 196.71 124.34 196.877 124.184C197.044 124.027 197.17 123.834 197.256 123.603L199.056 123.805C198.942 124.281 198.726 124.697 198.406 125.052C198.09 125.403 197.685 125.677 197.192 125.872C196.698 126.064 196.133 126.16 195.498 126.16Z" fill="#424242"/>
<rect id="Rectangle" x="64.5" y="164.5" width="639" height="299" rx="3.5" stroke="#9E9E9E"/>
<path id="label" d="M94.1406 187V195H92.7266V187H94.1406ZM97.3213 195.121C96.9411 195.121 96.5986 195.053 96.2939 194.918C95.9919 194.78 95.7523 194.577 95.5752 194.309C95.4007 194.04 95.3135 193.71 95.3135 193.316C95.3135 192.978 95.376 192.698 95.501 192.477C95.626 192.255 95.7965 192.078 96.0127 191.945C96.2288 191.812 96.4723 191.712 96.7432 191.645C97.0166 191.574 97.2992 191.523 97.5908 191.492C97.9424 191.456 98.2275 191.423 98.4463 191.395C98.665 191.363 98.8239 191.316 98.9229 191.254C99.0244 191.189 99.0752 191.089 99.0752 190.953V190.93C99.0752 190.635 98.988 190.408 98.8135 190.246C98.639 190.085 98.3877 190.004 98.0596 190.004C97.7132 190.004 97.4385 190.079 97.2354 190.23C97.0348 190.382 96.8994 190.56 96.8291 190.766L95.5088 190.578C95.613 190.214 95.7848 189.909 96.0244 189.664C96.264 189.417 96.557 189.232 96.9033 189.109C97.2497 188.984 97.6325 188.922 98.0518 188.922C98.3408 188.922 98.6286 188.956 98.915 189.023C99.2015 189.091 99.4632 189.203 99.7002 189.359C99.9372 189.513 100.127 189.723 100.271 189.988C100.416 190.254 100.489 190.586 100.489 190.984V195H99.1299V194.176H99.083C98.9971 194.342 98.876 194.499 98.7197 194.645C98.5661 194.788 98.3721 194.904 98.1377 194.992C97.9059 195.078 97.6338 195.121 97.3213 195.121ZM97.6885 194.082C97.9723 194.082 98.2184 194.026 98.4268 193.914C98.6351 193.799 98.7952 193.648 98.9072 193.461C99.0218 193.273 99.0791 193.069 99.0791 192.848V192.141C99.0348 192.177 98.9593 192.211 98.8525 192.242C98.7484 192.273 98.6312 192.301 98.501 192.324C98.3708 192.348 98.2419 192.368 98.1143 192.387C97.9867 192.405 97.876 192.421 97.7822 192.434C97.5713 192.462 97.3825 192.509 97.2158 192.574C97.0492 192.639 96.9176 192.73 96.8213 192.848C96.7249 192.962 96.6768 193.111 96.6768 193.293C96.6768 193.553 96.7718 193.75 96.9619 193.883C97.152 194.016 97.3942 194.082 97.6885 194.082ZM101.974 195V187H103.388V189.992H103.446C103.519 189.846 103.622 189.691 103.755 189.527C103.888 189.361 104.067 189.219 104.294 189.102C104.521 188.982 104.81 188.922 105.161 188.922C105.625 188.922 106.043 189.04 106.415 189.277C106.79 189.512 107.087 189.859 107.306 190.32C107.527 190.779 107.638 191.341 107.638 192.008C107.638 192.667 107.53 193.227 107.313 193.687C107.097 194.148 106.803 194.5 106.431 194.742C106.058 194.984 105.636 195.105 105.165 195.105C104.821 195.105 104.536 195.048 104.31 194.934C104.083 194.819 103.901 194.681 103.763 194.52C103.627 194.355 103.522 194.201 103.446 194.055H103.364V195H101.974ZM103.36 192C103.36 192.388 103.415 192.728 103.524 193.02C103.636 193.311 103.797 193.539 104.005 193.703C104.216 193.865 104.471 193.945 104.771 193.945C105.083 193.945 105.345 193.862 105.556 193.695C105.767 193.526 105.925 193.296 106.032 193.004C106.142 192.71 106.196 192.375 106.196 192C106.196 191.628 106.143 191.297 106.036 191.008C105.929 190.719 105.771 190.492 105.56 190.328C105.349 190.164 105.086 190.082 104.771 190.082C104.468 190.082 104.212 190.161 104.001 190.32C103.79 190.479 103.63 190.702 103.521 190.988C103.414 191.275 103.36 191.612 103.36 192ZM111.496 195.117C110.895 195.117 110.375 194.992 109.938 194.742C109.503 194.49 109.168 194.133 108.934 193.672C108.699 193.208 108.582 192.663 108.582 192.035C108.582 191.418 108.699 190.876 108.934 190.41C109.171 189.941 109.501 189.577 109.926 189.316C110.35 189.053 110.849 188.922 111.422 188.922C111.792 188.922 112.141 188.982 112.469 189.102C112.799 189.219 113.091 189.401 113.344 189.648C113.599 189.896 113.799 190.211 113.945 190.594C114.091 190.974 114.164 191.427 114.164 191.953V192.387H109.246V191.434H112.809C112.806 191.163 112.747 190.922 112.633 190.711C112.518 190.497 112.358 190.329 112.152 190.207C111.949 190.085 111.712 190.023 111.441 190.023C111.152 190.023 110.898 190.094 110.68 190.234C110.461 190.372 110.29 190.555 110.168 190.781C110.048 191.005 109.987 191.251 109.984 191.52V192.352C109.984 192.701 110.048 193 110.176 193.25C110.303 193.497 110.482 193.687 110.711 193.82C110.94 193.951 111.208 194.016 111.516 194.016C111.721 194.016 111.908 193.987 112.074 193.93C112.241 193.87 112.385 193.783 112.508 193.668C112.63 193.553 112.723 193.411 112.785 193.242L114.105 193.391C114.022 193.74 113.863 194.044 113.629 194.305C113.397 194.562 113.1 194.763 112.738 194.906C112.376 195.047 111.962 195.117 111.496 195.117ZM116.774 187V195H115.36V187H116.774Z" fill="#424242"/>
<rect id="Rectangle_2" x="92.5" y="204.5" width="583" height="35" rx="3.5" stroke="#9E9E9E"/>
<path id="label_2" d="M94.1406 263V271H92.7266V263H94.1406ZM97.3213 271.121C96.9411 271.121 96.5986 271.053 96.2939 270.918C95.9919 270.78 95.7523 270.577 95.5752 270.309C95.4007 270.04 95.3135 269.71 95.3135 269.316C95.3135 268.978 95.376 268.698 95.501 268.477C95.626 268.255 95.7965 268.078 96.0127 267.945C96.2288 267.812 96.4723 267.712 96.7432 267.645C97.0166 267.574 97.2992 267.523 97.5908 267.492C97.9424 267.456 98.2275 267.423 98.4463 267.395C98.665 267.363 98.8239 267.316 98.9229 267.254C99.0244 267.189 99.0752 267.089 99.0752 266.953V266.93C99.0752 266.635 98.988 266.408 98.8135 266.246C98.639 266.085 98.3877 266.004 98.0596 266.004C97.7132 266.004 97.4385 266.079 97.2354 266.23C97.0348 266.382 96.8994 266.56 96.8291 266.766L95.5088 266.578C95.613 266.214 95.7848 265.909 96.0244 265.664C96.264 265.417 96.557 265.232 96.9033 265.109C97.2497 264.984 97.6325 264.922 98.0518 264.922C98.3408 264.922 98.6286 264.956 98.915 265.023C99.2015 265.091 99.4632 265.203 99.7002 265.359C99.9372 265.513 100.127 265.723 100.271 265.988C100.416 266.254 100.489 266.586 100.489 266.984V271H99.1299V270.176H99.083C98.9971 270.342 98.876 270.499 98.7197 270.645C98.5661 270.788 98.3721 270.904 98.1377 270.992C97.9059 271.078 97.6338 271.121 97.3213 271.121ZM97.6885 270.082C97.9723 270.082 98.2184 270.026 98.4268 269.914C98.6351 269.799 98.7952 269.648 98.9072 269.461C99.0218 269.273 99.0791 269.069 99.0791 268.848V268.141C99.0348 268.177 98.9593 268.211 98.8525 268.242C98.7484 268.273 98.6312 268.301 98.501 268.324C98.3708 268.348 98.2419 268.368 98.1143 268.387C97.9867 268.405 97.876 268.421 97.7822 268.434C97.5713 268.462 97.3825 268.509 97.2158 268.574C97.0492 268.639 96.9176 268.73 96.8213 268.848C96.7249 268.962 96.6768 269.111 96.6768 269.293C96.6768 269.553 96.7718 269.75 96.9619 269.883C97.152 270.016 97.3942 270.082 97.6885 270.082ZM101.974 271V263H103.388V265.992H103.446C103.519 265.846 103.622 265.691 103.755 265.527C103.888 265.361 104.067 265.219 104.294 265.102C104.521 264.982 104.81 264.922 105.161 264.922C105.625 264.922 106.043 265.04 106.415 265.277C106.79 265.512 107.087 265.859 107.306 266.32C107.527 266.779 107.638 267.341 107.638 268.008C107.638 268.667 107.53 269.227 107.313 269.687C107.097 270.148 106.803 270.5 106.431 270.742C106.058 270.984 105.636 271.105 105.165 271.105C104.821 271.105 104.536 271.048 104.31 270.934C104.083 270.819 103.901 270.681 103.763 270.52C103.627 270.355 103.522 270.201 103.446 270.055H103.364V271H101.974ZM103.36 268C103.36 268.388 103.415 268.728 103.524 269.02C103.636 269.311 103.797 269.539 104.005 269.703C104.216 269.865 104.471 269.945 104.771 269.945C105.083 269.945 105.345 269.862 105.556 269.695C105.767 269.526 105.925 269.296 106.032 269.004C106.142 268.71 106.196 268.375 106.196 268C106.196 267.628 106.143 267.297 106.036 267.008C105.929 266.719 105.771 266.492 105.56 266.328C105.349 266.164 105.086 266.082 104.771 266.082C104.468 266.082 104.212 266.161 104.001 266.32C103.79 266.479 103.63 266.702 103.521 266.988C103.414 267.275 103.36 267.612 103.36 268ZM111.496 271.117C110.895 271.117 110.375 270.992 109.938 270.742C109.503 270.49 109.168 270.133 108.934 269.672C108.699 269.208 108.582 268.663 108.582 268.035C108.582 267.418 108.699 266.876 108.934 266.41C109.171 265.941 109.501 265.577 109.926 265.316C110.35 265.053 110.849 264.922 111.422 264.922C111.792 264.922 112.141 264.982 112.469 265.102C112.799 265.219 113.091 265.401 113.344 265.648C113.599 265.896 113.799 266.211 113.945 266.594C114.091 266.974 114.164 267.427 114.164 267.953V268.387H109.246V267.434H112.809C112.806 267.163 112.747 266.922 112.633 266.711C112.518 266.497 112.358 266.329 112.152 266.207C111.949 266.085 111.712 266.023 111.441 266.023C111.152 266.023 110.898 266.094 110.68 266.234C110.461 266.372 110.29 266.555 110.168 266.781C110.048 267.005 109.987 267.251 109.984 267.52V268.352C109.984 268.701 110.048 269 110.176 269.25C110.303 269.497 110.482 269.687 110.711 269.82C110.94 269.951 111.208 270.016 111.516 270.016C111.721 270.016 111.908 269.987 112.074 269.93C112.241 269.87 112.385 269.783 112.508 269.668C112.63 269.553 112.723 269.411 112.785 269.242L114.105 269.391C114.022 269.74 113.863 270.044 113.629 270.305C113.397 270.562 113.1 270.763 112.738 270.906C112.376 271.047 111.962 271.117 111.496 271.117ZM116.774 263V271H115.36V263H116.774Z" fill="#424242"/>
<rect id="Rectangle_3" x="92" y="280" width="584" height="110" rx="4" fill="#D9D9D9"/>
<rect id="Rectangle_4" x="92.5" y="408.5" width="139" height="35" rx="3.5" stroke="#9E9E9E"/>
<path id="submit" d="M135.469 424.586L134.18 424.727C134.143 424.596 134.079 424.474 133.988 424.359C133.9 424.245 133.78 424.152 133.629 424.082C133.478 424.012 133.293 423.977 133.074 423.977C132.78 423.977 132.533 424.04 132.332 424.168C132.134 424.296 132.036 424.461 132.039 424.664C132.036 424.839 132.1 424.98 132.23 425.09C132.363 425.199 132.582 425.289 132.887 425.359L133.91 425.578C134.478 425.701 134.9 425.895 135.176 426.16C135.454 426.426 135.595 426.773 135.598 427.203C135.595 427.581 135.484 427.914 135.266 428.203C135.049 428.49 134.749 428.714 134.363 428.875C133.978 429.036 133.535 429.117 133.035 429.117C132.301 429.117 131.71 428.964 131.262 428.656C130.814 428.346 130.547 427.915 130.461 427.363L131.84 427.23C131.902 427.501 132.035 427.706 132.238 427.844C132.441 427.982 132.706 428.051 133.031 428.051C133.367 428.051 133.637 427.982 133.84 427.844C134.046 427.706 134.148 427.535 134.148 427.332C134.148 427.16 134.082 427.018 133.949 426.906C133.819 426.794 133.616 426.708 133.34 426.648L132.316 426.434C131.741 426.314 131.315 426.112 131.039 425.828C130.763 425.542 130.626 425.18 130.629 424.742C130.626 424.372 130.727 424.052 130.93 423.781C131.135 423.508 131.421 423.297 131.785 423.148C132.152 422.997 132.576 422.922 133.055 422.922C133.758 422.922 134.311 423.072 134.715 423.371C135.121 423.671 135.372 424.076 135.469 424.586ZM140.588 426.477V423H142.002V429H140.631V427.934H140.568C140.433 428.27 140.21 428.544 139.9 428.758C139.593 428.971 139.214 429.078 138.764 429.078C138.37 429.078 138.023 428.991 137.721 428.816C137.421 428.639 137.187 428.383 137.018 428.047C136.848 427.708 136.764 427.299 136.764 426.82V423H138.178V426.602C138.178 426.982 138.282 427.284 138.49 427.508C138.699 427.732 138.972 427.844 139.311 427.844C139.519 427.844 139.721 427.793 139.916 427.691C140.111 427.59 140.271 427.439 140.396 427.238C140.524 427.035 140.588 426.781 140.588 426.477ZM143.519 429V421H144.933V423.992H144.991C145.064 423.846 145.167 423.691 145.3 423.527C145.433 423.361 145.612 423.219 145.839 423.102C146.065 422.982 146.354 422.922 146.706 422.922C147.17 422.922 147.588 423.04 147.96 423.277C148.335 423.512 148.632 423.859 148.851 424.32C149.072 424.779 149.183 425.341 149.183 426.008C149.183 426.667 149.075 427.227 148.858 427.687C148.642 428.148 148.348 428.5 147.976 428.742C147.603 428.984 147.181 429.105 146.71 429.105C146.366 429.105 146.081 429.048 145.854 428.934C145.628 428.819 145.446 428.681 145.308 428.52C145.172 428.355 145.067 428.201 144.991 428.055H144.909V429H143.519ZM144.905 426C144.905 426.388 144.96 426.728 145.069 427.02C145.181 427.311 145.341 427.539 145.55 427.703C145.761 427.865 146.016 427.945 146.315 427.945C146.628 427.945 146.89 427.862 147.101 427.695C147.312 427.526 147.47 427.296 147.577 427.004C147.687 426.71 147.741 426.375 147.741 426C147.741 425.628 147.688 425.297 147.581 425.008C147.474 424.719 147.315 424.492 147.104 424.328C146.894 424.164 146.631 424.082 146.315 424.082C146.013 424.082 145.757 424.161 145.546 424.32C145.335 424.479 145.175 424.702 145.065 424.988C144.959 425.275 144.905 425.612 144.905 426ZM150.385 429V423H151.736V424.02H151.807C151.932 423.676 152.139 423.408 152.428 423.215C152.717 423.02 153.062 422.922 153.463 422.922C153.869 422.922 154.212 423.021 154.49 423.219C154.771 423.414 154.969 423.681 155.084 424.02H155.146C155.279 423.686 155.503 423.421 155.818 423.223C156.136 423.022 156.512 422.922 156.947 422.922C157.499 422.922 157.95 423.096 158.299 423.445C158.648 423.794 158.822 424.303 158.822 424.973V429H157.404V425.191C157.404 424.819 157.305 424.547 157.107 424.375C156.91 424.201 156.667 424.113 156.381 424.113C156.04 424.113 155.773 424.22 155.58 424.434C155.39 424.645 155.295 424.919 155.295 425.258V429H153.908V425.133C153.908 424.823 153.814 424.576 153.627 424.391C153.442 424.206 153.2 424.113 152.9 424.113C152.697 424.113 152.512 424.165 152.346 424.27C152.179 424.371 152.046 424.516 151.947 424.703C151.848 424.888 151.799 425.104 151.799 425.352V429H150.385ZM160.257 429V423H161.671V429H160.257ZM160.968 422.148C160.744 422.148 160.551 422.074 160.39 421.926C160.228 421.775 160.147 421.594 160.147 421.383C160.147 421.169 160.228 420.988 160.39 420.84C160.551 420.689 160.744 420.613 160.968 420.613C161.194 420.613 161.387 420.689 161.546 420.84C161.707 420.988 161.788 421.169 161.788 421.383C161.788 421.594 161.707 421.775 161.546 421.926C161.387 422.074 161.194 422.148 160.968 422.148ZM166.121 423V424.094H162.672V423H166.121ZM163.523 421.562H164.938V427.195C164.938 427.385 164.966 427.531 165.023 427.633C165.083 427.732 165.161 427.799 165.258 427.836C165.354 427.872 165.461 427.891 165.578 427.891C165.667 427.891 165.747 427.884 165.82 427.871C165.896 427.858 165.953 427.846 165.992 427.836L166.23 428.941C166.155 428.967 166.047 428.996 165.906 429.027C165.768 429.059 165.599 429.077 165.398 429.082C165.044 429.092 164.725 429.039 164.441 428.922C164.158 428.802 163.932 428.617 163.766 428.367C163.602 428.117 163.521 427.805 163.523 427.43V421.562Z" fill="#424242"/>
<path id="H2: lessons" d="M64.9325 505V495.545H66.6452V499.548H71.0263V495.545H72.7436V505H71.0263V500.984H66.6452V505H64.9325ZM74.514 505V503.763L77.7963 500.545C78.1103 500.228 78.3719 499.946 78.5811 499.7C78.7904 499.454 78.9474 499.216 79.052 498.985C79.1567 498.754 79.209 498.508 79.209 498.246C79.209 497.948 79.1413 497.692 79.0059 497.48C78.8704 497.264 78.6842 497.098 78.4473 496.981C78.2103 496.864 77.941 496.806 77.6394 496.806C77.3285 496.806 77.0562 496.87 76.8223 497C76.5884 497.126 76.4068 497.306 76.2775 497.54C76.1513 497.774 76.0882 498.052 76.0882 498.375H74.4586C74.4586 497.775 74.5956 497.254 74.8695 496.81C75.1434 496.367 75.5204 496.024 76.0005 495.781C76.4837 495.538 77.0377 495.416 77.6625 495.416C78.2965 495.416 78.8535 495.535 79.3336 495.772C79.8137 496.009 80.1861 496.333 80.4508 496.746C80.7186 497.158 80.8525 497.629 80.8525 498.158C80.8525 498.512 80.7847 498.86 80.6493 499.202C80.5139 499.543 80.2754 499.922 79.9338 500.337C79.5952 500.753 79.1197 501.256 78.5073 501.847L76.8777 503.504V503.569H80.9956V505H74.514ZM83.6362 503.864C83.3561 503.864 83.1161 503.766 82.916 503.569C82.716 503.369 82.6175 503.129 82.6206 502.849C82.6175 502.572 82.716 502.335 82.916 502.138C83.1161 501.941 83.3561 501.842 83.6362 501.842C83.907 501.842 84.1425 501.941 84.3425 502.138C84.5456 502.335 84.6487 502.572 84.6518 502.849C84.6487 503.036 84.5995 503.207 84.5041 503.361C84.4118 503.515 84.2886 503.638 84.1348 503.73C83.984 503.82 83.8178 503.864 83.6362 503.864ZM83.6362 499.179C83.3561 499.179 83.1161 499.08 82.916 498.883C82.716 498.683 82.6175 498.443 82.6206 498.163C82.6175 497.886 82.716 497.649 82.916 497.452C83.1161 497.252 83.3561 497.152 83.6362 497.152C83.907 497.152 84.1425 497.252 84.3425 497.452C84.5456 497.649 84.6487 497.886 84.6518 498.163C84.6487 498.348 84.5995 498.517 84.5041 498.671C84.4118 498.825 84.2886 498.948 84.1348 499.04C83.984 499.132 83.8178 499.179 83.6362 499.179ZM91.273 495.545V505H89.6018V495.545H91.273ZM96.1307 505.138C95.4197 505.138 94.8058 504.991 94.2887 504.695C93.7747 504.397 93.3793 503.975 93.1023 503.43C92.8253 502.883 92.6868 502.238 92.6868 501.496C92.6868 500.767 92.8253 500.127 93.1023 499.576C93.3823 499.022 93.7732 498.591 94.2749 498.283C94.7765 497.972 95.3659 497.817 96.043 497.817C96.48 497.817 96.8924 497.888 97.2802 498.029C97.671 498.168 98.0157 498.383 98.3143 498.675C98.6159 498.968 98.8529 499.34 99.0252 499.793C99.1976 500.242 99.2837 500.777 99.2837 501.399V501.912H93.4716V500.785H97.6818C97.6787 500.465 97.6095 500.18 97.4741 499.931C97.3387 499.679 97.1494 499.48 96.9062 499.336C96.6662 499.191 96.3861 499.119 96.0661 499.119C95.7244 499.119 95.4244 499.202 95.1658 499.368C94.9073 499.531 94.7057 499.746 94.5611 500.014C94.4195 500.279 94.3472 500.57 94.3441 500.887V501.87C94.3441 502.282 94.4195 502.636 94.5703 502.932C94.7211 503.224 94.9319 503.449 95.2028 503.606C95.4736 503.76 95.7906 503.837 96.1538 503.837C96.3969 503.837 96.617 503.803 96.8139 503.735C97.0109 503.664 97.1817 503.561 97.3263 503.426C97.471 503.29 97.5803 503.123 97.6541 502.923L99.2145 503.098C99.116 503.51 98.9283 503.871 98.6513 504.178C98.3774 504.483 98.0265 504.72 97.5987 504.889C97.1709 505.055 96.6816 505.138 96.1307 505.138ZM106.302 499.783L104.778 499.95C104.735 499.796 104.66 499.651 104.552 499.516C104.448 499.38 104.306 499.271 104.128 499.188C103.949 499.105 103.731 499.063 103.472 499.063C103.124 499.063 102.832 499.139 102.595 499.289C102.361 499.44 102.246 499.636 102.249 499.876C102.246 500.082 102.321 500.25 102.475 500.379C102.632 500.508 102.89 500.614 103.25 500.697L104.46 500.956C105.131 501.101 105.629 501.33 105.956 501.644C106.285 501.958 106.451 502.369 106.454 502.876C106.451 503.323 106.32 503.717 106.062 504.058C105.806 504.397 105.451 504.661 104.995 504.852C104.54 505.043 104.017 505.138 103.426 505.138C102.558 505.138 101.859 504.957 101.33 504.594C100.801 504.228 100.485 503.718 100.384 503.066L102.013 502.909C102.087 503.229 102.244 503.47 102.484 503.634C102.724 503.797 103.037 503.878 103.421 503.878C103.818 503.878 104.137 503.797 104.377 503.634C104.62 503.47 104.742 503.269 104.742 503.029C104.742 502.826 104.663 502.658 104.506 502.526C104.352 502.393 104.112 502.292 103.786 502.221L102.576 501.967C101.896 501.825 101.393 501.587 101.067 501.251C100.741 500.913 100.579 500.485 100.582 499.968C100.579 499.531 100.698 499.152 100.938 498.832C101.181 498.509 101.518 498.26 101.949 498.085C102.383 497.906 102.883 497.817 103.449 497.817C104.28 497.817 104.934 497.994 105.411 498.348C105.891 498.702 106.188 499.18 106.302 499.783ZM113.437 499.783L111.913 499.95C111.87 499.796 111.795 499.651 111.687 499.516C111.582 499.38 111.441 499.271 111.262 499.188C111.084 499.105 110.865 499.063 110.607 499.063C110.259 499.063 109.967 499.139 109.73 499.289C109.496 499.44 109.38 499.636 109.383 499.876C109.38 500.082 109.456 500.25 109.61 500.379C109.767 500.508 110.025 500.614 110.385 500.697L111.595 500.956C112.266 501.101 112.764 501.33 113.09 501.644C113.42 501.958 113.586 502.369 113.589 502.876C113.586 503.323 113.455 503.717 113.197 504.058C112.941 504.397 112.586 504.661 112.13 504.852C111.675 505.043 111.152 505.138 110.561 505.138C109.693 505.138 108.994 504.957 108.465 504.594C107.935 504.228 107.62 503.718 107.518 503.066L109.148 502.909C109.222 503.229 109.379 503.47 109.619 503.634C109.859 503.797 110.171 503.878 110.556 503.878C110.953 503.878 111.272 503.797 111.512 503.634C111.755 503.47 111.876 503.269 111.876 503.029C111.876 502.826 111.798 502.658 111.641 502.526C111.487 502.393 111.247 502.292 110.921 502.221L109.711 501.967C109.031 501.825 108.528 501.587 108.202 501.251C107.875 500.913 107.714 500.485 107.717 499.968C107.714 499.531 107.832 499.152 108.072 498.832C108.315 498.509 108.652 498.26 109.083 498.085C109.517 497.906 110.017 497.817 110.584 497.817C111.415 497.817 112.069 497.994 112.546 498.348C113.026 498.702 113.323 499.18 113.437 499.783ZM118.06 505.138C117.368 505.138 116.767 504.986 116.26 504.681C115.752 504.377 115.358 503.951 115.078 503.403C114.801 502.855 114.662 502.215 114.662 501.482C114.662 500.75 114.801 500.108 115.078 499.557C115.358 499.006 115.752 498.578 116.26 498.274C116.767 497.969 117.368 497.817 118.06 497.817C118.753 497.817 119.353 497.969 119.861 498.274C120.368 498.578 120.761 499.006 121.038 499.557C121.318 500.108 121.458 500.75 121.458 501.482C121.458 502.215 121.318 502.855 121.038 503.403C120.761 503.951 120.368 504.377 119.861 504.681C119.353 504.986 118.753 505.138 118.06 505.138ZM118.069 503.8C118.445 503.8 118.759 503.697 119.011 503.49C119.263 503.281 119.451 503.001 119.574 502.65C119.7 502.299 119.764 501.908 119.764 501.478C119.764 501.044 119.7 500.651 119.574 500.3C119.451 499.946 119.263 499.665 119.011 499.456C118.759 499.246 118.445 499.142 118.069 499.142C117.685 499.142 117.365 499.246 117.109 499.456C116.857 499.665 116.667 499.946 116.541 500.3C116.418 500.651 116.357 501.044 116.357 501.478C116.357 501.908 116.418 502.299 116.541 502.65C116.667 503.001 116.857 503.281 117.109 503.49C117.365 503.697 117.685 503.8 118.069 503.8ZM124.547 500.845V505H122.876V497.909H124.474V499.114H124.557C124.72 498.717 124.98 498.402 125.337 498.168C125.697 497.934 126.142 497.817 126.671 497.817C127.16 497.817 127.587 497.921 127.95 498.131C128.316 498.34 128.599 498.643 128.799 499.04C129.002 499.437 129.102 499.919 129.099 500.485V505H127.428V500.744C127.428 500.27 127.305 499.899 127.059 499.631C126.816 499.363 126.479 499.229 126.048 499.229C125.755 499.229 125.495 499.294 125.268 499.423C125.043 499.549 124.866 499.733 124.737 499.973C124.61 500.213 124.547 500.504 124.547 500.845ZM136.403 499.783L134.879 499.95C134.836 499.796 134.761 499.651 134.653 499.516C134.548 499.38 134.407 499.271 134.228 499.188C134.05 499.105 133.831 499.063 133.573 499.063C133.225 499.063 132.932 499.139 132.695 499.289C132.462 499.44 132.346 499.636 132.349 499.876C132.346 500.082 132.422 500.25 132.575 500.379C132.732 500.508 132.991 500.614 133.351 500.697L134.561 500.956C135.231 501.101 135.73 501.33 136.056 501.644C136.386 501.958 136.552 502.369 136.555 502.876C136.552 503.323 136.421 503.717 136.162 504.058C135.907 504.397 135.552 504.661 135.096 504.852C134.641 505.043 134.117 505.138 133.526 505.138C132.659 505.138 131.96 504.957 131.431 504.594C130.901 504.228 130.586 503.718 130.484 503.066L132.114 502.909C132.188 503.229 132.345 503.47 132.585 503.634C132.825 503.797 133.137 503.878 133.522 503.878C133.919 503.878 134.237 503.797 134.477 503.634C134.721 503.47 134.842 503.269 134.842 503.029C134.842 502.826 134.764 502.658 134.607 502.526C134.453 502.393 134.213 502.292 133.887 502.221L132.677 501.967C131.997 501.825 131.494 501.587 131.167 501.251C130.841 500.913 130.68 500.485 130.683 499.968C130.68 499.531 130.798 499.152 131.038 498.832C131.281 498.509 131.618 498.26 132.049 498.085C132.483 497.906 132.983 497.817 133.55 497.817C134.381 497.817 135.035 497.994 135.512 498.348C135.992 498.702 136.289 499.18 136.403 499.783Z" fill="#424242"/>
<rect id="Rectangle_5" x="64.5" y="524.5" width="639" height="47" rx="3.5" stroke="#9E9E9E"/>
</g>
<g id="footer">
<rect width="1440" height="50" transform="translate(0 542)" fill="#E6E6E6"/>
<rect id="Rectangle_6" x="64" y="562" width="320" height="10" rx="4" fill="#9E9E9E"/>
<rect id="Rectangle_7" x="1256" y="562" width="120" height="10" rx="4" fill="#9E9E9E"/>
</g>
</g>
<rect x="0.5" y="0.5" width="1439" height="591" stroke="#9E9E9E"/>
</g>
</g>
<defs>
<clipPath id="clip0_10_9">
<rect width="1440" height="592" fill="white"/>
</clipPath>
<clipPath id="clip1_10_9">
<rect width="74" height="20" fill="white" transform="translate(64 26)"/>
</clipPath>
<clipPath id="clip2_10_9">
<rect width="195" height="32" fill="white" transform="translate(1181 20)"/>
</clipPath>
<clipPath id="clip3_10_9">
<rect width="1440" height="470" fill="white" transform="translate(0 72)"/>
</clipPath>
</defs>
</svg>
