<svg width="390" height="700" viewBox="0 0 390 700" fill="none" xmlns="http://www.w3.org/2000/svg">
<rect width="390" height="700" fill="#F5F5F5"/>
<g id="Wireframes (mobile 390)">
<path d="M-3580 -78C-3580 -79.1046 -3579.1 -80 -3578 -80H5118C5119.1 -80 5120 -79.1046 5120 -78V858C5120 859.105 5119.1 860 5118 860H-3578C-3579.1 860 -3580 859.105 -3580 858V-78Z" fill="white"/>
<path d="M-3578 -80V-79H5118V-80V-81H-3578V-80ZM5120 -78H5119V858H5120H5121V-78H5120ZM5118 860V859H-3578V860V861H5118V860ZM-3580 858H-3579V-78H-3580H-3581V858H-3580ZM-3578 860V859C-3578.55 859 -3579 858.552 -3579 858H-3580H-3581C-3581 859.657 -3579.66 861 -3578 861V860ZM5120 858H5119C5119 858.552 5118.55 859 5118 859V860V861C5119.66 861 5121 859.657 5121 858H5120ZM5118 -80V-79C5118.55 -79 5119 -78.5522 5119 -78H5120H5121C5121 -79.6569 5119.66 -81 5118 -81V-80ZM-3578 -80V-81C-3579.66 -81 -3581 -79.6569 -3581 -78H-3580H-3579C-3579 -78.5523 -3578.55 -79 -3578 -79V-80Z" fill="black" fill-opacity="0.1"/>
<g id="Wireframe / Lesson editor (mobile)">
<rect width="390" height="700" fill="white"/>
<g id="header">
<rect width="390" height="56" fill="#E6E6E6"/>
<g id="logo mark">
<rect x="21" y="19" width="18" height="18" rx="3" stroke="#9E9E9E" stroke-width="2"/>
</g>
<path id="LOGO" d="M50.9325 33V23.5455H52.6452V31.5643H56.8093V33H50.9325ZM66.3758 28.2727C66.3758 29.2914 66.185 30.1639 65.8034 30.8903C65.4248 31.6135 64.9078 32.1675 64.2522 32.5522C63.5998 32.9369 62.8596 33.1293 62.0317 33.1293C61.2038 33.1293 60.4621 32.9369 59.8066 32.5522C59.1541 32.1644 58.637 31.6089 58.2554 30.8857C57.8769 30.1593 57.6876 29.2884 57.6876 28.2727C57.6876 27.254 57.8769 26.383 58.2554 25.6598C58.637 24.9335 59.1541 24.378 59.8066 23.9933C60.4621 23.6085 61.2038 23.4162 62.0317 23.4162C62.8596 23.4162 63.5998 23.6085 64.2522 23.9933C64.9078 24.378 65.4248 24.9335 65.8034 25.6598C66.185 26.383 66.3758 27.254 66.3758 28.2727ZM64.6539 28.2727C64.6539 27.5556 64.5415 26.9509 64.3169 26.4585C64.0953 25.9629 63.7875 25.589 63.3936 25.3366C62.9996 25.0812 62.5457 24.9535 62.0317 24.9535C61.5177 24.9535 61.0638 25.0812 60.6698 25.3366C60.2759 25.589 59.9666 25.9629 59.7419 26.4585C59.5203 26.9509 59.4095 27.5556 59.4095 28.2727C59.4095 28.9898 59.5203 29.5961 59.7419 30.0916C59.9666 30.584 60.2759 30.958 60.6698 31.2134C61.0638 31.4658 61.5177 31.592 62.0317 31.592C62.5457 31.592 62.9996 31.4658 63.3936 31.2134C63.7875 30.958 64.0953 30.584 64.3169 30.0916C64.5415 29.5961 64.6539 28.9898 64.6539 28.2727ZM74.3288 26.5646C74.2519 26.3153 74.1457 26.0922 74.0103 25.8952C73.878 25.6952 73.7179 25.5244 73.5302 25.3828C73.3455 25.2412 73.1332 25.1351 72.8931 25.0643C72.6531 24.9904 72.3915 24.9535 72.1083 24.9535C71.6005 24.9535 71.1481 25.0812 70.7511 25.3366C70.354 25.5921 70.0417 25.9676 69.8139 26.4631C69.5893 26.9555 69.4769 27.5556 69.4769 28.2635C69.4769 28.9775 69.5893 29.5823 69.8139 30.0778C70.0386 30.5733 70.351 30.9503 70.7511 31.2088C71.1512 31.4643 71.6159 31.592 72.1452 31.592C72.6254 31.592 73.0408 31.4996 73.3917 31.315C73.7456 31.1303 74.018 30.8687 74.2088 30.5302C74.3996 30.1886 74.495 29.7885 74.495 29.3299L74.8828 29.3899H72.3161V28.0511H76.1523V29.1868C76.1523 29.9962 75.98 30.6964 75.6353 31.2873C75.2906 31.8782 74.8166 32.3337 74.2134 32.6538C73.6102 32.9708 72.9177 33.1293 72.136 33.1293C71.265 33.1293 70.5002 32.9338 69.8416 32.543C69.1861 32.149 68.6737 31.5904 68.3043 30.8672C67.9381 30.1409 67.755 29.2791 67.755 28.282C67.755 27.5187 67.8627 26.837 68.0781 26.2369C68.2966 25.6367 68.6013 25.1274 68.9922 24.7088C69.383 24.2872 69.8416 23.9671 70.3679 23.7486C70.8942 23.527 71.4666 23.4162 72.0852 23.4162C72.6084 23.4162 73.0962 23.4931 73.5487 23.647C74.0011 23.7978 74.4027 24.0133 74.7536 24.2933C75.1075 24.5734 75.3983 24.9058 75.6261 25.2905C75.8538 25.6752 76.0031 26.0999 76.0739 26.5646H74.3288ZM86.2567 28.2727C86.2567 29.2914 86.0658 30.1639 85.6842 30.8903C85.3057 31.6135 84.7886 32.1675 84.1331 32.5522C83.4806 32.9369 82.7404 33.1293 81.9126 33.1293C81.0847 33.1293 80.343 32.9369 79.6874 32.5522C79.0349 32.1644 78.5179 31.6089 78.1363 30.8857C77.7577 30.1593 77.5684 29.2884 77.5684 28.2727C77.5684 27.254 77.7577 26.383 78.1363 25.6598C78.5179 24.9335 79.0349 24.378 79.6874 23.9933C80.343 23.6085 81.0847 23.4162 81.9126 23.4162C82.7404 23.4162 83.4806 23.6085 84.1331 23.9933C84.7886 24.378 85.3057 24.9335 85.6842 25.6598C86.0658 26.383 86.2567 27.254 86.2567 28.2727ZM84.5347 28.2727C84.5347 27.5556 84.4224 26.9509 84.1977 26.4585C83.9761 25.9629 83.6684 25.589 83.2744 25.3366C82.8805 25.0812 82.4265 24.9535 81.9126 24.9535C81.3986 24.9535 80.9446 25.0812 80.5507 25.3366C80.1568 25.589 79.8474 25.9629 79.6228 26.4585C79.4012 26.9509 79.2904 27.5556 79.2904 28.2727C79.2904 28.9898 79.4012 29.5961 79.6228 30.0916C79.8474 30.584 80.1568 30.958 80.5507 31.2134C80.9446 31.4658 81.3986 31.592 81.9126 31.592C82.4265 31.592 82.8805 31.4658 83.2744 31.2134C83.6684 30.958 83.9761 30.584 84.1977 30.0916C84.4224 29.5961 84.5347 28.9898 84.5347 28.2727Z" fill="#424242"/>
<path id="username | logout" d="M254.551 30.4766V27H255.965V33H254.594V31.9336H254.531C254.396 32.2695 254.173 32.5443 253.863 32.7578C253.556 32.9714 253.177 33.0781 252.727 33.0781C252.333 33.0781 251.986 32.9909 251.684 32.8164C251.384 32.6393 251.15 32.3828 250.98 32.0469C250.811 31.7083 250.727 31.2995 250.727 30.8203V27H252.141V30.6016C252.141 30.9818 252.245 31.2839 252.453 31.5078C252.661 31.7318 252.935 31.8437 253.273 31.8437C253.482 31.8437 253.684 31.793 253.879 31.6914C254.074 31.5898 254.234 31.4388 254.359 31.2383C254.487 31.0352 254.551 30.7812 254.551 30.4766ZM262.161 28.5859L260.872 28.7266C260.836 28.5964 260.772 28.474 260.681 28.3594C260.592 28.2448 260.472 28.1523 260.321 28.082C260.17 28.0117 259.985 27.9766 259.767 27.9766C259.472 27.9766 259.225 28.0404 259.024 28.168C258.826 28.2956 258.729 28.4609 258.731 28.6641C258.729 28.8385 258.793 28.9805 258.923 29.0898C259.056 29.1992 259.274 29.2891 259.579 29.3594L260.603 29.5781C261.17 29.7005 261.592 29.8945 261.868 30.1602C262.147 30.4258 262.287 30.7734 262.29 31.2031C262.287 31.5807 262.177 31.9141 261.958 32.2031C261.742 32.4896 261.441 32.7135 261.056 32.875C260.67 33.0365 260.228 33.1172 259.728 33.1172C258.993 33.1172 258.402 32.9635 257.954 32.6562C257.506 32.3464 257.239 31.9154 257.153 31.3633L258.532 31.2305C258.595 31.5013 258.728 31.7057 258.931 31.8437C259.134 31.9818 259.398 32.0508 259.724 32.0508C260.06 32.0508 260.329 31.9818 260.532 31.8437C260.738 31.7057 260.841 31.5352 260.841 31.332C260.841 31.1602 260.774 31.0182 260.642 30.9062C260.511 30.7943 260.308 30.7083 260.032 30.6484L259.009 30.4336C258.433 30.3138 258.007 30.112 257.731 29.8281C257.455 29.5417 257.319 29.1797 257.321 28.7422C257.319 28.3724 257.419 28.0521 257.622 27.7812C257.828 27.5078 258.113 27.2969 258.478 27.1484C258.845 26.9974 259.268 26.9219 259.747 26.9219C260.45 26.9219 261.004 27.0716 261.407 27.3711C261.813 27.6706 262.065 28.0755 262.161 28.5859ZM266.112 33.1172C265.511 33.1172 264.991 32.9922 264.554 32.7422C264.119 32.4896 263.784 32.1328 263.55 31.6719C263.315 31.2083 263.198 30.6628 263.198 30.0352C263.198 29.418 263.315 28.8763 263.55 28.4102C263.787 27.9414 264.118 27.5768 264.542 27.3164C264.966 27.0534 265.465 26.9219 266.038 26.9219C266.408 26.9219 266.757 26.9818 267.085 27.1016C267.416 27.2187 267.707 27.401 267.96 27.6484C268.215 27.8958 268.416 28.2109 268.562 28.5937C268.707 28.974 268.78 29.4271 268.78 29.9531V30.3867H263.862V29.4336H267.425C267.422 29.1628 267.364 28.9219 267.249 28.7109C267.134 28.4974 266.974 28.3294 266.769 28.207C266.565 28.0846 266.328 28.0234 266.058 28.0234C265.769 28.0234 265.515 28.0937 265.296 28.2344C265.077 28.3724 264.907 28.5547 264.784 28.7812C264.664 29.0052 264.603 29.2513 264.601 29.5195V30.3516C264.601 30.7005 264.664 31 264.792 31.25C264.92 31.4974 265.098 31.6875 265.327 31.8203C265.556 31.9505 265.825 32.0156 266.132 32.0156C266.338 32.0156 266.524 31.987 266.69 31.9297C266.857 31.8698 267.002 31.7826 267.124 31.668C267.246 31.5534 267.339 31.4115 267.401 31.2422L268.722 31.3906C268.638 31.7396 268.479 32.0443 268.245 32.3047C268.013 32.5625 267.716 32.763 267.354 32.9062C266.993 33.0469 266.578 33.1172 266.112 33.1172ZM269.977 33V27H271.348V28H271.41C271.52 27.6536 271.707 27.3867 271.973 27.1992C272.241 27.0091 272.547 26.9141 272.891 26.9141C272.969 26.9141 273.056 26.918 273.152 26.9258C273.251 26.931 273.333 26.9401 273.398 26.9531V28.2539C273.339 28.2331 273.243 28.2148 273.113 28.1992C272.986 28.181 272.862 28.1719 272.742 28.1719C272.484 28.1719 272.253 28.2279 272.047 28.3398C271.844 28.4492 271.684 28.6016 271.566 28.7969C271.449 28.9922 271.391 29.2174 271.391 29.4727V33H269.977ZM275.752 29.4844V33H274.338V27H275.689V28.0195H275.76C275.898 27.6836 276.118 27.4167 276.42 27.2187C276.725 27.0208 277.101 26.9219 277.549 26.9219C277.963 26.9219 278.324 27.0104 278.631 27.1875C278.941 27.3646 279.18 27.6211 279.35 27.957C279.521 28.293 279.606 28.7005 279.604 29.1797V33H278.189V29.3984C278.189 28.9974 278.085 28.6836 277.877 28.457C277.671 28.2305 277.386 28.1172 277.021 28.1172C276.774 28.1172 276.554 28.1719 276.361 28.2812C276.171 28.388 276.021 28.543 275.912 28.7461C275.805 28.9492 275.752 29.1953 275.752 29.4844ZM282.768 33.1211C282.387 33.1211 282.045 33.0534 281.74 32.918C281.438 32.7799 281.199 32.5768 281.021 32.3086C280.847 32.0404 280.76 31.7096 280.76 31.3164C280.76 30.9779 280.822 30.6979 280.947 30.4766C281.072 30.2552 281.243 30.0781 281.459 29.9453C281.675 29.8125 281.919 29.7122 282.189 29.6445C282.463 29.5742 282.745 29.5234 283.037 29.4922C283.389 29.4557 283.674 29.4232 283.893 29.3945C284.111 29.3633 284.27 29.3164 284.369 29.2539C284.471 29.1888 284.521 29.0885 284.521 28.9531V28.9297C284.521 28.6354 284.434 28.4076 284.26 28.2461C284.085 28.0846 283.834 28.0039 283.506 28.0039C283.16 28.0039 282.885 28.0794 282.682 28.2305C282.481 28.3815 282.346 28.5599 282.275 28.7656L280.955 28.5781C281.059 28.2135 281.231 27.9089 281.471 27.6641C281.71 27.4167 282.003 27.2318 282.35 27.1094C282.696 26.9844 283.079 26.9219 283.498 26.9219C283.787 26.9219 284.075 26.9557 284.361 27.0234C284.648 27.0911 284.91 27.2031 285.146 27.3594C285.383 27.513 285.574 27.7227 285.717 27.9883C285.863 28.2539 285.936 28.5859 285.936 28.9844V33H284.576V32.1758H284.529C284.443 32.3424 284.322 32.4987 284.166 32.6445C284.012 32.7878 283.818 32.9036 283.584 32.9922C283.352 33.0781 283.08 33.1211 282.768 33.1211ZM283.135 32.082C283.419 32.082 283.665 32.026 283.873 31.9141C284.081 31.7995 284.242 31.6484 284.354 31.4609C284.468 31.2734 284.525 31.069 284.525 30.8477V30.1406C284.481 30.1771 284.406 30.2109 284.299 30.2422C284.195 30.2734 284.077 30.3008 283.947 30.3242C283.817 30.3477 283.688 30.3685 283.561 30.3867C283.433 30.4049 283.322 30.4206 283.229 30.4336C283.018 30.4622 282.829 30.5091 282.662 30.5742C282.495 30.6393 282.364 30.7305 282.268 30.8477C282.171 30.9622 282.123 31.1107 282.123 31.293C282.123 31.5534 282.218 31.75 282.408 31.8828C282.598 32.0156 282.84 32.082 283.135 32.082ZM287.357 33V27H288.709V28.0195H288.779C288.904 27.6758 289.111 27.4076 289.4 27.2148C289.689 27.0195 290.035 26.9219 290.436 26.9219C290.842 26.9219 291.184 27.0208 291.463 27.2187C291.744 27.4141 291.942 27.681 292.057 28.0195H292.119C292.252 27.6862 292.476 27.4206 292.791 27.2227C293.109 27.0221 293.485 26.9219 293.92 26.9219C294.472 26.9219 294.923 27.0964 295.271 27.4453C295.62 27.7943 295.795 28.3034 295.795 28.9727V33H294.377V29.1914C294.377 28.819 294.278 28.5469 294.08 28.375C293.882 28.2005 293.64 28.1133 293.354 28.1133C293.012 28.1133 292.745 28.2201 292.553 28.4336C292.363 28.6445 292.268 28.9193 292.268 29.2578V33H290.881V29.1328C290.881 28.8229 290.787 28.5755 290.6 28.3906C290.415 28.2057 290.173 28.1133 289.873 28.1133C289.67 28.1133 289.485 28.1654 289.318 28.2695C289.152 28.3711 289.019 28.5156 288.92 28.7031C288.821 28.888 288.771 29.1042 288.771 29.3516V33H287.357ZM299.886 33.1172C299.284 33.1172 298.765 32.9922 298.327 32.7422C297.892 32.4896 297.558 32.1328 297.323 31.6719C297.089 31.2083 296.972 30.6628 296.972 30.0352C296.972 29.418 297.089 28.8763 297.323 28.4102C297.56 27.9414 297.891 27.5768 298.315 27.3164C298.74 27.0534 299.239 26.9219 299.812 26.9219C300.181 26.9219 300.53 26.9818 300.858 27.1016C301.189 27.2187 301.481 27.401 301.733 27.6484C301.989 27.8958 302.189 28.2109 302.335 28.5937C302.481 28.974 302.554 29.4271 302.554 29.9531V30.3867H297.636V29.4336H301.198C301.196 29.1628 301.137 28.9219 301.022 28.7109C300.908 28.4974 300.748 28.3294 300.542 28.207C300.339 28.0846 300.102 28.0234 299.831 28.0234C299.542 28.0234 299.288 28.0937 299.069 28.2344C298.851 28.3724 298.68 28.5547 298.558 28.7812C298.438 29.0052 298.377 29.2513 298.374 29.5195V30.3516C298.374 30.7005 298.438 31 298.565 31.25C298.693 31.4974 298.871 31.6875 299.101 31.8203C299.33 31.9505 299.598 32.0156 299.905 32.0156C300.111 32.0156 300.297 31.987 300.464 31.9297C300.631 31.8698 300.775 31.7826 300.897 31.668C301.02 31.5534 301.112 31.4115 301.175 31.2422L302.495 31.3906C302.412 31.7396 302.253 32.0443 302.019 32.3047C301.787 32.5625 301.49 32.763 301.128 32.9062C300.766 33.0469 300.352 33.1172 299.886 33.1172ZM308.377 22.4219V35.5781H307.064V22.4219H308.377ZM314.563 25V33H313.149V25H314.563ZM318.635 33.1172C318.049 33.1172 317.541 32.9883 317.111 32.7305C316.682 32.4727 316.348 32.112 316.111 31.6484C315.877 31.1849 315.76 30.6432 315.76 30.0234C315.76 29.4036 315.877 28.8607 316.111 28.3945C316.348 27.9284 316.682 27.5664 317.111 27.3086C317.541 27.0508 318.049 26.9219 318.635 26.9219C319.221 26.9219 319.729 27.0508 320.158 27.3086C320.588 27.5664 320.92 27.9284 321.154 28.3945C321.391 28.8607 321.51 29.4036 321.51 30.0234C321.51 30.6432 321.391 31.1849 321.154 31.6484C320.92 32.112 320.588 32.4727 320.158 32.7305C319.729 32.9883 319.221 33.1172 318.635 33.1172ZM318.643 31.9844C318.96 31.9844 319.226 31.8971 319.439 31.7227C319.653 31.5456 319.812 31.3086 319.916 31.0117C320.023 30.7148 320.076 30.3841 320.076 30.0195C320.076 29.6523 320.023 29.3203 319.916 29.0234C319.812 28.724 319.653 28.4857 319.439 28.3086C319.226 28.1315 318.96 28.043 318.643 28.043C318.317 28.043 318.046 28.1315 317.83 28.3086C317.617 28.4857 317.456 28.724 317.35 29.0234C317.245 29.3203 317.193 29.6523 317.193 30.0195C317.193 30.3841 317.245 30.7148 317.35 31.0117C317.456 31.3086 317.617 31.5456 317.83 31.7227C318.046 31.8971 318.317 31.9844 318.643 31.9844ZM325.319 35.375C324.812 35.375 324.375 35.306 324.011 35.168C323.646 35.0326 323.353 34.8503 323.132 34.6211C322.91 34.3919 322.757 34.138 322.671 33.8594L323.944 33.5508C324.002 33.668 324.085 33.7839 324.194 33.8984C324.304 34.0156 324.451 34.112 324.636 34.1875C324.823 34.2656 325.059 34.3047 325.343 34.3047C325.744 34.3047 326.076 34.207 326.339 34.0117C326.602 33.819 326.733 33.5013 326.733 33.0586V31.9219H326.663C326.59 32.0677 326.483 32.2174 326.343 32.3711C326.205 32.5247 326.021 32.6536 325.792 32.7578C325.565 32.862 325.28 32.9141 324.937 32.9141C324.476 32.9141 324.058 32.806 323.683 32.5898C323.31 32.3711 323.013 32.0456 322.792 31.6133C322.573 31.1784 322.464 30.6341 322.464 29.9805C322.464 29.3216 322.573 28.7656 322.792 28.3125C323.013 27.8568 323.312 27.5117 323.687 27.2773C324.062 27.0404 324.479 26.9219 324.94 26.9219C325.292 26.9219 325.581 26.9818 325.808 27.1016C326.037 27.2187 326.219 27.3607 326.354 27.5273C326.49 27.6914 326.593 27.8464 326.663 27.9922H326.741V27H328.136V33.0977C328.136 33.6107 328.013 34.0352 327.769 34.3711C327.524 34.707 327.189 34.9583 326.765 35.125C326.34 35.2917 325.858 35.375 325.319 35.375ZM325.331 31.8047C325.631 31.8047 325.886 31.7318 326.097 31.5859C326.308 31.4401 326.468 31.2305 326.577 30.957C326.687 30.6836 326.741 30.3555 326.741 29.9727C326.741 29.5951 326.687 29.2643 326.577 28.9805C326.47 28.6966 326.312 28.4766 326.101 28.3203C325.892 28.1615 325.636 28.082 325.331 28.082C325.016 28.082 324.753 28.1641 324.542 28.3281C324.331 28.4922 324.172 28.7174 324.065 29.0039C323.959 29.2878 323.905 29.6107 323.905 29.9727C323.905 30.3398 323.959 30.6615 324.065 30.9375C324.175 31.2109 324.335 31.4245 324.546 31.5781C324.759 31.7292 325.021 31.8047 325.331 31.8047ZM332.202 33.1172C331.616 33.1172 331.108 32.9883 330.679 32.7305C330.249 32.4727 329.916 32.112 329.679 31.6484C329.444 31.1849 329.327 30.6432 329.327 30.0234C329.327 29.4036 329.444 28.8607 329.679 28.3945C329.916 27.9284 330.249 27.5664 330.679 27.3086C331.108 27.0508 331.616 26.9219 332.202 26.9219C332.788 26.9219 333.296 27.0508 333.726 27.3086C334.155 27.5664 334.487 27.9284 334.722 28.3945C334.959 28.8607 335.077 29.4036 335.077 30.0234C335.077 30.6432 334.959 31.1849 334.722 31.6484C334.487 32.112 334.155 32.4727 333.726 32.7305C333.296 32.9883 332.788 33.1172 332.202 33.1172ZM332.21 31.9844C332.528 31.9844 332.793 31.8971 333.007 31.7227C333.22 31.5456 333.379 31.3086 333.483 31.0117C333.59 30.7148 333.644 30.3841 333.644 30.0195C333.644 29.6523 333.59 29.3203 333.483 29.0234C333.379 28.724 333.22 28.4857 333.007 28.3086C332.793 28.1315 332.528 28.043 332.21 28.043C331.884 28.043 331.614 28.1315 331.397 28.3086C331.184 28.4857 331.024 28.724 330.917 29.0234C330.813 29.3203 330.761 29.6523 330.761 30.0195C330.761 30.3841 330.813 30.7148 330.917 31.0117C331.024 31.3086 331.184 31.5456 331.397 31.7227C331.614 31.8971 331.884 31.9844 332.21 31.9844ZM340.102 30.4766V27H341.516V33H340.145V31.9336H340.082C339.947 32.2695 339.724 32.5443 339.414 32.7578C339.107 32.9714 338.728 33.0781 338.277 33.0781C337.884 33.0781 337.536 32.9909 337.234 32.8164C336.935 32.6393 336.701 32.3828 336.531 32.0469C336.362 31.7083 336.277 31.2995 336.277 30.8203V27H337.691V30.6016C337.691 30.9818 337.796 31.2839 338.004 31.5078C338.212 31.7318 338.486 31.8437 338.824 31.8437C339.033 31.8437 339.234 31.793 339.43 31.6914C339.625 31.5898 339.785 31.4388 339.91 31.2383C340.038 31.0352 340.102 30.7812 340.102 30.4766ZM345.966 27V28.0937H342.517V27H345.966ZM343.368 25.5625H344.782V31.1953C344.782 31.3854 344.811 31.5313 344.868 31.6328C344.928 31.7318 345.006 31.7995 345.103 31.8359C345.199 31.8724 345.306 31.8906 345.423 31.8906C345.511 31.8906 345.592 31.8841 345.665 31.8711C345.741 31.8581 345.798 31.8464 345.837 31.8359L346.075 32.9414C346 32.9674 345.892 32.9961 345.751 33.0273C345.613 33.0586 345.444 33.0768 345.243 33.082C344.889 33.0924 344.57 33.0391 344.286 32.9219C344.002 32.8021 343.777 32.6172 343.61 32.3672C343.446 32.1172 343.366 31.8047 343.368 31.4297V25.5625Z" fill="#424242"/>
</g>
<path id="H1: edit the lesson" d="M21.0043 104V93.8182H22.8487V98.1286H27.5668V93.8182H29.4162V104H27.5668V99.6747H22.8487V104H21.0043ZM35.4641 93.8182V104H33.6197V95.6129H33.56L31.1786 97.1342V95.4439L33.7092 93.8182H35.4641ZM39.1779 102.777C38.8763 102.777 38.6178 102.671 38.4023 102.459C38.1869 102.243 38.0808 101.985 38.0842 101.683C38.0808 101.385 38.1869 101.13 38.4023 100.918C38.6178 100.705 38.8763 100.599 39.1779 100.599C39.4696 100.599 39.7231 100.705 39.9386 100.918C40.1573 101.13 40.2683 101.385 40.2717 101.683C40.2683 101.885 40.2153 102.069 40.1126 102.235C40.0131 102.401 39.8806 102.533 39.7148 102.633C39.5524 102.729 39.3735 102.777 39.1779 102.777ZM39.1779 97.7308C38.8763 97.7308 38.6178 97.6248 38.4023 97.4126C38.1869 97.1972 38.0808 96.9387 38.0842 96.6371C38.0808 96.3388 38.1869 96.0836 38.4023 95.8714C38.6178 95.656 38.8763 95.5483 39.1779 95.5483C39.4696 95.5483 39.7231 95.656 39.9386 95.8714C40.1573 96.0836 40.2683 96.3388 40.2717 96.6371C40.2683 96.8359 40.2153 97.0182 40.1126 97.1839C40.0131 97.3497 39.8806 97.4822 39.7148 97.5817C39.5524 97.6811 39.3735 97.7308 39.1779 97.7308ZM48.9831 104.149C48.2175 104.149 47.5563 103.99 46.9995 103.672C46.446 103.35 46.0201 102.896 45.7218 102.31C45.4235 101.72 45.2743 101.025 45.2743 100.227C45.2743 99.4411 45.4235 98.7517 45.7218 98.1584C46.0234 97.5618 46.4443 97.0978 46.9846 96.7663C47.5248 96.4316 48.1595 96.2642 48.8887 96.2642C49.3593 96.2642 49.8034 96.3404 50.2211 96.4929C50.642 96.642 51.0132 96.8741 51.3347 97.1889C51.6595 97.5038 51.9147 97.9048 52.1003 98.392C52.2859 98.8759 52.3787 99.4527 52.3787 100.122V100.674H46.1195V99.4609H50.6536C50.6503 99.1162 50.5757 98.8097 50.4299 98.5412C50.284 98.2694 50.0802 98.0556 49.8184 97.8999C49.5598 97.7441 49.2582 97.6662 48.9135 97.6662C48.5456 97.6662 48.2225 97.7557 47.9441 97.9347C47.6657 98.1103 47.4486 98.3423 47.2928 98.6307C47.1403 98.9157 47.0624 99.2289 47.0591 99.5703V100.629C47.0591 101.073 47.1403 101.455 47.3027 101.773C47.4651 102.088 47.6922 102.33 47.9838 102.499C48.2755 102.664 48.6169 102.747 49.008 102.747C49.2698 102.747 49.5068 102.711 49.7189 102.638C49.931 102.562 50.115 102.451 50.2708 102.305C50.4266 102.159 50.5442 101.978 50.6238 101.763L52.3042 101.952C52.1981 102.396 51.9959 102.784 51.6976 103.115C51.4026 103.443 51.0248 103.698 50.5641 103.881C50.1034 104.06 49.5764 104.149 48.9831 104.149ZM56.7351 104.134C56.1352 104.134 55.5982 103.98 55.1243 103.672C54.6503 103.364 54.2758 102.916 54.0007 102.33C53.7256 101.743 53.5881 101.03 53.5881 100.192C53.5881 99.3433 53.7273 98.6274 54.0057 98.044C54.2874 97.4574 54.6669 97.0149 55.1442 96.7166C55.6214 96.415 56.1534 96.2642 56.7401 96.2642C57.1875 96.2642 57.5554 96.3404 57.8438 96.4929C58.1321 96.642 58.3608 96.8227 58.5298 97.0348C58.6989 97.2436 58.8298 97.4408 58.9226 97.6264H58.9972V93.8182H60.8018V104H59.032V102.797H58.9226C58.8298 102.982 58.6955 103.18 58.5199 103.388C58.3442 103.594 58.1122 103.77 57.8239 103.915C57.5355 104.061 57.1726 104.134 56.7351 104.134ZM57.2372 102.658C57.6184 102.658 57.9432 102.555 58.2116 102.349C58.4801 102.141 58.6839 101.851 58.8232 101.479C58.9624 101.108 59.032 100.676 59.032 100.182C59.032 99.688 58.9624 99.2588 58.8232 98.8942C58.6873 98.5296 58.4851 98.2462 58.2166 98.044C57.9515 97.8419 57.625 97.7408 57.2372 97.7408C56.8362 97.7408 56.5014 97.8452 56.233 98.054C55.9645 98.2628 55.7623 98.5511 55.6264 98.919C55.4905 99.2869 55.4226 99.7079 55.4226 100.182C55.4226 100.659 55.4905 101.085 55.6264 101.46C55.7656 101.831 55.9695 102.124 56.2379 102.339C56.5097 102.552 56.8428 102.658 57.2372 102.658ZM62.7196 104V96.3636H64.5194V104H62.7196ZM63.6245 95.2798C63.3394 95.2798 63.0942 95.1854 62.8887 94.9964C62.6832 94.8042 62.5804 94.5739 62.5804 94.3054C62.5804 94.0336 62.6832 93.8033 62.8887 93.6143C63.0942 93.4221 63.3394 93.326 63.6245 93.326C63.9128 93.326 64.1581 93.4221 64.3603 93.6143C64.5658 93.8033 64.6685 94.0336 64.6685 94.3054C64.6685 94.5739 64.5658 94.8042 64.3603 94.9964C64.1581 95.1854 63.9128 95.2798 63.6245 95.2798ZM70.1832 96.3636V97.7557H65.7933V96.3636H70.1832ZM66.8771 94.5341H68.6768V101.703C68.6768 101.945 68.7133 102.131 68.7862 102.26C68.8625 102.386 68.9619 102.472 69.0845 102.518C69.2071 102.565 69.343 102.588 69.4922 102.588C69.6049 102.588 69.7076 102.58 69.8004 102.563C69.8965 102.547 69.9695 102.532 70.0192 102.518L70.3224 103.925C70.2263 103.959 70.0888 103.995 69.9098 104.035C69.7341 104.075 69.5187 104.098 69.2635 104.104C68.8127 104.118 68.4067 104.05 68.0455 103.901C67.6842 103.748 67.3975 103.513 67.1854 103.195C66.9766 102.876 66.8738 102.479 66.8771 102.001V94.5341ZM78.9743 96.3636V97.7557H74.5843V96.3636H78.9743ZM75.6681 94.5341H77.4679V101.703C77.4679 101.945 77.5043 102.131 77.5772 102.26C77.6535 102.386 77.7529 102.472 77.8755 102.518C77.9982 102.565 78.1341 102.588 78.2832 102.588C78.3959 102.588 78.4986 102.58 78.5914 102.563C78.6876 102.547 78.7605 102.532 78.8102 102.518L79.1135 103.925C79.0173 103.959 78.8798 103.995 78.7008 104.035C78.5252 104.075 78.3097 104.098 78.0545 104.104C77.6038 104.118 77.1977 104.05 76.8365 103.901C76.4752 103.748 76.1885 103.513 75.9764 103.195C75.7676 102.876 75.6648 102.479 75.6681 102.001V94.5341ZM82.4432 99.5256V104H80.6435V93.8182H82.4034V97.6612H82.4929C82.6719 97.2304 82.9486 96.8906 83.3232 96.642C83.701 96.3902 84.1816 96.2642 84.7649 96.2642C85.2952 96.2642 85.7576 96.3752 86.152 96.5973C86.5464 96.8194 86.8513 97.1442 87.0668 97.5717C87.2855 97.9993 87.3949 98.5213 87.3949 99.1378V104H85.5952V99.4162C85.5952 98.9025 85.4626 98.5031 85.1974 98.218C84.9356 97.9297 84.5677 97.7855 84.0938 97.7855C83.7756 97.7855 83.4905 97.8551 83.2386 97.9943C82.9901 98.1302 82.7945 98.3274 82.652 98.5859C82.5128 98.8445 82.4432 99.1577 82.4432 99.5256ZM92.6101 104.149C91.8445 104.149 91.1832 103.99 90.6264 103.672C90.0729 103.35 89.647 102.896 89.3487 102.31C89.0504 101.72 88.9013 101.025 88.9013 100.227C88.9013 99.4411 89.0504 98.7517 89.3487 98.1584C89.6503 97.5618 90.0713 97.0978 90.6115 96.7663C91.1518 96.4316 91.7865 96.2642 92.5156 96.2642C92.9863 96.2642 93.4304 96.3404 93.848 96.4929C94.2689 96.642 94.6402 96.8741 94.9616 97.1889C95.2865 97.5038 95.5417 97.9048 95.7273 98.392C95.9129 98.8759 96.0057 99.4527 96.0057 100.122V100.674H89.7464V99.4609H94.2805C94.2772 99.1162 94.2027 98.8097 94.0568 98.5412C93.911 98.2694 93.7071 98.0556 93.4453 97.8999C93.1868 97.7441 92.8852 97.6662 92.5405 97.6662C92.1726 97.6662 91.8494 97.7557 91.571 97.9347C91.2926 98.1103 91.0755 98.3423 90.9197 98.6307C90.7673 98.9157 90.6894 99.2289 90.6861 99.5703V100.629C90.6861 101.073 90.7673 101.455 90.9297 101.773C91.0921 102.088 91.3191 102.33 91.6108 102.499C91.9025 102.664 92.2438 102.747 92.6349 102.747C92.8968 102.747 93.1338 102.711 93.3459 102.638C93.558 102.562 93.742 102.451 93.8977 102.305C94.0535 102.159 94.1712 101.978 94.2507 101.763L95.9311 101.952C95.825 102.396 95.6229 102.784 95.3246 103.115C95.0296 103.443 94.6518 103.698 94.1911 103.881C93.7304 104.06 93.2034 104.149 92.6101 104.149ZM102.801 93.8182V104H101.001V93.8182H102.801ZM108.032 104.149C107.266 104.149 106.605 103.99 106.048 103.672C105.495 103.35 105.069 102.896 104.771 102.31C104.472 101.72 104.323 101.025 104.323 100.227C104.323 99.4411 104.472 98.7517 104.771 98.1584C105.072 97.5618 105.493 97.0978 106.033 96.7663C106.574 96.4316 107.208 96.2642 107.938 96.2642C108.408 96.2642 108.852 96.3404 109.27 96.4929C109.691 96.642 110.062 96.8741 110.384 97.1889C110.708 97.5038 110.964 97.9048 111.149 98.392C111.335 98.8759 111.428 99.4527 111.428 100.122V100.674H105.168V99.4609H109.702C109.699 99.1162 109.625 98.8097 109.479 98.5412C109.333 98.2694 109.129 98.0556 108.867 97.8999C108.609 97.7441 108.307 97.6662 107.962 97.6662C107.594 97.6662 107.271 97.7557 106.993 97.9347C106.714 98.1103 106.497 98.3423 106.342 98.6307C106.189 98.9157 106.111 99.2289 106.108 99.5703V100.629C106.108 101.073 106.189 101.455 106.352 101.773C106.514 102.088 106.741 102.33 107.033 102.499C107.324 102.664 107.666 102.747 108.057 102.747C108.319 102.747 108.556 102.711 108.768 102.638C108.98 102.562 109.164 102.451 109.32 102.305C109.475 102.159 109.593 101.978 109.673 101.763L111.353 101.952C111.247 102.396 111.045 102.784 110.746 103.115C110.451 103.443 110.074 103.698 109.613 103.881C109.152 104.06 108.625 104.149 108.032 104.149ZM118.986 98.3821L117.345 98.5611C117.299 98.3954 117.217 98.2396 117.101 98.0938C116.989 97.9479 116.836 97.8303 116.644 97.7408C116.452 97.6513 116.216 97.6065 115.938 97.6065C115.564 97.6065 115.249 97.6877 114.993 97.8501C114.742 98.0125 114.617 98.223 114.621 98.4815C114.617 98.7036 114.698 98.8842 114.864 99.0234C115.033 99.1626 115.312 99.277 115.699 99.3665L117.002 99.6449C117.724 99.8007 118.261 100.048 118.613 100.386C118.967 100.724 119.146 101.166 119.15 101.713C119.146 102.194 119.006 102.618 118.727 102.986C118.452 103.35 118.069 103.635 117.579 103.841C117.088 104.046 116.525 104.149 115.888 104.149C114.954 104.149 114.201 103.954 113.631 103.562C113.061 103.168 112.721 102.62 112.612 101.917L114.367 101.748C114.447 102.093 114.616 102.353 114.874 102.528C115.133 102.704 115.469 102.792 115.883 102.792C116.311 102.792 116.654 102.704 116.912 102.528C117.174 102.353 117.305 102.136 117.305 101.877C117.305 101.658 117.221 101.478 117.052 101.335C116.886 101.193 116.627 101.083 116.276 101.007L114.974 100.734C114.241 100.581 113.699 100.324 113.348 99.9631C112.997 99.5985 112.823 99.1378 112.826 98.581C112.823 98.1103 112.95 97.7027 113.209 97.358C113.47 97.0099 113.833 96.7415 114.297 96.5526C114.765 96.3603 115.303 96.2642 115.913 96.2642C116.808 96.2642 117.512 96.4548 118.026 96.8359C118.543 97.2171 118.863 97.7325 118.986 98.3821ZM126.669 98.3821L125.029 98.5611C124.982 98.3954 124.901 98.2396 124.785 98.0938C124.672 97.9479 124.52 97.8303 124.328 97.7408C124.135 97.6513 123.9 97.6065 123.622 97.6065C123.247 97.6065 122.932 97.6877 122.677 97.8501C122.425 98.0125 122.301 98.223 122.304 98.4815C122.301 98.7036 122.382 98.8842 122.548 99.0234C122.717 99.1626 122.995 99.277 123.383 99.3665L124.686 99.6449C125.408 99.8007 125.945 100.048 126.296 100.386C126.651 100.724 126.83 101.166 126.833 101.713C126.83 102.194 126.689 102.618 126.411 102.986C126.136 103.35 125.753 103.635 125.262 103.841C124.772 104.046 124.208 104.149 123.572 104.149C122.637 104.149 121.885 103.954 121.315 103.562C120.745 103.168 120.405 102.62 120.296 101.917L122.051 101.748C122.13 102.093 122.299 102.353 122.558 102.528C122.816 102.704 123.153 102.792 123.567 102.792C123.994 102.792 124.338 102.704 124.596 102.528C124.858 102.353 124.989 102.136 124.989 101.877C124.989 101.658 124.904 101.478 124.735 101.335C124.57 101.193 124.311 101.083 123.96 101.007L122.657 100.734C121.925 100.581 121.383 100.324 121.031 99.9631C120.68 99.5985 120.506 99.1378 120.509 98.581C120.506 98.1103 120.634 97.7027 120.892 97.358C121.154 97.0099 121.517 96.7415 121.981 96.5526C122.448 96.3603 122.987 96.2642 123.597 96.2642C124.492 96.2642 125.196 96.4548 125.71 96.8359C126.227 97.2171 126.547 97.7325 126.669 98.3821ZM131.648 104.149C130.903 104.149 130.256 103.985 129.709 103.657C129.162 103.329 128.738 102.87 128.437 102.28C128.138 101.69 127.989 101 127.989 100.212C127.989 99.4228 128.138 98.7318 128.437 98.1385C128.738 97.5452 129.162 97.0845 129.709 96.7564C130.256 96.4283 130.903 96.2642 131.648 96.2642C132.394 96.2642 133.04 96.4283 133.587 96.7564C134.134 97.0845 134.557 97.5452 134.855 98.1385C135.157 98.7318 135.307 99.4228 135.307 100.212C135.307 101 135.157 101.69 134.855 102.28C134.557 102.87 134.134 103.329 133.587 103.657C133.04 103.985 132.394 104.149 131.648 104.149ZM131.658 102.707C132.063 102.707 132.401 102.596 132.672 102.374C132.944 102.149 133.146 101.847 133.279 101.469C133.415 101.092 133.483 100.671 133.483 100.207C133.483 99.7393 133.415 99.3168 133.279 98.9389C133.146 98.5578 132.944 98.2545 132.672 98.0291C132.401 97.8037 132.063 97.6911 131.658 97.6911C131.244 97.6911 130.899 97.8037 130.624 98.0291C130.352 98.2545 130.148 98.5578 130.013 98.9389C129.88 99.3168 129.814 99.7393 129.814 100.207C129.814 100.671 129.88 101.092 130.013 101.469C130.148 101.847 130.352 102.149 130.624 102.374C130.899 102.596 131.244 102.707 131.658 102.707ZM138.635 99.5256V104H136.835V96.3636H138.555V97.6612H138.645C138.82 97.2337 139.1 96.8939 139.485 96.642C139.873 96.3902 140.351 96.2642 140.922 96.2642C141.449 96.2642 141.908 96.3769 142.299 96.6023C142.693 96.8277 142.998 97.1541 143.213 97.5817C143.432 98.0092 143.54 98.5279 143.537 99.1378V104H141.737V99.4162C141.737 98.9058 141.604 98.5064 141.339 98.218C141.077 97.9297 140.714 97.7855 140.25 97.7855C139.935 97.7855 139.655 97.8551 139.41 97.9943C139.168 98.1302 138.978 98.3274 138.838 98.5859C138.703 98.8445 138.635 99.1577 138.635 99.5256Z" fill="#424242"/>
<rect id="Rectangle" x="20.5" y="122.5" width="349" height="299" rx="3.5" stroke="#9E9E9E"/>
<path id="label: title" d="M37.946 142.727V150H36.6605V142.727H37.946ZM40.8375 150.11C40.4919 150.11 40.1806 150.049 39.9036 149.925C39.629 149.8 39.4112 149.615 39.2502 149.371C39.0916 149.128 39.0123 148.827 39.0123 148.469C39.0123 148.162 39.0691 147.907 39.1827 147.706C39.2963 147.505 39.4514 147.344 39.6479 147.223C39.8444 147.102 40.0658 147.011 40.312 146.95C40.5605 146.886 40.8174 146.839 41.0826 146.811C41.4022 146.778 41.6614 146.748 41.8603 146.722C42.0591 146.694 42.2035 146.651 42.2935 146.594C42.3858 146.535 42.432 146.444 42.432 146.321V146.3C42.432 146.032 42.3527 145.825 42.1941 145.678C42.0355 145.531 41.807 145.458 41.5087 145.458C41.1938 145.458 40.9441 145.527 40.7594 145.664C40.5771 145.801 40.454 145.964 40.3901 146.151L39.1898 145.98C39.2845 145.649 39.4408 145.372 39.6586 145.149C39.8764 144.924 40.1427 144.756 40.4576 144.645C40.7724 144.531 41.1204 144.474 41.5016 144.474C41.7644 144.474 42.026 144.505 42.2864 144.567C42.5468 144.628 42.7847 144.73 43.0002 144.872C43.2156 145.012 43.3884 145.202 43.5186 145.444C43.6512 145.685 43.7175 145.987 43.7175 146.349V150H42.4817V149.251H42.4391C42.361 149.402 42.2509 149.544 42.1088 149.677C41.9692 149.807 41.7928 149.912 41.5797 149.993C41.369 150.071 41.1216 150.11 40.8375 150.11ZM41.1713 149.165C41.4294 149.165 41.6531 149.115 41.8425 149.013C42.0319 148.909 42.1775 148.771 42.2793 148.601C42.3835 148.43 42.4355 148.245 42.4355 148.043V147.401C42.3953 147.434 42.3266 147.464 42.2296 147.493C42.1349 147.521 42.0283 147.546 41.91 147.567C41.7916 147.589 41.6744 147.608 41.5584 147.624C41.4424 147.641 41.3418 147.655 41.2566 147.667C41.0648 147.693 40.8932 147.736 40.7417 147.795C40.5901 147.854 40.4706 147.937 40.383 148.043C40.2954 148.147 40.2516 148.282 40.2516 148.448C40.2516 148.685 40.338 148.864 40.5108 148.984C40.6837 149.105 40.9038 149.165 41.1713 149.165ZM45.0669 150V142.727H46.3525V145.447H46.4057C46.472 145.315 46.5655 145.174 46.6863 145.025C46.807 144.873 46.9703 144.744 47.1763 144.638C47.3823 144.529 47.6451 144.474 47.9647 144.474C48.3861 144.474 48.766 144.582 49.1046 144.798C49.4455 145.011 49.7154 145.327 49.9142 145.746C50.1155 146.162 50.2161 146.674 50.2161 147.28C50.2161 147.879 50.1178 148.388 49.9213 148.807C49.7248 149.226 49.4573 149.545 49.1188 149.766C48.7802 149.986 48.3967 150.096 47.9682 150.096C47.6557 150.096 47.3965 150.044 47.1905 149.94C46.9846 149.835 46.8188 149.71 46.6934 149.563C46.5703 149.414 46.4744 149.273 46.4057 149.141H46.3311V150H45.0669ZM46.3276 147.273C46.3276 147.625 46.3773 147.934 46.4767 148.2C46.5785 148.465 46.7241 148.672 46.9135 148.821C47.1053 148.968 47.3373 149.041 47.6096 149.041C47.8936 149.041 48.1316 148.965 48.3233 148.814C48.5151 148.66 48.6595 148.451 48.7566 148.185C48.856 147.918 48.9057 147.614 48.9057 147.273C48.9057 146.934 48.8572 146.634 48.7601 146.371C48.6631 146.108 48.5186 145.902 48.3269 145.753C48.1351 145.604 47.896 145.529 47.6096 145.529C47.3349 145.529 47.1017 145.601 46.91 145.746C46.7182 145.89 46.5726 146.093 46.4732 146.353C46.3761 146.613 46.3276 146.92 46.3276 147.273ZM53.7237 150.107C53.1768 150.107 52.7045 149.993 52.3068 149.766C51.9115 149.536 51.6072 149.212 51.3942 148.793C51.1811 148.371 51.0746 147.875 51.0746 147.305C51.0746 146.744 51.1811 146.251 51.3942 145.827C51.6096 145.401 51.9103 145.07 52.2962 144.833C52.6821 144.594 53.1354 144.474 53.6562 144.474C53.9924 144.474 54.3097 144.529 54.608 144.638C54.9086 144.744 55.1738 144.91 55.4034 145.135C55.6354 145.36 55.8177 145.646 55.9503 145.994C56.0829 146.34 56.1491 146.752 56.1491 147.23V147.624H51.6783V146.758H54.9169C54.9145 146.512 54.8613 146.293 54.7571 146.101C54.6529 145.907 54.5073 145.754 54.3203 145.643C54.1357 145.531 53.9202 145.476 53.674 145.476C53.4112 145.476 53.1804 145.54 52.9815 145.668C52.7827 145.793 52.6276 145.959 52.5163 146.165C52.4074 146.368 52.3518 146.592 52.3494 146.836V147.592C52.3494 147.91 52.4074 148.182 52.5234 148.409C52.6394 148.634 52.8016 148.807 53.0099 148.928C53.2183 149.046 53.4621 149.105 53.7415 149.105C53.9285 149.105 54.0978 149.079 54.2493 149.027C54.4008 148.973 54.5322 148.893 54.6435 148.789C54.7547 148.685 54.8388 148.556 54.8956 148.402L56.0959 148.537C56.0201 148.854 55.8757 149.131 55.6626 149.368C55.4519 149.602 55.1821 149.785 54.853 149.915C54.5239 150.043 54.1475 150.107 53.7237 150.107ZM58.5222 142.727V150H57.2367V142.727H58.5222ZM60.636 150.078C60.4206 150.078 60.2359 150.002 60.082 149.851C59.9281 149.699 59.8524 149.515 59.8548 149.297C59.8524 149.084 59.9281 148.902 60.082 148.75C60.2359 148.598 60.4206 148.523 60.636 148.523C60.8443 148.523 61.0254 148.598 61.1793 148.75C61.3356 148.902 61.4149 149.084 61.4173 149.297C61.4149 149.441 61.377 149.573 61.3036 149.691C61.2326 149.809 61.1379 149.904 61.0195 149.975C60.9035 150.044 60.7757 150.078 60.636 150.078ZM60.636 146.186C60.4206 146.186 60.2359 146.11 60.082 145.959C59.9281 145.805 59.8524 145.62 59.8548 145.405C59.8524 145.192 59.9281 145.009 60.082 144.858C60.2359 144.704 60.4206 144.627 60.636 144.627C60.8443 144.627 61.0254 144.704 61.1793 144.858C61.3356 145.009 61.4149 145.192 61.4173 145.405C61.4149 145.547 61.377 145.677 61.3036 145.795C61.2326 145.914 61.1379 146.009 61.0195 146.08C60.9035 146.151 60.7757 146.186 60.636 146.186ZM67.9487 144.545V145.54H64.813V144.545H67.9487ZM65.5872 143.239H66.8727V148.359C66.8727 148.532 66.8987 148.665 66.9508 148.757C67.0053 148.847 67.0763 148.909 67.1639 148.942C67.2515 148.975 67.3485 148.991 67.4551 148.991C67.5356 148.991 67.609 148.986 67.6752 148.974C67.7439 148.962 67.796 148.951 67.8315 148.942L68.0481 149.947C67.9795 149.97 67.8812 149.996 67.7534 150.025C67.6279 150.053 67.474 150.07 67.2917 150.075C66.9698 150.084 66.6797 150.036 66.4217 149.929C66.1636 149.82 65.9589 149.652 65.8074 149.425C65.6582 149.197 65.5848 148.913 65.5872 148.572V143.239ZM69.0238 150V144.545H70.3093V150H69.0238ZM69.6701 143.771C69.4665 143.771 69.2913 143.704 69.1445 143.569C68.9978 143.432 68.9244 143.267 68.9244 143.075C68.9244 142.881 68.9978 142.717 69.1445 142.582C69.2913 142.444 69.4665 142.376 69.6701 142.376C69.8761 142.376 70.0513 142.444 70.1957 142.582C70.3424 142.717 70.4158 142.881 70.4158 143.075C70.4158 143.267 70.3424 143.432 70.1957 143.569C70.0513 143.704 69.8761 143.771 69.6701 143.771ZM74.3549 144.545V145.54H71.2193V144.545H74.3549ZM71.9934 143.239H73.2789V148.359C73.2789 148.532 73.305 148.665 73.3571 148.757C73.4115 148.847 73.4825 148.909 73.5701 148.942C73.6577 148.975 73.7548 148.991 73.8613 148.991C73.9418 148.991 74.0152 148.986 74.0815 148.974C74.1502 148.962 74.2022 148.951 74.2377 148.942L74.4544 149.947C74.3857 149.97 74.2875 149.996 74.1596 150.025C74.0342 150.053 73.8803 150.07 73.698 150.075C73.376 150.084 73.086 150.036 72.8279 149.929C72.5699 149.82 72.3651 149.652 72.2136 149.425C72.0645 149.197 71.9911 148.913 71.9934 148.572V143.239ZM76.8327 142.727V150H75.5472V142.727H76.8327ZM80.5694 150.107C80.0225 150.107 79.5502 149.993 79.1525 149.766C78.7572 149.536 78.4529 149.212 78.2399 148.793C78.0268 148.371 77.9203 147.875 77.9203 147.305C77.9203 146.744 78.0268 146.251 78.2399 145.827C78.4553 145.401 78.756 145.07 79.1419 144.833C79.5278 144.594 79.9811 144.474 80.502 144.474C80.8381 144.474 81.1554 144.529 81.4537 144.638C81.7543 144.744 82.0195 144.91 82.2491 145.135C82.4811 145.36 82.6634 145.646 82.796 145.994C82.9286 146.34 82.9949 146.752 82.9949 147.23V147.624H78.524V146.758H81.7626C81.7602 146.512 81.707 146.293 81.6028 146.101C81.4986 145.907 81.353 145.754 81.166 145.643C80.9814 145.531 80.7659 145.476 80.5197 145.476C80.2569 145.476 80.0261 145.54 79.8272 145.668C79.6284 145.793 79.4733 145.959 79.362 146.165C79.2531 146.368 79.1975 146.592 79.1951 146.836V147.592C79.1951 147.91 79.2531 148.182 79.3691 148.409C79.4851 148.634 79.6473 148.807 79.8556 148.928C80.064 149.046 80.3078 149.105 80.5872 149.105C80.7742 149.105 80.9435 149.079 81.095 149.027C81.2465 148.973 81.3779 148.893 81.4892 148.789C81.6004 148.685 81.6845 148.556 81.7413 148.402L82.9416 148.537C82.8658 148.854 82.7214 149.131 82.5083 149.368C82.2976 149.602 82.0278 149.785 81.6987 149.915C81.3696 150.043 80.9932 150.107 80.5694 150.107Z" fill="#424242"/>
<rect id="Rectangle_2" x="36.5" y="158.5" width="317" height="33" rx="3.5" stroke="#9E9E9E"/>
<path id="label: content (markdown)" d="M37.946 206.727V214H36.6605V206.727H37.946ZM40.8375 214.11C40.4919 214.11 40.1806 214.049 39.9036 213.925C39.629 213.8 39.4112 213.615 39.2502 213.371C39.0916 213.128 39.0123 212.827 39.0123 212.469C39.0123 212.162 39.0691 211.907 39.1827 211.706C39.2963 211.505 39.4514 211.344 39.6479 211.223C39.8444 211.102 40.0658 211.011 40.312 210.95C40.5605 210.886 40.8174 210.839 41.0826 210.811C41.4022 210.778 41.6614 210.748 41.8603 210.722C42.0591 210.694 42.2035 210.651 42.2935 210.594C42.3858 210.535 42.432 210.444 42.432 210.321V210.3C42.432 210.032 42.3527 209.825 42.1941 209.678C42.0355 209.531 41.807 209.458 41.5087 209.458C41.1938 209.458 40.9441 209.527 40.7594 209.664C40.5771 209.801 40.454 209.964 40.3901 210.151L39.1898 209.98C39.2845 209.649 39.4408 209.372 39.6586 209.149C39.8764 208.924 40.1427 208.756 40.4576 208.645C40.7724 208.531 41.1204 208.474 41.5016 208.474C41.7644 208.474 42.026 208.505 42.2864 208.567C42.5468 208.628 42.7847 208.73 43.0002 208.872C43.2156 209.012 43.3884 209.202 43.5186 209.444C43.6512 209.685 43.7175 209.987 43.7175 210.349V214H42.4817V213.251H42.4391C42.361 213.402 42.2509 213.544 42.1088 213.677C41.9692 213.807 41.7928 213.912 41.5797 213.993C41.369 214.071 41.1216 214.11 40.8375 214.11ZM41.1713 213.165C41.4294 213.165 41.6531 213.115 41.8425 213.013C42.0319 212.909 42.1775 212.771 42.2793 212.601C42.3835 212.43 42.4355 212.245 42.4355 212.043V211.401C42.3953 211.434 42.3266 211.464 42.2296 211.493C42.1349 211.521 42.0283 211.546 41.91 211.567C41.7916 211.589 41.6744 211.608 41.5584 211.624C41.4424 211.641 41.3418 211.655 41.2566 211.667C41.0648 211.693 40.8932 211.736 40.7417 211.795C40.5901 211.854 40.4706 211.937 40.383 212.043C40.2954 212.147 40.2516 212.282 40.2516 212.448C40.2516 212.685 40.338 212.864 40.5108 212.984C40.6837 213.105 40.9038 213.165 41.1713 213.165ZM45.0669 214V206.727H46.3525V209.447H46.4057C46.472 209.315 46.5655 209.174 46.6863 209.025C46.807 208.873 46.9703 208.744 47.1763 208.638C47.3823 208.529 47.6451 208.474 47.9647 208.474C48.3861 208.474 48.766 208.582 49.1046 208.798C49.4455 209.011 49.7154 209.327 49.9142 209.746C50.1155 210.162 50.2161 210.674 50.2161 211.28C50.2161 211.879 50.1178 212.388 49.9213 212.807C49.7248 213.226 49.4573 213.545 49.1188 213.766C48.7802 213.986 48.3967 214.096 47.9682 214.096C47.6557 214.096 47.3965 214.044 47.1905 213.94C46.9846 213.835 46.8188 213.71 46.6934 213.563C46.5703 213.414 46.4744 213.273 46.4057 213.141H46.3311V214H45.0669ZM46.3276 211.273C46.3276 211.625 46.3773 211.934 46.4767 212.2C46.5785 212.465 46.7241 212.672 46.9135 212.821C47.1053 212.968 47.3373 213.041 47.6096 213.041C47.8936 213.041 48.1316 212.965 48.3233 212.814C48.5151 212.66 48.6595 212.451 48.7566 212.185C48.856 211.918 48.9057 211.614 48.9057 211.273C48.9057 210.934 48.8572 210.634 48.7601 210.371C48.6631 210.108 48.5186 209.902 48.3269 209.753C48.1351 209.604 47.896 209.529 47.6096 209.529C47.3349 209.529 47.1017 209.601 46.91 209.746C46.7182 209.89 46.5726 210.093 46.4732 210.353C46.3761 210.613 46.3276 210.92 46.3276 211.273ZM53.7237 214.107C53.1768 214.107 52.7045 213.993 52.3068 213.766C51.9115 213.536 51.6072 213.212 51.3942 212.793C51.1811 212.371 51.0746 211.875 51.0746 211.305C51.0746 210.744 51.1811 210.251 51.3942 209.827C51.6096 209.401 51.9103 209.07 52.2962 208.833C52.6821 208.594 53.1354 208.474 53.6562 208.474C53.9924 208.474 54.3097 208.529 54.608 208.638C54.9086 208.744 55.1738 208.91 55.4034 209.135C55.6354 209.36 55.8177 209.646 55.9503 209.994C56.0829 210.34 56.1491 210.752 56.1491 211.23V211.624H51.6783V210.758H54.9169C54.9145 210.512 54.8613 210.293 54.7571 210.101C54.6529 209.907 54.5073 209.754 54.3203 209.643C54.1357 209.531 53.9202 209.476 53.674 209.476C53.4112 209.476 53.1804 209.54 52.9815 209.668C52.7827 209.793 52.6276 209.959 52.5163 210.165C52.4074 210.368 52.3518 210.592 52.3494 210.836V211.592C52.3494 211.91 52.4074 212.182 52.5234 212.409C52.6394 212.634 52.8016 212.807 53.0099 212.928C53.2183 213.046 53.4621 213.105 53.7415 213.105C53.9285 213.105 54.0978 213.079 54.2493 213.027C54.4008 212.973 54.5322 212.893 54.6435 212.789C54.7547 212.685 54.8388 212.556 54.8956 212.402L56.0959 212.537C56.0201 212.854 55.8757 213.131 55.6626 213.368C55.4519 213.602 55.1821 213.785 54.853 213.915C54.5239 214.043 54.1475 214.107 53.7237 214.107ZM58.5222 206.727V214H57.2367V206.727H58.5222ZM60.636 214.078C60.4206 214.078 60.2359 214.002 60.082 213.851C59.9281 213.699 59.8524 213.515 59.8548 213.297C59.8524 213.084 59.9281 212.902 60.082 212.75C60.2359 212.598 60.4206 212.523 60.636 212.523C60.8443 212.523 61.0254 212.598 61.1793 212.75C61.3356 212.902 61.4149 213.084 61.4173 213.297C61.4149 213.441 61.377 213.573 61.3036 213.691C61.2326 213.809 61.1379 213.904 61.0195 213.975C60.9035 214.044 60.7757 214.078 60.636 214.078ZM60.636 210.186C60.4206 210.186 60.2359 210.11 60.082 209.959C59.9281 209.805 59.8524 209.62 59.8548 209.405C59.8524 209.192 59.9281 209.009 60.082 208.858C60.2359 208.704 60.4206 208.627 60.636 208.627C60.8443 208.627 61.0254 208.704 61.1793 208.858C61.3356 209.009 61.4149 209.192 61.4173 209.405C61.4149 209.547 61.377 209.677 61.3036 209.795C61.2326 209.914 61.1379 210.009 61.0195 210.08C60.9035 210.151 60.7757 210.186 60.636 210.186ZM67.6042 214.107C67.0597 214.107 66.5922 213.987 66.2015 213.748C65.8133 213.509 65.5138 213.179 65.3031 212.757C65.0948 212.333 64.9906 211.846 64.9906 211.294C64.9906 210.74 65.0971 210.251 65.3102 209.827C65.5233 209.401 65.8239 209.07 66.2122 208.833C66.6028 208.594 67.0645 208.474 67.5971 208.474C68.0398 208.474 68.4316 208.556 68.7725 208.719C69.1158 208.88 69.3893 209.109 69.5929 209.405C69.7965 209.698 69.9125 210.042 69.9409 210.435H68.7122C68.6625 210.172 68.5441 209.953 68.3571 209.778C68.1724 209.6 67.925 209.511 67.6149 209.511C67.3521 209.511 67.1213 209.582 66.9224 209.724C66.7235 209.864 66.5685 210.065 66.4572 210.328C66.3483 210.591 66.2939 210.906 66.2939 211.273C66.2939 211.644 66.3483 211.964 66.4572 212.232C66.5661 212.497 66.7188 212.701 66.9153 212.846C67.1142 212.988 67.3474 213.059 67.6149 213.059C67.8043 213.059 67.9735 213.023 68.1227 212.952C68.2742 212.879 68.4009 212.774 68.5027 212.636C68.6045 212.499 68.6743 212.332 68.7122 212.136H69.9409C69.9101 212.522 69.7965 212.864 69.6 213.162C69.4035 213.458 69.1359 213.69 68.7974 213.858C68.4589 214.024 68.0611 214.107 67.6042 214.107ZM73.3757 214.107C72.843 214.107 72.3814 213.989 71.9908 213.755C71.6001 213.521 71.2971 213.193 71.0817 212.771C70.8686 212.35 70.7621 211.857 70.7621 211.294C70.7621 210.731 70.8686 210.237 71.0817 209.813C71.2971 209.389 71.6001 209.06 71.9908 208.826C72.3814 208.592 72.843 208.474 73.3757 208.474C73.9084 208.474 74.37 208.592 74.7607 208.826C75.1513 209.06 75.4531 209.389 75.6662 209.813C75.8816 210.237 75.9893 210.731 75.9893 211.294C75.9893 211.857 75.8816 212.35 75.6662 212.771C75.4531 213.193 75.1513 213.521 74.7607 213.755C74.37 213.989 73.9084 214.107 73.3757 214.107ZM73.3828 213.077C73.6716 213.077 73.9131 212.997 74.1072 212.839C74.3014 212.678 74.4458 212.462 74.5405 212.192C74.6375 211.923 74.6861 211.622 74.6861 211.29C74.6861 210.957 74.6375 210.655 74.5405 210.385C74.4458 210.113 74.3014 209.896 74.1072 209.735C73.9131 209.574 73.6716 209.494 73.3828 209.494C73.0869 209.494 72.8407 209.574 72.6442 209.735C72.45 209.896 72.3045 210.113 72.2074 210.385C72.1127 210.655 72.0653 210.957 72.0653 211.29C72.0653 211.622 72.1127 211.923 72.2074 212.192C72.3045 212.462 72.45 212.678 72.6442 212.839C72.8407 212.997 73.0869 213.077 73.3828 213.077ZM78.3659 210.804V214H77.0804V208.545H78.3091V209.472H78.373C78.4985 209.167 78.6986 208.924 78.9732 208.744C79.2502 208.564 79.5923 208.474 79.9995 208.474C80.3759 208.474 80.7038 208.555 80.9831 208.716C81.2649 208.877 81.4827 209.11 81.6365 209.415C81.7928 209.721 81.8697 210.091 81.8674 210.527V214H80.5819V210.726C80.5819 210.361 80.4872 210.076 80.2978 209.87C80.1107 209.664 79.8515 209.561 79.5201 209.561C79.2952 209.561 79.0951 209.611 78.9199 209.71C78.7471 209.807 78.611 209.948 78.5115 210.133C78.4145 210.317 78.3659 210.541 78.3659 210.804ZM85.8979 208.545V209.54H82.7623V208.545H85.8979ZM83.5364 207.239H84.8219V212.359C84.8219 212.532 84.848 212.665 84.9 212.757C84.9545 212.847 85.0255 212.909 85.1131 212.942C85.2007 212.975 85.2978 212.991 85.4043 212.991C85.4848 212.991 85.5582 212.986 85.6245 212.974C85.6931 212.962 85.7452 212.951 85.7807 212.942L85.9973 213.947C85.9287 213.97 85.8304 213.996 85.7026 214.025C85.5771 214.053 85.4232 214.07 85.2409 214.075C84.919 214.084 84.629 214.036 84.3709 213.929C84.1129 213.82 83.9081 213.652 83.7566 213.425C83.6074 213.197 83.534 212.913 83.5364 212.572V207.239ZM89.3292 214.107C88.7823 214.107 88.31 213.993 87.9123 213.766C87.5169 213.536 87.2127 213.212 86.9996 212.793C86.7866 212.371 86.68 211.875 86.68 211.305C86.68 210.744 86.7866 210.251 86.9996 209.827C87.2151 209.401 87.5157 209.07 87.9016 208.833C88.2875 208.594 88.7409 208.474 89.2617 208.474C89.5979 208.474 89.9151 208.529 90.2134 208.638C90.5141 208.744 90.7792 208.91 91.0089 209.135C91.2409 209.36 91.4232 209.646 91.5558 209.994C91.6883 210.34 91.7546 210.752 91.7546 211.23V211.624H87.2837V210.758H90.5224C90.52 210.512 90.4667 210.293 90.3626 210.101C90.2584 209.907 90.1128 209.754 89.9258 209.643C89.7411 209.531 89.5257 209.476 89.2795 209.476C89.0167 209.476 88.7859 209.54 88.587 209.668C88.3881 209.793 88.2331 209.959 88.1218 210.165C88.0129 210.368 87.9573 210.592 87.9549 210.836V211.592C87.9549 211.91 88.0129 212.182 88.1289 212.409C88.2449 212.634 88.4071 212.807 88.6154 212.928C88.8237 213.046 89.0676 213.105 89.3469 213.105C89.534 213.105 89.7032 213.079 89.8548 213.027C90.0063 212.973 90.1377 212.893 90.2489 212.789C90.3602 212.685 90.4442 212.556 90.5011 212.402L91.7013 212.537C91.6256 212.854 91.4812 213.131 91.2681 213.368C91.0574 213.602 90.7875 213.785 90.4585 213.915C90.1294 214.043 89.753 214.107 89.3292 214.107ZM94.1277 210.804V214H92.8422V208.545H94.0708V209.472H94.1348C94.2602 209.167 94.4603 208.924 94.7349 208.744C95.0119 208.564 95.354 208.474 95.7612 208.474C96.1376 208.474 96.4655 208.555 96.7449 208.716C97.0266 208.877 97.2444 209.11 97.3983 209.415C97.5545 209.721 97.6315 210.091 97.6291 210.527V214H96.3436V210.726C96.3436 210.361 96.2489 210.076 96.0595 209.87C95.8725 209.664 95.6132 209.561 95.2818 209.561C95.0569 209.561 94.8568 209.611 94.6816 209.71C94.5088 209.807 94.3727 209.948 94.2733 210.133C94.1762 210.317 94.1277 210.541 94.1277 210.804ZM101.66 208.545V209.54H98.524V208.545H101.66ZM99.2981 207.239H100.584V212.359C100.584 212.532 100.61 212.665 100.662 212.757C100.716 212.847 100.787 212.909 100.875 212.942C100.962 212.975 101.059 212.991 101.166 212.991C101.247 212.991 101.32 212.986 101.386 212.974C101.455 212.962 101.507 212.951 101.542 212.942L101.759 213.947C101.69 213.97 101.592 213.996 101.464 214.025C101.339 214.053 101.185 214.07 101.003 214.075C100.681 214.084 100.391 214.036 100.133 213.929C99.8746 213.82 99.6698 213.652 99.5183 213.425C99.3691 213.197 99.2958 212.913 99.2981 212.572V207.239ZM105.535 211.035C105.535 210.147 105.652 209.331 105.886 208.588C106.123 207.842 106.475 207.153 106.941 206.521H108.152C107.972 206.756 107.804 207.043 107.648 207.384C107.491 207.723 107.355 208.094 107.239 208.499C107.126 208.902 107.036 209.32 106.969 209.753C106.906 210.186 106.874 210.613 106.874 211.035C106.874 211.596 106.929 212.164 107.04 212.739C107.154 213.315 107.307 213.847 107.499 214.337C107.693 214.83 107.911 215.232 108.152 215.545H106.941C106.475 214.913 106.123 214.225 105.886 213.482C105.652 212.736 105.535 211.92 105.535 211.035ZM109.151 214V208.545H110.379V209.472H110.443C110.557 209.16 110.745 208.916 111.008 208.741C111.271 208.563 111.584 208.474 111.949 208.474C112.318 208.474 112.63 208.564 112.883 208.744C113.139 208.922 113.319 209.165 113.423 209.472H113.48C113.6 209.169 113.804 208.928 114.09 208.748C114.379 208.566 114.721 208.474 115.117 208.474C115.619 208.474 116.028 208.633 116.345 208.95C116.663 209.268 116.821 209.73 116.821 210.339V214H115.532V210.538C115.532 210.199 115.442 209.952 115.262 209.795C115.082 209.637 114.862 209.558 114.602 209.558C114.292 209.558 114.049 209.655 113.874 209.849C113.701 210.04 113.615 210.29 113.615 210.598V214H112.354V210.484C112.354 210.203 112.269 209.978 112.098 209.81C111.93 209.642 111.71 209.558 111.438 209.558C111.253 209.558 111.085 209.605 110.933 209.7C110.782 209.792 110.661 209.923 110.571 210.094C110.481 210.262 110.436 210.458 110.436 210.683V214H109.151ZM119.695 214.11C119.349 214.11 119.038 214.049 118.761 213.925C118.486 213.8 118.269 213.615 118.108 213.371C117.949 213.128 117.87 212.827 117.87 212.469C117.87 212.162 117.926 211.907 118.04 211.706C118.154 211.505 118.309 211.344 118.505 211.223C118.702 211.102 118.923 211.011 119.169 210.95C119.418 210.886 119.675 210.839 119.94 210.811C120.26 210.778 120.519 210.748 120.718 210.722C120.917 210.694 121.061 210.651 121.151 210.594C121.243 210.535 121.289 210.444 121.289 210.321V210.3C121.289 210.032 121.21 209.825 121.051 209.678C120.893 209.531 120.664 209.458 120.366 209.458C120.051 209.458 119.801 209.527 119.617 209.664C119.435 209.801 119.311 209.964 119.248 210.151L118.047 209.98C118.142 209.649 118.298 209.372 118.516 209.149C118.734 208.924 119 208.756 119.315 208.645C119.63 208.531 119.978 208.474 120.359 208.474C120.622 208.474 120.883 208.505 121.144 208.567C121.404 208.628 121.642 208.73 121.858 208.872C122.073 209.012 122.246 209.202 122.376 209.444C122.509 209.685 122.575 209.987 122.575 210.349V214H121.339V213.251H121.297C121.218 213.402 121.108 213.544 120.966 213.677C120.827 213.807 120.65 213.912 120.437 213.993C120.226 214.071 119.979 214.11 119.695 214.11ZM120.029 213.165C120.287 213.165 120.511 213.115 120.7 213.013C120.889 212.909 121.035 212.771 121.137 212.601C121.241 212.43 121.293 212.245 121.293 212.043V211.401C121.253 211.434 121.184 211.464 121.087 211.493C120.992 211.521 120.886 211.546 120.767 211.567C120.649 211.589 120.532 211.608 120.416 211.624C120.3 211.641 120.199 211.655 120.114 211.667C119.922 211.693 119.751 211.736 119.599 211.795C119.448 211.854 119.328 211.937 119.24 212.043C119.153 212.147 119.109 212.282 119.109 212.448C119.109 212.685 119.195 212.864 119.368 212.984C119.541 213.105 119.761 213.165 120.029 213.165ZM123.868 214V208.545H125.114V209.455H125.171C125.27 209.14 125.441 208.897 125.682 208.727C125.926 208.554 126.204 208.467 126.517 208.467C126.588 208.467 126.667 208.471 126.755 208.478C126.845 208.483 126.919 208.491 126.978 208.503V209.685C126.924 209.666 126.837 209.65 126.719 209.636C126.603 209.619 126.491 209.611 126.382 209.611C126.147 209.611 125.937 209.662 125.75 209.763C125.565 209.863 125.419 210.001 125.313 210.179C125.206 210.357 125.153 210.561 125.153 210.793V214H123.868ZM129.004 212.288L129.001 210.737H129.207L131.167 208.545H132.669L130.258 211.23H129.991L129.004 212.288ZM127.832 214V206.727H129.118V214H127.832ZM131.256 214L129.48 211.518L130.347 210.612L132.793 214H131.256ZM135.325 214.096C134.897 214.096 134.513 213.986 134.175 213.766C133.836 213.545 133.569 213.226 133.372 212.807C133.176 212.388 133.077 211.879 133.077 211.28C133.077 210.674 133.177 210.162 133.376 209.746C133.577 209.327 133.848 209.011 134.189 208.798C134.53 208.582 134.91 208.474 135.329 208.474C135.648 208.474 135.911 208.529 136.117 208.638C136.323 208.744 136.487 208.873 136.607 209.025C136.728 209.174 136.821 209.315 136.888 209.447H136.941V206.727H138.23V214H136.966V213.141H136.888C136.821 213.273 136.726 213.414 136.6 213.563C136.475 213.71 136.309 213.835 136.103 213.94C135.897 214.044 135.638 214.096 135.325 214.096ZM135.684 213.041C135.956 213.041 136.188 212.968 136.38 212.821C136.572 212.672 136.717 212.465 136.817 212.2C136.916 211.934 136.966 211.625 136.966 211.273C136.966 210.92 136.916 210.613 136.817 210.353C136.72 210.093 136.575 209.89 136.384 209.746C136.194 209.601 135.961 209.529 135.684 209.529C135.397 209.529 135.158 209.604 134.967 209.753C134.775 209.902 134.63 210.108 134.533 210.371C134.436 210.634 134.388 210.934 134.388 211.273C134.388 211.614 134.436 211.918 134.533 212.185C134.633 212.451 134.778 212.66 134.97 212.814C135.164 212.965 135.402 213.041 135.684 213.041ZM141.979 214.107C141.447 214.107 140.985 213.989 140.594 213.755C140.204 213.521 139.901 213.193 139.685 212.771C139.472 212.35 139.366 211.857 139.366 211.294C139.366 210.731 139.472 210.237 139.685 209.813C139.901 209.389 140.204 209.06 140.594 208.826C140.985 208.592 141.447 208.474 141.979 208.474C142.512 208.474 142.974 208.592 143.364 208.826C143.755 209.06 144.057 209.389 144.27 209.813C144.485 210.237 144.593 210.731 144.593 211.294C144.593 211.857 144.485 212.35 144.27 212.771C144.057 213.193 143.755 213.521 143.364 213.755C142.974 213.989 142.512 214.107 141.979 214.107ZM141.986 213.077C142.275 213.077 142.517 212.997 142.711 212.839C142.905 212.678 143.049 212.462 143.144 212.192C143.241 211.923 143.29 211.622 143.29 211.29C143.29 210.957 143.241 210.655 143.144 210.385C143.049 210.113 142.905 209.896 142.711 209.735C142.517 209.574 142.275 209.494 141.986 209.494C141.69 209.494 141.444 209.574 141.248 209.735C141.054 209.896 140.908 210.113 140.811 210.385C140.716 210.655 140.669 210.957 140.669 211.29C140.669 211.622 140.716 211.923 140.811 212.192C140.908 212.462 141.054 212.678 141.248 212.839C141.444 212.997 141.69 213.077 141.986 213.077ZM146.653 214L145.112 208.545H146.423L147.381 212.381H147.431L148.411 208.545H149.707L150.688 212.359H150.741L151.685 208.545H152.999L151.455 214H150.116L149.093 210.314H149.018L147.996 214H146.653ZM155.182 210.804V214H153.897V208.545H155.126V209.472H155.189C155.315 209.167 155.515 208.924 155.79 208.744C156.067 208.564 156.409 208.474 156.816 208.474C157.192 208.474 157.52 208.555 157.8 208.716C158.081 208.877 158.299 209.11 158.453 209.415C158.609 209.721 158.686 210.091 158.684 210.527V214H157.398V210.726C157.398 210.361 157.304 210.076 157.114 209.87C156.927 209.664 156.668 209.561 156.336 209.561C156.112 209.561 155.912 209.611 155.736 209.71C155.564 209.807 155.427 209.948 155.328 210.133C155.231 210.317 155.182 210.541 155.182 210.804ZM162.285 211.035C162.285 211.92 162.166 212.736 161.93 213.482C161.695 214.225 161.345 214.913 160.878 215.545H159.667C159.85 215.31 160.018 215.024 160.172 214.685C160.328 214.347 160.463 213.975 160.577 213.57C160.693 213.165 160.782 212.746 160.846 212.313C160.913 211.88 160.946 211.454 160.946 211.035C160.946 210.474 160.889 209.906 160.775 209.33C160.664 208.755 160.511 208.221 160.317 207.729C160.126 207.236 159.909 206.834 159.667 206.521H160.878C161.345 207.153 161.695 207.842 161.93 208.588C162.166 209.331 162.285 210.147 162.285 211.035Z" fill="#424242"/>
<rect id="Rectangle_3" x="36" y="222" width="260" height="8" rx="4" fill="#D9D9D9"/>
<rect id="Rectangle_4" x="36.5" y="244.5" width="317" height="109" rx="3.5" stroke="#9E9E9E"/>
<rect id="Rectangle_5" x="36.5" y="370.5" width="129" height="33" rx="3.5" stroke="#9E9E9E"/>
<path id="submit" d="M78.9716 385.987L77.7997 386.115C77.7666 385.997 77.7086 385.885 77.6257 385.781C77.5452 385.677 77.4363 385.593 77.299 385.529C77.1617 385.465 76.9936 385.433 76.7947 385.433C76.5272 385.433 76.3023 385.491 76.12 385.607C75.9401 385.723 75.8513 385.874 75.8537 386.058C75.8513 386.217 75.9093 386.346 76.0277 386.445C76.1484 386.545 76.3473 386.626 76.6243 386.69L77.5547 386.889C78.0708 387 78.4543 387.177 78.7053 387.418C78.9586 387.66 79.0864 387.976 79.0888 388.366C79.0864 388.71 78.9858 389.013 78.7869 389.276C78.5904 389.536 78.317 389.74 77.9666 389.886C77.6162 390.033 77.2138 390.107 76.7592 390.107C76.0916 390.107 75.5542 389.967 75.147 389.688C74.7398 389.406 74.4972 389.014 74.419 388.512L75.6726 388.391C75.7294 388.638 75.8501 388.823 76.0348 388.949C76.2195 389.074 76.4598 389.137 76.7557 389.137C77.0611 389.137 77.3061 389.074 77.4908 388.949C77.6778 388.823 77.7713 388.668 77.7713 388.484C77.7713 388.327 77.7109 388.198 77.5902 388.097C77.4718 387.995 77.2872 387.917 77.0362 387.862L76.1058 387.667C75.5826 387.558 75.1955 387.375 74.9446 387.116C74.6937 386.856 74.5694 386.527 74.5717 386.129C74.5694 385.793 74.6605 385.502 74.8452 385.256C75.0322 385.007 75.2914 384.815 75.6229 384.68C75.9567 384.543 76.3414 384.474 76.777 384.474C77.4162 384.474 77.9193 384.611 78.2862 384.883C78.6555 385.155 78.884 385.523 78.9716 385.987ZM83.6254 387.706V384.545H84.9109V390H83.6644V389.031H83.6076C83.4845 389.336 83.2821 389.586 83.0004 389.78C82.721 389.974 82.3765 390.071 81.967 390.071C81.6095 390.071 81.2934 389.992 81.0188 389.833C80.7466 389.672 80.5335 389.439 80.3796 389.134C80.2257 388.826 80.1488 388.454 80.1488 388.018V384.545H81.4343V387.82C81.4343 388.165 81.529 388.44 81.7184 388.643C81.9078 388.847 82.1564 388.949 82.4641 388.949C82.6535 388.949 82.837 388.903 83.0146 388.81C83.1921 388.718 83.3377 388.581 83.4513 388.398C83.5674 388.214 83.6254 387.983 83.6254 387.706ZM86.2896 390V382.727H87.5751V385.447H87.6284C87.6947 385.315 87.7882 385.174 87.9089 385.025C88.0297 384.873 88.193 384.744 88.399 384.638C88.6049 384.529 88.8677 384.474 89.1873 384.474C89.6087 384.474 89.9887 384.582 90.3272 384.798C90.6681 385.011 90.938 385.327 91.1369 385.746C91.3381 386.162 91.4387 386.674 91.4387 387.28C91.4387 387.879 91.3405 388.388 91.144 388.807C90.9475 389.226 90.68 389.545 90.3414 389.766C90.0029 389.986 89.6194 390.096 89.1909 390.096C88.8784 390.096 88.6191 390.044 88.4132 389.94C88.2072 389.835 88.0415 389.71 87.916 389.563C87.7929 389.414 87.697 389.273 87.6284 389.141H87.5538V390H86.2896ZM87.5502 387.273C87.5502 387.625 87.6 387.934 87.6994 388.2C87.8012 388.465 87.9468 388.672 88.1362 388.821C88.3279 388.968 88.56 389.041 88.8322 389.041C89.1163 389.041 89.3542 388.965 89.546 388.814C89.7377 388.66 89.8822 388.451 89.9792 388.185C90.0787 387.918 90.1284 387.614 90.1284 387.273C90.1284 386.934 90.0798 386.634 89.9828 386.371C89.8857 386.108 89.7413 385.902 89.5495 385.753C89.3578 385.604 89.1187 385.529 88.8322 385.529C88.5576 385.529 88.3244 385.601 88.1326 385.746C87.9409 385.89 87.7953 386.093 87.6958 386.353C87.5988 386.613 87.5502 386.92 87.5502 387.273ZM92.5316 390V384.545H93.7603V385.472H93.8242C93.9379 385.16 94.1261 384.916 94.3888 384.741C94.6516 384.563 94.9653 384.474 95.3299 384.474C95.6992 384.474 96.0105 384.564 96.2638 384.744C96.5195 384.922 96.6995 385.165 96.8036 385.472H96.8604C96.9812 385.169 97.1848 384.928 97.4712 384.748C97.7601 384.566 98.1022 384.474 98.4975 384.474C98.9994 384.474 99.409 384.633 99.7262 384.95C100.043 385.268 100.202 385.73 100.202 386.339V390H98.913V386.538C98.913 386.199 98.823 385.952 98.6431 385.795C98.4632 385.637 98.243 385.558 97.9826 385.558C97.6725 385.558 97.4298 385.655 97.2546 385.849C97.0818 386.04 96.9954 386.29 96.9954 386.598V390H95.7347V386.484C95.7347 386.203 95.6495 385.978 95.479 385.81C95.311 385.642 95.0908 385.558 94.8185 385.558C94.6339 385.558 94.4658 385.605 94.3143 385.7C94.1628 385.792 94.042 385.923 93.9521 386.094C93.8621 386.262 93.8171 386.458 93.8171 386.683V390H92.5316ZM101.506 390V384.545H102.792V390H101.506ZM102.153 383.771C101.949 383.771 101.774 383.704 101.627 383.569C101.48 383.432 101.407 383.267 101.407 383.075C101.407 382.881 101.48 382.717 101.627 382.582C101.774 382.444 101.949 382.376 102.153 382.376C102.358 382.376 102.534 382.444 102.678 382.582C102.825 382.717 102.898 382.881 102.898 383.075C102.898 383.267 102.825 383.432 102.678 383.569C102.534 383.704 102.358 383.771 102.153 383.771ZM106.837 384.545V385.54H103.702V384.545H106.837ZM104.476 383.239H105.761V388.359C105.761 388.532 105.787 388.665 105.839 388.757C105.894 388.847 105.965 388.909 106.053 388.942C106.14 388.975 106.237 388.991 106.344 388.991C106.424 388.991 106.498 388.986 106.564 388.974C106.633 388.962 106.685 388.951 106.72 388.942L106.937 389.947C106.868 389.97 106.77 389.996 106.642 390.025C106.517 390.053 106.363 390.07 106.18 390.075C105.858 390.084 105.568 390.036 105.31 389.929C105.052 389.82 104.848 389.652 104.696 389.425C104.547 389.197 104.473 388.913 104.476 388.572V383.239Z" fill="#424242"/>
<rect id="Rectangle_6" x="180.5" y="370.5" width="149" height="33" rx="3.5" stroke="#9E9E9E"/>
<path id="archive" d="M232.23 390.11C231.884 390.11 231.573 390.049 231.296 389.925C231.022 389.8 230.804 389.615 230.643 389.371C230.484 389.128 230.405 388.827 230.405 388.469C230.405 388.162 230.462 387.907 230.575 387.706C230.689 387.505 230.844 387.344 231.04 387.223C231.237 387.102 231.458 387.011 231.705 386.95C231.953 386.886 232.21 386.839 232.475 386.811C232.795 386.778 233.054 386.748 233.253 386.722C233.452 386.694 233.596 386.651 233.686 386.594C233.778 386.535 233.825 386.444 233.825 386.321V386.3C233.825 386.032 233.745 385.825 233.587 385.678C233.428 385.531 233.2 385.458 232.901 385.458C232.586 385.458 232.337 385.527 232.152 385.664C231.97 385.801 231.847 385.964 231.783 386.151L230.582 385.98C230.677 385.649 230.833 385.372 231.051 385.149C231.269 384.924 231.535 384.756 231.85 384.645C232.165 384.531 232.513 384.474 232.894 384.474C233.157 384.474 233.419 384.505 233.679 384.567C233.939 384.628 234.177 384.73 234.393 384.872C234.608 385.012 234.781 385.202 234.911 385.444C235.044 385.685 235.11 385.987 235.11 386.349V390H233.874V389.251H233.832C233.754 389.402 233.643 389.544 233.501 389.677C233.362 389.807 233.185 389.912 232.972 389.993C232.762 390.071 232.514 390.11 232.23 390.11ZM232.564 389.165C232.822 389.165 233.046 389.115 233.235 389.013C233.424 388.909 233.57 388.771 233.672 388.601C233.776 388.43 233.828 388.245 233.828 388.043V387.401C233.788 387.434 233.719 387.464 233.622 387.493C233.527 387.521 233.421 387.546 233.303 387.567C233.184 387.589 233.067 387.608 232.951 387.624C232.835 387.641 232.734 387.655 232.649 387.667C232.457 387.693 232.286 387.736 232.134 387.795C231.983 387.854 231.863 387.937 231.776 388.043C231.688 388.147 231.644 388.282 231.644 388.448C231.644 388.685 231.731 388.864 231.903 388.984C232.076 389.105 232.296 389.165 232.564 389.165ZM236.403 390V384.545H237.649V385.455H237.706C237.805 385.14 237.976 384.897 238.217 384.727C238.461 384.554 238.739 384.467 239.052 384.467C239.123 384.467 239.202 384.471 239.29 384.478C239.38 384.483 239.454 384.491 239.513 384.503V385.685C239.459 385.666 239.373 385.65 239.254 385.636C239.138 385.619 239.026 385.611 238.917 385.611C238.683 385.611 238.472 385.662 238.285 385.763C238.1 385.863 237.955 386.001 237.848 386.179C237.741 386.357 237.688 386.561 237.688 386.793V390H236.403ZM242.522 390.107C241.978 390.107 241.51 389.987 241.119 389.748C240.731 389.509 240.432 389.179 240.221 388.757C240.013 388.333 239.909 387.846 239.909 387.294C239.909 386.74 240.015 386.251 240.228 385.827C240.441 385.401 240.742 385.07 241.13 384.833C241.521 384.594 241.982 384.474 242.515 384.474C242.958 384.474 243.35 384.556 243.691 384.719C244.034 384.88 244.307 385.109 244.511 385.405C244.714 385.698 244.83 386.042 244.859 386.435H243.63C243.58 386.172 243.462 385.953 243.275 385.778C243.09 385.6 242.843 385.511 242.533 385.511C242.27 385.511 242.039 385.582 241.84 385.724C241.642 385.864 241.486 386.065 241.375 386.328C241.266 386.591 241.212 386.906 241.212 387.273C241.212 387.644 241.266 387.964 241.375 388.232C241.484 388.497 241.637 388.701 241.833 388.846C242.032 388.988 242.265 389.059 242.533 389.059C242.722 389.059 242.892 389.023 243.041 388.952C243.192 388.879 243.319 388.774 243.421 388.636C243.522 388.499 243.592 388.332 243.63 388.136H244.859C244.828 388.522 244.714 388.864 244.518 389.162C244.321 389.458 244.054 389.69 243.715 389.858C243.377 390.024 242.979 390.107 242.522 390.107ZM247.2 386.804V390H245.914V382.727H247.172V385.472H247.235C247.363 385.165 247.561 384.922 247.828 384.744C248.098 384.564 248.442 384.474 248.858 384.474C249.237 384.474 249.567 384.554 249.849 384.712C250.131 384.871 250.349 385.103 250.502 385.408C250.659 385.714 250.737 386.087 250.737 386.527V390H249.451V386.726C249.451 386.359 249.357 386.074 249.167 385.87C248.98 385.664 248.717 385.561 248.379 385.561C248.152 385.561 247.948 385.611 247.768 385.71C247.591 385.807 247.451 385.948 247.349 386.133C247.25 386.317 247.2 386.541 247.2 386.804ZM252.047 390V384.545H253.333V390H252.047ZM252.694 383.771C252.49 383.771 252.315 383.704 252.168 383.569C252.021 383.432 251.948 383.267 251.948 383.075C251.948 382.881 252.021 382.717 252.168 382.582C252.315 382.444 252.49 382.376 252.694 382.376C252.9 382.376 253.075 382.444 253.219 382.582C253.366 382.717 253.439 382.881 253.439 383.075C253.439 383.267 253.366 383.432 253.219 383.569C253.075 383.704 252.9 383.771 252.694 383.771ZM259.527 384.545L257.584 390H256.164L254.221 384.545H255.592L256.846 388.597H256.903L258.16 384.545H259.527ZM262.646 390.107C262.099 390.107 261.626 389.993 261.229 389.766C260.833 389.536 260.529 389.212 260.316 388.793C260.103 388.371 259.996 387.875 259.996 387.305C259.996 386.744 260.103 386.251 260.316 385.827C260.531 385.401 260.832 385.07 261.218 384.833C261.604 384.594 262.057 384.474 262.578 384.474C262.914 384.474 263.232 384.529 263.53 384.638C263.83 384.744 264.096 384.91 264.325 385.135C264.557 385.36 264.74 385.646 264.872 385.994C265.005 386.34 265.071 386.752 265.071 387.23V387.624H260.6V386.758H263.839C263.836 386.512 263.783 386.293 263.679 386.101C263.575 385.907 263.429 385.754 263.242 385.643C263.058 385.531 262.842 385.476 262.596 385.476C262.333 385.476 262.102 385.54 261.903 385.668C261.705 385.793 261.549 385.959 261.438 386.165C261.329 386.368 261.274 386.592 261.271 386.836V387.592C261.271 387.91 261.329 388.182 261.445 388.409C261.561 388.634 261.723 388.807 261.932 388.928C262.14 389.046 262.384 389.105 262.663 389.105C262.85 389.105 263.02 389.079 263.171 389.027C263.323 388.973 263.454 388.893 263.565 388.789C263.677 388.685 263.761 388.556 263.817 388.402L265.018 388.537C264.942 388.854 264.798 389.131 264.585 389.368C264.374 389.602 264.104 389.785 263.775 389.915C263.446 390.043 263.069 390.107 262.646 390.107Z" fill="#424242"/>
</g>
</g>
</svg>
