<svg width="1440" height="592" viewBox="0 0 1440 592" fill="none" xmlns="http://www.w3.org/2000/svg">
<rect width="1440" height="592" fill="#F5F5F5"/>
<g id="Wireframes (desktop 1440)">
<path d="M-11560 -78C-11560 -79.1046 -11559.1 -80 -11558 -80H19558C19559.1 -80 19560 -79.1046 19560 -78V898C19560 899.105 19559.1 900 19558 900H-11558C-11559.1 900 -11560 899.105 -11560 898V-78Z" fill="white"/>
<path d="M-11558 -80V-79H19558V-80V-81H-11558V-80ZM19560 -78H19559V898H19560H19561V-78H19560ZM19558 900V899H-11558V900V901H19558V900ZM-11560 898H-11559V-78H-11560H-11561V898H-11560ZM-11558 900V899C-11558.6 899 -11559 898.553 -11559 898H-11560H-11561C-11561 899.657 -11559.7 901 -11558 901V900ZM19560 898H19559C19559 898.552 19558.6 899 19558 899V900V901C19559.7 901 19561 899.657 19561 898H19560ZM19558 -80V-79C19558.6 -79 19559 -78.5526 19559 -78H19560H19561C19561 -79.6566 19559.7 -81 19558 -81V-80ZM-11558 -80V-81C-11559.7 -81 -11561 -79.6569 -11561 -78H-11560H-11559C-11559 -78.5523 -11558.6 -79 -11558 -79V-80Z" fill="black" fill-opacity="0.1"/>
<g id="Wireframe / Instructor courses (desktop)">
<g clip-path="url(#clip0_10_9)">
<rect width="1440" height="592" fill="white"/>
<g id="header (authenticated)">
<rect width="1440" height="72" fill="#E6E6E6"/>
<g id="brand" clip-path="url(#clip1_10_9)">
<g id="logo mark (chevron book)">
<rect x="65" y="27" width="18" height="18" rx="3" stroke="#9E9E9E" stroke-width="2"/>
</g>
<path id="LOGO" d="M93.1477 41.5V29.8636H95.2557V39.733H100.381V41.5H93.1477ZM112.155 35.6818C112.155 36.9356 111.92 38.0095 111.45 38.9034C110.984 39.7936 110.348 40.4754 109.541 40.9489C108.738 41.4223 107.827 41.6591 106.808 41.6591C105.789 41.6591 104.876 41.4223 104.07 40.9489C103.267 40.4716 102.63 39.7879 102.161 38.8977C101.695 38.0038 101.462 36.9318 101.462 35.6818C101.462 34.428 101.695 33.3561 102.161 32.4659C102.63 31.572 103.267 30.8883 104.07 30.4148C104.876 29.9413 105.789 29.7045 106.808 29.7045C107.827 29.7045 108.738 29.9413 109.541 30.4148C110.348 30.8883 110.984 31.572 111.45 32.4659C111.92 33.3561 112.155 34.428 112.155 35.6818ZM110.036 35.6818C110.036 34.7992 109.897 34.0549 109.621 33.4489C109.348 32.839 108.969 32.3788 108.484 32.0682C108 31.7538 107.441 31.5966 106.808 31.5966C106.176 31.5966 105.617 31.7538 105.132 32.0682C104.647 32.3788 104.267 32.839 103.99 33.4489C103.717 34.0549 103.581 34.7992 103.581 35.6818C103.581 36.5644 103.717 37.3106 103.99 37.9205C104.267 38.5265 104.647 38.9867 105.132 39.3011C105.617 39.6117 106.176 39.767 106.808 39.767C107.441 39.767 108 39.6117 108.484 39.3011C108.969 38.9867 109.348 38.5265 109.621 37.9205C109.897 37.3106 110.036 36.5644 110.036 35.6818ZM121.943 33.5795C121.848 33.2727 121.718 32.9981 121.551 32.7557C121.388 32.5095 121.191 32.2992 120.96 32.125C120.733 31.9508 120.472 31.8201 120.176 31.733C119.881 31.642 119.559 31.5966 119.21 31.5966C118.585 31.5966 118.028 31.7538 117.54 32.0682C117.051 32.3826 116.667 32.8447 116.386 33.4545C116.11 34.0606 115.972 34.7992 115.972 35.6705C115.972 36.5492 116.11 37.2936 116.386 37.9034C116.663 38.5133 117.047 38.9773 117.54 39.2955C118.032 39.6098 118.604 39.767 119.256 39.767C119.847 39.767 120.358 39.6534 120.79 39.4261C121.225 39.1989 121.561 38.8769 121.795 38.4602C122.03 38.0398 122.148 37.5473 122.148 36.983L122.625 37.0568H119.466V35.4091H124.188V36.8068C124.188 37.803 123.975 38.6648 123.551 39.392C123.127 40.1193 122.544 40.6799 121.801 41.0739C121.059 41.464 120.206 41.6591 119.244 41.6591C118.172 41.6591 117.231 41.4186 116.42 40.9375C115.614 40.4527 114.983 39.7652 114.528 38.875C114.078 37.9811 113.852 36.9205 113.852 35.6932C113.852 34.7538 113.985 33.9148 114.25 33.1761C114.519 32.4375 114.894 31.8106 115.375 31.2955C115.856 30.7765 116.42 30.3826 117.068 30.1136C117.716 29.8409 118.42 29.7045 119.182 29.7045C119.826 29.7045 120.426 29.7992 120.983 29.9886C121.54 30.1742 122.034 30.4394 122.466 30.7841C122.902 31.1288 123.259 31.5379 123.54 32.0114C123.82 32.4848 124.004 33.0076 124.091 33.5795H121.943ZM136.624 35.6818C136.624 36.9356 136.389 38.0095 135.919 38.9034C135.453 39.7936 134.817 40.4754 134.01 40.9489C133.207 41.4223 132.296 41.6591 131.277 41.6591C130.258 41.6591 129.345 41.4223 128.538 40.9489C127.735 40.4716 127.099 39.7879 126.629 38.8977C126.163 38.0038 125.93 36.9318 125.93 35.6818C125.93 34.428 126.163 33.3561 126.629 32.4659C127.099 31.572 127.735 30.8883 128.538 30.4148C129.345 29.9413 130.258 29.7045 131.277 29.7045C132.296 29.7045 133.207 29.9413 134.01 30.4148C134.817 30.8883 135.453 31.572 135.919 32.4659C136.389 33.3561 136.624 34.428 136.624 35.6818ZM134.504 35.6818C134.504 34.7992 134.366 34.0549 134.089 33.4489C133.817 32.839 133.438 32.3788 132.953 32.0682C132.468 31.7538 131.91 31.5966 131.277 31.5966C130.644 31.5966 130.086 31.7538 129.601 32.0682C129.116 32.3788 128.735 32.839 128.459 33.4489C128.186 34.0549 128.05 34.7992 128.05 35.6818C128.05 36.5644 128.186 37.3106 128.459 37.9205C128.735 38.5265 129.116 38.9867 129.601 39.3011C130.086 39.6117 130.644 39.767 131.277 39.767C131.91 39.767 132.468 39.6117 132.953 39.3011C133.438 38.9867 133.817 38.5265 134.089 37.9205C134.366 37.3106 134.504 36.5644 134.504 35.6818Z" fill="#424242"/>
</g>
<g id="Frame" clip-path="url(#clip2_10_9)">
<path id="nav link (current)" d="M1183.53 36.8452V41H1181.86V33.9091H1183.46V35.114H1183.54C1183.7 34.717 1183.96 34.4015 1184.32 34.1676C1184.68 33.9337 1185.12 33.8168 1185.65 33.8168C1186.14 33.8168 1186.57 33.9214 1186.93 34.1307C1187.3 34.34 1187.58 34.6431 1187.78 35.0401C1187.98 35.4371 1188.08 35.9188 1188.08 36.4851V41H1186.41V36.7436C1186.41 36.2696 1186.29 35.8988 1186.04 35.631C1185.8 35.3633 1185.46 35.2294 1185.03 35.2294C1184.74 35.2294 1184.48 35.294 1184.25 35.4233C1184.03 35.5495 1183.85 35.7326 1183.72 35.9727C1183.59 36.2127 1183.53 36.5036 1183.53 36.8452ZM1191.82 41.1431C1191.37 41.1431 1190.97 41.0631 1190.61 40.9031C1190.25 40.7399 1189.97 40.4999 1189.76 40.1829C1189.55 39.8659 1189.45 39.475 1189.45 39.0103C1189.45 38.6102 1189.52 38.2794 1189.67 38.0178C1189.82 37.7562 1190.02 37.5469 1190.27 37.3899C1190.53 37.233 1190.82 37.1145 1191.14 37.0344C1191.46 36.9513 1191.79 36.8913 1192.14 36.8544C1192.56 36.8113 1192.89 36.7728 1193.15 36.739C1193.41 36.7021 1193.6 36.6467 1193.71 36.5728C1193.83 36.4959 1193.89 36.3774 1193.89 36.2173V36.1896C1193.89 35.8419 1193.79 35.5726 1193.58 35.3817C1193.38 35.1909 1193.08 35.0955 1192.69 35.0955C1192.28 35.0955 1191.96 35.1848 1191.72 35.3633C1191.48 35.5418 1191.32 35.7526 1191.24 35.9957L1189.68 35.7741C1189.8 35.3433 1190.01 34.9832 1190.29 34.6939C1190.57 34.4015 1190.92 34.183 1191.33 34.0384C1191.74 33.8906 1192.19 33.8168 1192.68 33.8168C1193.03 33.8168 1193.37 33.8568 1193.7 33.9368C1194.04 34.0168 1194.35 34.1491 1194.63 34.3338C1194.91 34.5154 1195.14 34.7631 1195.31 35.0771C1195.48 35.391 1195.56 35.7834 1195.56 36.2543V41H1193.96V40.0259H1193.9C1193.8 40.2229 1193.66 40.4076 1193.47 40.5799C1193.29 40.7492 1193.06 40.8861 1192.79 40.9908C1192.51 41.0923 1192.19 41.1431 1191.82 41.1431ZM1192.25 39.9151C1192.59 39.9151 1192.88 39.849 1193.13 39.7166C1193.37 39.5812 1193.56 39.4027 1193.7 39.1811C1193.83 38.9595 1193.9 38.7179 1193.9 38.4563V37.6207C1193.85 37.6638 1193.76 37.7038 1193.63 37.7408C1193.51 37.7777 1193.37 37.81 1193.22 37.8377C1193.06 37.8654 1192.91 37.89 1192.76 37.9116C1192.61 37.9331 1192.48 37.9516 1192.37 37.967C1192.12 38.0008 1191.89 38.0562 1191.7 38.1332C1191.5 38.2101 1191.34 38.3178 1191.23 38.4563C1191.12 38.5917 1191.06 38.7672 1191.06 38.9826C1191.06 39.2904 1191.17 39.5227 1191.4 39.6797C1191.62 39.8366 1191.91 39.9151 1192.25 39.9151ZM1203.33 33.9091L1200.8 41H1198.95L1196.43 33.9091H1198.21L1199.84 39.1765H1199.91L1201.55 33.9091H1203.33ZM1209.38 31.5455V41H1207.71V31.5455H1209.38ZM1211.1 41V33.9091H1212.77V41H1211.1ZM1211.94 32.9027C1211.67 32.9027 1211.44 32.815 1211.25 32.6396C1211.06 32.4611 1210.97 32.2472 1210.97 31.9979C1210.97 31.7455 1211.06 31.5316 1211.25 31.3562C1211.44 31.1777 1211.67 31.0884 1211.94 31.0884C1212.2 31.0884 1212.43 31.1777 1212.62 31.3562C1212.81 31.5316 1212.91 31.7455 1212.91 31.9979C1212.91 32.2472 1212.81 32.4611 1212.62 32.6396C1212.43 32.815 1212.2 32.9027 1211.94 32.9027ZM1216.16 36.8452V41H1214.49V33.9091H1216.08V35.114H1216.17C1216.33 34.717 1216.59 34.4015 1216.95 34.1676C1217.31 33.9337 1217.75 33.8168 1218.28 33.8168C1218.77 33.8168 1219.2 33.9214 1219.56 34.1307C1219.93 34.34 1220.21 34.6431 1220.41 35.0401C1220.61 35.4371 1220.71 35.9188 1220.71 36.4851V41H1219.04V36.7436C1219.04 36.2696 1218.91 35.8988 1218.67 35.631C1218.43 35.3633 1218.09 35.2294 1217.66 35.2294C1217.36 35.2294 1217.1 35.294 1216.88 35.4233C1216.65 35.5495 1216.48 35.7326 1216.35 35.9727C1216.22 36.2127 1216.16 36.5036 1216.16 36.8452ZM1223.93 38.7749L1223.93 36.7575H1224.19L1226.74 33.9091H1228.7L1225.56 37.3991H1225.21L1223.93 38.7749ZM1222.41 41V31.5455H1224.08V41H1222.41ZM1226.86 41L1224.55 37.7731L1225.68 36.5959L1228.86 41H1226.86ZM1233.45 37.1452C1233.45 35.9911 1233.6 34.9309 1233.91 33.9645C1234.21 32.995 1234.67 32.0994 1235.28 31.2777H1236.85C1236.62 31.5824 1236.4 31.9563 1236.2 32.3995C1235.99 32.8396 1235.82 33.3228 1235.66 33.8491C1235.52 34.3723 1235.4 34.9155 1235.31 35.4787C1235.23 36.0419 1235.19 36.5974 1235.19 37.1452C1235.19 37.8746 1235.26 38.6133 1235.41 39.3612C1235.55 40.109 1235.75 40.8015 1236 41.4386C1236.25 42.0787 1236.54 42.6019 1236.85 43.0082H1235.28C1234.67 42.1864 1234.21 41.2924 1233.91 40.326C1233.6 39.3565 1233.45 38.2963 1233.45 37.1452ZM1241.15 41.1385C1240.45 41.1385 1239.84 40.9831 1239.33 40.6722C1238.83 40.3614 1238.44 39.9321 1238.16 39.3842C1237.89 38.8333 1237.76 38.1993 1237.76 37.4822C1237.76 36.7621 1237.89 36.1265 1238.17 35.5756C1238.45 35.0217 1238.84 34.5908 1239.34 34.283C1239.85 33.9722 1240.45 33.8168 1241.14 33.8168C1241.72 33.8168 1242.23 33.9229 1242.67 34.1353C1243.12 34.3446 1243.47 34.6416 1243.74 35.0263C1244 35.4079 1244.15 35.8542 1244.19 36.3651H1242.59C1242.53 36.0234 1242.38 35.7388 1242.13 35.511C1241.89 35.2802 1241.57 35.1648 1241.17 35.1648C1240.83 35.1648 1240.53 35.2571 1240.27 35.4418C1240.01 35.6233 1239.81 35.8849 1239.66 36.2266C1239.52 36.5682 1239.45 36.9775 1239.45 37.4545C1239.45 37.9377 1239.52 38.3532 1239.66 38.701C1239.8 39.0457 1240 39.3119 1240.26 39.4996C1240.52 39.6843 1240.82 39.7766 1241.17 39.7766C1241.41 39.7766 1241.63 39.7305 1241.83 39.6381C1242.02 39.5427 1242.19 39.4058 1242.32 39.2273C1242.45 39.0488 1242.54 38.8318 1242.59 38.5763H1244.19C1244.15 39.078 1244 39.5227 1243.75 39.9105C1243.49 40.2952 1243.15 40.5968 1242.7 40.8153C1242.26 41.0308 1241.75 41.1385 1241.15 41.1385ZM1250.08 38.0178V33.9091H1251.75V41H1250.13V39.7397H1250.06C1249.9 40.1367 1249.64 40.4614 1249.27 40.7138C1248.91 40.9661 1248.46 41.0923 1247.93 41.0923C1247.46 41.0923 1247.05 40.9892 1246.69 40.783C1246.34 40.5737 1246.06 40.2706 1245.86 39.8736C1245.66 39.4735 1245.56 38.9903 1245.56 38.424V33.9091H1247.23V38.1655C1247.23 38.6148 1247.36 38.9718 1247.6 39.2365C1247.85 39.5012 1248.17 39.6335 1248.57 39.6335C1248.82 39.6335 1249.06 39.5735 1249.29 39.4535C1249.52 39.3335 1249.71 39.1549 1249.86 38.918C1250.01 38.6779 1250.08 38.3778 1250.08 38.0178ZM1253.47 41V33.9091H1255.09V35.0909H1255.17C1255.3 34.6816 1255.52 34.3661 1255.83 34.1445C1256.15 33.9199 1256.51 33.8075 1256.92 33.8075C1257.01 33.8075 1257.11 33.8121 1257.23 33.8214C1257.34 33.8275 1257.44 33.8383 1257.52 33.8537V35.391C1257.45 35.3664 1257.33 35.3448 1257.18 35.3263C1257.03 35.3048 1256.88 35.294 1256.74 35.294C1256.44 35.294 1256.16 35.3602 1255.92 35.4925C1255.68 35.6218 1255.49 35.8018 1255.35 36.0327C1255.21 36.2635 1255.14 36.5297 1255.14 36.8313V41H1253.47ZM1258.63 41V33.9091H1260.25V35.0909H1260.32C1260.45 34.6816 1260.67 34.3661 1260.99 34.1445C1261.3 33.9199 1261.66 33.8075 1262.07 33.8075C1262.16 33.8075 1262.27 33.8121 1262.38 33.8214C1262.5 33.8275 1262.59 33.8383 1262.67 33.8537V35.391C1262.6 35.3664 1262.49 35.3448 1262.33 35.3263C1262.18 35.3048 1262.04 35.294 1261.9 35.294C1261.59 35.294 1261.32 35.3602 1261.07 35.4925C1260.83 35.6218 1260.64 35.8018 1260.51 36.0327C1260.37 36.2635 1260.3 36.5297 1260.3 36.8313V41H1258.63ZM1266.63 41.1385C1265.92 41.1385 1265.3 40.9908 1264.79 40.6953C1264.27 40.3968 1263.88 39.9751 1263.6 39.4304C1263.32 38.8826 1263.18 38.2378 1263.18 37.4961C1263.18 36.7667 1263.32 36.1265 1263.6 35.5756C1263.88 35.0217 1264.27 34.5908 1264.77 34.283C1265.27 33.9722 1265.86 33.8168 1266.54 33.8168C1266.98 33.8168 1267.39 33.8875 1267.78 34.0291C1268.17 34.1676 1268.51 34.383 1268.81 34.6754C1269.11 34.9678 1269.35 35.3402 1269.52 35.7926C1269.7 36.242 1269.78 36.7775 1269.78 37.3991V37.9116H1263.97V36.7852H1268.18C1268.18 36.4651 1268.11 36.1804 1267.97 35.9311C1267.84 35.6787 1267.65 35.4802 1267.4 35.3356C1267.16 35.1909 1266.88 35.1186 1266.56 35.1186C1266.22 35.1186 1265.92 35.2017 1265.66 35.3679C1265.41 35.531 1265.2 35.7464 1265.06 36.0142C1264.92 36.2789 1264.85 36.5697 1264.84 36.8867V37.87C1264.84 38.2824 1264.92 38.6364 1265.07 38.9318C1265.22 39.2242 1265.43 39.4489 1265.7 39.6058C1265.97 39.7597 1266.29 39.8366 1266.65 39.8366C1266.89 39.8366 1267.11 39.8028 1267.31 39.7351C1267.51 39.6643 1267.68 39.5612 1267.82 39.4258C1267.97 39.2904 1268.08 39.1226 1268.15 38.9226L1269.71 39.098C1269.61 39.5104 1269.43 39.8705 1269.15 40.1783C1268.88 40.483 1268.52 40.7199 1268.1 40.8892C1267.67 41.0554 1267.18 41.1385 1266.63 41.1385ZM1272.87 36.8452V41H1271.2V33.9091H1272.79V35.114H1272.88C1273.04 34.717 1273.3 34.4015 1273.66 34.1676C1274.02 33.9337 1274.46 33.8168 1274.99 33.8168C1275.48 33.8168 1275.91 33.9214 1276.27 34.1307C1276.64 34.34 1276.92 34.6431 1277.12 35.0401C1277.32 35.4371 1277.42 35.9188 1277.42 36.4851V41H1275.75V36.7436C1275.75 36.2696 1275.62 35.8988 1275.38 35.631C1275.13 35.3633 1274.8 35.2294 1274.37 35.2294C1274.07 35.2294 1273.81 35.294 1273.59 35.4233C1273.36 35.5495 1273.19 35.7326 1273.06 35.9727C1272.93 36.2127 1272.87 36.5036 1272.87 36.8452ZM1282.66 33.9091V35.2017H1278.58V33.9091H1282.66ZM1279.59 32.2102H1281.26V38.8672C1281.26 39.0919 1281.29 39.2642 1281.36 39.3842C1281.43 39.5012 1281.52 39.5812 1281.64 39.6243C1281.75 39.6674 1281.88 39.6889 1282.02 39.6889C1282.12 39.6889 1282.22 39.6812 1282.3 39.6658C1282.39 39.6504 1282.46 39.6366 1282.51 39.6243L1282.79 40.9308C1282.7 40.9615 1282.57 40.9954 1282.4 41.0323C1282.24 41.0692 1282.04 41.0908 1281.8 41.0969C1281.39 41.1093 1281.01 41.0462 1280.67 40.9077C1280.34 40.7661 1280.07 40.5476 1279.87 40.2521C1279.68 39.9567 1279.59 39.5874 1279.59 39.1442V32.2102ZM1287.04 37.1452C1287.04 38.2963 1286.88 39.3565 1286.58 40.326C1286.27 41.2924 1285.82 42.1864 1285.21 43.0082H1283.64C1283.87 42.7035 1284.09 42.3311 1284.29 41.891C1284.49 41.4509 1284.67 40.9677 1284.82 40.4414C1284.97 39.9151 1285.09 39.3704 1285.17 38.8072C1285.25 38.244 1285.3 37.69 1285.3 37.1452C1285.3 36.4158 1285.22 35.6772 1285.08 34.9293C1284.93 34.1815 1284.73 33.4875 1284.48 32.8473C1284.23 32.2071 1283.95 31.6839 1283.64 31.2777H1285.21C1285.82 32.0994 1286.27 32.995 1286.58 33.9645C1286.88 34.9309 1287.04 35.9911 1287.04 37.1452Z" fill="#424242"/>
<path id="nav link" d="M1307.53 36.8452V41H1305.86V33.9091H1307.46V35.114H1307.54C1307.7 34.717 1307.96 34.4015 1308.32 34.1676C1308.68 33.9337 1309.12 33.8168 1309.65 33.8168C1310.14 33.8168 1310.57 33.9214 1310.93 34.1307C1311.3 34.34 1311.58 34.6431 1311.78 35.0401C1311.98 35.4371 1312.08 35.9188 1312.08 36.4851V41H1310.41V36.7436C1310.41 36.2696 1310.29 35.8988 1310.04 35.631C1309.8 35.3633 1309.46 35.2294 1309.03 35.2294C1308.74 35.2294 1308.48 35.294 1308.25 35.4233C1308.03 35.5495 1307.85 35.7326 1307.72 35.9727C1307.59 36.2127 1307.53 36.5036 1307.53 36.8452ZM1315.82 41.1431C1315.37 41.1431 1314.97 41.0631 1314.61 40.9031C1314.25 40.7399 1313.97 40.4999 1313.76 40.1829C1313.55 39.8659 1313.45 39.475 1313.45 39.0103C1313.45 38.6102 1313.52 38.2794 1313.67 38.0178C1313.82 37.7562 1314.02 37.5469 1314.27 37.3899C1314.53 37.233 1314.82 37.1145 1315.14 37.0344C1315.46 36.9513 1315.79 36.8913 1316.14 36.8544C1316.56 36.8113 1316.89 36.7728 1317.15 36.739C1317.41 36.7021 1317.6 36.6467 1317.71 36.5728C1317.83 36.4959 1317.89 36.3774 1317.89 36.2173V36.1896C1317.89 35.8419 1317.79 35.5726 1317.58 35.3817C1317.38 35.1909 1317.08 35.0955 1316.69 35.0955C1316.28 35.0955 1315.96 35.1848 1315.72 35.3633C1315.48 35.5418 1315.32 35.7526 1315.24 35.9957L1313.68 35.7741C1313.8 35.3433 1314.01 34.9832 1314.29 34.6939C1314.57 34.4015 1314.92 34.183 1315.33 34.0384C1315.74 33.8906 1316.19 33.8168 1316.68 33.8168C1317.03 33.8168 1317.37 33.8568 1317.7 33.9368C1318.04 34.0168 1318.35 34.1491 1318.63 34.3338C1318.91 34.5154 1319.14 34.7631 1319.31 35.0771C1319.48 35.391 1319.56 35.7834 1319.56 36.2543V41H1317.96V40.0259H1317.9C1317.8 40.2229 1317.66 40.4076 1317.47 40.5799C1317.29 40.7492 1317.06 40.8861 1316.79 40.9908C1316.51 41.0923 1316.19 41.1431 1315.82 41.1431ZM1316.25 39.9151C1316.59 39.9151 1316.88 39.849 1317.13 39.7166C1317.37 39.5812 1317.56 39.4027 1317.7 39.1811C1317.83 38.9595 1317.9 38.7179 1317.9 38.4563V37.6207C1317.85 37.6638 1317.76 37.7038 1317.63 37.7408C1317.51 37.7777 1317.37 37.81 1317.22 37.8377C1317.06 37.8654 1316.91 37.89 1316.76 37.9116C1316.61 37.9331 1316.48 37.9516 1316.37 37.967C1316.12 38.0008 1315.89 38.0562 1315.7 38.1332C1315.5 38.2101 1315.34 38.3178 1315.23 38.4563C1315.12 38.5917 1315.06 38.7672 1315.06 38.9826C1315.06 39.2904 1315.17 39.5227 1315.4 39.6797C1315.62 39.8366 1315.91 39.9151 1316.25 39.9151ZM1327.33 33.9091L1324.8 41H1322.95L1320.43 33.9091H1322.21L1323.84 39.1765H1323.91L1325.55 33.9091H1327.33ZM1333.38 31.5455V41H1331.71V31.5455H1333.38ZM1335.1 41V33.9091H1336.77V41H1335.1ZM1335.94 32.9027C1335.67 32.9027 1335.44 32.815 1335.25 32.6396C1335.06 32.4611 1334.97 32.2472 1334.97 31.9979C1334.97 31.7455 1335.06 31.5316 1335.25 31.3562C1335.44 31.1777 1335.67 31.0884 1335.94 31.0884C1336.2 31.0884 1336.43 31.1777 1336.62 31.3562C1336.81 31.5316 1336.91 31.7455 1336.91 31.9979C1336.91 32.2472 1336.81 32.4611 1336.62 32.6396C1336.43 32.815 1336.2 32.9027 1335.94 32.9027ZM1340.16 36.8452V41H1338.49V33.9091H1340.08V35.114H1340.17C1340.33 34.717 1340.59 34.4015 1340.95 34.1676C1341.31 33.9337 1341.75 33.8168 1342.28 33.8168C1342.77 33.8168 1343.2 33.9214 1343.56 34.1307C1343.93 34.34 1344.21 34.6431 1344.41 35.0401C1344.61 35.4371 1344.71 35.9188 1344.71 36.4851V41H1343.04V36.7436C1343.04 36.2696 1342.91 35.8988 1342.67 35.631C1342.43 35.3633 1342.09 35.2294 1341.66 35.2294C1341.36 35.2294 1341.1 35.294 1340.88 35.4233C1340.65 35.5495 1340.48 35.7326 1340.35 35.9727C1340.22 36.2127 1340.16 36.5036 1340.16 36.8452ZM1347.93 38.7749L1347.93 36.7575H1348.19L1350.74 33.9091H1352.7L1349.56 37.3991H1349.21L1347.93 38.7749ZM1346.41 41V31.5455H1348.08V41H1346.41ZM1350.86 41L1348.55 37.7731L1349.68 36.5959L1352.86 41H1350.86Z" fill="#424242"/>
<g id="divider">
<rect width="1" height="20" transform="translate(1369 26)" fill="#9E9E9E"/>
</g>
</g>
</g>
<g id="main">
<path id="H1: my courses" d="M65.076 126V115.091H67.0522V119.709H72.1072V115.091H74.0888V126H72.1072V121.366H67.0522V126H65.076ZM80.5687 115.091V126H78.5925V117.014H78.5286L75.9771 118.644V116.833L78.6884 115.091H80.5687ZM84.5478 124.69C84.2246 124.69 83.9476 124.576 83.7168 124.349C83.486 124.118 83.3723 123.841 83.3759 123.518C83.3723 123.198 83.486 122.925 83.7168 122.697C83.9476 122.47 84.2246 122.357 84.5478 122.357C84.8603 122.357 85.1319 122.47 85.3627 122.697C85.5971 122.925 85.7161 123.198 85.7196 123.518C85.7161 123.734 85.6593 123.931 85.5492 124.109C85.4426 124.287 85.3006 124.429 85.123 124.535C84.949 124.638 84.7573 124.69 84.5478 124.69ZM84.5478 119.283C84.2246 119.283 83.9476 119.169 83.7168 118.942C83.486 118.711 83.3723 118.434 83.3759 118.111C83.3723 117.792 83.486 117.518 83.7168 117.291C83.9476 117.06 84.2246 116.945 84.5478 116.945C84.8603 116.945 85.1319 117.06 85.3627 117.291C85.5971 117.518 85.7161 117.792 85.7196 118.111C85.7161 118.324 85.6593 118.52 85.5492 118.697C85.4426 118.875 85.3006 119.017 85.123 119.123C84.949 119.23 84.7573 119.283 84.5478 119.283ZM91.4312 126V117.818H93.2742V119.208H93.3701C93.5406 118.74 93.8229 118.374 94.2171 118.111C94.6112 117.845 95.0818 117.712 95.6286 117.712C96.1826 117.712 96.6496 117.847 97.0296 118.116C97.4131 118.383 97.683 118.747 97.8392 119.208H97.9244C98.1056 118.754 98.411 118.392 98.8406 118.122C99.2739 117.848 99.787 117.712 100.38 117.712C101.133 117.712 101.747 117.95 102.223 118.425C102.699 118.901 102.937 119.596 102.937 120.508V126H101.003V120.806C101.003 120.299 100.868 119.928 100.598 119.693C100.329 119.455 99.9983 119.336 99.6077 119.336C99.1425 119.336 98.7785 119.482 98.5157 119.773C98.2565 120.061 98.1269 120.435 98.1269 120.897V126H96.2359V120.727C96.2359 120.304 96.108 119.967 95.8524 119.714C95.6002 119.462 95.27 119.336 94.8616 119.336C94.5846 119.336 94.3325 119.407 94.1052 119.549C93.8779 119.688 93.6968 119.885 93.5619 120.141C93.4269 120.393 93.3595 120.687 93.3595 121.025V126H91.4312ZM105.799 129.068C105.536 129.068 105.293 129.047 105.069 129.004C104.849 128.965 104.673 128.919 104.542 128.866L104.989 127.364C105.27 127.445 105.52 127.484 105.74 127.481C105.96 127.477 106.154 127.408 106.321 127.273C106.491 127.142 106.635 126.922 106.752 126.613L106.917 126.17L103.95 117.818H105.996L107.881 123.997H107.967L109.858 117.818H111.908L108.632 126.991C108.48 127.424 108.277 127.795 108.025 128.104C107.773 128.417 107.464 128.654 107.098 128.818C106.736 128.985 106.303 129.068 105.799 129.068ZM120.532 126.16C119.716 126.16 119.014 125.98 118.428 125.622C117.846 125.263 117.397 124.768 117.081 124.136C116.768 123.5 116.612 122.768 116.612 121.941C116.612 121.11 116.772 120.377 117.091 119.741C117.411 119.102 117.862 118.605 118.444 118.25C119.03 117.891 119.723 117.712 120.522 117.712C121.186 117.712 121.773 117.834 122.285 118.079C122.8 118.321 123.21 118.663 123.515 119.107C123.821 119.548 123.995 120.062 124.037 120.652H122.194C122.12 120.258 121.942 119.929 121.662 119.667C121.385 119.4 121.013 119.267 120.548 119.267C120.154 119.267 119.808 119.374 119.51 119.587C119.211 119.796 118.979 120.098 118.812 120.492C118.648 120.886 118.567 121.359 118.567 121.909C118.567 122.467 118.648 122.946 118.812 123.347C118.975 123.745 119.204 124.052 119.499 124.269C119.797 124.482 120.147 124.588 120.548 124.588C120.832 124.588 121.086 124.535 121.31 124.429C121.537 124.319 121.727 124.161 121.88 123.955C122.033 123.749 122.137 123.498 122.194 123.203H124.037C123.991 123.782 123.821 124.295 123.526 124.743C123.231 125.187 122.83 125.535 122.322 125.787C121.814 126.036 121.218 126.16 120.532 126.16ZM129.19 126.16C128.391 126.16 127.698 125.984 127.112 125.632C126.526 125.281 126.072 124.789 125.748 124.157C125.429 123.525 125.269 122.786 125.269 121.941C125.269 121.096 125.429 120.355 125.748 119.72C126.072 119.084 126.526 118.591 127.112 118.239C127.698 117.887 128.391 117.712 129.19 117.712C129.989 117.712 130.681 117.887 131.267 118.239C131.853 118.591 132.306 119.084 132.625 119.72C132.948 120.355 133.11 121.096 133.11 121.941C133.11 122.786 132.948 123.525 132.625 124.157C132.306 124.789 131.853 125.281 131.267 125.632C130.681 125.984 129.989 126.16 129.19 126.16ZM129.2 124.615C129.633 124.615 129.996 124.496 130.287 124.258C130.578 124.017 130.795 123.694 130.937 123.289C131.082 122.884 131.155 122.433 131.155 121.936C131.155 121.435 131.082 120.982 130.937 120.577C130.795 120.169 130.578 119.844 130.287 119.603C129.996 119.361 129.633 119.24 129.2 119.24C128.756 119.24 128.387 119.361 128.092 119.603C127.801 119.844 127.583 120.169 127.437 120.577C127.295 120.982 127.224 121.435 127.224 121.936C127.224 122.433 127.295 122.884 127.437 123.289C127.583 123.694 127.801 124.017 128.092 124.258C128.387 124.496 128.756 124.615 129.2 124.615ZM139.961 122.559V117.818H141.89V126H140.02V124.546H139.935C139.75 125.004 139.447 125.379 139.024 125.67C138.605 125.961 138.088 126.107 137.474 126.107C136.938 126.107 136.464 125.988 136.052 125.75C135.643 125.508 135.324 125.158 135.093 124.7C134.862 124.239 134.747 123.681 134.747 123.028V117.818H136.675V122.729C136.675 123.248 136.817 123.66 137.101 123.965C137.385 124.271 137.758 124.423 138.22 124.423C138.504 124.423 138.779 124.354 139.045 124.216C139.312 124.077 139.53 123.871 139.7 123.598C139.874 123.321 139.961 122.974 139.961 122.559ZM143.873 126V117.818H145.742V119.182H145.828C145.977 118.71 146.232 118.346 146.595 118.09C146.96 117.831 147.378 117.701 147.846 117.701C147.953 117.701 148.072 117.706 148.203 117.717C148.338 117.724 148.45 117.737 148.539 117.754V119.528C148.457 119.5 148.328 119.475 148.15 119.453C147.976 119.429 147.807 119.416 147.644 119.416C147.292 119.416 146.976 119.493 146.696 119.645C146.419 119.794 146.2 120.002 146.041 120.268C145.881 120.535 145.801 120.842 145.801 121.19V126H143.873ZM156.286 119.981L154.529 120.173C154.479 119.995 154.392 119.828 154.268 119.672C154.147 119.516 153.984 119.39 153.778 119.294C153.572 119.198 153.32 119.15 153.021 119.15C152.62 119.15 152.283 119.237 152.009 119.411C151.739 119.585 151.606 119.81 151.61 120.087C151.606 120.325 151.693 120.519 151.871 120.668C152.052 120.817 152.35 120.94 152.766 121.036L154.161 121.334C154.935 121.501 155.511 121.765 155.887 122.127C156.267 122.49 156.459 122.964 156.462 123.55C156.459 124.065 156.308 124.519 156.009 124.913C155.715 125.304 155.305 125.609 154.779 125.83C154.253 126.05 153.65 126.16 152.968 126.16C151.967 126.16 151.16 125.95 150.55 125.531C149.939 125.109 149.575 124.521 149.458 123.768L151.338 123.587C151.423 123.956 151.604 124.235 151.881 124.423C152.158 124.612 152.519 124.706 152.963 124.706C153.421 124.706 153.788 124.612 154.065 124.423C154.346 124.235 154.486 124.002 154.486 123.725C154.486 123.491 154.396 123.298 154.214 123.145C154.037 122.992 153.76 122.875 153.383 122.793L151.988 122.5C151.203 122.337 150.622 122.062 150.246 121.675C149.87 121.284 149.683 120.79 149.687 120.194C149.683 119.69 149.82 119.253 150.097 118.884C150.377 118.511 150.766 118.223 151.263 118.021C151.764 117.815 152.341 117.712 152.995 117.712C153.953 117.712 154.708 117.916 155.258 118.324C155.812 118.733 156.155 119.285 156.286 119.981ZM161.674 126.16C160.854 126.16 160.146 125.989 159.549 125.648C158.956 125.304 158.5 124.817 158.18 124.189C157.861 123.557 157.701 122.813 157.701 121.957C157.701 121.115 157.861 120.377 158.18 119.741C158.503 119.102 158.954 118.605 159.533 118.25C160.112 117.891 160.792 117.712 161.573 117.712C162.078 117.712 162.553 117.793 163.001 117.957C163.452 118.116 163.85 118.365 164.194 118.702C164.542 119.04 164.815 119.469 165.014 119.991C165.213 120.51 165.313 121.128 165.313 121.845V122.436H158.606V121.137H163.464C163.461 120.767 163.381 120.439 163.225 120.151C163.068 119.86 162.85 119.631 162.569 119.464C162.292 119.297 161.969 119.214 161.6 119.214C161.206 119.214 160.859 119.31 160.561 119.501C160.263 119.69 160.03 119.938 159.863 120.247C159.7 120.553 159.617 120.888 159.613 121.254V122.388C159.613 122.864 159.7 123.273 159.874 123.614C160.048 123.951 160.291 124.21 160.604 124.391C160.916 124.569 161.282 124.658 161.701 124.658C161.982 124.658 162.236 124.619 162.463 124.54C162.69 124.459 162.887 124.34 163.054 124.184C163.221 124.027 163.347 123.834 163.432 123.603L165.233 123.805C165.119 124.281 164.902 124.697 164.583 125.052C164.267 125.403 163.862 125.677 163.368 125.872C162.875 126.064 162.31 126.16 161.674 126.16ZM173.411 119.981L171.653 120.173C171.603 119.995 171.516 119.828 171.392 119.672C171.271 119.516 171.108 119.39 170.902 119.294C170.696 119.198 170.444 119.15 170.145 119.15C169.744 119.15 169.407 119.237 169.133 119.411C168.863 119.585 168.73 119.81 168.734 120.087C168.73 120.325 168.817 120.519 168.995 120.668C169.176 120.817 169.474 120.94 169.89 121.036L171.285 121.334C172.059 121.501 172.635 121.765 173.011 122.127C173.391 122.49 173.583 122.964 173.586 123.55C173.583 124.065 173.432 124.519 173.134 124.913C172.839 125.304 172.429 125.609 171.903 125.83C171.377 126.05 170.774 126.16 170.092 126.16C169.091 126.16 168.284 125.95 167.674 125.531C167.063 125.109 166.699 124.521 166.582 123.768L168.462 123.587C168.547 123.956 168.728 124.235 169.005 124.423C169.282 124.612 169.643 124.706 170.087 124.706C170.545 124.706 170.912 124.612 171.189 124.423C171.47 124.235 171.61 124.002 171.61 123.725C171.61 123.491 171.52 123.298 171.338 123.145C171.161 122.992 170.884 122.875 170.507 122.793L169.112 122.5C168.327 122.337 167.746 122.062 167.37 121.675C166.994 121.284 166.807 120.79 166.811 120.194C166.807 119.69 166.944 119.253 167.221 118.884C167.501 118.511 167.89 118.223 168.387 118.021C168.888 117.815 169.465 117.712 170.119 117.712C171.077 117.712 171.832 117.916 172.382 118.324C172.936 118.733 173.279 119.285 173.411 119.981Z" fill="#424242"/>
<rect id="Rectangle" x="1186.5" y="108.5" width="189" height="35" rx="3.5" stroke="#9E9E9E"/>
<path id="create a course" d="M1221.34 129.117C1220.74 129.117 1220.23 128.986 1219.8 128.723C1219.37 128.46 1219.04 128.096 1218.81 127.633C1218.58 127.167 1218.47 126.63 1218.47 126.023C1218.47 125.414 1218.59 124.876 1218.82 124.41C1219.05 123.941 1219.39 123.577 1219.81 123.316C1220.24 123.053 1220.75 122.922 1221.34 122.922C1221.82 122.922 1222.25 123.012 1222.63 123.191C1223.01 123.368 1223.31 123.62 1223.53 123.945C1223.76 124.268 1223.88 124.646 1223.91 125.078H1222.56C1222.51 124.789 1222.38 124.548 1222.17 124.355C1221.97 124.16 1221.7 124.062 1221.36 124.062C1221.07 124.062 1220.81 124.141 1220.59 124.297C1220.38 124.451 1220.2 124.672 1220.08 124.961C1219.96 125.25 1219.9 125.596 1219.9 126C1219.9 126.409 1219.96 126.76 1220.08 127.055C1220.2 127.346 1220.37 127.572 1220.59 127.73C1220.8 127.887 1221.06 127.965 1221.36 127.965C1221.56 127.965 1221.75 127.926 1221.91 127.848C1222.08 127.767 1222.22 127.651 1222.33 127.5C1222.44 127.349 1222.52 127.165 1222.56 126.949H1223.91C1223.88 127.374 1223.76 127.75 1223.54 128.078C1223.32 128.404 1223.03 128.659 1222.66 128.844C1222.28 129.026 1221.85 129.117 1221.34 129.117ZM1225.08 129V123H1226.45V124H1226.51C1226.62 123.654 1226.81 123.387 1227.07 123.199C1227.34 123.009 1227.65 122.914 1227.99 122.914C1228.07 122.914 1228.15 122.918 1228.25 122.926C1228.35 122.931 1228.43 122.94 1228.5 122.953V124.254C1228.44 124.233 1228.34 124.215 1228.21 124.199C1228.08 124.181 1227.96 124.172 1227.84 124.172C1227.58 124.172 1227.35 124.228 1227.15 124.34C1226.94 124.449 1226.78 124.602 1226.67 124.797C1226.55 124.992 1226.49 125.217 1226.49 125.473V129H1225.08ZM1231.85 129.117C1231.24 129.117 1230.72 128.992 1230.29 128.742C1229.85 128.49 1229.52 128.133 1229.28 127.672C1229.05 127.208 1228.93 126.663 1228.93 126.035C1228.93 125.418 1229.05 124.876 1229.28 124.41C1229.52 123.941 1229.85 123.577 1230.28 123.316C1230.7 123.053 1231.2 122.922 1231.77 122.922C1232.14 122.922 1232.49 122.982 1232.82 123.102C1233.15 123.219 1233.44 123.401 1233.69 123.648C1233.95 123.896 1234.15 124.211 1234.29 124.594C1234.44 124.974 1234.51 125.427 1234.51 125.953V126.387H1229.6V125.434H1233.16C1233.16 125.163 1233.1 124.922 1232.98 124.711C1232.87 124.497 1232.71 124.329 1232.5 124.207C1232.3 124.085 1232.06 124.023 1231.79 124.023C1231.5 124.023 1231.25 124.094 1231.03 124.234C1230.81 124.372 1230.64 124.555 1230.52 124.781C1230.4 125.005 1230.34 125.251 1230.33 125.52V126.352C1230.33 126.701 1230.4 127 1230.53 127.25C1230.65 127.497 1230.83 127.687 1231.06 127.82C1231.29 127.951 1231.56 128.016 1231.87 128.016C1232.07 128.016 1232.26 127.987 1232.42 127.93C1232.59 127.87 1232.74 127.783 1232.86 127.668C1232.98 127.553 1233.07 127.411 1233.13 127.242L1234.46 127.391C1234.37 127.74 1234.21 128.044 1233.98 128.305C1233.75 128.562 1233.45 128.763 1233.09 128.906C1232.73 129.047 1232.31 129.117 1231.85 129.117ZM1237.44 129.121C1237.06 129.121 1236.71 129.053 1236.41 128.918C1236.11 128.78 1235.87 128.577 1235.69 128.309C1235.52 128.04 1235.43 127.71 1235.43 127.316C1235.43 126.978 1235.49 126.698 1235.62 126.477C1235.74 126.255 1235.91 126.078 1236.13 125.945C1236.34 125.812 1236.59 125.712 1236.86 125.645C1237.13 125.574 1237.41 125.523 1237.71 125.492C1238.06 125.456 1238.34 125.423 1238.56 125.395C1238.78 125.363 1238.94 125.316 1239.04 125.254C1239.14 125.189 1239.19 125.089 1239.19 124.953V124.93C1239.19 124.635 1239.1 124.408 1238.93 124.246C1238.75 124.085 1238.5 124.004 1238.17 124.004C1237.83 124.004 1237.55 124.079 1237.35 124.23C1237.15 124.382 1237.01 124.56 1236.94 124.766L1235.62 124.578C1235.73 124.214 1235.9 123.909 1236.14 123.664C1236.38 123.417 1236.67 123.232 1237.02 123.109C1237.36 122.984 1237.75 122.922 1238.17 122.922C1238.46 122.922 1238.74 122.956 1239.03 123.023C1239.32 123.091 1239.58 123.203 1239.82 123.359C1240.05 123.513 1240.24 123.723 1240.39 123.988C1240.53 124.254 1240.6 124.586 1240.6 124.984V129H1239.25V128.176H1239.2C1239.11 128.342 1238.99 128.499 1238.83 128.645C1238.68 128.788 1238.49 128.904 1238.25 128.992C1238.02 129.078 1237.75 129.121 1237.44 129.121ZM1237.8 128.082C1238.09 128.082 1238.33 128.026 1238.54 127.914C1238.75 127.799 1238.91 127.648 1239.02 127.461C1239.14 127.273 1239.19 127.069 1239.19 126.848V126.141C1239.15 126.177 1239.07 126.211 1238.97 126.242C1238.86 126.273 1238.75 126.301 1238.62 126.324C1238.49 126.348 1238.36 126.368 1238.23 126.387C1238.1 126.405 1237.99 126.421 1237.9 126.434C1237.69 126.462 1237.5 126.509 1237.33 126.574C1237.16 126.639 1237.03 126.73 1236.94 126.848C1236.84 126.962 1236.79 127.111 1236.79 127.293C1236.79 127.553 1236.89 127.75 1237.08 127.883C1237.27 128.016 1237.51 128.082 1237.8 128.082ZM1245.02 123V124.094H1241.57V123H1245.02ZM1242.42 121.562H1243.84V127.195C1243.84 127.385 1243.87 127.531 1243.92 127.633C1243.98 127.732 1244.06 127.799 1244.16 127.836C1244.26 127.872 1244.36 127.891 1244.48 127.891C1244.57 127.891 1244.65 127.884 1244.72 127.871C1244.8 127.858 1244.85 127.846 1244.89 127.836L1245.13 128.941C1245.06 128.967 1244.95 128.996 1244.81 129.027C1244.67 129.059 1244.5 129.077 1244.3 129.082C1243.95 129.092 1243.63 129.039 1243.34 128.922C1243.06 128.802 1242.83 128.617 1242.67 128.367C1242.5 128.117 1242.42 127.805 1242.42 127.43V121.562ZM1248.8 129.117C1248.2 129.117 1247.68 128.992 1247.24 128.742C1246.8 128.49 1246.47 128.133 1246.23 127.672C1246 127.208 1245.88 126.663 1245.88 126.035C1245.88 125.418 1246 124.876 1246.23 124.41C1246.47 123.941 1246.8 123.577 1247.23 123.316C1247.65 123.053 1248.15 122.922 1248.72 122.922C1249.09 122.922 1249.44 122.982 1249.77 123.102C1250.1 123.219 1250.39 123.401 1250.64 123.648C1250.9 123.896 1251.1 124.211 1251.25 124.594C1251.39 124.974 1251.46 125.427 1251.46 125.953V126.387H1246.55V125.434H1250.11C1250.11 125.163 1250.05 124.922 1249.93 124.711C1249.82 124.497 1249.66 124.329 1249.45 124.207C1249.25 124.085 1249.01 124.023 1248.74 124.023C1248.45 124.023 1248.2 124.094 1247.98 124.234C1247.76 124.372 1247.59 124.555 1247.47 124.781C1247.35 125.005 1247.29 125.251 1247.29 125.52V126.352C1247.29 126.701 1247.35 127 1247.48 127.25C1247.6 127.497 1247.78 127.687 1248.01 127.82C1248.24 127.951 1248.51 128.016 1248.82 128.016C1249.02 128.016 1249.21 127.987 1249.38 127.93C1249.54 127.87 1249.69 127.783 1249.81 127.668C1249.93 127.553 1250.02 127.411 1250.09 127.242L1251.41 127.391C1251.32 127.74 1251.16 128.044 1250.93 128.305C1250.7 128.562 1250.4 128.763 1250.04 128.906C1249.68 129.047 1249.26 129.117 1248.8 129.117ZM1257.12 129.121C1256.74 129.121 1256.39 129.053 1256.09 128.918C1255.79 128.78 1255.55 128.577 1255.37 128.309C1255.2 128.04 1255.11 127.71 1255.11 127.316C1255.11 126.978 1255.17 126.698 1255.3 126.477C1255.42 126.255 1255.59 126.078 1255.81 125.945C1256.02 125.812 1256.27 125.712 1256.54 125.645C1256.81 125.574 1257.09 125.523 1257.39 125.492C1257.74 125.456 1258.02 125.423 1258.24 125.395C1258.46 125.363 1258.62 125.316 1258.72 125.254C1258.82 125.189 1258.87 125.089 1258.87 124.953V124.93C1258.87 124.635 1258.78 124.408 1258.61 124.246C1258.43 124.085 1258.18 124.004 1257.85 124.004C1257.51 124.004 1257.23 124.079 1257.03 124.23C1256.83 124.382 1256.69 124.56 1256.62 124.766L1255.3 124.578C1255.41 124.214 1255.58 123.909 1255.82 123.664C1256.06 123.417 1256.35 123.232 1256.7 123.109C1257.04 122.984 1257.43 122.922 1257.85 122.922C1258.14 122.922 1258.42 122.956 1258.71 123.023C1259 123.091 1259.26 123.203 1259.5 123.359C1259.73 123.513 1259.92 123.723 1260.07 123.988C1260.21 124.254 1260.28 124.586 1260.28 124.984V129H1258.92V128.176H1258.88C1258.79 128.342 1258.67 128.499 1258.51 128.645C1258.36 128.788 1258.17 128.904 1257.93 128.992C1257.7 129.078 1257.43 129.121 1257.12 129.121ZM1257.48 128.082C1257.77 128.082 1258.01 128.026 1258.22 127.914C1258.43 127.799 1258.59 127.648 1258.7 127.461C1258.82 127.273 1258.87 127.069 1258.87 126.848V126.141C1258.83 126.177 1258.75 126.211 1258.65 126.242C1258.54 126.273 1258.43 126.301 1258.3 126.324C1258.17 126.348 1258.04 126.368 1257.91 126.387C1257.78 126.405 1257.67 126.421 1257.58 126.434C1257.37 126.462 1257.18 126.509 1257.01 126.574C1256.84 126.639 1256.71 126.73 1256.62 126.848C1256.52 126.962 1256.47 127.111 1256.47 127.293C1256.47 127.553 1256.57 127.75 1256.76 127.883C1256.95 128.016 1257.19 128.082 1257.48 128.082ZM1267.05 129.117C1266.45 129.117 1265.94 128.986 1265.51 128.723C1265.08 128.46 1264.75 128.096 1264.52 127.633C1264.29 127.167 1264.18 126.63 1264.18 126.023C1264.18 125.414 1264.29 124.876 1264.53 124.41C1264.76 123.941 1265.09 123.577 1265.52 123.316C1265.95 123.053 1266.46 122.922 1267.04 122.922C1267.53 122.922 1267.96 123.012 1268.34 123.191C1268.71 123.368 1269.02 123.62 1269.24 123.945C1269.46 124.268 1269.59 124.646 1269.62 125.078H1268.27C1268.22 124.789 1268.09 124.548 1267.88 124.355C1267.68 124.16 1267.4 124.062 1267.06 124.062C1266.77 124.062 1266.52 124.141 1266.3 124.297C1266.08 124.451 1265.91 124.672 1265.79 124.961C1265.67 125.25 1265.61 125.596 1265.61 126C1265.61 126.409 1265.67 126.76 1265.79 127.055C1265.91 127.346 1266.08 127.572 1266.29 127.73C1266.51 127.887 1266.77 127.965 1267.06 127.965C1267.27 127.965 1267.46 127.926 1267.62 127.848C1267.79 127.767 1267.93 127.651 1268.04 127.5C1268.15 127.349 1268.23 127.165 1268.27 126.949H1269.62C1269.59 127.374 1269.46 127.75 1269.25 128.078C1269.03 128.404 1268.74 128.659 1268.36 128.844C1267.99 129.026 1267.55 129.117 1267.05 129.117ZM1273.4 129.117C1272.81 129.117 1272.31 128.988 1271.88 128.73C1271.45 128.473 1271.11 128.112 1270.88 127.648C1270.64 127.185 1270.53 126.643 1270.53 126.023C1270.53 125.404 1270.64 124.861 1270.88 124.395C1271.11 123.928 1271.45 123.566 1271.88 123.309C1272.31 123.051 1272.81 122.922 1273.4 122.922C1273.99 122.922 1274.49 123.051 1274.92 123.309C1275.35 123.566 1275.69 123.928 1275.92 124.395C1276.16 124.861 1276.28 125.404 1276.28 126.023C1276.28 126.643 1276.16 127.185 1275.92 127.648C1275.69 128.112 1275.35 128.473 1274.92 128.73C1274.49 128.988 1273.99 129.117 1273.4 129.117ZM1273.41 127.984C1273.73 127.984 1273.99 127.897 1274.21 127.723C1274.42 127.546 1274.58 127.309 1274.68 127.012C1274.79 126.715 1274.84 126.384 1274.84 126.02C1274.84 125.652 1274.79 125.32 1274.68 125.023C1274.58 124.724 1274.42 124.486 1274.21 124.309C1273.99 124.132 1273.73 124.043 1273.41 124.043C1273.08 124.043 1272.81 124.132 1272.6 124.309C1272.38 124.486 1272.22 124.724 1272.12 125.023C1272.01 125.32 1271.96 125.652 1271.96 126.02C1271.96 126.384 1272.01 126.715 1272.12 127.012C1272.22 127.309 1272.38 127.546 1272.6 127.723C1272.81 127.897 1273.08 127.984 1273.41 127.984ZM1281.3 126.477V123H1282.71V129H1281.34V127.934H1281.28C1281.14 128.27 1280.92 128.544 1280.61 128.758C1280.31 128.971 1279.93 129.078 1279.48 129.078C1279.08 129.078 1278.73 128.991 1278.43 128.816C1278.13 128.639 1277.9 128.383 1277.73 128.047C1277.56 127.708 1277.48 127.299 1277.48 126.82V123H1278.89V126.602C1278.89 126.982 1278.99 127.284 1279.2 127.508C1279.41 127.732 1279.68 127.844 1280.02 127.844C1280.23 127.844 1280.43 127.793 1280.63 127.691C1280.82 127.59 1280.98 127.439 1281.11 127.238C1281.24 127.035 1281.3 126.781 1281.3 126.477ZM1284.17 129V123H1285.54V124H1285.6C1285.71 123.654 1285.9 123.387 1286.16 123.199C1286.43 123.009 1286.74 122.914 1287.08 122.914C1287.16 122.914 1287.25 122.918 1287.34 122.926C1287.44 122.931 1287.52 122.94 1287.59 122.953V124.254C1287.53 124.233 1287.43 124.215 1287.3 124.199C1287.18 124.181 1287.05 124.172 1286.93 124.172C1286.68 124.172 1286.44 124.228 1286.24 124.34C1286.04 124.449 1285.88 124.602 1285.76 124.797C1285.64 124.992 1285.58 125.217 1285.58 125.473V129H1284.17ZM1293.27 124.586L1291.98 124.727C1291.95 124.596 1291.88 124.474 1291.79 124.359C1291.7 124.245 1291.58 124.152 1291.43 124.082C1291.28 124.012 1291.1 123.977 1290.88 123.977C1290.58 123.977 1290.34 124.04 1290.13 124.168C1289.94 124.296 1289.84 124.461 1289.84 124.664C1289.84 124.839 1289.9 124.98 1290.03 125.09C1290.17 125.199 1290.38 125.289 1290.69 125.359L1291.71 125.578C1292.28 125.701 1292.7 125.895 1292.98 126.16C1293.26 126.426 1293.4 126.773 1293.4 127.203C1293.4 127.581 1293.29 127.914 1293.07 128.203C1292.85 128.49 1292.55 128.714 1292.17 128.875C1291.78 129.036 1291.34 129.117 1290.84 129.117C1290.1 129.117 1289.51 128.964 1289.06 128.656C1288.62 128.346 1288.35 127.915 1288.26 127.363L1289.64 127.23C1289.71 127.501 1289.84 127.706 1290.04 127.844C1290.24 127.982 1290.51 128.051 1290.83 128.051C1291.17 128.051 1291.44 127.982 1291.64 127.844C1291.85 127.706 1291.95 127.535 1291.95 127.332C1291.95 127.16 1291.88 127.018 1291.75 126.906C1291.62 126.794 1291.42 126.708 1291.14 126.648L1290.12 126.434C1289.54 126.314 1289.12 126.112 1288.84 125.828C1288.57 125.542 1288.43 125.18 1288.43 124.742C1288.43 124.372 1288.53 124.052 1288.73 123.781C1288.94 123.508 1289.22 123.297 1289.59 123.148C1289.96 122.997 1290.38 122.922 1290.86 122.922C1291.56 122.922 1292.11 123.072 1292.52 123.371C1292.92 123.671 1293.18 124.076 1293.27 124.586ZM1297.22 129.117C1296.62 129.117 1296.1 128.992 1295.66 128.742C1295.23 128.49 1294.89 128.133 1294.66 127.672C1294.43 127.208 1294.31 126.663 1294.31 126.035C1294.31 125.418 1294.43 124.876 1294.66 124.41C1294.9 123.941 1295.23 123.577 1295.65 123.316C1296.08 123.053 1296.58 122.922 1297.15 122.922C1297.52 122.922 1297.87 122.982 1298.2 123.102C1298.53 123.219 1298.82 123.401 1299.07 123.648C1299.33 123.896 1299.53 124.211 1299.67 124.594C1299.82 124.974 1299.89 125.427 1299.89 125.953V126.387H1294.97V125.434H1298.54C1298.53 125.163 1298.47 124.922 1298.36 124.711C1298.24 124.497 1298.08 124.329 1297.88 124.207C1297.68 124.085 1297.44 124.023 1297.17 124.023C1296.88 124.023 1296.63 124.094 1296.41 124.234C1296.19 124.372 1296.02 124.555 1295.89 124.781C1295.77 125.005 1295.71 125.251 1295.71 125.52V126.352C1295.71 126.701 1295.77 127 1295.9 127.25C1296.03 127.497 1296.21 127.687 1296.44 127.82C1296.67 127.951 1296.93 128.016 1297.24 128.016C1297.45 128.016 1297.63 127.987 1297.8 127.93C1297.97 127.87 1298.11 127.783 1298.23 127.668C1298.36 127.553 1298.45 127.411 1298.51 127.242L1299.83 127.391C1299.75 127.74 1299.59 128.044 1299.36 128.305C1299.12 128.562 1298.83 128.763 1298.46 128.906C1298.1 129.047 1297.69 129.117 1297.22 129.117Z" fill="#424242"/>
<rect id="Rectangle_2" x="64.5" y="164.5" width="1311" height="67" rx="3.5" stroke="#9E9E9E"/>
<path id="H3: course title" d="M84.8608 192V183.273H86.4418V186.967H90.4858V183.273H92.071V192H90.4858V188.293H86.4418V192H84.8608ZM96.8374 192.119C96.2237 192.119 95.6783 192.014 95.201 191.804C94.7266 191.594 94.3516 191.301 94.076 190.926C93.8004 190.551 93.6541 190.118 93.6371 189.626H95.2393C95.2536 189.862 95.3317 190.068 95.4737 190.244C95.6158 190.418 95.8047 190.553 96.0405 190.649C96.2763 190.746 96.5405 190.794 96.8331 190.794C97.1456 190.794 97.4226 190.74 97.6641 190.632C97.9055 190.521 98.0945 190.368 98.2308 190.172C98.3672 189.976 98.4339 189.75 98.4311 189.494C98.4339 189.23 98.3658 188.997 98.2266 188.795C98.0874 188.594 97.8857 188.436 97.6214 188.322C97.3601 188.209 97.0447 188.152 96.6754 188.152H95.9041V186.933H96.6754C96.9794 186.933 97.245 186.881 97.4723 186.776C97.7024 186.67 97.8828 186.523 98.0135 186.332C98.1442 186.139 98.2081 185.916 98.2053 185.663C98.2081 185.416 98.1527 185.202 98.0391 185.02C97.9283 184.835 97.7706 184.692 97.5661 184.589C97.3643 184.487 97.1271 184.436 96.8544 184.436C96.5874 184.436 96.3402 184.484 96.1129 184.581C95.8857 184.678 95.7024 184.815 95.5632 184.994C95.424 185.17 95.3501 185.381 95.3416 185.625H93.8203C93.8317 185.136 93.9723 184.707 94.2422 184.338C94.5149 183.966 94.8786 183.676 95.3331 183.469C95.7876 183.259 96.2976 183.153 96.8629 183.153C97.4453 183.153 97.951 183.263 98.38 183.482C98.8118 183.697 99.1456 183.989 99.3814 184.355C99.6172 184.722 99.7351 185.126 99.7351 185.57C99.7379 186.061 99.593 186.473 99.3004 186.805C99.0107 187.138 98.63 187.355 98.1584 187.457V187.526C98.772 187.611 99.2422 187.838 99.5689 188.207C99.8984 188.574 100.062 189.03 100.059 189.575C100.059 190.064 99.9197 190.501 99.6413 190.888C99.3658 191.271 98.9851 191.572 98.4993 191.791C98.0163 192.01 97.4624 192.119 96.8374 192.119ZM102.489 190.952C102.23 190.952 102.009 190.861 101.824 190.679C101.64 190.494 101.549 190.273 101.551 190.014C101.549 189.759 101.64 189.54 101.824 189.358C102.009 189.176 102.23 189.085 102.489 189.085C102.739 189.085 102.956 189.176 103.141 189.358C103.328 189.54 103.424 189.759 103.426 190.014C103.424 190.187 103.378 190.345 103.29 190.487C103.205 190.629 103.091 190.743 102.949 190.828C102.81 190.911 102.657 190.952 102.489 190.952ZM102.489 186.626C102.23 186.626 102.009 186.536 101.824 186.354C101.64 186.169 101.549 185.947 101.551 185.689C101.549 185.433 101.64 185.214 101.824 185.033C102.009 184.848 102.23 184.756 102.489 184.756C102.739 184.756 102.956 184.848 103.141 185.033C103.328 185.214 103.424 185.433 103.426 185.689C103.424 185.859 103.378 186.016 103.29 186.158C103.205 186.3 103.091 186.413 102.949 186.499C102.81 186.584 102.657 186.626 102.489 186.626ZM110.851 192.128C110.197 192.128 109.636 191.984 109.168 191.697C108.702 191.411 108.342 191.014 108.089 190.509C107.839 190 107.714 189.415 107.714 188.753C107.714 188.088 107.842 187.501 108.098 186.993C108.354 186.482 108.714 186.084 109.18 185.8C109.649 185.513 110.203 185.369 110.842 185.369C111.374 185.369 111.844 185.467 112.253 185.663C112.665 185.857 112.993 186.131 113.237 186.486C113.482 186.838 113.621 187.25 113.655 187.722H112.18C112.121 187.406 111.979 187.143 111.754 186.933C111.533 186.72 111.236 186.614 110.864 186.614C110.548 186.614 110.271 186.699 110.033 186.869C109.794 187.037 109.608 187.278 109.474 187.594C109.344 187.909 109.278 188.287 109.278 188.727C109.278 189.173 109.344 189.557 109.474 189.878C109.605 190.196 109.788 190.442 110.024 190.615C110.263 190.786 110.543 190.871 110.864 190.871C111.091 190.871 111.294 190.828 111.473 190.743C111.655 190.655 111.807 190.528 111.929 190.364C112.051 190.199 112.135 189.999 112.18 189.763H113.655C113.618 190.226 113.482 190.636 113.246 190.994C113.01 191.349 112.689 191.628 112.283 191.83C111.876 192.028 111.399 192.128 110.851 192.128ZM117.777 192.128C117.137 192.128 116.583 191.987 116.115 191.706C115.646 191.425 115.282 191.031 115.024 190.526C114.768 190.02 114.64 189.429 114.64 188.753C114.64 188.077 114.768 187.484 115.024 186.976C115.282 186.467 115.646 186.072 116.115 185.791C116.583 185.51 117.137 185.369 117.777 185.369C118.416 185.369 118.97 185.51 119.439 185.791C119.907 186.072 120.27 186.467 120.525 186.976C120.784 187.484 120.913 188.077 120.913 188.753C120.913 189.429 120.784 190.02 120.525 190.526C120.27 191.031 119.907 191.425 119.439 191.706C118.97 191.987 118.416 192.128 117.777 192.128ZM117.785 190.892C118.132 190.892 118.422 190.797 118.654 190.607C118.887 190.413 119.061 190.155 119.174 189.831C119.291 189.507 119.349 189.146 119.349 188.749C119.349 188.348 119.291 187.986 119.174 187.662C119.061 187.335 118.887 187.075 118.654 186.882C118.422 186.689 118.132 186.592 117.785 186.592C117.43 186.592 117.135 186.689 116.899 186.882C116.666 187.075 116.491 187.335 116.375 187.662C116.261 187.986 116.204 188.348 116.204 188.749C116.204 189.146 116.261 189.507 116.375 189.831C116.491 190.155 116.666 190.413 116.899 190.607C117.135 190.797 117.43 190.892 117.785 190.892ZM126.394 189.247V185.455H127.937V192H126.441V190.837H126.373C126.225 191.203 125.982 191.503 125.644 191.736C125.309 191.969 124.896 192.085 124.404 192.085C123.975 192.085 123.596 191.99 123.266 191.8C122.94 191.607 122.684 191.327 122.499 190.96C122.315 190.591 122.222 190.145 122.222 189.622V185.455H123.765V189.384C123.765 189.798 123.879 190.128 124.106 190.372C124.333 190.616 124.631 190.739 125.001 190.739C125.228 190.739 125.448 190.683 125.661 190.572C125.874 190.462 126.049 190.297 126.185 190.078C126.325 189.857 126.394 189.58 126.394 189.247ZM129.523 192V185.455H131.019V186.545H131.087C131.206 186.168 131.411 185.876 131.701 185.672C131.993 185.464 132.327 185.361 132.702 185.361C132.787 185.361 132.882 185.365 132.988 185.374C133.096 185.379 133.185 185.389 133.256 185.403V186.822C133.191 186.8 133.087 186.78 132.945 186.763C132.806 186.743 132.671 186.733 132.54 186.733C132.259 186.733 132.006 186.794 131.782 186.916C131.56 187.036 131.385 187.202 131.257 187.415C131.13 187.628 131.066 187.874 131.066 188.152V192H129.523ZM139.454 187.185L138.048 187.338C138.008 187.196 137.939 187.062 137.839 186.938C137.743 186.812 137.612 186.712 137.447 186.635C137.282 186.558 137.081 186.52 136.842 186.52C136.521 186.52 136.251 186.589 136.032 186.729C135.816 186.868 135.71 187.048 135.713 187.27C135.71 187.46 135.779 187.615 135.922 187.734C136.066 187.854 136.305 187.952 136.637 188.028L137.754 188.267C138.373 188.401 138.833 188.612 139.135 188.902C139.439 189.192 139.592 189.571 139.595 190.04C139.592 190.452 139.471 190.815 139.233 191.131C138.997 191.443 138.669 191.687 138.248 191.864C137.828 192.04 137.345 192.128 136.799 192.128C135.998 192.128 135.353 191.96 134.865 191.625C134.376 191.287 134.085 190.817 133.991 190.214L135.495 190.07C135.564 190.365 135.708 190.588 135.93 190.739C136.152 190.889 136.44 190.964 136.795 190.964C137.162 190.964 137.456 190.889 137.677 190.739C137.902 190.588 138.014 190.402 138.014 190.18C138.014 189.993 137.941 189.838 137.797 189.716C137.654 189.594 137.433 189.5 137.132 189.435L136.015 189.2C135.387 189.07 134.923 188.849 134.622 188.54C134.321 188.227 134.172 187.832 134.174 187.355C134.172 186.952 134.281 186.602 134.502 186.307C134.727 186.009 135.038 185.778 135.436 185.616C135.836 185.452 136.298 185.369 136.821 185.369C137.588 185.369 138.191 185.533 138.632 185.859C139.075 186.186 139.349 186.628 139.454 187.185ZM143.765 192.128C143.108 192.128 142.542 191.991 142.064 191.719C141.59 191.443 141.225 191.054 140.969 190.551C140.713 190.045 140.586 189.45 140.586 188.766C140.586 188.092 140.713 187.501 140.969 186.993C141.228 186.482 141.588 186.084 142.051 185.8C142.515 185.513 143.059 185.369 143.684 185.369C144.087 185.369 144.468 185.435 144.826 185.565C145.186 185.693 145.505 185.892 145.78 186.162C146.059 186.432 146.277 186.776 146.436 187.193C146.596 187.608 146.675 188.102 146.675 188.676V189.149H141.31V188.109H145.196C145.194 187.814 145.13 187.551 145.005 187.321C144.88 187.088 144.705 186.905 144.48 186.771C144.259 186.638 144 186.571 143.705 186.571C143.39 186.571 143.113 186.648 142.874 186.801C142.635 186.952 142.449 187.151 142.316 187.398C142.185 187.642 142.118 187.911 142.115 188.203V189.111C142.115 189.491 142.185 189.818 142.324 190.091C142.463 190.361 142.658 190.568 142.908 190.713C143.158 190.855 143.451 190.926 143.786 190.926C144.01 190.926 144.213 190.895 144.395 190.832C144.577 190.767 144.735 190.672 144.868 190.547C145.002 190.422 145.103 190.267 145.171 190.082L146.611 190.244C146.52 190.625 146.347 190.957 146.091 191.241C145.838 191.523 145.515 191.741 145.12 191.898C144.725 192.051 144.273 192.128 143.765 192.128ZM154.225 185.455V186.648H150.462V185.455H154.225ZM151.391 183.886H152.934V190.031C152.934 190.239 152.965 190.398 153.028 190.509C153.093 190.616 153.178 190.69 153.283 190.73C153.388 190.77 153.505 190.79 153.633 190.79C153.729 190.79 153.817 190.783 153.897 190.768C153.979 190.754 154.042 190.741 154.085 190.73L154.344 191.936C154.262 191.964 154.144 191.996 153.991 192.03C153.84 192.064 153.656 192.084 153.437 192.089C153.05 192.101 152.702 192.043 152.393 191.915C152.083 191.784 151.837 191.582 151.656 191.31C151.477 191.037 151.388 190.696 151.391 190.287V183.886ZM155.515 192V185.455H157.058V192H155.515ZM156.291 184.526C156.047 184.526 155.836 184.445 155.66 184.283C155.484 184.118 155.396 183.92 155.396 183.69C155.396 183.457 155.484 183.26 155.66 183.098C155.836 182.933 156.047 182.851 156.291 182.851C156.538 182.851 156.748 182.933 156.922 183.098C157.098 183.26 157.186 183.457 157.186 183.69C157.186 183.92 157.098 184.118 156.922 184.283C156.748 184.445 156.538 184.526 156.291 184.526ZM161.913 185.455V186.648H158.15V185.455H161.913ZM159.079 183.886H160.621V190.031C160.621 190.239 160.653 190.398 160.715 190.509C160.781 190.616 160.866 190.69 160.971 190.73C161.076 190.77 161.192 190.79 161.32 190.79C161.417 190.79 161.505 190.783 161.585 190.768C161.667 190.754 161.729 190.741 161.772 190.73L162.032 191.936C161.95 191.964 161.832 191.996 161.678 192.03C161.528 192.064 161.343 192.084 161.124 192.089C160.738 192.101 160.39 192.043 160.08 191.915C159.771 191.784 159.525 191.582 159.343 191.31C159.164 191.037 159.076 190.696 159.079 190.287V183.886ZM164.886 183.273V192H163.343V183.273H164.886ZM169.37 192.128C168.714 192.128 168.147 191.991 167.67 191.719C167.195 191.443 166.83 191.054 166.575 190.551C166.319 190.045 166.191 189.45 166.191 188.766C166.191 188.092 166.319 187.501 166.575 186.993C166.833 186.482 167.194 186.084 167.657 185.8C168.12 185.513 168.664 185.369 169.289 185.369C169.692 185.369 170.073 185.435 170.431 185.565C170.792 185.693 171.11 185.892 171.386 186.162C171.664 186.432 171.883 186.776 172.042 187.193C172.201 187.608 172.281 188.102 172.281 188.676V189.149H166.915V188.109H170.802C170.799 187.814 170.735 187.551 170.61 187.321C170.485 187.088 170.31 186.905 170.086 186.771C169.864 186.638 169.606 186.571 169.31 186.571C168.995 186.571 168.718 186.648 168.479 186.801C168.241 186.952 168.055 187.151 167.921 187.398C167.79 187.642 167.724 187.911 167.721 188.203V189.111C167.721 189.491 167.79 189.818 167.93 190.091C168.069 190.361 168.263 190.568 168.513 190.713C168.763 190.855 169.056 190.926 169.391 190.926C169.616 190.926 169.819 190.895 170.001 190.832C170.183 190.767 170.34 190.672 170.474 190.547C170.607 190.422 170.708 190.267 170.776 190.082L172.217 190.244C172.126 190.625 171.952 190.957 171.697 191.241C171.444 191.523 171.12 191.741 170.725 191.898C170.33 192.051 169.879 192.128 169.37 192.128Z" fill="#424242"/>
<rect id="Rectangle_3" x="84" y="204" width="200" height="8" rx="4" fill="#D9D9D9"/>
<rect id="Rectangle_4" x="64.5" y="256.5" width="1311" height="67" rx="3.5" stroke="#9E9E9E"/>
<path id="H3: course title_2" d="M84.8608 284V275.273H86.4418V278.967H90.4858V275.273H92.071V284H90.4858V280.293H86.4418V284H84.8608ZM96.8374 284.119C96.2237 284.119 95.6783 284.014 95.201 283.804C94.7266 283.594 94.3516 283.301 94.076 282.926C93.8004 282.551 93.6541 282.118 93.6371 281.626H95.2393C95.2536 281.862 95.3317 282.068 95.4737 282.244C95.6158 282.418 95.8047 282.553 96.0405 282.649C96.2763 282.746 96.5405 282.794 96.8331 282.794C97.1456 282.794 97.4226 282.74 97.6641 282.632C97.9055 282.521 98.0945 282.368 98.2308 282.172C98.3672 281.976 98.4339 281.75 98.4311 281.494C98.4339 281.23 98.3658 280.997 98.2266 280.795C98.0874 280.594 97.8857 280.436 97.6214 280.322C97.3601 280.209 97.0447 280.152 96.6754 280.152H95.9041V278.933H96.6754C96.9794 278.933 97.245 278.881 97.4723 278.776C97.7024 278.67 97.8828 278.523 98.0135 278.332C98.1442 278.139 98.2081 277.916 98.2053 277.663C98.2081 277.416 98.1527 277.202 98.0391 277.02C97.9283 276.835 97.7706 276.692 97.5661 276.589C97.3643 276.487 97.1271 276.436 96.8544 276.436C96.5874 276.436 96.3402 276.484 96.1129 276.581C95.8857 276.678 95.7024 276.815 95.5632 276.994C95.424 277.17 95.3501 277.381 95.3416 277.625H93.8203C93.8317 277.136 93.9723 276.707 94.2422 276.338C94.5149 275.966 94.8786 275.676 95.3331 275.469C95.7876 275.259 96.2976 275.153 96.8629 275.153C97.4453 275.153 97.951 275.263 98.38 275.482C98.8118 275.697 99.1456 275.989 99.3814 276.355C99.6172 276.722 99.7351 277.126 99.7351 277.57C99.7379 278.061 99.593 278.473 99.3004 278.805C99.0107 279.138 98.63 279.355 98.1584 279.457V279.526C98.772 279.611 99.2422 279.838 99.5689 280.207C99.8984 280.574 100.062 281.03 100.059 281.575C100.059 282.064 99.9197 282.501 99.6413 282.888C99.3658 283.271 98.9851 283.572 98.4993 283.791C98.0163 284.01 97.4624 284.119 96.8374 284.119ZM102.489 282.952C102.23 282.952 102.009 282.861 101.824 282.679C101.64 282.494 101.549 282.273 101.551 282.014C101.549 281.759 101.64 281.54 101.824 281.358C102.009 281.176 102.23 281.085 102.489 281.085C102.739 281.085 102.956 281.176 103.141 281.358C103.328 281.54 103.424 281.759 103.426 282.014C103.424 282.187 103.378 282.345 103.29 282.487C103.205 282.629 103.091 282.743 102.949 282.828C102.81 282.911 102.657 282.952 102.489 282.952ZM102.489 278.626C102.23 278.626 102.009 278.536 101.824 278.354C101.64 278.169 101.549 277.947 101.551 277.689C101.549 277.433 101.64 277.214 101.824 277.033C102.009 276.848 102.23 276.756 102.489 276.756C102.739 276.756 102.956 276.848 103.141 277.033C103.328 277.214 103.424 277.433 103.426 277.689C103.424 277.859 103.378 278.016 103.29 278.158C103.205 278.3 103.091 278.413 102.949 278.499C102.81 278.584 102.657 278.626 102.489 278.626ZM110.851 284.128C110.197 284.128 109.636 283.984 109.168 283.697C108.702 283.411 108.342 283.014 108.089 282.509C107.839 282 107.714 281.415 107.714 280.753C107.714 280.088 107.842 279.501 108.098 278.993C108.354 278.482 108.714 278.084 109.18 277.8C109.649 277.513 110.203 277.369 110.842 277.369C111.374 277.369 111.844 277.467 112.253 277.663C112.665 277.857 112.993 278.131 113.237 278.486C113.482 278.838 113.621 279.25 113.655 279.722H112.18C112.121 279.406 111.979 279.143 111.754 278.933C111.533 278.72 111.236 278.614 110.864 278.614C110.548 278.614 110.271 278.699 110.033 278.869C109.794 279.037 109.608 279.278 109.474 279.594C109.344 279.909 109.278 280.287 109.278 280.727C109.278 281.173 109.344 281.557 109.474 281.878C109.605 282.196 109.788 282.442 110.024 282.615C110.263 282.786 110.543 282.871 110.864 282.871C111.091 282.871 111.294 282.828 111.473 282.743C111.655 282.655 111.807 282.528 111.929 282.364C112.051 282.199 112.135 281.999 112.18 281.763H113.655C113.618 282.226 113.482 282.636 113.246 282.994C113.01 283.349 112.689 283.628 112.283 283.83C111.876 284.028 111.399 284.128 110.851 284.128ZM117.777 284.128C117.137 284.128 116.583 283.987 116.115 283.706C115.646 283.425 115.282 283.031 115.024 282.526C114.768 282.02 114.64 281.429 114.64 280.753C114.64 280.077 114.768 279.484 115.024 278.976C115.282 278.467 115.646 278.072 116.115 277.791C116.583 277.51 117.137 277.369 117.777 277.369C118.416 277.369 118.97 277.51 119.439 277.791C119.907 278.072 120.27 278.467 120.525 278.976C120.784 279.484 120.913 280.077 120.913 280.753C120.913 281.429 120.784 282.02 120.525 282.526C120.27 283.031 119.907 283.425 119.439 283.706C118.97 283.987 118.416 284.128 117.777 284.128ZM117.785 282.892C118.132 282.892 118.422 282.797 118.654 282.607C118.887 282.413 119.061 282.155 119.174 281.831C119.291 281.507 119.349 281.146 119.349 280.749C119.349 280.348 119.291 279.986 119.174 279.662C119.061 279.335 118.887 279.075 118.654 278.882C118.422 278.689 118.132 278.592 117.785 278.592C117.43 278.592 117.135 278.689 116.899 278.882C116.666 279.075 116.491 279.335 116.375 279.662C116.261 279.986 116.204 280.348 116.204 280.749C116.204 281.146 116.261 281.507 116.375 281.831C116.491 282.155 116.666 282.413 116.899 282.607C117.135 282.797 117.43 282.892 117.785 282.892ZM126.394 281.247V277.455H127.937V284H126.441V282.837H126.373C126.225 283.203 125.982 283.503 125.644 283.736C125.309 283.969 124.896 284.085 124.404 284.085C123.975 284.085 123.596 283.99 123.266 283.8C122.94 283.607 122.684 283.327 122.499 282.96C122.315 282.591 122.222 282.145 122.222 281.622V277.455H123.765V281.384C123.765 281.798 123.879 282.128 124.106 282.372C124.333 282.616 124.631 282.739 125.001 282.739C125.228 282.739 125.448 282.683 125.661 282.572C125.874 282.462 126.049 282.297 126.185 282.078C126.325 281.857 126.394 281.58 126.394 281.247ZM129.523 284V277.455H131.019V278.545H131.087C131.206 278.168 131.411 277.876 131.701 277.672C131.993 277.464 132.327 277.361 132.702 277.361C132.787 277.361 132.882 277.365 132.988 277.374C133.096 277.379 133.185 277.389 133.256 277.403V278.822C133.191 278.8 133.087 278.78 132.945 278.763C132.806 278.743 132.671 278.733 132.54 278.733C132.259 278.733 132.006 278.794 131.782 278.916C131.56 279.036 131.385 279.202 131.257 279.415C131.13 279.628 131.066 279.874 131.066 280.152V284H129.523ZM139.454 279.185L138.048 279.338C138.008 279.196 137.939 279.062 137.839 278.938C137.743 278.812 137.612 278.712 137.447 278.635C137.282 278.558 137.081 278.52 136.842 278.52C136.521 278.52 136.251 278.589 136.032 278.729C135.816 278.868 135.71 279.048 135.713 279.27C135.71 279.46 135.779 279.615 135.922 279.734C136.066 279.854 136.305 279.952 136.637 280.028L137.754 280.267C138.373 280.401 138.833 280.612 139.135 280.902C139.439 281.192 139.592 281.571 139.595 282.04C139.592 282.452 139.471 282.815 139.233 283.131C138.997 283.443 138.669 283.687 138.248 283.864C137.828 284.04 137.345 284.128 136.799 284.128C135.998 284.128 135.353 283.96 134.865 283.625C134.376 283.287 134.085 282.817 133.991 282.214L135.495 282.07C135.564 282.365 135.708 282.588 135.93 282.739C136.152 282.889 136.44 282.964 136.795 282.964C137.162 282.964 137.456 282.889 137.677 282.739C137.902 282.588 138.014 282.402 138.014 282.18C138.014 281.993 137.941 281.838 137.797 281.716C137.654 281.594 137.433 281.5 137.132 281.435L136.015 281.2C135.387 281.07 134.923 280.849 134.622 280.54C134.321 280.227 134.172 279.832 134.174 279.355C134.172 278.952 134.281 278.602 134.502 278.307C134.727 278.009 135.038 277.778 135.436 277.616C135.836 277.452 136.298 277.369 136.821 277.369C137.588 277.369 138.191 277.533 138.632 277.859C139.075 278.186 139.349 278.628 139.454 279.185ZM143.765 284.128C143.108 284.128 142.542 283.991 142.064 283.719C141.59 283.443 141.225 283.054 140.969 282.551C140.713 282.045 140.586 281.45 140.586 280.766C140.586 280.092 140.713 279.501 140.969 278.993C141.228 278.482 141.588 278.084 142.051 277.8C142.515 277.513 143.059 277.369 143.684 277.369C144.087 277.369 144.468 277.435 144.826 277.565C145.186 277.693 145.505 277.892 145.78 278.162C146.059 278.432 146.277 278.776 146.436 279.193C146.596 279.608 146.675 280.102 146.675 280.676V281.149H141.31V280.109H145.196C145.194 279.814 145.13 279.551 145.005 279.321C144.88 279.088 144.705 278.905 144.48 278.771C144.259 278.638 144 278.571 143.705 278.571C143.39 278.571 143.113 278.648 142.874 278.801C142.635 278.952 142.449 279.151 142.316 279.398C142.185 279.642 142.118 279.911 142.115 280.203V281.111C142.115 281.491 142.185 281.818 142.324 282.091C142.463 282.361 142.658 282.568 142.908 282.713C143.158 282.855 143.451 282.926 143.786 282.926C144.01 282.926 144.213 282.895 144.395 282.832C144.577 282.767 144.735 282.672 144.868 282.547C145.002 282.422 145.103 282.267 145.171 282.082L146.611 282.244C146.52 282.625 146.347 282.957 146.091 283.241C145.838 283.523 145.515 283.741 145.12 283.898C144.725 284.051 144.273 284.128 143.765 284.128ZM154.225 277.455V278.648H150.462V277.455H154.225ZM151.391 275.886H152.934V282.031C152.934 282.239 152.965 282.398 153.028 282.509C153.093 282.616 153.178 282.69 153.283 282.73C153.388 282.77 153.505 282.79 153.633 282.79C153.729 282.79 153.817 282.783 153.897 282.768C153.979 282.754 154.042 282.741 154.085 282.73L154.344 283.936C154.262 283.964 154.144 283.996 153.991 284.03C153.84 284.064 153.656 284.084 153.437 284.089C153.05 284.101 152.702 284.043 152.393 283.915C152.083 283.784 151.837 283.582 151.656 283.31C151.477 283.037 151.388 282.696 151.391 282.287V275.886ZM155.515 284V277.455H157.058V284H155.515ZM156.291 276.526C156.047 276.526 155.836 276.445 155.66 276.283C155.484 276.118 155.396 275.92 155.396 275.69C155.396 275.457 155.484 275.26 155.66 275.098C155.836 274.933 156.047 274.851 156.291 274.851C156.538 274.851 156.748 274.933 156.922 275.098C157.098 275.26 157.186 275.457 157.186 275.69C157.186 275.92 157.098 276.118 156.922 276.283C156.748 276.445 156.538 276.526 156.291 276.526ZM161.913 277.455V278.648H158.15V277.455H161.913ZM159.079 275.886H160.621V282.031C160.621 282.239 160.653 282.398 160.715 282.509C160.781 282.616 160.866 282.69 160.971 282.73C161.076 282.77 161.192 282.79 161.32 282.79C161.417 282.79 161.505 282.783 161.585 282.768C161.667 282.754 161.729 282.741 161.772 282.73L162.032 283.936C161.95 283.964 161.832 283.996 161.678 284.03C161.528 284.064 161.343 284.084 161.124 284.089C160.738 284.101 160.39 284.043 160.08 283.915C159.771 283.784 159.525 283.582 159.343 283.31C159.164 283.037 159.076 282.696 159.079 282.287V275.886ZM164.886 275.273V284H163.343V275.273H164.886ZM169.37 284.128C168.714 284.128 168.147 283.991 167.67 283.719C167.195 283.443 166.83 283.054 166.575 282.551C166.319 282.045 166.191 281.45 166.191 280.766C166.191 280.092 166.319 279.501 166.575 278.993C166.833 278.482 167.194 278.084 167.657 277.8C168.12 277.513 168.664 277.369 169.289 277.369C169.692 277.369 170.073 277.435 170.431 277.565C170.792 277.693 171.11 277.892 171.386 278.162C171.664 278.432 171.883 278.776 172.042 279.193C172.201 279.608 172.281 280.102 172.281 280.676V281.149H166.915V280.109H170.802C170.799 279.814 170.735 279.551 170.61 279.321C170.485 279.088 170.31 278.905 170.086 278.771C169.864 278.638 169.606 278.571 169.31 278.571C168.995 278.571 168.718 278.648 168.479 278.801C168.241 278.952 168.055 279.151 167.921 279.398C167.79 279.642 167.724 279.911 167.721 280.203V281.111C167.721 281.491 167.79 281.818 167.93 282.091C168.069 282.361 168.263 282.568 168.513 282.713C168.763 282.855 169.056 282.926 169.391 282.926C169.616 282.926 169.819 282.895 170.001 282.832C170.183 282.767 170.34 282.672 170.474 282.547C170.607 282.422 170.708 282.267 170.776 282.082L172.217 282.244C172.126 282.625 171.952 282.957 171.697 283.241C171.444 283.523 171.12 283.741 170.725 283.898C170.33 284.051 169.879 284.128 169.37 284.128Z" fill="#424242"/>
<rect id="Rectangle_5" x="84" y="296" width="200" height="8" rx="4" fill="#D9D9D9"/>
<rect id="Rectangle_6" x="64.5" y="348.5" width="1311" height="67" rx="3.5" stroke="#9E9E9E"/>
<path id="H3: course title_3" d="M84.8608 376V367.273H86.4418V370.967H90.4858V367.273H92.071V376H90.4858V372.293H86.4418V376H84.8608ZM96.8374 376.119C96.2237 376.119 95.6783 376.014 95.201 375.804C94.7266 375.594 94.3516 375.301 94.076 374.926C93.8004 374.551 93.6541 374.118 93.6371 373.626H95.2393C95.2536 373.862 95.3317 374.068 95.4737 374.244C95.6158 374.418 95.8047 374.553 96.0405 374.649C96.2763 374.746 96.5405 374.794 96.8331 374.794C97.1456 374.794 97.4226 374.74 97.6641 374.632C97.9055 374.521 98.0945 374.368 98.2308 374.172C98.3672 373.976 98.4339 373.75 98.4311 373.494C98.4339 373.23 98.3658 372.997 98.2266 372.795C98.0874 372.594 97.8857 372.436 97.6214 372.322C97.3601 372.209 97.0447 372.152 96.6754 372.152H95.9041V370.933H96.6754C96.9794 370.933 97.245 370.881 97.4723 370.776C97.7024 370.67 97.8828 370.523 98.0135 370.332C98.1442 370.139 98.2081 369.916 98.2053 369.663C98.2081 369.416 98.1527 369.202 98.0391 369.02C97.9283 368.835 97.7706 368.692 97.5661 368.589C97.3643 368.487 97.1271 368.436 96.8544 368.436C96.5874 368.436 96.3402 368.484 96.1129 368.581C95.8857 368.678 95.7024 368.815 95.5632 368.994C95.424 369.17 95.3501 369.381 95.3416 369.625H93.8203C93.8317 369.136 93.9723 368.707 94.2422 368.338C94.5149 367.966 94.8786 367.676 95.3331 367.469C95.7876 367.259 96.2976 367.153 96.8629 367.153C97.4453 367.153 97.951 367.263 98.38 367.482C98.8118 367.697 99.1456 367.989 99.3814 368.355C99.6172 368.722 99.7351 369.126 99.7351 369.57C99.7379 370.061 99.593 370.473 99.3004 370.805C99.0107 371.138 98.63 371.355 98.1584 371.457V371.526C98.772 371.611 99.2422 371.838 99.5689 372.207C99.8984 372.574 100.062 373.03 100.059 373.575C100.059 374.064 99.9197 374.501 99.6413 374.888C99.3658 375.271 98.9851 375.572 98.4993 375.791C98.0163 376.01 97.4624 376.119 96.8374 376.119ZM102.489 374.952C102.23 374.952 102.009 374.861 101.824 374.679C101.64 374.494 101.549 374.273 101.551 374.014C101.549 373.759 101.64 373.54 101.824 373.358C102.009 373.176 102.23 373.085 102.489 373.085C102.739 373.085 102.956 373.176 103.141 373.358C103.328 373.54 103.424 373.759 103.426 374.014C103.424 374.187 103.378 374.345 103.29 374.487C103.205 374.629 103.091 374.743 102.949 374.828C102.81 374.911 102.657 374.952 102.489 374.952ZM102.489 370.626C102.23 370.626 102.009 370.536 101.824 370.354C101.64 370.169 101.549 369.947 101.551 369.689C101.549 369.433 101.64 369.214 101.824 369.033C102.009 368.848 102.23 368.756 102.489 368.756C102.739 368.756 102.956 368.848 103.141 369.033C103.328 369.214 103.424 369.433 103.426 369.689C103.424 369.859 103.378 370.016 103.29 370.158C103.205 370.3 103.091 370.413 102.949 370.499C102.81 370.584 102.657 370.626 102.489 370.626ZM110.851 376.128C110.197 376.128 109.636 375.984 109.168 375.697C108.702 375.411 108.342 375.014 108.089 374.509C107.839 374 107.714 373.415 107.714 372.753C107.714 372.088 107.842 371.501 108.098 370.993C108.354 370.482 108.714 370.084 109.18 369.8C109.649 369.513 110.203 369.369 110.842 369.369C111.374 369.369 111.844 369.467 112.253 369.663C112.665 369.857 112.993 370.131 113.237 370.486C113.482 370.838 113.621 371.25 113.655 371.722H112.18C112.121 371.406 111.979 371.143 111.754 370.933C111.533 370.72 111.236 370.614 110.864 370.614C110.548 370.614 110.271 370.699 110.033 370.869C109.794 371.037 109.608 371.278 109.474 371.594C109.344 371.909 109.278 372.287 109.278 372.727C109.278 373.173 109.344 373.557 109.474 373.878C109.605 374.196 109.788 374.442 110.024 374.615C110.263 374.786 110.543 374.871 110.864 374.871C111.091 374.871 111.294 374.828 111.473 374.743C111.655 374.655 111.807 374.528 111.929 374.364C112.051 374.199 112.135 373.999 112.18 373.763H113.655C113.618 374.226 113.482 374.636 113.246 374.994C113.01 375.349 112.689 375.628 112.283 375.83C111.876 376.028 111.399 376.128 110.851 376.128ZM117.777 376.128C117.137 376.128 116.583 375.987 116.115 375.706C115.646 375.425 115.282 375.031 115.024 374.526C114.768 374.02 114.64 373.429 114.64 372.753C114.64 372.077 114.768 371.484 115.024 370.976C115.282 370.467 115.646 370.072 116.115 369.791C116.583 369.51 117.137 369.369 117.777 369.369C118.416 369.369 118.97 369.51 119.439 369.791C119.907 370.072 120.27 370.467 120.525 370.976C120.784 371.484 120.913 372.077 120.913 372.753C120.913 373.429 120.784 374.02 120.525 374.526C120.27 375.031 119.907 375.425 119.439 375.706C118.97 375.987 118.416 376.128 117.777 376.128ZM117.785 374.892C118.132 374.892 118.422 374.797 118.654 374.607C118.887 374.413 119.061 374.155 119.174 373.831C119.291 373.507 119.349 373.146 119.349 372.749C119.349 372.348 119.291 371.986 119.174 371.662C119.061 371.335 118.887 371.075 118.654 370.882C118.422 370.689 118.132 370.592 117.785 370.592C117.43 370.592 117.135 370.689 116.899 370.882C116.666 371.075 116.491 371.335 116.375 371.662C116.261 371.986 116.204 372.348 116.204 372.749C116.204 373.146 116.261 373.507 116.375 373.831C116.491 374.155 116.666 374.413 116.899 374.607C117.135 374.797 117.43 374.892 117.785 374.892ZM126.394 373.247V369.455H127.937V376H126.441V374.837H126.373C126.225 375.203 125.982 375.503 125.644 375.736C125.309 375.969 124.896 376.085 124.404 376.085C123.975 376.085 123.596 375.99 123.266 375.8C122.94 375.607 122.684 375.327 122.499 374.96C122.315 374.591 122.222 374.145 122.222 373.622V369.455H123.765V373.384C123.765 373.798 123.879 374.128 124.106 374.372C124.333 374.616 124.631 374.739 125.001 374.739C125.228 374.739 125.448 374.683 125.661 374.572C125.874 374.462 126.049 374.297 126.185 374.078C126.325 373.857 126.394 373.58 126.394 373.247ZM129.523 376V369.455H131.019V370.545H131.087C131.206 370.168 131.411 369.876 131.701 369.672C131.993 369.464 132.327 369.361 132.702 369.361C132.787 369.361 132.882 369.365 132.988 369.374C133.096 369.379 133.185 369.389 133.256 369.403V370.822C133.191 370.8 133.087 370.78 132.945 370.763C132.806 370.743 132.671 370.733 132.54 370.733C132.259 370.733 132.006 370.794 131.782 370.916C131.56 371.036 131.385 371.202 131.257 371.415C131.13 371.628 131.066 371.874 131.066 372.152V376H129.523ZM139.454 371.185L138.048 371.338C138.008 371.196 137.939 371.062 137.839 370.938C137.743 370.812 137.612 370.712 137.447 370.635C137.282 370.558 137.081 370.52 136.842 370.52C136.521 370.52 136.251 370.589 136.032 370.729C135.816 370.868 135.71 371.048 135.713 371.27C135.71 371.46 135.779 371.615 135.922 371.734C136.066 371.854 136.305 371.952 136.637 372.028L137.754 372.267C138.373 372.401 138.833 372.612 139.135 372.902C139.439 373.192 139.592 373.571 139.595 374.04C139.592 374.452 139.471 374.815 139.233 375.131C138.997 375.443 138.669 375.687 138.248 375.864C137.828 376.04 137.345 376.128 136.799 376.128C135.998 376.128 135.353 375.96 134.865 375.625C134.376 375.287 134.085 374.817 133.991 374.214L135.495 374.07C135.564 374.365 135.708 374.588 135.93 374.739C136.152 374.889 136.44 374.964 136.795 374.964C137.162 374.964 137.456 374.889 137.677 374.739C137.902 374.588 138.014 374.402 138.014 374.18C138.014 373.993 137.941 373.838 137.797 373.716C137.654 373.594 137.433 373.5 137.132 373.435L136.015 373.2C135.387 373.07 134.923 372.849 134.622 372.54C134.321 372.227 134.172 371.832 134.174 371.355C134.172 370.952 134.281 370.602 134.502 370.307C134.727 370.009 135.038 369.778 135.436 369.616C135.836 369.452 136.298 369.369 136.821 369.369C137.588 369.369 138.191 369.533 138.632 369.859C139.075 370.186 139.349 370.628 139.454 371.185ZM143.765 376.128C143.108 376.128 142.542 375.991 142.064 375.719C141.59 375.443 141.225 375.054 140.969 374.551C140.713 374.045 140.586 373.45 140.586 372.766C140.586 372.092 140.713 371.501 140.969 370.993C141.228 370.482 141.588 370.084 142.051 369.8C142.515 369.513 143.059 369.369 143.684 369.369C144.087 369.369 144.468 369.435 144.826 369.565C145.186 369.693 145.505 369.892 145.78 370.162C146.059 370.432 146.277 370.776 146.436 371.193C146.596 371.608 146.675 372.102 146.675 372.676V373.149H141.31V372.109H145.196C145.194 371.814 145.13 371.551 145.005 371.321C144.88 371.088 144.705 370.905 144.48 370.771C144.259 370.638 144 370.571 143.705 370.571C143.39 370.571 143.113 370.648 142.874 370.801C142.635 370.952 142.449 371.151 142.316 371.398C142.185 371.642 142.118 371.911 142.115 372.203V373.111C142.115 373.491 142.185 373.818 142.324 374.091C142.463 374.361 142.658 374.568 142.908 374.713C143.158 374.855 143.451 374.926 143.786 374.926C144.01 374.926 144.213 374.895 144.395 374.832C144.577 374.767 144.735 374.672 144.868 374.547C145.002 374.422 145.103 374.267 145.171 374.082L146.611 374.244C146.52 374.625 146.347 374.957 146.091 375.241C145.838 375.523 145.515 375.741 145.12 375.898C144.725 376.051 144.273 376.128 143.765 376.128ZM154.225 369.455V370.648H150.462V369.455H154.225ZM151.391 367.886H152.934V374.031C152.934 374.239 152.965 374.398 153.028 374.509C153.093 374.616 153.178 374.69 153.283 374.73C153.388 374.77 153.505 374.79 153.633 374.79C153.729 374.79 153.817 374.783 153.897 374.768C153.979 374.754 154.042 374.741 154.085 374.73L154.344 375.936C154.262 375.964 154.144 375.996 153.991 376.03C153.84 376.064 153.656 376.084 153.437 376.089C153.05 376.101 152.702 376.043 152.393 375.915C152.083 375.784 151.837 375.582 151.656 375.31C151.477 375.037 151.388 374.696 151.391 374.287V367.886ZM155.515 376V369.455H157.058V376H155.515ZM156.291 368.526C156.047 368.526 155.836 368.445 155.66 368.283C155.484 368.118 155.396 367.92 155.396 367.69C155.396 367.457 155.484 367.26 155.66 367.098C155.836 366.933 156.047 366.851 156.291 366.851C156.538 366.851 156.748 366.933 156.922 367.098C157.098 367.26 157.186 367.457 157.186 367.69C157.186 367.92 157.098 368.118 156.922 368.283C156.748 368.445 156.538 368.526 156.291 368.526ZM161.913 369.455V370.648H158.15V369.455H161.913ZM159.079 367.886H160.621V374.031C160.621 374.239 160.653 374.398 160.715 374.509C160.781 374.616 160.866 374.69 160.971 374.73C161.076 374.77 161.192 374.79 161.32 374.79C161.417 374.79 161.505 374.783 161.585 374.768C161.667 374.754 161.729 374.741 161.772 374.73L162.032 375.936C161.95 375.964 161.832 375.996 161.678 376.03C161.528 376.064 161.343 376.084 161.124 376.089C160.738 376.101 160.39 376.043 160.08 375.915C159.771 375.784 159.525 375.582 159.343 375.31C159.164 375.037 159.076 374.696 159.079 374.287V367.886ZM164.886 367.273V376H163.343V367.273H164.886ZM169.37 376.128C168.714 376.128 168.147 375.991 167.67 375.719C167.195 375.443 166.83 375.054 166.575 374.551C166.319 374.045 166.191 373.45 166.191 372.766C166.191 372.092 166.319 371.501 166.575 370.993C166.833 370.482 167.194 370.084 167.657 369.8C168.12 369.513 168.664 369.369 169.289 369.369C169.692 369.369 170.073 369.435 170.431 369.565C170.792 369.693 171.11 369.892 171.386 370.162C171.664 370.432 171.883 370.776 172.042 371.193C172.201 371.608 172.281 372.102 172.281 372.676V373.149H166.915V372.109H170.802C170.799 371.814 170.735 371.551 170.61 371.321C170.485 371.088 170.31 370.905 170.086 370.771C169.864 370.638 169.606 370.571 169.31 370.571C168.995 370.571 168.718 370.648 168.479 370.801C168.241 370.952 168.055 371.151 167.921 371.398C167.79 371.642 167.724 371.911 167.721 372.203V373.111C167.721 373.491 167.79 373.818 167.93 374.091C168.069 374.361 168.263 374.568 168.513 374.713C168.763 374.855 169.056 374.926 169.391 374.926C169.616 374.926 169.819 374.895 170.001 374.832C170.183 374.767 170.34 374.672 170.474 374.547C170.607 374.422 170.708 374.267 170.776 374.082L172.217 374.244C172.126 374.625 171.952 374.957 171.697 375.241C171.444 375.523 171.12 375.741 170.725 375.898C170.33 376.051 169.879 376.128 169.37 376.128Z" fill="#424242"/>
<rect id="Rectangle_7" x="84" y="388" width="200" height="8" rx="4" fill="#D9D9D9"/>
</g>
<g id="footer">
<rect width="1440" height="50" transform="translate(0 542)" fill="#E6E6E6"/>
<rect id="Rectangle_8" x="64" y="562" width="320" height="10" rx="4" fill="#9E9E9E"/>
<rect id="Rectangle_9" x="1256" y="562" width="120" height="10" rx="4" fill="#9E9E9E"/>
</g>
</g>
<rect x="0.5" y="0.5" width="1439" height="591" stroke="#9E9E9E"/>
</g>
</g>
<defs>
<clipPath id="clip0_10_9">
<rect width="1440" height="592" fill="white"/>
</clipPath>
<clipPath id="clip1_10_9">
<rect width="74" height="20" fill="white" transform="translate(64 26)"/>
</clipPath>
<clipPath id="clip2_10_9">
<rect width="195" height="32" fill="white" transform="translate(1181 20)"/>
</clipPath>
</defs>
</svg>
