<?xml version="1.0" encoding="UTF-8" standalone="no"?>
<!DOCTYPE svg PUBLIC "-//W3C//DTD SVG 1.1//EN"
 "http://www.w3.org/Graphics/SVG/1.1/DTD/svg11.dtd">
<!-- Generated by graphviz version 12.1.2 (20240928.0832)
 -->
<!-- Title: public.reset_tokens Pages: 1 -->
<svg width="419pt" height="848pt"
 viewBox="0.00 0.00 418.90 848.40" xmlns="http://www.w3.org/2000/svg" xmlns:xlink="http://www.w3.org/1999/xlink">
<g id="graph0" class="graph" transform="scale(1 1) rotate(0) translate(4 844.4)">
<title>public.reset_tokens</title>
<polygon fill="white" stroke="none" points="-4,4 -4,-844.4 414.9,-844.4 414.9,4 -4,4"/>
<!-- public.reset_tokens -->
<g id="node1" class="node">
<title>public.reset_tokens</title>
<polygon fill="#efefef" stroke="none" points="66.47,-758.6 66.47,-794.2 344.42,-794.2 344.42,-758.6 66.47,-758.6"/>
<polygon fill="none" stroke="black" points="66.47,-758.6 66.47,-794.2 344.42,-794.2 344.42,-758.6 66.47,-758.6"/>
<text text-anchor="start" x="73.47" y="-772" font-family="Arial Bold" font-size="18.00">public.reset_tokens</text>
<text text-anchor="start" x="212.94" y="-772" font-family="Arial" font-size="14.00">    </text>
<text text-anchor="start" x="244.05" y="-772" font-family="Arial" font-size="14.00" fill="#666666">[BASE TABLE]</text>
<polygon fill="none" stroke="black" points="66.47,-727.8 66.47,-758.6 344.42,-758.6 344.42,-727.8 66.47,-727.8"/>
<text text-anchor="start" x="73.47" y="-740" font-family="Arial" font-size="14.00">token_id </text>
<text text-anchor="start" x="130.29" y="-740" font-family="Arial" font-size="14.00" fill="#666666">[bigint]</text>
<polygon fill="none" stroke="black" points="66.47,-697 66.47,-727.8 344.42,-727.8 344.42,-697 66.47,-697"/>
<text text-anchor="start" x="73.47" y="-709.2" font-family="Arial" font-size="14.00">token </text>
<text text-anchor="start" x="111.61" y="-709.2" font-family="Arial" font-size="14.00" fill="#666666">[varchar(255)]</text>
<polygon fill="none" stroke="black" points="66.47,-666.2 66.47,-697 344.42,-697 344.42,-666.2 66.47,-666.2"/>
<text text-anchor="start" x="73.47" y="-678.4" font-family="Arial" font-size="14.00">expires_at </text>
<text text-anchor="start" x="141.95" y="-678.4" font-family="Arial" font-size="14.00" fill="#666666">[timestamp with time zone]</text>
<polygon fill="none" stroke="black" points="66.47,-635.4 66.47,-666.2 344.42,-666.2 344.42,-635.4 66.47,-635.4"/>
<text text-anchor="start" x="73.47" y="-647.6" font-family="Arial" font-size="14.00">used_at </text>
<text text-anchor="start" x="127.18" y="-647.6" font-family="Arial" font-size="14.00" fill="#666666">[timestamp with time zone]</text>
<polygon fill="none" stroke="black" points="66.47,-604.6 66.47,-635.4 344.42,-635.4 344.42,-604.6 66.47,-604.6"/>
<text text-anchor="start" x="73.47" y="-616.8" font-family="Arial" font-size="14.00">ip_address </text>
<text text-anchor="start" x="145.85" y="-616.8" font-family="Arial" font-size="14.00" fill="#666666">[inet]</text>
<polygon fill="none" stroke="black" points="66.47,-573.8 66.47,-604.6 344.42,-604.6 344.42,-573.8 66.47,-573.8"/>
<text text-anchor="start" x="73.47" y="-586" font-family="Arial" font-size="14.00">user_id </text>
<text text-anchor="start" x="123.28" y="-586" font-family="Arial" font-size="14.00" fill="#666666">[uuid]</text>
<polygon fill="none" stroke="black" stroke-width="3" points="64.97,-572.3 64.97,-795.7 345.92,-795.7 345.92,-572.3 64.97,-572.3"/>
</g>
<!-- public.users -->
<g id="node2" class="node">
<title>public.users</title>
<polygon fill="#efefef" stroke="none" points="43.2,-412.8 43.2,-448.4 367.7,-448.4 367.7,-412.8 43.2,-412.8"/>
<polygon fill="none" stroke="black" points="43.2,-412.8 43.2,-448.4 367.7,-448.4 367.7,-412.8 43.2,-412.8"/>
<text text-anchor="start" x="99.96" y="-426.2" font-family="Arial Bold" font-size="18.00">public.users</text>
<text text-anchor="start" x="186.45" y="-426.2" font-family="Arial" font-size="14.00">    </text>
<text text-anchor="start" x="217.56" y="-426.2" font-family="Arial" font-size="14.00" fill="#666666">[BASE TABLE]</text>
<polygon fill="none" stroke="black" points="43.2,-382 43.2,-412.8 367.7,-412.8 367.7,-382 43.2,-382"/>
<text text-anchor="start" x="50.2" y="-394.2" font-family="Arial" font-size="14.00">user_id </text>
<text text-anchor="start" x="100.01" y="-394.2" font-family="Arial" font-size="14.00" fill="#666666">[uuid]</text>
<polygon fill="none" stroke="black" points="43.2,-351.2 43.2,-382 367.7,-382 367.7,-351.2 43.2,-351.2"/>
<text text-anchor="start" x="50.2" y="-363.4" font-family="Arial" font-size="14.00">username </text>
<text text-anchor="start" x="116.34" y="-363.4" font-family="Arial" font-size="14.00" fill="#666666">[varchar(50)]</text>
<polygon fill="none" stroke="black" points="43.2,-320.4 43.2,-351.2 367.7,-351.2 367.7,-320.4 43.2,-320.4"/>
<text text-anchor="start" x="50.2" y="-332.6" font-family="Arial" font-size="14.00">email </text>
<text text-anchor="start" x="87.54" y="-332.6" font-family="Arial" font-size="14.00" fill="#666666">[varchar(255)]</text>
<polygon fill="none" stroke="black" points="43.2,-289.6 43.2,-320.4 367.7,-320.4 367.7,-289.6 43.2,-289.6"/>
<text text-anchor="start" x="50.2" y="-301.8" font-family="Arial" font-size="14.00">password </text>
<text text-anchor="start" x="114.01" y="-301.8" font-family="Arial" font-size="14.00" fill="#666666">[varchar(255)]</text>
<polygon fill="none" stroke="black" points="43.2,-258.8 43.2,-289.6 367.7,-289.6 367.7,-258.8 43.2,-258.8"/>
<text text-anchor="start" x="50.2" y="-271" font-family="Arial" font-size="14.00">first_name </text>
<text text-anchor="start" x="119.45" y="-271" font-family="Arial" font-size="14.00" fill="#666666">[varchar(100)]</text>
<polygon fill="none" stroke="black" points="43.2,-228 43.2,-258.8 367.7,-258.8 367.7,-228 43.2,-228"/>
<text text-anchor="start" x="50.2" y="-240.2" font-family="Arial" font-size="14.00">last_name </text>
<text text-anchor="start" x="118.68" y="-240.2" font-family="Arial" font-size="14.00" fill="#666666">[varchar(100)]</text>
<polygon fill="none" stroke="black" points="43.2,-197.2 43.2,-228 367.7,-228 367.7,-197.2 43.2,-197.2"/>
<text text-anchor="start" x="50.2" y="-209.4" font-family="Arial" font-size="14.00">is_active </text>
<text text-anchor="start" x="108.56" y="-209.4" font-family="Arial" font-size="14.00" fill="#666666">[boolean]</text>
<polygon fill="none" stroke="black" points="43.2,-166.4 43.2,-197.2 367.7,-197.2 367.7,-166.4 43.2,-166.4"/>
<text text-anchor="start" x="50.2" y="-178.6" font-family="Arial" font-size="14.00">is_verified </text>
<text text-anchor="start" x="117.12" y="-178.6" font-family="Arial" font-size="14.00" fill="#666666">[boolean]</text>
<polygon fill="none" stroke="black" points="43.2,-135.6 43.2,-166.4 367.7,-166.4 367.7,-135.6 43.2,-135.6"/>
<text text-anchor="start" x="50.2" y="-147.8" font-family="Arial" font-size="14.00">is_locked </text>
<text text-anchor="start" x="112.45" y="-147.8" font-family="Arial" font-size="14.00" fill="#666666">[boolean]</text>
<polygon fill="none" stroke="black" points="43.2,-104.8 43.2,-135.6 367.7,-135.6 367.7,-104.8 43.2,-104.8"/>
<text text-anchor="start" x="50.2" y="-117" font-family="Arial" font-size="14.00">failed_login_attempts </text>
<text text-anchor="start" x="186.4" y="-117" font-family="Arial" font-size="14.00" fill="#666666">[integer]</text>
<polygon fill="none" stroke="black" points="43.2,-74 43.2,-104.8 367.7,-104.8 367.7,-74 43.2,-74"/>
<text text-anchor="start" x="50.2" y="-86.2" font-family="Arial" font-size="14.00">last_login_at </text>
<text text-anchor="start" x="132.7" y="-86.2" font-family="Arial" font-size="14.00" fill="#666666">[timestamp with time zone]</text>
<polygon fill="none" stroke="black" points="43.2,-43.2 43.2,-74 367.7,-74 367.7,-43.2 43.2,-43.2"/>
<text text-anchor="start" x="50.2" y="-55.4" font-family="Arial" font-size="14.00">password_changed_at </text>
<text text-anchor="start" x="194.97" y="-55.4" font-family="Arial" font-size="14.00" fill="#666666">[timestamp with time zone]</text>
</g>
<!-- public.reset_tokens&#45;&gt;public.users -->
<g id="edge1" class="edge">
<title>public.reset_tokens:user_id&#45;&gt;public.users:user_id</title>
<path fill="none" stroke="black" d="M206.22,-562.41C216.48,-498.22 326.95,-556.77 367.7,-491.6 389.89,-456.1 410.56,-397.4 368.7,-397.4"/>
<polygon fill="black" stroke="black" points="206.21,-562.49 200.98,-572.13 205.82,-567.81 205.5,-572.13 205.5,-572.13 205.5,-572.13 205.82,-567.81 209.96,-572.8 206.21,-562.49"/>
</g>
</g>
</svg>
